G04 #@! TF.FileFunction,Copper,L1,Top,Signal*
%FSLAX46Y46*%
G04 Gerber Fmt 4.6, Leading zero omitted, Abs format (unit mm)*
G04 Created by KiCad (PCBNEW 4.0.7) date 08/30/18 17:20:36*
%MOMM*%
%LPD*%
G01*
G04 APERTURE LIST*
%ADD10C,0.100000*%
%ADD11C,1.998980*%
%ADD12R,1.998980X1.998980*%
%ADD13R,0.500000X1.000000*%
%ADD14R,1.000000X1.000000*%
%ADD15C,1.800000*%
%ADD16R,2.499360X1.198880*%
%ADD17R,3.000000X1.500000*%
%ADD18C,2.500000*%
%ADD19C,3.987810*%
%ADD20C,1.701810*%
%ADD21C,1.651000*%
%ADD22R,1.752600X1.752600*%
%ADD23C,1.752600*%
%ADD24R,1.524000X1.524000*%
%ADD25C,1.524000*%
%ADD26C,8.000000*%
%ADD27C,0.600000*%
%ADD28C,0.250000*%
%ADD29C,0.254000*%
G04 APERTURE END LIST*
D10*
D11*
X146060000Y-56247460D03*
D12*
X137500000Y-56250000D03*
D10*
G36*
X96261000Y-39479676D02*
X96760924Y-39979600D01*
X96261000Y-40479524D01*
X95761076Y-39979600D01*
X96261000Y-39479676D01*
X96261000Y-39479676D01*
G37*
G36*
X97401050Y-39479600D02*
X96901050Y-39979600D01*
X96900950Y-39979600D01*
X96400950Y-39479600D01*
X97401050Y-39479600D01*
X97401050Y-39479600D01*
G37*
G36*
X96400950Y-40479600D02*
X96900950Y-39979600D01*
X96901050Y-39979600D01*
X97401050Y-40479600D01*
X96400950Y-40479600D01*
X96400950Y-40479600D01*
G37*
D13*
X97151000Y-39979600D03*
D14*
X95759800Y-39995000D03*
D11*
X69860000Y-75447460D03*
D12*
X59700000Y-75447460D03*
D11*
X125410000Y-94497460D03*
D12*
X115250000Y-94497460D03*
D11*
X93247460Y-42090000D03*
D12*
X93247460Y-52250000D03*
D11*
X93047460Y-60990000D03*
D12*
X93047460Y-71150000D03*
D11*
X112247460Y-61140000D03*
D12*
X112247460Y-71300000D03*
D11*
X131250000Y-63000000D03*
D12*
X131297460Y-71550000D03*
D11*
X93147460Y-98940000D03*
D12*
X93147460Y-109100000D03*
D11*
X147160000Y-94497460D03*
D12*
X137000000Y-94497460D03*
D11*
X145760000Y-75347460D03*
D12*
X135600000Y-75347460D03*
D11*
X131247460Y-100340000D03*
D12*
X131247460Y-110500000D03*
D11*
X112147460Y-99040000D03*
D12*
X112147460Y-109200000D03*
D11*
X112297460Y-80240000D03*
D12*
X112297460Y-90400000D03*
D11*
X93247460Y-80240000D03*
D12*
X93247460Y-90400000D03*
D11*
X74047460Y-79790000D03*
D12*
X74047460Y-89950000D03*
D11*
X74097460Y-99240000D03*
D12*
X74097460Y-109400000D03*
D11*
X54997460Y-100090000D03*
D12*
X54997460Y-110250000D03*
D11*
X54997460Y-78590000D03*
D12*
X54997460Y-88750000D03*
D11*
X39890000Y-75402540D03*
D12*
X50050000Y-75402540D03*
D11*
X40790000Y-56352540D03*
D12*
X50950000Y-56352540D03*
D11*
X78390000Y-56352540D03*
D12*
X88550000Y-56352540D03*
D11*
X125000000Y-56250000D03*
D12*
X116750000Y-56297460D03*
D15*
X131318000Y-44599860D03*
D16*
X128069340Y-47302420D03*
X134566660Y-42202100D03*
X134566660Y-39202360D03*
X134566660Y-46202600D03*
D17*
X127403860Y-77025500D03*
X127391160Y-73967340D03*
X127447040Y-71069200D03*
D15*
X131320540Y-37599620D03*
D17*
X51412140Y-49842420D03*
X51437540Y-52565300D03*
X71211440Y-69585840D03*
D11*
X112197460Y-42090000D03*
D12*
X112197460Y-52250000D03*
D18*
X138250276Y-41770672D02*
X138289724Y-42349328D01*
X143940184Y-42849693D02*
X144749816Y-44310307D01*
D19*
X140750000Y-46850000D03*
D20*
X145830000Y-46850000D03*
D18*
X137750453Y-42850046D02*
X136939547Y-44309954D01*
X143289724Y-41770672D02*
X143250276Y-42349328D01*
X119200276Y-41770672D02*
X119239724Y-42349328D01*
X124890184Y-42849693D02*
X125699816Y-44310307D01*
D19*
X121700000Y-46850000D03*
D20*
X116620000Y-46850000D03*
D18*
X118700453Y-42850046D02*
X117889547Y-44309954D01*
X124239724Y-41770672D02*
X124200276Y-42349328D01*
D11*
X131247460Y-77840000D03*
D12*
X131247460Y-88000000D03*
D21*
X101480000Y-56300000D03*
X91320000Y-56300000D03*
X103970000Y-56300000D03*
X114130000Y-56300000D03*
D18*
X43000276Y-41770672D02*
X43039724Y-42349328D01*
X48690184Y-42849693D02*
X49499816Y-44310307D01*
D19*
X45500000Y-46850000D03*
D20*
X40420000Y-46850000D03*
X50580000Y-46850000D03*
D18*
X42500453Y-42850046D02*
X41689547Y-44309954D01*
X48039724Y-41770672D02*
X48000276Y-42349328D01*
X43050276Y-60870672D02*
X43089724Y-61449328D01*
X48740184Y-61949693D02*
X49549816Y-63410307D01*
D19*
X45550000Y-65950000D03*
D20*
X40470000Y-65950000D03*
X50630000Y-65950000D03*
D18*
X42550453Y-61950046D02*
X41739547Y-63409954D01*
X48089724Y-60870672D02*
X48050276Y-61449328D01*
X43000276Y-79920672D02*
X43039724Y-80499328D01*
X48690184Y-80999693D02*
X49499816Y-82460307D01*
D19*
X45500000Y-85000000D03*
D20*
X40420000Y-85000000D03*
X50580000Y-85000000D03*
D18*
X42500453Y-81000046D02*
X41689547Y-82459954D01*
X48039724Y-79920672D02*
X48000276Y-80499328D01*
X43000276Y-99070672D02*
X43039724Y-99649328D01*
X48690184Y-100149693D02*
X49499816Y-101610307D01*
D19*
X45500000Y-104150000D03*
D20*
X40420000Y-104150000D03*
X50580000Y-104150000D03*
D18*
X42500453Y-100150046D02*
X41689547Y-101609954D01*
X48039724Y-99070672D02*
X48000276Y-99649328D01*
X62050276Y-41770672D02*
X62089724Y-42349328D01*
X67740184Y-42849693D02*
X68549816Y-44310307D01*
D19*
X64550000Y-46850000D03*
D20*
X59470000Y-46850000D03*
X69630000Y-46850000D03*
D18*
X61550453Y-42850046D02*
X60739547Y-44309954D01*
X67089724Y-41770672D02*
X67050276Y-42349328D01*
X62050276Y-60820672D02*
X62089724Y-61399328D01*
X67740184Y-61899693D02*
X68549816Y-63360307D01*
D19*
X64550000Y-65900000D03*
D20*
X59470000Y-65900000D03*
X69630000Y-65900000D03*
D18*
X61550453Y-61900046D02*
X60739547Y-63359954D01*
X67089724Y-60820672D02*
X67050276Y-61399328D01*
X62050276Y-79870672D02*
X62089724Y-80449328D01*
X67740184Y-80949693D02*
X68549816Y-82410307D01*
D19*
X64550000Y-84950000D03*
D20*
X59470000Y-84950000D03*
X69630000Y-84950000D03*
D18*
X61550453Y-80950046D02*
X60739547Y-82409954D01*
X67089724Y-79870672D02*
X67050276Y-80449328D01*
X62050276Y-98920672D02*
X62089724Y-99499328D01*
X67740184Y-99999693D02*
X68549816Y-101460307D01*
D19*
X64550000Y-104000000D03*
D20*
X59470000Y-104000000D03*
X69630000Y-104000000D03*
D18*
X61550453Y-100000046D02*
X60739547Y-101459954D01*
X67089724Y-98920672D02*
X67050276Y-99499328D01*
X81100276Y-41770672D02*
X81139724Y-42349328D01*
X86790184Y-42849693D02*
X87599816Y-44310307D01*
D19*
X83600000Y-46850000D03*
D20*
X78520000Y-46850000D03*
X88680000Y-46850000D03*
D18*
X80600453Y-42850046D02*
X79789547Y-44309954D01*
X86139724Y-41770672D02*
X86100276Y-42349328D01*
X81100276Y-60820672D02*
X81139724Y-61399328D01*
X86790184Y-61899693D02*
X87599816Y-63360307D01*
D19*
X83600000Y-65900000D03*
D20*
X78520000Y-65900000D03*
X88680000Y-65900000D03*
D18*
X80600453Y-61900046D02*
X79789547Y-63359954D01*
X86139724Y-60820672D02*
X86100276Y-61399328D01*
X81100276Y-79870672D02*
X81139724Y-80449328D01*
X86790184Y-80949693D02*
X87599816Y-82410307D01*
D19*
X83600000Y-84950000D03*
D20*
X78520000Y-84950000D03*
X88680000Y-84950000D03*
D18*
X80600453Y-80950046D02*
X79789547Y-82409954D01*
X86139724Y-79870672D02*
X86100276Y-80449328D01*
X81100276Y-98920672D02*
X81139724Y-99499328D01*
X86790184Y-99999693D02*
X87599816Y-101460307D01*
D19*
X83600000Y-104000000D03*
D20*
X78520000Y-104000000D03*
X88680000Y-104000000D03*
D18*
X80600453Y-100000046D02*
X79789547Y-101459954D01*
X86139724Y-98920672D02*
X86100276Y-99499328D01*
X100150276Y-41770672D02*
X100189724Y-42349328D01*
X105840184Y-42849693D02*
X106649816Y-44310307D01*
D19*
X102650000Y-46850000D03*
D20*
X97570000Y-46850000D03*
X107730000Y-46850000D03*
D18*
X99650453Y-42850046D02*
X98839547Y-44309954D01*
X105189724Y-41770672D02*
X105150276Y-42349328D01*
X100150276Y-60820672D02*
X100189724Y-61399328D01*
X105840184Y-61899693D02*
X106649816Y-63360307D01*
D19*
X102650000Y-65900000D03*
D20*
X97570000Y-65900000D03*
X107730000Y-65900000D03*
D18*
X99650453Y-61900046D02*
X98839547Y-63359954D01*
X105189724Y-60820672D02*
X105150276Y-61399328D01*
X100150276Y-79870672D02*
X100189724Y-80449328D01*
X105840184Y-80949693D02*
X106649816Y-82410307D01*
D19*
X102650000Y-84950000D03*
D20*
X97570000Y-84950000D03*
X107730000Y-84950000D03*
D18*
X99650453Y-80950046D02*
X98839547Y-82409954D01*
X105189724Y-79870672D02*
X105150276Y-80449328D01*
X100150276Y-98920672D02*
X100189724Y-99499328D01*
X105840184Y-99999693D02*
X106649816Y-101460307D01*
D19*
X102650000Y-104000000D03*
D20*
X97570000Y-104000000D03*
X107730000Y-104000000D03*
D18*
X99650453Y-100000046D02*
X98839547Y-101459954D01*
X105189724Y-98920672D02*
X105150276Y-99499328D01*
X119200276Y-60820672D02*
X119239724Y-61399328D01*
X124890184Y-61899693D02*
X125699816Y-63360307D01*
D19*
X121700000Y-65900000D03*
D20*
X116620000Y-65900000D03*
X126780000Y-65900000D03*
D18*
X118700453Y-61900046D02*
X117889547Y-63359954D01*
X124239724Y-60820672D02*
X124200276Y-61399328D01*
X119200276Y-79870672D02*
X119239724Y-80449328D01*
X124890184Y-80949693D02*
X125699816Y-82410307D01*
D19*
X121700000Y-84950000D03*
D20*
X116620000Y-84950000D03*
X126780000Y-84950000D03*
D18*
X118700453Y-80950046D02*
X117889547Y-82409954D01*
X124239724Y-79870672D02*
X124200276Y-80449328D01*
X119200276Y-98920672D02*
X119239724Y-99499328D01*
X124890184Y-99999693D02*
X125699816Y-101460307D01*
D19*
X121700000Y-104000000D03*
D20*
X116620000Y-104000000D03*
X126780000Y-104000000D03*
D18*
X118700453Y-100000046D02*
X117889547Y-101459954D01*
X124239724Y-98920672D02*
X124200276Y-99499328D01*
X138250276Y-60820672D02*
X138289724Y-61399328D01*
X143940184Y-61899693D02*
X144749816Y-63360307D01*
D19*
X140750000Y-65900000D03*
D20*
X135670000Y-65900000D03*
X145830000Y-65900000D03*
D18*
X137750453Y-61900046D02*
X136939547Y-63359954D01*
X143289724Y-60820672D02*
X143250276Y-61399328D01*
X138250276Y-79870672D02*
X138289724Y-80449328D01*
X143940184Y-80949693D02*
X144749816Y-82410307D01*
D19*
X140750000Y-84950000D03*
D20*
X135670000Y-84950000D03*
X145830000Y-84950000D03*
D18*
X137750453Y-80950046D02*
X136939547Y-82409954D01*
X143289724Y-79870672D02*
X143250276Y-80449328D01*
X138250276Y-98920672D02*
X138289724Y-99499328D01*
X143940184Y-99999693D02*
X144749816Y-101460307D01*
D19*
X140750000Y-104000000D03*
D20*
X135670000Y-104000000D03*
X145830000Y-104000000D03*
D18*
X137750453Y-100000046D02*
X136939547Y-101459954D01*
X143289724Y-98920672D02*
X143250276Y-99499328D01*
D22*
X72170000Y-35780000D03*
D23*
X72170000Y-38320000D03*
X72170000Y-40860000D03*
X72170000Y-43400000D03*
X72170000Y-45940000D03*
X72170000Y-48480000D03*
X72170000Y-51020000D03*
X72170000Y-53560000D03*
X72170000Y-56100000D03*
X72170000Y-58640000D03*
X72170000Y-61180000D03*
X72170000Y-63720000D03*
X56930000Y-63720000D03*
X56930000Y-61180000D03*
X56930000Y-58640000D03*
X56930000Y-56100000D03*
X56930000Y-53560000D03*
X56930000Y-51020000D03*
X56930000Y-48480000D03*
X56930000Y-40860000D03*
X56930000Y-38320000D03*
X56930000Y-35780000D03*
X56930000Y-45940000D03*
X56930000Y-43400000D03*
D24*
X137400000Y-53100000D03*
X137400000Y-51100000D03*
X137400000Y-49100000D03*
D25*
X137410000Y-51110000D03*
X137390000Y-49100000D03*
X137410000Y-53110000D03*
D24*
X125650000Y-53000000D03*
X125650000Y-51000000D03*
X125650000Y-49000000D03*
D25*
X125660000Y-51010000D03*
X125640000Y-49000000D03*
X125660000Y-53010000D03*
D26*
X55000000Y-94500000D03*
X131350000Y-94550000D03*
X131200000Y-56450000D03*
X51850000Y-37300000D03*
D27*
X132588000Y-42227500D03*
X132651500Y-46215300D03*
X56959500Y-74168000D03*
X57975500Y-74295000D03*
X123888500Y-70675500D03*
X129730500Y-47307500D03*
X125158500Y-71691500D03*
X82704940Y-52638960D03*
X70672960Y-49728120D03*
X126123700Y-46189900D03*
X107505500Y-49720500D03*
X98234500Y-39941500D03*
X97091500Y-41211500D03*
X79415640Y-70324980D03*
X82864960Y-70309740D03*
X130365500Y-48006000D03*
X129921000Y-39116000D03*
X130365500Y-39116000D03*
X127889000Y-50355500D03*
X94424500Y-39941500D03*
X61976000Y-74168000D03*
X81109820Y-53558440D03*
X99187000Y-53403500D03*
X119189500Y-54927500D03*
X99504500Y-58102500D03*
X96837500Y-58102500D03*
X94805500Y-58102500D03*
X118554500Y-58102500D03*
X129667000Y-73723500D03*
X83566000Y-57086500D03*
X76390500Y-38100000D03*
D28*
X132588000Y-42227500D02*
X132613400Y-42202100D01*
X132613400Y-42202100D02*
X134566660Y-42202100D01*
X132651500Y-46215300D02*
X132664200Y-46202600D01*
X132664200Y-46202600D02*
X134566660Y-46202600D01*
X129500000Y-58000000D02*
X129500000Y-57950000D01*
X129500000Y-57950000D02*
X129350000Y-57800000D01*
X88550000Y-56352540D02*
X88550000Y-53182000D01*
X89482000Y-52250000D02*
X93247460Y-52250000D01*
X88550000Y-53182000D02*
X89482000Y-52250000D01*
X93247460Y-52250000D02*
X112197460Y-52250000D01*
X88550000Y-56352540D02*
X89144920Y-56352540D01*
X56930000Y-56100000D02*
X69750000Y-56100000D01*
X86852540Y-58050000D02*
X88550000Y-56352540D01*
X77600000Y-58050000D02*
X86852540Y-58050000D01*
X74350000Y-54800000D02*
X77600000Y-58050000D01*
X71050000Y-54800000D02*
X74350000Y-54800000D01*
X69750000Y-56100000D02*
X71050000Y-54800000D01*
X49145000Y-62680000D02*
X49145000Y-66147540D01*
X49145000Y-66147540D02*
X39890000Y-75402540D01*
X131802540Y-71550000D02*
X135600000Y-75347460D01*
X113887960Y-69659500D02*
X112247460Y-71300000D01*
X93047460Y-71150000D02*
X112097460Y-71150000D01*
X112097460Y-71150000D02*
X112497460Y-71550000D01*
X59700000Y-75447460D02*
X63352540Y-75447460D01*
X67650000Y-71150000D02*
X93047460Y-71150000D01*
X63352540Y-75447460D02*
X67650000Y-71150000D01*
X56930000Y-58640000D02*
X56860000Y-58640000D01*
X56860000Y-58640000D02*
X53100000Y-62400000D01*
X53100000Y-62400000D02*
X53100000Y-72352540D01*
X53100000Y-72352540D02*
X50050000Y-75402540D01*
X50050000Y-75402540D02*
X59655080Y-75402540D01*
X59655080Y-75402540D02*
X59700000Y-75447460D01*
X129413000Y-69659500D02*
X113887960Y-69659500D01*
X131297460Y-71543960D02*
X129413000Y-69659500D01*
X131297460Y-71550000D02*
X131297460Y-71543960D01*
X54546500Y-71755000D02*
X54546500Y-63563500D01*
X54546500Y-63563500D02*
X56930000Y-61180000D01*
X56959500Y-74168000D02*
X54546500Y-71755000D01*
X131247460Y-88000000D02*
X114697460Y-88000000D01*
X114697460Y-88000000D02*
X112297460Y-90400000D01*
X137000000Y-94497460D02*
X137000000Y-93752540D01*
X137000000Y-93752540D02*
X131247460Y-88000000D01*
X54997460Y-88750000D02*
X62500000Y-88750000D01*
X63700000Y-89950000D02*
X74047460Y-89950000D01*
X62500000Y-88750000D02*
X63700000Y-89950000D01*
X112447460Y-90250000D02*
X112297460Y-90400000D01*
X112297460Y-90400000D02*
X74497460Y-90400000D01*
X74497460Y-90400000D02*
X73997460Y-89900000D01*
X55753000Y-70675500D02*
X57975500Y-72898000D01*
X57975500Y-72898000D02*
X57975500Y-74295000D01*
X55753000Y-64833500D02*
X55753000Y-70675500D01*
X56866500Y-63720000D02*
X55753000Y-64833500D01*
X56930000Y-63720000D02*
X56866500Y-63720000D01*
X131247460Y-110500000D02*
X115750000Y-110500000D01*
X114450000Y-109200000D02*
X112147460Y-109200000D01*
X115750000Y-110500000D02*
X114450000Y-109200000D01*
X54997460Y-110250000D02*
X73247460Y-110250000D01*
X73247460Y-110250000D02*
X74097460Y-109400000D01*
X93147460Y-109100000D02*
X74397460Y-109100000D01*
X74397460Y-109100000D02*
X74097460Y-109400000D01*
X112147460Y-109200000D02*
X93247460Y-109200000D01*
X93247460Y-109200000D02*
X93147460Y-109100000D01*
X112197460Y-109250000D02*
X112147460Y-109200000D01*
X74129900Y-44627800D02*
X69192800Y-44627800D01*
X69192800Y-44627800D02*
X68145000Y-43580000D01*
X75120500Y-45618400D02*
X74129900Y-44627800D01*
X75120500Y-53070760D02*
X75120500Y-45618400D01*
X78390000Y-56340260D02*
X75120500Y-53070760D01*
X78390000Y-56352540D02*
X78390000Y-56340260D01*
X93247460Y-42090000D02*
X86150000Y-42090000D01*
X86150000Y-42090000D02*
X86120000Y-42060000D01*
X86120000Y-42060000D02*
X87195000Y-43580000D01*
X112197460Y-42090000D02*
X105200000Y-42090000D01*
X105200000Y-42090000D02*
X105170000Y-42060000D01*
X105170000Y-42060000D02*
X106245000Y-43580000D01*
X131250000Y-63000000D02*
X125665000Y-63000000D01*
X125665000Y-63000000D02*
X125295000Y-62630000D01*
X131247460Y-100340000D02*
X125685000Y-100340000D01*
X125685000Y-100340000D02*
X125295000Y-100730000D01*
X124340000Y-99090000D02*
X124220000Y-99210000D01*
X124220000Y-99210000D02*
X125295000Y-100730000D01*
X137410000Y-53110000D02*
X138977500Y-53110000D01*
X137410000Y-53110000D02*
X137410000Y-54542500D01*
X137410000Y-53110000D02*
X135612000Y-53110000D01*
X127266500Y-53010000D02*
X127381000Y-52895500D01*
X125660000Y-53010000D02*
X127266500Y-53010000D01*
X125660000Y-53010000D02*
X125660000Y-54476500D01*
X125660000Y-53010000D02*
X123901000Y-53010000D01*
X123888500Y-70675500D02*
X123888500Y-77025500D01*
X123888500Y-77025500D02*
X127381000Y-77025500D01*
X129730500Y-47307500D02*
X129725420Y-47302420D01*
X129725420Y-47302420D02*
X128069340Y-47302420D01*
X117602000Y-50927000D02*
X114130000Y-54399000D01*
X114130000Y-54399000D02*
X114130000Y-56300000D01*
X122555000Y-50927000D02*
X117602000Y-50927000D01*
X124482000Y-49000000D02*
X122555000Y-50927000D01*
X125640000Y-49000000D02*
X124482000Y-49000000D01*
X125158500Y-71691500D02*
X125666500Y-71183500D01*
X125666500Y-71183500D02*
X127381000Y-71183500D01*
X125650000Y-49000000D02*
X127750000Y-49000000D01*
X136500000Y-50000000D02*
X137400000Y-49100000D01*
X128750000Y-50000000D02*
X136500000Y-50000000D01*
X127750000Y-49000000D02*
X128750000Y-50000000D01*
X114130000Y-56300000D02*
X114130000Y-56120000D01*
X87101680Y-52638960D02*
X90020140Y-49720500D01*
X90020140Y-49720500D02*
X107505500Y-49720500D01*
X82704940Y-52638960D02*
X87101680Y-52638960D01*
X63350000Y-49750000D02*
X70651080Y-49750000D01*
X70651080Y-49750000D02*
X70672960Y-49728120D01*
X107505500Y-49720500D02*
X122261482Y-49720500D01*
X122261482Y-49720500D02*
X125792082Y-46189900D01*
X125792082Y-46189900D02*
X126123700Y-46189900D01*
X107505500Y-49720500D02*
X107500000Y-49726000D01*
X107500000Y-49726000D02*
X107500000Y-49750000D01*
X63450000Y-49750000D02*
X59250000Y-49750000D01*
X57980000Y-48480000D02*
X56930000Y-48480000D01*
X59250000Y-49750000D02*
X57980000Y-48480000D01*
X63350000Y-49750000D02*
X63450000Y-49750000D01*
X98234500Y-39941500D02*
X98196400Y-39979600D01*
X98196400Y-39979600D02*
X97151000Y-39979600D01*
X97091500Y-41211500D02*
X97151000Y-41152000D01*
X97151000Y-41152000D02*
X97151000Y-39979600D01*
X72557640Y-70324980D02*
X71958200Y-69725540D01*
X79415640Y-70324980D02*
X72557640Y-70324980D01*
X82864960Y-70309740D02*
X79430880Y-70309740D01*
X79430880Y-70309740D02*
X79415640Y-70324980D01*
X130464560Y-42692320D02*
X130464560Y-39659560D01*
X130464560Y-39659560D02*
X129921000Y-39116000D01*
X129661920Y-43494960D02*
X130464560Y-42692320D01*
X129661920Y-45140880D02*
X129661920Y-43494960D01*
X130365500Y-45844460D02*
X129661920Y-45140880D01*
X130365500Y-48006000D02*
X130365500Y-45844460D01*
X130365500Y-39116000D02*
X129921000Y-39116000D01*
X134493000Y-39116000D02*
X134556500Y-39052500D01*
X130365500Y-39116000D02*
X134493000Y-39116000D01*
X125660000Y-51010000D02*
X127234500Y-51010000D01*
X127234500Y-51010000D02*
X127889000Y-50355500D01*
X94424500Y-39941500D02*
X94478000Y-39995000D01*
X94478000Y-39995000D02*
X95759800Y-39995000D01*
X53926740Y-48503840D02*
X55172900Y-49750000D01*
X55172900Y-49750000D02*
X58150000Y-49750000D01*
X48531780Y-48503840D02*
X53926740Y-48503840D01*
X47285620Y-49750000D02*
X48531780Y-48503840D01*
X43900000Y-49750000D02*
X47285620Y-49750000D01*
X72170000Y-51020000D02*
X59420000Y-51020000D01*
X42095000Y-47945000D02*
X42095000Y-43580000D01*
X43900000Y-49750000D02*
X42095000Y-47945000D01*
X59420000Y-51020000D02*
X58150000Y-49750000D01*
X61145000Y-62630000D02*
X61145000Y-73337000D01*
X61145000Y-73337000D02*
X61976000Y-74168000D01*
X80502760Y-52951380D02*
X80502760Y-43887760D01*
X80502760Y-43887760D02*
X80195000Y-43580000D01*
X81109820Y-53558440D02*
X80502760Y-52951380D01*
X98010000Y-58950000D02*
X98010000Y-54580500D01*
X98010000Y-54580500D02*
X99187000Y-53403500D01*
X72170000Y-58640000D02*
X74790000Y-58640000D01*
X98010000Y-58950000D02*
X100170000Y-61110000D01*
X75100000Y-58950000D02*
X98010000Y-58950000D01*
X74790000Y-58640000D02*
X75100000Y-58950000D01*
X119189500Y-54927500D02*
X119220000Y-54958000D01*
X119220000Y-54958000D02*
X119220000Y-61110000D01*
X118295000Y-62630000D02*
X118295000Y-62035000D01*
X118295000Y-62035000D02*
X119220000Y-61110000D01*
X72170000Y-61180000D02*
X74580000Y-61180000D01*
X74580000Y-61180000D02*
X76450000Y-63050000D01*
X76450000Y-63050000D02*
X76450000Y-66200000D01*
X76450000Y-66200000D02*
X78900000Y-68650000D01*
X78900000Y-68650000D02*
X108642000Y-68650000D01*
X108642000Y-68650000D02*
X116182000Y-61110000D01*
X116182000Y-61110000D02*
X119220000Y-61110000D01*
X111950500Y-68389500D02*
X136410500Y-68389500D01*
X136410500Y-68389500D02*
X137345000Y-67455000D01*
X110740000Y-69600000D02*
X111950500Y-68389500D01*
X75750000Y-69600000D02*
X110740000Y-69600000D01*
X72170000Y-63720000D02*
X72170000Y-66020000D01*
X137345000Y-67455000D02*
X137345000Y-62630000D01*
X72170000Y-66020000D02*
X75750000Y-69600000D01*
X53187600Y-52532280D02*
X51495960Y-52532280D01*
X54215320Y-53560000D02*
X53187600Y-52532280D01*
X56930000Y-53560000D02*
X54215320Y-53560000D01*
X52722780Y-49753520D02*
X51981100Y-49753520D01*
X53989260Y-51020000D02*
X52722780Y-49753520D01*
X56930000Y-51020000D02*
X53989260Y-51020000D01*
X94805500Y-58102500D02*
X96837500Y-58102500D01*
X99504500Y-58102500D02*
X118554500Y-58102500D01*
X83566000Y-57086500D02*
X83502500Y-57086500D01*
X79883000Y-53467000D02*
X79875380Y-53467000D01*
X79875380Y-53467000D02*
X76708000Y-50299620D01*
X76708000Y-38417500D02*
X76390500Y-38100000D01*
X83502500Y-57086500D02*
X79883000Y-53467000D01*
X76708000Y-50299620D02*
X76708000Y-38417500D01*
X128270000Y-73723500D02*
X128143000Y-73723500D01*
X129667000Y-73723500D02*
X128270000Y-73723500D01*
D29*
G36*
X79997954Y-39002046D02*
X80228295Y-39155954D01*
X80500000Y-39210001D01*
X80500005Y-39210000D01*
X93833832Y-39210000D01*
X93632308Y-39411173D01*
X93489662Y-39754701D01*
X93489338Y-40126667D01*
X93631383Y-40470443D01*
X93647027Y-40486115D01*
X93574007Y-40455794D01*
X92923766Y-40455226D01*
X92322805Y-40703538D01*
X91862614Y-41162927D01*
X91793239Y-41330000D01*
X87955362Y-41330000D01*
X87929167Y-41126922D01*
X87563091Y-40489008D01*
X86980762Y-40039743D01*
X86270834Y-39847524D01*
X85541387Y-39941614D01*
X84903472Y-40307691D01*
X84454207Y-40890020D01*
X84261988Y-41599948D01*
X84216742Y-42263630D01*
X84310833Y-42993077D01*
X84676909Y-43630992D01*
X85259238Y-44080257D01*
X85327287Y-44098682D01*
X85976993Y-45270781D01*
X86452211Y-45832131D01*
X87106076Y-46168892D01*
X87345640Y-46188798D01*
X87194353Y-46553138D01*
X87193837Y-47144268D01*
X87419576Y-47690598D01*
X87837203Y-48108955D01*
X88383138Y-48335647D01*
X88974268Y-48336163D01*
X89520598Y-48110424D01*
X89938955Y-47692797D01*
X90165647Y-47146862D01*
X90166163Y-46555732D01*
X89940424Y-46009402D01*
X89522797Y-45591045D01*
X89149453Y-45436019D01*
X89437629Y-44876489D01*
X89498534Y-44143525D01*
X89274309Y-43443047D01*
X88945577Y-42850000D01*
X91792964Y-42850000D01*
X91860998Y-43014655D01*
X92320387Y-43474846D01*
X92920913Y-43724206D01*
X93571154Y-43724774D01*
X94172115Y-43476462D01*
X94632306Y-43017073D01*
X94881666Y-42416547D01*
X94882234Y-41766306D01*
X94633922Y-41165345D01*
X94345512Y-40876432D01*
X94609667Y-40876662D01*
X94721164Y-40830593D01*
X94795710Y-40946441D01*
X95007910Y-41091431D01*
X95259800Y-41142440D01*
X96156559Y-41142440D01*
X96156338Y-41396667D01*
X96298383Y-41740443D01*
X96561173Y-42003692D01*
X96904701Y-42146338D01*
X97276667Y-42146662D01*
X97620443Y-42004617D01*
X97883692Y-41741827D01*
X98026338Y-41398299D01*
X98026662Y-41026333D01*
X97947492Y-40834728D01*
X98047701Y-40876338D01*
X98419667Y-40876662D01*
X98530800Y-40830743D01*
X98360833Y-41126923D01*
X98304649Y-41562496D01*
X98028467Y-41888158D01*
X97165812Y-43441234D01*
X96940976Y-44141516D01*
X97001242Y-44874533D01*
X97256742Y-45371683D01*
X96729402Y-45589576D01*
X96311045Y-46007203D01*
X96084353Y-46553138D01*
X96083837Y-47144268D01*
X96309576Y-47690598D01*
X96727203Y-48108955D01*
X97273138Y-48335647D01*
X97864268Y-48336163D01*
X98410598Y-48110424D01*
X98828955Y-47692797D01*
X99055647Y-47146862D01*
X99056163Y-46555732D01*
X98910658Y-46203582D01*
X99331667Y-46168968D01*
X99985825Y-45832777D01*
X100461532Y-45271842D01*
X101192862Y-43955197D01*
X101613091Y-43630992D01*
X101979167Y-42993078D01*
X102073258Y-42263631D01*
X102073258Y-42263630D01*
X103266742Y-42263630D01*
X103360833Y-42993077D01*
X103726909Y-43630992D01*
X104309238Y-44080257D01*
X104377287Y-44098682D01*
X105026993Y-45270781D01*
X105502211Y-45832131D01*
X106156076Y-46168892D01*
X106395640Y-46188798D01*
X106244353Y-46553138D01*
X106243837Y-47144268D01*
X106469576Y-47690598D01*
X106887203Y-48108955D01*
X107433138Y-48335647D01*
X108024268Y-48336163D01*
X108570598Y-48110424D01*
X108988955Y-47692797D01*
X109215647Y-47146862D01*
X109215649Y-47144268D01*
X115133837Y-47144268D01*
X115359576Y-47690598D01*
X115777203Y-48108955D01*
X116323138Y-48335647D01*
X116914268Y-48336163D01*
X117460598Y-48110424D01*
X117878955Y-47692797D01*
X118105647Y-47146862D01*
X118106163Y-46555732D01*
X117960658Y-46203582D01*
X118381667Y-46168968D01*
X119035825Y-45832777D01*
X119511532Y-45271842D01*
X120242862Y-43955197D01*
X120663091Y-43630992D01*
X121029167Y-42993078D01*
X121123258Y-42263631D01*
X121078012Y-41599948D01*
X120885793Y-40890020D01*
X120436528Y-40307691D01*
X119798613Y-39941615D01*
X119069166Y-39847524D01*
X118359238Y-40039743D01*
X117776909Y-40489008D01*
X117410833Y-41126923D01*
X117354649Y-41562496D01*
X117078467Y-41888158D01*
X116215812Y-43441234D01*
X115990976Y-44141516D01*
X116051242Y-44874533D01*
X116306742Y-45371683D01*
X115779402Y-45589576D01*
X115361045Y-46007203D01*
X115134353Y-46553138D01*
X115133837Y-47144268D01*
X109215649Y-47144268D01*
X109216163Y-46555732D01*
X108990424Y-46009402D01*
X108572797Y-45591045D01*
X108199453Y-45436019D01*
X108487629Y-44876489D01*
X108548534Y-44143525D01*
X108324309Y-43443047D01*
X107995577Y-42850000D01*
X110742964Y-42850000D01*
X110810998Y-43014655D01*
X111270387Y-43474846D01*
X111870913Y-43724206D01*
X112521154Y-43724774D01*
X113122115Y-43476462D01*
X113582306Y-43017073D01*
X113831666Y-42416547D01*
X113832234Y-41766306D01*
X113583922Y-41165345D01*
X113124533Y-40705154D01*
X112524007Y-40455794D01*
X111873766Y-40455226D01*
X111272805Y-40703538D01*
X110812614Y-41162927D01*
X110743239Y-41330000D01*
X107005362Y-41330000D01*
X106979167Y-41126922D01*
X106613091Y-40489008D01*
X106030762Y-40039743D01*
X105320834Y-39847524D01*
X104591387Y-39941614D01*
X103953472Y-40307691D01*
X103504207Y-40890020D01*
X103311988Y-41599948D01*
X103266742Y-42263630D01*
X102073258Y-42263630D01*
X102028012Y-41599948D01*
X101835793Y-40890020D01*
X101386528Y-40307691D01*
X100748613Y-39941615D01*
X100019166Y-39847524D01*
X99309238Y-40039743D01*
X99157500Y-40156809D01*
X99169338Y-40128299D01*
X99169662Y-39756333D01*
X99027617Y-39412557D01*
X98825413Y-39210000D01*
X121500000Y-39210000D01*
X121771705Y-39155954D01*
X122002046Y-39002046D01*
X126044092Y-34960000D01*
X137705908Y-34960000D01*
X142247954Y-39502046D01*
X142478295Y-39655954D01*
X142750000Y-39710000D01*
X148290000Y-39710000D01*
X148290000Y-93315895D01*
X148087073Y-93112614D01*
X147486547Y-92863254D01*
X146836306Y-92862686D01*
X146235345Y-93110998D01*
X145775154Y-93570387D01*
X145525794Y-94170913D01*
X145525226Y-94821154D01*
X145773538Y-95422115D01*
X146232927Y-95882306D01*
X146833453Y-96131666D01*
X147483694Y-96132234D01*
X148084655Y-95883922D01*
X148290000Y-95678935D01*
X148290000Y-111290000D01*
X132894390Y-111290000D01*
X132894390Y-109500510D01*
X132850112Y-109265193D01*
X132711040Y-109049069D01*
X132498840Y-108904079D01*
X132246950Y-108853070D01*
X130247970Y-108853070D01*
X130012653Y-108897348D01*
X129796529Y-109036420D01*
X129651539Y-109248620D01*
X129600530Y-109500510D01*
X129600530Y-109740000D01*
X116064802Y-109740000D01*
X114987401Y-108662599D01*
X114740839Y-108497852D01*
X114450000Y-108440000D01*
X113794390Y-108440000D01*
X113794390Y-108200510D01*
X113750112Y-107965193D01*
X113611040Y-107749069D01*
X113398840Y-107604079D01*
X113146950Y-107553070D01*
X111147970Y-107553070D01*
X110912653Y-107597348D01*
X110696529Y-107736420D01*
X110551539Y-107948620D01*
X110500530Y-108200510D01*
X110500530Y-108440000D01*
X94794390Y-108440000D01*
X94794390Y-108100510D01*
X94750112Y-107865193D01*
X94611040Y-107649069D01*
X94398840Y-107504079D01*
X94146950Y-107453070D01*
X92147970Y-107453070D01*
X91912653Y-107497348D01*
X91696529Y-107636420D01*
X91551539Y-107848620D01*
X91500530Y-108100510D01*
X91500530Y-108340000D01*
X75733004Y-108340000D01*
X75700112Y-108165193D01*
X75561040Y-107949069D01*
X75348840Y-107804079D01*
X75096950Y-107753070D01*
X73097970Y-107753070D01*
X72862653Y-107797348D01*
X72646529Y-107936420D01*
X72501539Y-108148620D01*
X72450530Y-108400510D01*
X72450530Y-109490000D01*
X56644390Y-109490000D01*
X56644390Y-109250510D01*
X56600112Y-109015193D01*
X56461040Y-108799069D01*
X56248840Y-108654079D01*
X55996950Y-108603070D01*
X53997970Y-108603070D01*
X53762653Y-108647348D01*
X53546529Y-108786420D01*
X53401539Y-108998620D01*
X53350530Y-109250510D01*
X53350530Y-111249490D01*
X53358152Y-111290000D01*
X37710000Y-111290000D01*
X37710000Y-104444268D01*
X38933837Y-104444268D01*
X39159576Y-104990598D01*
X39577203Y-105408955D01*
X40123138Y-105635647D01*
X40714268Y-105636163D01*
X41260598Y-105410424D01*
X41678955Y-104992797D01*
X41812731Y-104670627D01*
X42870640Y-104670627D01*
X43270024Y-105637209D01*
X44008901Y-106377377D01*
X44974784Y-106778447D01*
X46020627Y-106779360D01*
X46987209Y-106379976D01*
X47727377Y-105641099D01*
X48128447Y-104675216D01*
X48129360Y-103629373D01*
X47729976Y-102662791D01*
X46991099Y-101922623D01*
X46025216Y-101521553D01*
X44979373Y-101520640D01*
X44012791Y-101920024D01*
X43272623Y-102658901D01*
X42871553Y-103624784D01*
X42870640Y-104670627D01*
X41812731Y-104670627D01*
X41905647Y-104446862D01*
X41906163Y-103855732D01*
X41760658Y-103503582D01*
X42181667Y-103468968D01*
X42835825Y-103132777D01*
X43311532Y-102571842D01*
X44042862Y-101255197D01*
X44463091Y-100930992D01*
X44829167Y-100293078D01*
X44923258Y-99563631D01*
X44923258Y-99563630D01*
X46116742Y-99563630D01*
X46210833Y-100293077D01*
X46576909Y-100930992D01*
X47159238Y-101380257D01*
X47227287Y-101398682D01*
X47876993Y-102570781D01*
X48352211Y-103132131D01*
X49006076Y-103468892D01*
X49245640Y-103488798D01*
X49094353Y-103853138D01*
X49093837Y-104444268D01*
X49319576Y-104990598D01*
X49737203Y-105408955D01*
X50283138Y-105635647D01*
X50874268Y-105636163D01*
X51420598Y-105410424D01*
X51838955Y-104992797D01*
X52065647Y-104446862D01*
X52065780Y-104294268D01*
X57983837Y-104294268D01*
X58209576Y-104840598D01*
X58627203Y-105258955D01*
X59173138Y-105485647D01*
X59764268Y-105486163D01*
X60310598Y-105260424D01*
X60728955Y-104842797D01*
X60862731Y-104520627D01*
X61920640Y-104520627D01*
X62320024Y-105487209D01*
X63058901Y-106227377D01*
X64024784Y-106628447D01*
X65070627Y-106629360D01*
X66037209Y-106229976D01*
X66777377Y-105491099D01*
X67178447Y-104525216D01*
X67179360Y-103479373D01*
X66779976Y-102512791D01*
X66041099Y-101772623D01*
X65075216Y-101371553D01*
X64029373Y-101370640D01*
X63062791Y-101770024D01*
X62322623Y-102508901D01*
X61921553Y-103474784D01*
X61920640Y-104520627D01*
X60862731Y-104520627D01*
X60955647Y-104296862D01*
X60956163Y-103705732D01*
X60810658Y-103353582D01*
X61231667Y-103318968D01*
X61885825Y-102982777D01*
X62361532Y-102421842D01*
X63092862Y-101105197D01*
X63513091Y-100780992D01*
X63879167Y-100143078D01*
X63973258Y-99413631D01*
X63973258Y-99413630D01*
X65166742Y-99413630D01*
X65260833Y-100143077D01*
X65626909Y-100780992D01*
X66209238Y-101230257D01*
X66277287Y-101248682D01*
X66926993Y-102420781D01*
X67402211Y-102982131D01*
X68056076Y-103318892D01*
X68295640Y-103338798D01*
X68144353Y-103703138D01*
X68143837Y-104294268D01*
X68369576Y-104840598D01*
X68787203Y-105258955D01*
X69333138Y-105485647D01*
X69924268Y-105486163D01*
X70470598Y-105260424D01*
X70888955Y-104842797D01*
X71115647Y-104296862D01*
X71115649Y-104294268D01*
X77033837Y-104294268D01*
X77259576Y-104840598D01*
X77677203Y-105258955D01*
X78223138Y-105485647D01*
X78814268Y-105486163D01*
X79360598Y-105260424D01*
X79778955Y-104842797D01*
X79912731Y-104520627D01*
X80970640Y-104520627D01*
X81370024Y-105487209D01*
X82108901Y-106227377D01*
X83074784Y-106628447D01*
X84120627Y-106629360D01*
X85087209Y-106229976D01*
X85827377Y-105491099D01*
X86228447Y-104525216D01*
X86229360Y-103479373D01*
X85829976Y-102512791D01*
X85091099Y-101772623D01*
X84125216Y-101371553D01*
X83079373Y-101370640D01*
X82112791Y-101770024D01*
X81372623Y-102508901D01*
X80971553Y-103474784D01*
X80970640Y-104520627D01*
X79912731Y-104520627D01*
X80005647Y-104296862D01*
X80006163Y-103705732D01*
X79860658Y-103353582D01*
X80281667Y-103318968D01*
X80935825Y-102982777D01*
X81411532Y-102421842D01*
X82142862Y-101105197D01*
X82563091Y-100780992D01*
X82929167Y-100143078D01*
X83023258Y-99413631D01*
X83023258Y-99413630D01*
X84216742Y-99413630D01*
X84310833Y-100143077D01*
X84676909Y-100780992D01*
X85259238Y-101230257D01*
X85327287Y-101248682D01*
X85976993Y-102420781D01*
X86452211Y-102982131D01*
X87106076Y-103318892D01*
X87345640Y-103338798D01*
X87194353Y-103703138D01*
X87193837Y-104294268D01*
X87419576Y-104840598D01*
X87837203Y-105258955D01*
X88383138Y-105485647D01*
X88974268Y-105486163D01*
X89520598Y-105260424D01*
X89938955Y-104842797D01*
X90165647Y-104296862D01*
X90165649Y-104294268D01*
X96083837Y-104294268D01*
X96309576Y-104840598D01*
X96727203Y-105258955D01*
X97273138Y-105485647D01*
X97864268Y-105486163D01*
X98410598Y-105260424D01*
X98828955Y-104842797D01*
X98962731Y-104520627D01*
X100020640Y-104520627D01*
X100420024Y-105487209D01*
X101158901Y-106227377D01*
X102124784Y-106628447D01*
X103170627Y-106629360D01*
X104137209Y-106229976D01*
X104877377Y-105491099D01*
X105278447Y-104525216D01*
X105279360Y-103479373D01*
X104879976Y-102512791D01*
X104141099Y-101772623D01*
X103175216Y-101371553D01*
X102129373Y-101370640D01*
X101162791Y-101770024D01*
X100422623Y-102508901D01*
X100021553Y-103474784D01*
X100020640Y-104520627D01*
X98962731Y-104520627D01*
X99055647Y-104296862D01*
X99056163Y-103705732D01*
X98910658Y-103353582D01*
X99331667Y-103318968D01*
X99985825Y-102982777D01*
X100461532Y-102421842D01*
X101192862Y-101105197D01*
X101613091Y-100780992D01*
X101979167Y-100143078D01*
X102073258Y-99413631D01*
X102073258Y-99413630D01*
X103266742Y-99413630D01*
X103360833Y-100143077D01*
X103726909Y-100780992D01*
X104309238Y-101230257D01*
X104377287Y-101248682D01*
X105026993Y-102420781D01*
X105502211Y-102982131D01*
X106156076Y-103318892D01*
X106395640Y-103338798D01*
X106244353Y-103703138D01*
X106243837Y-104294268D01*
X106469576Y-104840598D01*
X106887203Y-105258955D01*
X107433138Y-105485647D01*
X108024268Y-105486163D01*
X108570598Y-105260424D01*
X108988955Y-104842797D01*
X109215647Y-104296862D01*
X109215649Y-104294268D01*
X115133837Y-104294268D01*
X115359576Y-104840598D01*
X115777203Y-105258955D01*
X116323138Y-105485647D01*
X116914268Y-105486163D01*
X117460598Y-105260424D01*
X117878955Y-104842797D01*
X118012731Y-104520627D01*
X119070640Y-104520627D01*
X119470024Y-105487209D01*
X120208901Y-106227377D01*
X121174784Y-106628447D01*
X122220627Y-106629360D01*
X123187209Y-106229976D01*
X123927377Y-105491099D01*
X124328447Y-104525216D01*
X124329360Y-103479373D01*
X123929976Y-102512791D01*
X123191099Y-101772623D01*
X122225216Y-101371553D01*
X121179373Y-101370640D01*
X120212791Y-101770024D01*
X119472623Y-102508901D01*
X119071553Y-103474784D01*
X119070640Y-104520627D01*
X118012731Y-104520627D01*
X118105647Y-104296862D01*
X118106163Y-103705732D01*
X117960658Y-103353582D01*
X118381667Y-103318968D01*
X119035825Y-102982777D01*
X119511532Y-102421842D01*
X120242862Y-101105197D01*
X120663091Y-100780992D01*
X121029167Y-100143078D01*
X121123258Y-99413631D01*
X121078012Y-98749948D01*
X120885793Y-98040020D01*
X120436528Y-97457691D01*
X119798613Y-97091615D01*
X119069166Y-96997524D01*
X118359238Y-97189743D01*
X117776909Y-97639008D01*
X117410833Y-98276923D01*
X117354649Y-98712496D01*
X117078467Y-99038158D01*
X116215812Y-100591234D01*
X115990976Y-101291516D01*
X116051242Y-102024533D01*
X116306742Y-102521683D01*
X115779402Y-102739576D01*
X115361045Y-103157203D01*
X115134353Y-103703138D01*
X115133837Y-104294268D01*
X109215649Y-104294268D01*
X109216163Y-103705732D01*
X108990424Y-103159402D01*
X108572797Y-102741045D01*
X108199453Y-102586019D01*
X108487629Y-102026489D01*
X108548534Y-101293525D01*
X108324309Y-100593047D01*
X107642867Y-99363694D01*
X110512686Y-99363694D01*
X110760998Y-99964655D01*
X111220387Y-100424846D01*
X111820913Y-100674206D01*
X112471154Y-100674774D01*
X113072115Y-100426462D01*
X113532306Y-99967073D01*
X113781666Y-99366547D01*
X113782234Y-98716306D01*
X113533922Y-98115345D01*
X113074533Y-97655154D01*
X112474007Y-97405794D01*
X111823766Y-97405226D01*
X111222805Y-97653538D01*
X110762614Y-98112927D01*
X110513254Y-98713453D01*
X110512686Y-99363694D01*
X107642867Y-99363694D01*
X107463007Y-99039219D01*
X107008197Y-98501975D01*
X106979167Y-98276922D01*
X106613091Y-97639008D01*
X106030762Y-97189743D01*
X105320834Y-96997524D01*
X104591387Y-97091614D01*
X103953472Y-97457691D01*
X103504207Y-98040020D01*
X103311988Y-98749948D01*
X103266742Y-99413630D01*
X102073258Y-99413630D01*
X102028012Y-98749948D01*
X101835793Y-98040020D01*
X101386528Y-97457691D01*
X100748613Y-97091615D01*
X100019166Y-96997524D01*
X99309238Y-97189743D01*
X98726909Y-97639008D01*
X98360833Y-98276923D01*
X98304649Y-98712496D01*
X98028467Y-99038158D01*
X97165812Y-100591234D01*
X96940976Y-101291516D01*
X97001242Y-102024533D01*
X97256742Y-102521683D01*
X96729402Y-102739576D01*
X96311045Y-103157203D01*
X96084353Y-103703138D01*
X96083837Y-104294268D01*
X90165649Y-104294268D01*
X90166163Y-103705732D01*
X89940424Y-103159402D01*
X89522797Y-102741045D01*
X89149453Y-102586019D01*
X89437629Y-102026489D01*
X89498534Y-101293525D01*
X89274309Y-100593047D01*
X88537436Y-99263694D01*
X91512686Y-99263694D01*
X91760998Y-99864655D01*
X92220387Y-100324846D01*
X92820913Y-100574206D01*
X93471154Y-100574774D01*
X94072115Y-100326462D01*
X94532306Y-99867073D01*
X94781666Y-99266547D01*
X94782234Y-98616306D01*
X94533922Y-98015345D01*
X94074533Y-97555154D01*
X93474007Y-97305794D01*
X92823766Y-97305226D01*
X92222805Y-97553538D01*
X91762614Y-98012927D01*
X91513254Y-98613453D01*
X91512686Y-99263694D01*
X88537436Y-99263694D01*
X88413007Y-99039219D01*
X87958197Y-98501975D01*
X87929167Y-98276922D01*
X87563091Y-97639008D01*
X86980762Y-97189743D01*
X86270834Y-96997524D01*
X85541387Y-97091614D01*
X84903472Y-97457691D01*
X84454207Y-98040020D01*
X84261988Y-98749948D01*
X84216742Y-99413630D01*
X83023258Y-99413630D01*
X82978012Y-98749948D01*
X82785793Y-98040020D01*
X82336528Y-97457691D01*
X81698613Y-97091615D01*
X80969166Y-96997524D01*
X80259238Y-97189743D01*
X79676909Y-97639008D01*
X79310833Y-98276923D01*
X79254649Y-98712496D01*
X78978467Y-99038158D01*
X78115812Y-100591234D01*
X77890976Y-101291516D01*
X77951242Y-102024533D01*
X78206742Y-102521683D01*
X77679402Y-102739576D01*
X77261045Y-103157203D01*
X77034353Y-103703138D01*
X77033837Y-104294268D01*
X71115649Y-104294268D01*
X71116163Y-103705732D01*
X70890424Y-103159402D01*
X70472797Y-102741045D01*
X70099453Y-102586019D01*
X70387629Y-102026489D01*
X70448534Y-101293525D01*
X70224309Y-100593047D01*
X69653729Y-99563694D01*
X72462686Y-99563694D01*
X72710998Y-100164655D01*
X73170387Y-100624846D01*
X73770913Y-100874206D01*
X74421154Y-100874774D01*
X75022115Y-100626462D01*
X75482306Y-100167073D01*
X75731666Y-99566547D01*
X75732234Y-98916306D01*
X75483922Y-98315345D01*
X75024533Y-97855154D01*
X74424007Y-97605794D01*
X73773766Y-97605226D01*
X73172805Y-97853538D01*
X72712614Y-98312927D01*
X72463254Y-98913453D01*
X72462686Y-99563694D01*
X69653729Y-99563694D01*
X69363007Y-99039219D01*
X68908197Y-98501975D01*
X68879167Y-98276922D01*
X68513091Y-97639008D01*
X67930762Y-97189743D01*
X67220834Y-96997524D01*
X66491387Y-97091614D01*
X65853472Y-97457691D01*
X65404207Y-98040020D01*
X65211988Y-98749948D01*
X65166742Y-99413630D01*
X63973258Y-99413630D01*
X63928012Y-98749948D01*
X63735793Y-98040020D01*
X63286528Y-97457691D01*
X62648613Y-97091615D01*
X61919166Y-96997524D01*
X61209238Y-97189743D01*
X60626909Y-97639008D01*
X60260833Y-98276923D01*
X60204649Y-98712496D01*
X59928467Y-99038158D01*
X59065812Y-100591234D01*
X58840976Y-101291516D01*
X58901242Y-102024533D01*
X59156742Y-102521683D01*
X58629402Y-102739576D01*
X58211045Y-103157203D01*
X57984353Y-103703138D01*
X57983837Y-104294268D01*
X52065780Y-104294268D01*
X52066163Y-103855732D01*
X51840424Y-103309402D01*
X51422797Y-102891045D01*
X51049453Y-102736019D01*
X51337629Y-102176489D01*
X51398534Y-101443525D01*
X51174309Y-100743047D01*
X50313007Y-99189219D01*
X49858197Y-98651975D01*
X49829167Y-98426922D01*
X49463091Y-97789008D01*
X48880762Y-97339743D01*
X48170834Y-97147524D01*
X47441387Y-97241614D01*
X46803472Y-97607691D01*
X46354207Y-98190020D01*
X46161988Y-98899948D01*
X46116742Y-99563630D01*
X44923258Y-99563630D01*
X44878012Y-98899948D01*
X44685793Y-98190020D01*
X44236528Y-97607691D01*
X43598613Y-97241615D01*
X42869166Y-97147524D01*
X42159238Y-97339743D01*
X41576909Y-97789008D01*
X41210833Y-98426923D01*
X41154649Y-98862496D01*
X40878467Y-99188158D01*
X40015812Y-100741234D01*
X39790976Y-101441516D01*
X39851242Y-102174533D01*
X40106742Y-102671683D01*
X39579402Y-102889576D01*
X39161045Y-103307203D01*
X38934353Y-103853138D01*
X38933837Y-104444268D01*
X37710000Y-104444268D01*
X37710000Y-95417914D01*
X50364197Y-95417914D01*
X51068347Y-97122087D01*
X52371055Y-98427071D01*
X53768480Y-99007332D01*
X53612614Y-99162927D01*
X53363254Y-99763453D01*
X53362686Y-100413694D01*
X53610998Y-101014655D01*
X54070387Y-101474846D01*
X54670913Y-101724206D01*
X55321154Y-101724774D01*
X55922115Y-101476462D01*
X56382306Y-101017073D01*
X56631666Y-100416547D01*
X56632234Y-99766306D01*
X56383922Y-99165345D01*
X56226959Y-99008108D01*
X57622087Y-98431653D01*
X58927071Y-97128945D01*
X59634194Y-95426003D01*
X59635803Y-93582086D01*
X59601047Y-93497970D01*
X113603070Y-93497970D01*
X113603070Y-95496950D01*
X113647348Y-95732267D01*
X113786420Y-95948391D01*
X113998620Y-96093381D01*
X114250510Y-96144390D01*
X116249490Y-96144390D01*
X116484807Y-96100112D01*
X116700931Y-95961040D01*
X116845921Y-95748840D01*
X116896930Y-95496950D01*
X116896930Y-93497970D01*
X116852652Y-93262653D01*
X116713580Y-93046529D01*
X116501380Y-92901539D01*
X116249490Y-92850530D01*
X114250510Y-92850530D01*
X114015193Y-92894808D01*
X113799069Y-93033880D01*
X113654079Y-93246080D01*
X113603070Y-93497970D01*
X59601047Y-93497970D01*
X58931653Y-91877913D01*
X57628945Y-90572929D01*
X56518042Y-90111642D01*
X56593381Y-90001380D01*
X56644390Y-89749490D01*
X56644390Y-89510000D01*
X62185198Y-89510000D01*
X63162599Y-90487401D01*
X63409160Y-90652148D01*
X63700000Y-90710000D01*
X72400530Y-90710000D01*
X72400530Y-90949490D01*
X72444808Y-91184807D01*
X72583880Y-91400931D01*
X72796080Y-91545921D01*
X73047970Y-91596930D01*
X75046950Y-91596930D01*
X75282267Y-91552652D01*
X75498391Y-91413580D01*
X75643381Y-91201380D01*
X75651761Y-91160000D01*
X91600530Y-91160000D01*
X91600530Y-91399490D01*
X91644808Y-91634807D01*
X91783880Y-91850931D01*
X91996080Y-91995921D01*
X92247970Y-92046930D01*
X94246950Y-92046930D01*
X94482267Y-92002652D01*
X94698391Y-91863580D01*
X94843381Y-91651380D01*
X94894390Y-91399490D01*
X94894390Y-91160000D01*
X110650530Y-91160000D01*
X110650530Y-91399490D01*
X110694808Y-91634807D01*
X110833880Y-91850931D01*
X111046080Y-91995921D01*
X111297970Y-92046930D01*
X113296950Y-92046930D01*
X113532267Y-92002652D01*
X113748391Y-91863580D01*
X113893381Y-91651380D01*
X113944390Y-91399490D01*
X113944390Y-89827872D01*
X115012262Y-88760000D01*
X129600530Y-88760000D01*
X129600530Y-88999490D01*
X129644808Y-89234807D01*
X129783880Y-89450931D01*
X129996080Y-89595921D01*
X130247970Y-89646930D01*
X131819588Y-89646930D01*
X132088300Y-89915642D01*
X130432086Y-89914197D01*
X128727913Y-90618347D01*
X127422929Y-91921055D01*
X126754512Y-93530782D01*
X126337073Y-93112614D01*
X125736547Y-92863254D01*
X125086306Y-92862686D01*
X124485345Y-93110998D01*
X124025154Y-93570387D01*
X123775794Y-94170913D01*
X123775226Y-94821154D01*
X124023538Y-95422115D01*
X124482927Y-95882306D01*
X125083453Y-96131666D01*
X125733694Y-96132234D01*
X126334655Y-95883922D01*
X126725058Y-95494199D01*
X127418347Y-97172087D01*
X128721055Y-98477071D01*
X130189350Y-99086760D01*
X129862614Y-99412927D01*
X129793239Y-99580000D01*
X126812767Y-99580000D01*
X126513007Y-99039219D01*
X126058197Y-98501975D01*
X126029167Y-98276922D01*
X125663091Y-97639008D01*
X125080762Y-97189743D01*
X124370834Y-96997524D01*
X123641387Y-97091614D01*
X123003472Y-97457691D01*
X122554207Y-98040020D01*
X122361988Y-98749948D01*
X122316742Y-99413630D01*
X122410833Y-100143077D01*
X122776909Y-100780992D01*
X123359238Y-101230257D01*
X123427287Y-101248682D01*
X124076993Y-102420781D01*
X124552211Y-102982131D01*
X125206076Y-103318892D01*
X125445640Y-103338798D01*
X125294353Y-103703138D01*
X125293837Y-104294268D01*
X125519576Y-104840598D01*
X125937203Y-105258955D01*
X126483138Y-105485647D01*
X127074268Y-105486163D01*
X127620598Y-105260424D01*
X128038955Y-104842797D01*
X128265647Y-104296862D01*
X128265649Y-104294268D01*
X134183837Y-104294268D01*
X134409576Y-104840598D01*
X134827203Y-105258955D01*
X135373138Y-105485647D01*
X135964268Y-105486163D01*
X136510598Y-105260424D01*
X136928955Y-104842797D01*
X137062731Y-104520627D01*
X138120640Y-104520627D01*
X138520024Y-105487209D01*
X139258901Y-106227377D01*
X140224784Y-106628447D01*
X141270627Y-106629360D01*
X142237209Y-106229976D01*
X142977377Y-105491099D01*
X143378447Y-104525216D01*
X143379360Y-103479373D01*
X142979976Y-102512791D01*
X142241099Y-101772623D01*
X141275216Y-101371553D01*
X140229373Y-101370640D01*
X139262791Y-101770024D01*
X138522623Y-102508901D01*
X138121553Y-103474784D01*
X138120640Y-104520627D01*
X137062731Y-104520627D01*
X137155647Y-104296862D01*
X137156163Y-103705732D01*
X137010658Y-103353582D01*
X137431667Y-103318968D01*
X138085825Y-102982777D01*
X138561532Y-102421842D01*
X139292862Y-101105197D01*
X139713091Y-100780992D01*
X140079167Y-100143078D01*
X140173258Y-99413631D01*
X140173258Y-99413630D01*
X141366742Y-99413630D01*
X141460833Y-100143077D01*
X141826909Y-100780992D01*
X142409238Y-101230257D01*
X142477287Y-101248682D01*
X143126993Y-102420781D01*
X143602211Y-102982131D01*
X144256076Y-103318892D01*
X144495640Y-103338798D01*
X144344353Y-103703138D01*
X144343837Y-104294268D01*
X144569576Y-104840598D01*
X144987203Y-105258955D01*
X145533138Y-105485647D01*
X146124268Y-105486163D01*
X146670598Y-105260424D01*
X147088955Y-104842797D01*
X147315647Y-104296862D01*
X147316163Y-103705732D01*
X147090424Y-103159402D01*
X146672797Y-102741045D01*
X146299453Y-102586019D01*
X146587629Y-102026489D01*
X146648534Y-101293525D01*
X146424309Y-100593047D01*
X145563007Y-99039219D01*
X145108197Y-98501975D01*
X145079167Y-98276922D01*
X144713091Y-97639008D01*
X144130762Y-97189743D01*
X143420834Y-96997524D01*
X142691387Y-97091614D01*
X142053472Y-97457691D01*
X141604207Y-98040020D01*
X141411988Y-98749948D01*
X141366742Y-99413630D01*
X140173258Y-99413630D01*
X140128012Y-98749948D01*
X139935793Y-98040020D01*
X139486528Y-97457691D01*
X138848613Y-97091615D01*
X138119166Y-96997524D01*
X137409238Y-97189743D01*
X136826909Y-97639008D01*
X136460833Y-98276923D01*
X136404649Y-98712496D01*
X136128467Y-99038158D01*
X135265812Y-100591234D01*
X135040976Y-101291516D01*
X135101242Y-102024533D01*
X135356742Y-102521683D01*
X134829402Y-102739576D01*
X134411045Y-103157203D01*
X134184353Y-103703138D01*
X134183837Y-104294268D01*
X128265649Y-104294268D01*
X128266163Y-103705732D01*
X128040424Y-103159402D01*
X127622797Y-102741045D01*
X127249453Y-102586019D01*
X127537629Y-102026489D01*
X127598534Y-101293525D01*
X127536586Y-101100000D01*
X129792964Y-101100000D01*
X129860998Y-101264655D01*
X130320387Y-101724846D01*
X130920913Y-101974206D01*
X131571154Y-101974774D01*
X132172115Y-101726462D01*
X132632306Y-101267073D01*
X132881666Y-100666547D01*
X132882234Y-100016306D01*
X132633922Y-99415345D01*
X132364812Y-99145765D01*
X133972087Y-98481653D01*
X135277071Y-97178945D01*
X135732430Y-96082319D01*
X135748620Y-96093381D01*
X136000510Y-96144390D01*
X137999490Y-96144390D01*
X138234807Y-96100112D01*
X138450931Y-95961040D01*
X138595921Y-95748840D01*
X138646930Y-95496950D01*
X138646930Y-93497970D01*
X138602652Y-93262653D01*
X138463580Y-93046529D01*
X138251380Y-92901539D01*
X137999490Y-92850530D01*
X137172792Y-92850530D01*
X132894390Y-88572128D01*
X132894390Y-87000510D01*
X132850112Y-86765193D01*
X132711040Y-86549069D01*
X132498840Y-86404079D01*
X132246950Y-86353070D01*
X130247970Y-86353070D01*
X130012653Y-86397348D01*
X129796529Y-86536420D01*
X129651539Y-86748620D01*
X129600530Y-87000510D01*
X129600530Y-87240000D01*
X123041940Y-87240000D01*
X123187209Y-87179976D01*
X123927377Y-86441099D01*
X124328447Y-85475216D01*
X124329360Y-84429373D01*
X123929976Y-83462791D01*
X123191099Y-82722623D01*
X122225216Y-82321553D01*
X121179373Y-82320640D01*
X120212791Y-82720024D01*
X119472623Y-83458901D01*
X119071553Y-84424784D01*
X119070640Y-85470627D01*
X119470024Y-86437209D01*
X120208901Y-87177377D01*
X120359714Y-87240000D01*
X114697460Y-87240000D01*
X114406621Y-87297852D01*
X114160059Y-87462599D01*
X112869588Y-88753070D01*
X111297970Y-88753070D01*
X111062653Y-88797348D01*
X110846529Y-88936420D01*
X110701539Y-89148620D01*
X110650530Y-89400510D01*
X110650530Y-89640000D01*
X94894390Y-89640000D01*
X94894390Y-89400510D01*
X94850112Y-89165193D01*
X94711040Y-88949069D01*
X94498840Y-88804079D01*
X94246950Y-88753070D01*
X92247970Y-88753070D01*
X92012653Y-88797348D01*
X91796529Y-88936420D01*
X91651539Y-89148620D01*
X91600530Y-89400510D01*
X91600530Y-89640000D01*
X75694390Y-89640000D01*
X75694390Y-88950510D01*
X75650112Y-88715193D01*
X75511040Y-88499069D01*
X75298840Y-88354079D01*
X75046950Y-88303070D01*
X73047970Y-88303070D01*
X72812653Y-88347348D01*
X72596529Y-88486420D01*
X72451539Y-88698620D01*
X72400530Y-88950510D01*
X72400530Y-89190000D01*
X64014802Y-89190000D01*
X63037401Y-88212599D01*
X62790839Y-88047852D01*
X62500000Y-87990000D01*
X56644390Y-87990000D01*
X56644390Y-87750510D01*
X56600112Y-87515193D01*
X56461040Y-87299069D01*
X56248840Y-87154079D01*
X55996950Y-87103070D01*
X53997970Y-87103070D01*
X53762653Y-87147348D01*
X53546529Y-87286420D01*
X53401539Y-87498620D01*
X53350530Y-87750510D01*
X53350530Y-89749490D01*
X53394808Y-89984807D01*
X53477852Y-90113861D01*
X52377913Y-90568347D01*
X51072929Y-91871055D01*
X50365806Y-93573997D01*
X50364197Y-95417914D01*
X37710000Y-95417914D01*
X37710000Y-85294268D01*
X38933837Y-85294268D01*
X39159576Y-85840598D01*
X39577203Y-86258955D01*
X40123138Y-86485647D01*
X40714268Y-86486163D01*
X41260598Y-86260424D01*
X41678955Y-85842797D01*
X41812731Y-85520627D01*
X42870640Y-85520627D01*
X43270024Y-86487209D01*
X44008901Y-87227377D01*
X44974784Y-87628447D01*
X46020627Y-87629360D01*
X46987209Y-87229976D01*
X47727377Y-86491099D01*
X48128447Y-85525216D01*
X48129360Y-84479373D01*
X47729976Y-83512791D01*
X46991099Y-82772623D01*
X46025216Y-82371553D01*
X44979373Y-82370640D01*
X44012791Y-82770024D01*
X43272623Y-83508901D01*
X42871553Y-84474784D01*
X42870640Y-85520627D01*
X41812731Y-85520627D01*
X41905647Y-85296862D01*
X41906163Y-84705732D01*
X41760658Y-84353582D01*
X42181667Y-84318968D01*
X42835825Y-83982777D01*
X43311532Y-83421842D01*
X44042862Y-82105197D01*
X44463091Y-81780992D01*
X44829167Y-81143078D01*
X44923258Y-80413631D01*
X44923258Y-80413630D01*
X46116742Y-80413630D01*
X46210833Y-81143077D01*
X46576909Y-81780992D01*
X47159238Y-82230257D01*
X47227287Y-82248682D01*
X47876993Y-83420781D01*
X48352211Y-83982131D01*
X49006076Y-84318892D01*
X49245640Y-84338798D01*
X49094353Y-84703138D01*
X49093837Y-85294268D01*
X49319576Y-85840598D01*
X49737203Y-86258955D01*
X50283138Y-86485647D01*
X50874268Y-86486163D01*
X51420598Y-86260424D01*
X51838955Y-85842797D01*
X52065647Y-85296862D01*
X52065692Y-85244268D01*
X57983837Y-85244268D01*
X58209576Y-85790598D01*
X58627203Y-86208955D01*
X59173138Y-86435647D01*
X59764268Y-86436163D01*
X60310598Y-86210424D01*
X60728955Y-85792797D01*
X60862731Y-85470627D01*
X61920640Y-85470627D01*
X62320024Y-86437209D01*
X63058901Y-87177377D01*
X64024784Y-87578447D01*
X65070627Y-87579360D01*
X66037209Y-87179976D01*
X66777377Y-86441099D01*
X67178447Y-85475216D01*
X67179360Y-84429373D01*
X66779976Y-83462791D01*
X66041099Y-82722623D01*
X65075216Y-82321553D01*
X64029373Y-82320640D01*
X63062791Y-82720024D01*
X62322623Y-83458901D01*
X61921553Y-84424784D01*
X61920640Y-85470627D01*
X60862731Y-85470627D01*
X60955647Y-85246862D01*
X60956163Y-84655732D01*
X60810658Y-84303582D01*
X61231667Y-84268968D01*
X61885825Y-83932777D01*
X62361532Y-83371842D01*
X63092862Y-82055197D01*
X63513091Y-81730992D01*
X63879167Y-81093078D01*
X63973258Y-80363631D01*
X63973258Y-80363630D01*
X65166742Y-80363630D01*
X65260833Y-81093077D01*
X65626909Y-81730992D01*
X66209238Y-82180257D01*
X66277287Y-82198682D01*
X66926993Y-83370781D01*
X67402211Y-83932131D01*
X68056076Y-84268892D01*
X68295640Y-84288798D01*
X68144353Y-84653138D01*
X68143837Y-85244268D01*
X68369576Y-85790598D01*
X68787203Y-86208955D01*
X69333138Y-86435647D01*
X69924268Y-86436163D01*
X70470598Y-86210424D01*
X70888955Y-85792797D01*
X71115647Y-85246862D01*
X71115649Y-85244268D01*
X77033837Y-85244268D01*
X77259576Y-85790598D01*
X77677203Y-86208955D01*
X78223138Y-86435647D01*
X78814268Y-86436163D01*
X79360598Y-86210424D01*
X79778955Y-85792797D01*
X79912731Y-85470627D01*
X80970640Y-85470627D01*
X81370024Y-86437209D01*
X82108901Y-87177377D01*
X83074784Y-87578447D01*
X84120627Y-87579360D01*
X85087209Y-87179976D01*
X85827377Y-86441099D01*
X86228447Y-85475216D01*
X86229360Y-84429373D01*
X85829976Y-83462791D01*
X85091099Y-82722623D01*
X84125216Y-82321553D01*
X83079373Y-82320640D01*
X82112791Y-82720024D01*
X81372623Y-83458901D01*
X80971553Y-84424784D01*
X80970640Y-85470627D01*
X79912731Y-85470627D01*
X80005647Y-85246862D01*
X80006163Y-84655732D01*
X79860658Y-84303582D01*
X80281667Y-84268968D01*
X80935825Y-83932777D01*
X81411532Y-83371842D01*
X82142862Y-82055197D01*
X82563091Y-81730992D01*
X82929167Y-81093078D01*
X83023258Y-80363631D01*
X83023258Y-80363630D01*
X84216742Y-80363630D01*
X84310833Y-81093077D01*
X84676909Y-81730992D01*
X85259238Y-82180257D01*
X85327287Y-82198682D01*
X85976993Y-83370781D01*
X86452211Y-83932131D01*
X87106076Y-84268892D01*
X87345640Y-84288798D01*
X87194353Y-84653138D01*
X87193837Y-85244268D01*
X87419576Y-85790598D01*
X87837203Y-86208955D01*
X88383138Y-86435647D01*
X88974268Y-86436163D01*
X89520598Y-86210424D01*
X89938955Y-85792797D01*
X90165647Y-85246862D01*
X90165649Y-85244268D01*
X96083837Y-85244268D01*
X96309576Y-85790598D01*
X96727203Y-86208955D01*
X97273138Y-86435647D01*
X97864268Y-86436163D01*
X98410598Y-86210424D01*
X98828955Y-85792797D01*
X98962731Y-85470627D01*
X100020640Y-85470627D01*
X100420024Y-86437209D01*
X101158901Y-87177377D01*
X102124784Y-87578447D01*
X103170627Y-87579360D01*
X104137209Y-87179976D01*
X104877377Y-86441099D01*
X105278447Y-85475216D01*
X105279360Y-84429373D01*
X104879976Y-83462791D01*
X104141099Y-82722623D01*
X103175216Y-82321553D01*
X102129373Y-82320640D01*
X101162791Y-82720024D01*
X100422623Y-83458901D01*
X100021553Y-84424784D01*
X100020640Y-85470627D01*
X98962731Y-85470627D01*
X99055647Y-85246862D01*
X99056163Y-84655732D01*
X98910658Y-84303582D01*
X99331667Y-84268968D01*
X99985825Y-83932777D01*
X100461532Y-83371842D01*
X101192862Y-82055197D01*
X101613091Y-81730992D01*
X101979167Y-81093078D01*
X102073258Y-80363631D01*
X102073258Y-80363630D01*
X103266742Y-80363630D01*
X103360833Y-81093077D01*
X103726909Y-81730992D01*
X104309238Y-82180257D01*
X104377287Y-82198682D01*
X105026993Y-83370781D01*
X105502211Y-83932131D01*
X106156076Y-84268892D01*
X106395640Y-84288798D01*
X106244353Y-84653138D01*
X106243837Y-85244268D01*
X106469576Y-85790598D01*
X106887203Y-86208955D01*
X107433138Y-86435647D01*
X108024268Y-86436163D01*
X108570598Y-86210424D01*
X108988955Y-85792797D01*
X109215647Y-85246862D01*
X109215649Y-85244268D01*
X115133837Y-85244268D01*
X115359576Y-85790598D01*
X115777203Y-86208955D01*
X116323138Y-86435647D01*
X116914268Y-86436163D01*
X117460598Y-86210424D01*
X117878955Y-85792797D01*
X118105647Y-85246862D01*
X118106163Y-84655732D01*
X117960658Y-84303582D01*
X118381667Y-84268968D01*
X119035825Y-83932777D01*
X119511532Y-83371842D01*
X120242862Y-82055197D01*
X120663091Y-81730992D01*
X121029167Y-81093078D01*
X121123258Y-80363631D01*
X121123258Y-80363630D01*
X122316742Y-80363630D01*
X122410833Y-81093077D01*
X122776909Y-81730992D01*
X123359238Y-82180257D01*
X123427287Y-82198682D01*
X124076993Y-83370781D01*
X124552211Y-83932131D01*
X125206076Y-84268892D01*
X125445640Y-84288798D01*
X125294353Y-84653138D01*
X125293837Y-85244268D01*
X125519576Y-85790598D01*
X125937203Y-86208955D01*
X126483138Y-86435647D01*
X127074268Y-86436163D01*
X127620598Y-86210424D01*
X128038955Y-85792797D01*
X128265647Y-85246862D01*
X128265649Y-85244268D01*
X134183837Y-85244268D01*
X134409576Y-85790598D01*
X134827203Y-86208955D01*
X135373138Y-86435647D01*
X135964268Y-86436163D01*
X136510598Y-86210424D01*
X136928955Y-85792797D01*
X137062731Y-85470627D01*
X138120640Y-85470627D01*
X138520024Y-86437209D01*
X139258901Y-87177377D01*
X140224784Y-87578447D01*
X141270627Y-87579360D01*
X142237209Y-87179976D01*
X142977377Y-86441099D01*
X143378447Y-85475216D01*
X143379360Y-84429373D01*
X142979976Y-83462791D01*
X142241099Y-82722623D01*
X141275216Y-82321553D01*
X140229373Y-82320640D01*
X139262791Y-82720024D01*
X138522623Y-83458901D01*
X138121553Y-84424784D01*
X138120640Y-85470627D01*
X137062731Y-85470627D01*
X137155647Y-85246862D01*
X137156163Y-84655732D01*
X137010658Y-84303582D01*
X137431667Y-84268968D01*
X138085825Y-83932777D01*
X138561532Y-83371842D01*
X139292862Y-82055197D01*
X139713091Y-81730992D01*
X140079167Y-81093078D01*
X140173258Y-80363631D01*
X140173258Y-80363630D01*
X141366742Y-80363630D01*
X141460833Y-81093077D01*
X141826909Y-81730992D01*
X142409238Y-82180257D01*
X142477287Y-82198682D01*
X143126993Y-83370781D01*
X143602211Y-83932131D01*
X144256076Y-84268892D01*
X144495640Y-84288798D01*
X144344353Y-84653138D01*
X144343837Y-85244268D01*
X144569576Y-85790598D01*
X144987203Y-86208955D01*
X145533138Y-86435647D01*
X146124268Y-86436163D01*
X146670598Y-86210424D01*
X147088955Y-85792797D01*
X147315647Y-85246862D01*
X147316163Y-84655732D01*
X147090424Y-84109402D01*
X146672797Y-83691045D01*
X146299453Y-83536019D01*
X146587629Y-82976489D01*
X146648534Y-82243525D01*
X146424309Y-81543047D01*
X145563007Y-79989219D01*
X145108197Y-79451975D01*
X145079167Y-79226922D01*
X144713091Y-78589008D01*
X144130762Y-78139743D01*
X143420834Y-77947524D01*
X142691387Y-78041614D01*
X142053472Y-78407691D01*
X141604207Y-78990020D01*
X141411988Y-79699948D01*
X141366742Y-80363630D01*
X140173258Y-80363630D01*
X140128012Y-79699948D01*
X139935793Y-78990020D01*
X139486528Y-78407691D01*
X138848613Y-78041615D01*
X138119166Y-77947524D01*
X137409238Y-78139743D01*
X136826909Y-78589008D01*
X136460833Y-79226923D01*
X136404649Y-79662496D01*
X136128467Y-79988158D01*
X135265812Y-81541234D01*
X135040976Y-82241516D01*
X135101242Y-82974533D01*
X135356742Y-83471683D01*
X134829402Y-83689576D01*
X134411045Y-84107203D01*
X134184353Y-84653138D01*
X134183837Y-85244268D01*
X128265649Y-85244268D01*
X128266163Y-84655732D01*
X128040424Y-84109402D01*
X127622797Y-83691045D01*
X127249453Y-83536019D01*
X127537629Y-82976489D01*
X127598534Y-82243525D01*
X127374309Y-81543047D01*
X126513007Y-79989219D01*
X126058197Y-79451975D01*
X126029167Y-79226922D01*
X125663091Y-78589008D01*
X125080762Y-78139743D01*
X124370834Y-77947524D01*
X123641387Y-78041614D01*
X123003472Y-78407691D01*
X122554207Y-78990020D01*
X122361988Y-79699948D01*
X122316742Y-80363630D01*
X121123258Y-80363630D01*
X121078012Y-79699948D01*
X120885793Y-78990020D01*
X120436528Y-78407691D01*
X119798613Y-78041615D01*
X119069166Y-77947524D01*
X118359238Y-78139743D01*
X117776909Y-78589008D01*
X117410833Y-79226923D01*
X117354649Y-79662496D01*
X117078467Y-79988158D01*
X116215812Y-81541234D01*
X115990976Y-82241516D01*
X116051242Y-82974533D01*
X116306742Y-83471683D01*
X115779402Y-83689576D01*
X115361045Y-84107203D01*
X115134353Y-84653138D01*
X115133837Y-85244268D01*
X109215649Y-85244268D01*
X109216163Y-84655732D01*
X108990424Y-84109402D01*
X108572797Y-83691045D01*
X108199453Y-83536019D01*
X108487629Y-82976489D01*
X108548534Y-82243525D01*
X108324309Y-81543047D01*
X107781445Y-80563694D01*
X110662686Y-80563694D01*
X110910998Y-81164655D01*
X111370387Y-81624846D01*
X111970913Y-81874206D01*
X112621154Y-81874774D01*
X113222115Y-81626462D01*
X113682306Y-81167073D01*
X113931666Y-80566547D01*
X113932234Y-79916306D01*
X113683922Y-79315345D01*
X113224533Y-78855154D01*
X112624007Y-78605794D01*
X111973766Y-78605226D01*
X111372805Y-78853538D01*
X110912614Y-79312927D01*
X110663254Y-79913453D01*
X110662686Y-80563694D01*
X107781445Y-80563694D01*
X107463007Y-79989219D01*
X107008197Y-79451975D01*
X106979167Y-79226922D01*
X106613091Y-78589008D01*
X106030762Y-78139743D01*
X105320834Y-77947524D01*
X104591387Y-78041614D01*
X103953472Y-78407691D01*
X103504207Y-78990020D01*
X103311988Y-79699948D01*
X103266742Y-80363630D01*
X102073258Y-80363630D01*
X102028012Y-79699948D01*
X101835793Y-78990020D01*
X101386528Y-78407691D01*
X100748613Y-78041615D01*
X100019166Y-77947524D01*
X99309238Y-78139743D01*
X98726909Y-78589008D01*
X98360833Y-79226923D01*
X98304649Y-79662496D01*
X98028467Y-79988158D01*
X97165812Y-81541234D01*
X96940976Y-82241516D01*
X97001242Y-82974533D01*
X97256742Y-83471683D01*
X96729402Y-83689576D01*
X96311045Y-84107203D01*
X96084353Y-84653138D01*
X96083837Y-85244268D01*
X90165649Y-85244268D01*
X90166163Y-84655732D01*
X89940424Y-84109402D01*
X89522797Y-83691045D01*
X89149453Y-83536019D01*
X89437629Y-82976489D01*
X89498534Y-82243525D01*
X89274309Y-81543047D01*
X88731445Y-80563694D01*
X91612686Y-80563694D01*
X91860998Y-81164655D01*
X92320387Y-81624846D01*
X92920913Y-81874206D01*
X93571154Y-81874774D01*
X94172115Y-81626462D01*
X94632306Y-81167073D01*
X94881666Y-80566547D01*
X94882234Y-79916306D01*
X94633922Y-79315345D01*
X94174533Y-78855154D01*
X93574007Y-78605794D01*
X92923766Y-78605226D01*
X92322805Y-78853538D01*
X91862614Y-79312927D01*
X91613254Y-79913453D01*
X91612686Y-80563694D01*
X88731445Y-80563694D01*
X88413007Y-79989219D01*
X87958197Y-79451975D01*
X87929167Y-79226922D01*
X87563091Y-78589008D01*
X86980762Y-78139743D01*
X86270834Y-77947524D01*
X85541387Y-78041614D01*
X84903472Y-78407691D01*
X84454207Y-78990020D01*
X84261988Y-79699948D01*
X84216742Y-80363630D01*
X83023258Y-80363630D01*
X82978012Y-79699948D01*
X82785793Y-78990020D01*
X82336528Y-78407691D01*
X81698613Y-78041615D01*
X80969166Y-77947524D01*
X80259238Y-78139743D01*
X79676909Y-78589008D01*
X79310833Y-79226923D01*
X79254649Y-79662496D01*
X78978467Y-79988158D01*
X78115812Y-81541234D01*
X77890976Y-82241516D01*
X77951242Y-82974533D01*
X78206742Y-83471683D01*
X77679402Y-83689576D01*
X77261045Y-84107203D01*
X77034353Y-84653138D01*
X77033837Y-85244268D01*
X71115649Y-85244268D01*
X71116163Y-84655732D01*
X70890424Y-84109402D01*
X70472797Y-83691045D01*
X70099453Y-83536019D01*
X70387629Y-82976489D01*
X70448534Y-82243525D01*
X70224309Y-81543047D01*
X69432005Y-80113694D01*
X72412686Y-80113694D01*
X72660998Y-80714655D01*
X73120387Y-81174846D01*
X73720913Y-81424206D01*
X74371154Y-81424774D01*
X74972115Y-81176462D01*
X75432306Y-80717073D01*
X75681666Y-80116547D01*
X75682234Y-79466306D01*
X75433922Y-78865345D01*
X74974533Y-78405154D01*
X74374007Y-78155794D01*
X73723766Y-78155226D01*
X73122805Y-78403538D01*
X72662614Y-78862927D01*
X72413254Y-79463453D01*
X72412686Y-80113694D01*
X69432005Y-80113694D01*
X69363007Y-79989219D01*
X68908197Y-79451975D01*
X68879167Y-79226922D01*
X68513091Y-78589008D01*
X67930762Y-78139743D01*
X67220834Y-77947524D01*
X66491387Y-78041614D01*
X65853472Y-78407691D01*
X65404207Y-78990020D01*
X65211988Y-79699948D01*
X65166742Y-80363630D01*
X63973258Y-80363630D01*
X63928012Y-79699948D01*
X63735793Y-78990020D01*
X63286528Y-78407691D01*
X62648613Y-78041615D01*
X61919166Y-77947524D01*
X61209238Y-78139743D01*
X60626909Y-78589008D01*
X60260833Y-79226923D01*
X60204649Y-79662496D01*
X59928467Y-79988158D01*
X59065812Y-81541234D01*
X58840976Y-82241516D01*
X58901242Y-82974533D01*
X59156742Y-83471683D01*
X58629402Y-83689576D01*
X58211045Y-84107203D01*
X57984353Y-84653138D01*
X57983837Y-85244268D01*
X52065692Y-85244268D01*
X52066163Y-84705732D01*
X51840424Y-84159402D01*
X51422797Y-83741045D01*
X51049453Y-83586019D01*
X51337629Y-83026489D01*
X51398534Y-82293525D01*
X51174309Y-81593047D01*
X50313007Y-80039219D01*
X49858197Y-79501975D01*
X49829167Y-79276922D01*
X49620724Y-78913694D01*
X53362686Y-78913694D01*
X53610998Y-79514655D01*
X54070387Y-79974846D01*
X54670913Y-80224206D01*
X55321154Y-80224774D01*
X55922115Y-79976462D01*
X56382306Y-79517073D01*
X56631666Y-78916547D01*
X56632234Y-78266306D01*
X56383922Y-77665345D01*
X56030445Y-77311250D01*
X125268860Y-77311250D01*
X125268860Y-77901809D01*
X125365533Y-78135198D01*
X125544161Y-78313827D01*
X125777550Y-78410500D01*
X127118110Y-78410500D01*
X127276860Y-78251750D01*
X127276860Y-77152500D01*
X127530860Y-77152500D01*
X127530860Y-78251750D01*
X127689610Y-78410500D01*
X129030170Y-78410500D01*
X129263559Y-78313827D01*
X129413691Y-78163694D01*
X129612686Y-78163694D01*
X129860998Y-78764655D01*
X130320387Y-79224846D01*
X130920913Y-79474206D01*
X131571154Y-79474774D01*
X132172115Y-79226462D01*
X132632306Y-78767073D01*
X132881666Y-78166547D01*
X132882234Y-77516306D01*
X132633922Y-76915345D01*
X132174533Y-76455154D01*
X131574007Y-76205794D01*
X130923766Y-76205226D01*
X130322805Y-76453538D01*
X129862614Y-76912927D01*
X129613254Y-77513453D01*
X129612686Y-78163694D01*
X129413691Y-78163694D01*
X129442187Y-78135198D01*
X129538860Y-77901809D01*
X129538860Y-77311250D01*
X129380110Y-77152500D01*
X127530860Y-77152500D01*
X127276860Y-77152500D01*
X125427610Y-77152500D01*
X125268860Y-77311250D01*
X56030445Y-77311250D01*
X55924533Y-77205154D01*
X55324007Y-76955794D01*
X54673766Y-76955226D01*
X54072805Y-77203538D01*
X53612614Y-77662927D01*
X53363254Y-78263453D01*
X53362686Y-78913694D01*
X49620724Y-78913694D01*
X49463091Y-78639008D01*
X48880762Y-78189743D01*
X48170834Y-77997524D01*
X47441387Y-78091614D01*
X46803472Y-78457691D01*
X46354207Y-79040020D01*
X46161988Y-79749948D01*
X46116742Y-80413630D01*
X44923258Y-80413630D01*
X44878012Y-79749948D01*
X44685793Y-79040020D01*
X44236528Y-78457691D01*
X43598613Y-78091615D01*
X42869166Y-77997524D01*
X42159238Y-78189743D01*
X41576909Y-78639008D01*
X41210833Y-79276923D01*
X41154649Y-79712496D01*
X40878467Y-80038158D01*
X40015812Y-81591234D01*
X39790976Y-82291516D01*
X39851242Y-83024533D01*
X40106742Y-83521683D01*
X39579402Y-83739576D01*
X39161045Y-84157203D01*
X38934353Y-84703138D01*
X38933837Y-85294268D01*
X37710000Y-85294268D01*
X37710000Y-75726234D01*
X38255226Y-75726234D01*
X38503538Y-76327195D01*
X38962927Y-76787386D01*
X39563453Y-77036746D01*
X40213694Y-77037314D01*
X40814655Y-76789002D01*
X41274846Y-76329613D01*
X41524206Y-75729087D01*
X41524774Y-75078846D01*
X41455691Y-74911651D01*
X49473070Y-66894272D01*
X49787203Y-67208955D01*
X50333138Y-67435647D01*
X50924268Y-67436163D01*
X51470598Y-67210424D01*
X51888955Y-66792797D01*
X52115647Y-66246862D01*
X52116163Y-65655732D01*
X51890424Y-65109402D01*
X51472797Y-64691045D01*
X51099453Y-64536019D01*
X51387629Y-63976489D01*
X51448534Y-63243525D01*
X51224309Y-62543047D01*
X50363007Y-60989219D01*
X49908197Y-60451975D01*
X49879167Y-60226922D01*
X49513091Y-59589008D01*
X48930762Y-59139743D01*
X48220834Y-58947524D01*
X47491387Y-59041614D01*
X46853472Y-59407691D01*
X46404207Y-59990020D01*
X46211988Y-60699948D01*
X46166742Y-61363630D01*
X46260833Y-62093077D01*
X46626909Y-62730992D01*
X47209238Y-63180257D01*
X47277287Y-63198682D01*
X47926993Y-64370781D01*
X48385000Y-64911801D01*
X48385000Y-65832738D01*
X48178828Y-66038910D01*
X48179360Y-65429373D01*
X47779976Y-64462791D01*
X47041099Y-63722623D01*
X46075216Y-63321553D01*
X45029373Y-63320640D01*
X44062791Y-63720024D01*
X43322623Y-64458901D01*
X42921553Y-65424784D01*
X42920640Y-66470627D01*
X43320024Y-67437209D01*
X44058901Y-68177377D01*
X45024784Y-68578447D01*
X45638755Y-68578983D01*
X40381083Y-73836655D01*
X40216547Y-73768334D01*
X39566306Y-73767766D01*
X38965345Y-74016078D01*
X38505154Y-74475467D01*
X38255794Y-75075993D01*
X38255226Y-75726234D01*
X37710000Y-75726234D01*
X37710000Y-66244268D01*
X38983837Y-66244268D01*
X39209576Y-66790598D01*
X39627203Y-67208955D01*
X40173138Y-67435647D01*
X40764268Y-67436163D01*
X41310598Y-67210424D01*
X41728955Y-66792797D01*
X41955647Y-66246862D01*
X41956163Y-65655732D01*
X41810658Y-65303582D01*
X42231667Y-65268968D01*
X42885825Y-64932777D01*
X43361532Y-64371842D01*
X44092862Y-63055197D01*
X44513091Y-62730992D01*
X44879167Y-62093078D01*
X44973258Y-61363631D01*
X44928012Y-60699948D01*
X44735793Y-59990020D01*
X44286528Y-59407691D01*
X43648613Y-59041615D01*
X42919166Y-58947524D01*
X42209238Y-59139743D01*
X41626909Y-59589008D01*
X41260833Y-60226923D01*
X41204649Y-60662496D01*
X40928467Y-60988158D01*
X40065812Y-62541234D01*
X39840976Y-63241516D01*
X39901242Y-63974533D01*
X40156742Y-64471683D01*
X39629402Y-64689576D01*
X39211045Y-65107203D01*
X38984353Y-65653138D01*
X38983837Y-66244268D01*
X37710000Y-66244268D01*
X37710000Y-56676234D01*
X39155226Y-56676234D01*
X39403538Y-57277195D01*
X39862927Y-57737386D01*
X40463453Y-57986746D01*
X41113694Y-57987314D01*
X41714655Y-57739002D01*
X42174846Y-57279613D01*
X42424206Y-56679087D01*
X42424774Y-56028846D01*
X42176462Y-55427885D01*
X42101758Y-55353050D01*
X49303070Y-55353050D01*
X49303070Y-57352030D01*
X49347348Y-57587347D01*
X49486420Y-57803471D01*
X49698620Y-57948461D01*
X49950510Y-57999470D01*
X51949490Y-57999470D01*
X52184807Y-57955192D01*
X52400931Y-57816120D01*
X52545921Y-57603920D01*
X52596930Y-57352030D01*
X52596930Y-55353050D01*
X52552652Y-55117733D01*
X52413580Y-54901609D01*
X52201380Y-54756619D01*
X51949490Y-54705610D01*
X49950510Y-54705610D01*
X49715193Y-54749888D01*
X49499069Y-54888960D01*
X49354079Y-55101160D01*
X49303070Y-55353050D01*
X42101758Y-55353050D01*
X41717073Y-54967694D01*
X41116547Y-54718334D01*
X40466306Y-54717766D01*
X39865345Y-54966078D01*
X39405154Y-55425467D01*
X39155794Y-56025993D01*
X39155226Y-56676234D01*
X37710000Y-56676234D01*
X37710000Y-39710000D01*
X44000000Y-39710000D01*
X44271705Y-39655954D01*
X44502046Y-39502046D01*
X47215444Y-36788648D01*
X47214197Y-38217914D01*
X47901873Y-39882217D01*
X47441387Y-39941614D01*
X46803472Y-40307691D01*
X46354207Y-40890020D01*
X46161988Y-41599948D01*
X46116742Y-42263630D01*
X46210833Y-42993077D01*
X46576909Y-43630992D01*
X47159238Y-44080257D01*
X47227287Y-44098682D01*
X47876993Y-45270781D01*
X48352211Y-45832131D01*
X49006076Y-46168892D01*
X49245640Y-46188798D01*
X49094353Y-46553138D01*
X49093837Y-47144268D01*
X49319576Y-47690598D01*
X49372725Y-47743840D01*
X48531780Y-47743840D01*
X48240940Y-47801692D01*
X47994379Y-47966439D01*
X47803824Y-48156994D01*
X48128447Y-47375216D01*
X48129360Y-46329373D01*
X47729976Y-45362791D01*
X46991099Y-44622623D01*
X46025216Y-44221553D01*
X44979373Y-44220640D01*
X44012791Y-44620024D01*
X43272623Y-45358901D01*
X42871553Y-46324784D01*
X42870640Y-47370627D01*
X43064426Y-47839624D01*
X42855000Y-47630198D01*
X42855000Y-45810167D01*
X43311532Y-45271842D01*
X44042862Y-43955197D01*
X44463091Y-43630992D01*
X44829167Y-42993078D01*
X44923258Y-42263631D01*
X44878012Y-41599948D01*
X44685793Y-40890020D01*
X44236528Y-40307691D01*
X43598613Y-39941615D01*
X42869166Y-39847524D01*
X42159238Y-40039743D01*
X41576909Y-40489008D01*
X41210833Y-41126923D01*
X41154649Y-41562496D01*
X40878467Y-41888158D01*
X40015812Y-43441234D01*
X39790976Y-44141516D01*
X39851242Y-44874533D01*
X40106742Y-45371683D01*
X39579402Y-45589576D01*
X39161045Y-46007203D01*
X38934353Y-46553138D01*
X38933837Y-47144268D01*
X39159576Y-47690598D01*
X39577203Y-48108955D01*
X40123138Y-48335647D01*
X40714268Y-48336163D01*
X41260598Y-48110424D01*
X41350128Y-48021051D01*
X41392852Y-48235839D01*
X41557599Y-48482401D01*
X43362599Y-50287401D01*
X43609160Y-50452148D01*
X43640747Y-50458431D01*
X43900000Y-50510000D01*
X47285620Y-50510000D01*
X47576459Y-50452148D01*
X47823021Y-50287401D01*
X48846582Y-49263840D01*
X49264700Y-49263840D01*
X49264700Y-50592420D01*
X49308978Y-50827737D01*
X49448050Y-51043861D01*
X49660250Y-51188851D01*
X49740074Y-51205016D01*
X49702223Y-51212138D01*
X49486099Y-51351210D01*
X49341109Y-51563410D01*
X49290100Y-51815300D01*
X49290100Y-53315300D01*
X49334378Y-53550617D01*
X49473450Y-53766741D01*
X49685650Y-53911731D01*
X49937540Y-53962740D01*
X52937540Y-53962740D01*
X53172857Y-53918462D01*
X53371291Y-53790773D01*
X53677919Y-54097401D01*
X53924481Y-54262148D01*
X54215320Y-54320000D01*
X55608797Y-54320000D01*
X55648035Y-54414964D01*
X56062698Y-54830351D01*
X55649529Y-55242800D01*
X55418963Y-55798065D01*
X55418438Y-56399297D01*
X55648035Y-56954964D01*
X56062698Y-57370351D01*
X55649529Y-57782800D01*
X55418963Y-58338065D01*
X55418438Y-58939297D01*
X55438163Y-58987035D01*
X52562599Y-61862599D01*
X52397852Y-62109161D01*
X52340000Y-62400000D01*
X52340000Y-72037738D01*
X50622128Y-73755610D01*
X49050510Y-73755610D01*
X48815193Y-73799888D01*
X48599069Y-73938960D01*
X48454079Y-74151160D01*
X48403070Y-74403050D01*
X48403070Y-76402030D01*
X48447348Y-76637347D01*
X48586420Y-76853471D01*
X48798620Y-76998461D01*
X49050510Y-77049470D01*
X51049490Y-77049470D01*
X51284807Y-77005192D01*
X51500931Y-76866120D01*
X51645921Y-76653920D01*
X51696930Y-76402030D01*
X51696930Y-76162540D01*
X58053070Y-76162540D01*
X58053070Y-76446950D01*
X58097348Y-76682267D01*
X58236420Y-76898391D01*
X58448620Y-77043381D01*
X58700510Y-77094390D01*
X60699490Y-77094390D01*
X60934807Y-77050112D01*
X61150931Y-76911040D01*
X61295921Y-76698840D01*
X61346930Y-76446950D01*
X61346930Y-76207460D01*
X63352540Y-76207460D01*
X63643379Y-76149608D01*
X63889941Y-75984861D01*
X64103648Y-75771154D01*
X68225226Y-75771154D01*
X68473538Y-76372115D01*
X68932927Y-76832306D01*
X69533453Y-77081666D01*
X70183694Y-77082234D01*
X70784655Y-76833922D01*
X71244846Y-76374533D01*
X71338416Y-76149191D01*
X125268860Y-76149191D01*
X125268860Y-76739750D01*
X125427610Y-76898500D01*
X127276860Y-76898500D01*
X127276860Y-75799250D01*
X127530860Y-75799250D01*
X127530860Y-76898500D01*
X129380110Y-76898500D01*
X129538860Y-76739750D01*
X129538860Y-76149191D01*
X129442187Y-75915802D01*
X129263559Y-75737173D01*
X129030170Y-75640500D01*
X127689610Y-75640500D01*
X127530860Y-75799250D01*
X127276860Y-75799250D01*
X127118110Y-75640500D01*
X125777550Y-75640500D01*
X125544161Y-75737173D01*
X125365533Y-75915802D01*
X125268860Y-76149191D01*
X71338416Y-76149191D01*
X71494206Y-75774007D01*
X71494774Y-75123766D01*
X71246462Y-74522805D01*
X70787073Y-74062614D01*
X70186547Y-73813254D01*
X69536306Y-73812686D01*
X68935345Y-74060998D01*
X68475154Y-74520387D01*
X68225794Y-75120913D01*
X68225226Y-75771154D01*
X64103648Y-75771154D01*
X67964802Y-71910000D01*
X91400530Y-71910000D01*
X91400530Y-72149490D01*
X91444808Y-72384807D01*
X91583880Y-72600931D01*
X91796080Y-72745921D01*
X92047970Y-72796930D01*
X94046950Y-72796930D01*
X94282267Y-72752652D01*
X94498391Y-72613580D01*
X94643381Y-72401380D01*
X94694390Y-72149490D01*
X94694390Y-71910000D01*
X110600530Y-71910000D01*
X110600530Y-72299490D01*
X110644808Y-72534807D01*
X110783880Y-72750931D01*
X110996080Y-72895921D01*
X111247970Y-72946930D01*
X113246950Y-72946930D01*
X113482267Y-72902652D01*
X113698391Y-72763580D01*
X113843381Y-72551380D01*
X113894390Y-72299490D01*
X113894390Y-70727872D01*
X114202762Y-70419500D01*
X125299600Y-70419500D01*
X125299600Y-70532174D01*
X125174416Y-70615819D01*
X125129099Y-70646099D01*
X125018820Y-70756378D01*
X124973333Y-70756338D01*
X124629557Y-70898383D01*
X124366308Y-71161173D01*
X124223662Y-71504701D01*
X124223338Y-71876667D01*
X124365383Y-72220443D01*
X124628173Y-72483692D01*
X124971701Y-72626338D01*
X125343667Y-72626662D01*
X125687443Y-72484617D01*
X125746195Y-72425968D01*
X125947040Y-72466640D01*
X128947040Y-72466640D01*
X129182357Y-72422362D01*
X129398481Y-72283290D01*
X129543471Y-72071090D01*
X129594480Y-71819200D01*
X129594480Y-70915782D01*
X129650530Y-70971832D01*
X129650530Y-72549490D01*
X129694808Y-72784807D01*
X129697201Y-72788526D01*
X129481833Y-72788338D01*
X129393243Y-72824942D01*
X129355250Y-72765899D01*
X129143050Y-72620909D01*
X128891160Y-72569900D01*
X125891160Y-72569900D01*
X125655843Y-72614178D01*
X125439719Y-72753250D01*
X125294729Y-72965450D01*
X125243720Y-73217340D01*
X125243720Y-74717340D01*
X125287998Y-74952657D01*
X125427070Y-75168781D01*
X125639270Y-75313771D01*
X125891160Y-75364780D01*
X128891160Y-75364780D01*
X129126477Y-75320502D01*
X129342601Y-75181430D01*
X129487591Y-74969230D01*
X129538600Y-74717340D01*
X129538600Y-74658389D01*
X129852167Y-74658662D01*
X130195943Y-74516617D01*
X130459192Y-74253827D01*
X130601838Y-73910299D01*
X130602162Y-73538333D01*
X130461098Y-73196930D01*
X132296950Y-73196930D01*
X132362360Y-73184622D01*
X133953070Y-74775332D01*
X133953070Y-76346950D01*
X133997348Y-76582267D01*
X134136420Y-76798391D01*
X134348620Y-76943381D01*
X134600510Y-76994390D01*
X136599490Y-76994390D01*
X136834807Y-76950112D01*
X137050931Y-76811040D01*
X137195921Y-76598840D01*
X137246930Y-76346950D01*
X137246930Y-75671154D01*
X144125226Y-75671154D01*
X144373538Y-76272115D01*
X144832927Y-76732306D01*
X145433453Y-76981666D01*
X146083694Y-76982234D01*
X146684655Y-76733922D01*
X147144846Y-76274533D01*
X147394206Y-75674007D01*
X147394774Y-75023766D01*
X147146462Y-74422805D01*
X146687073Y-73962614D01*
X146086547Y-73713254D01*
X145436306Y-73712686D01*
X144835345Y-73960998D01*
X144375154Y-74420387D01*
X144125794Y-75020913D01*
X144125226Y-75671154D01*
X137246930Y-75671154D01*
X137246930Y-74347970D01*
X137202652Y-74112653D01*
X137063580Y-73896529D01*
X136851380Y-73751539D01*
X136599490Y-73700530D01*
X135027872Y-73700530D01*
X132944390Y-71617048D01*
X132944390Y-70550510D01*
X132900112Y-70315193D01*
X132761040Y-70099069D01*
X132548840Y-69954079D01*
X132296950Y-69903070D01*
X130731372Y-69903070D01*
X129977802Y-69149500D01*
X136410500Y-69149500D01*
X136701339Y-69091648D01*
X136947901Y-68926901D01*
X137882401Y-67992401D01*
X138047148Y-67745839D01*
X138105000Y-67455000D01*
X138105000Y-66420627D01*
X138120640Y-66420627D01*
X138520024Y-67387209D01*
X139258901Y-68127377D01*
X140224784Y-68528447D01*
X141270627Y-68529360D01*
X142237209Y-68129976D01*
X142977377Y-67391099D01*
X143378447Y-66425216D01*
X143379360Y-65379373D01*
X142979976Y-64412791D01*
X142241099Y-63672623D01*
X141275216Y-63271553D01*
X140229373Y-63270640D01*
X139262791Y-63670024D01*
X138522623Y-64408901D01*
X138121553Y-65374784D01*
X138120640Y-66420627D01*
X138105000Y-66420627D01*
X138105000Y-64860167D01*
X138561532Y-64321842D01*
X139292862Y-63005197D01*
X139713091Y-62680992D01*
X140079167Y-62043078D01*
X140173258Y-61313631D01*
X140173258Y-61313630D01*
X141366742Y-61313630D01*
X141460833Y-62043077D01*
X141826909Y-62680992D01*
X142409238Y-63130257D01*
X142477287Y-63148682D01*
X143126993Y-64320781D01*
X143602211Y-64882131D01*
X144256076Y-65218892D01*
X144495640Y-65238798D01*
X144344353Y-65603138D01*
X144343837Y-66194268D01*
X144569576Y-66740598D01*
X144987203Y-67158955D01*
X145533138Y-67385647D01*
X146124268Y-67386163D01*
X146670598Y-67160424D01*
X147088955Y-66742797D01*
X147315647Y-66196862D01*
X147316163Y-65605732D01*
X147090424Y-65059402D01*
X146672797Y-64641045D01*
X146299453Y-64486019D01*
X146587629Y-63926489D01*
X146648534Y-63193525D01*
X146424309Y-62493047D01*
X145563007Y-60939219D01*
X145108197Y-60401975D01*
X145079167Y-60176922D01*
X144713091Y-59539008D01*
X144130762Y-59089743D01*
X143420834Y-58897524D01*
X142691387Y-58991614D01*
X142053472Y-59357691D01*
X141604207Y-59940020D01*
X141411988Y-60649948D01*
X141366742Y-61313630D01*
X140173258Y-61313630D01*
X140128012Y-60649948D01*
X139935793Y-59940020D01*
X139486528Y-59357691D01*
X138848613Y-58991615D01*
X138119166Y-58897524D01*
X137409238Y-59089743D01*
X136826909Y-59539008D01*
X136460833Y-60176923D01*
X136404649Y-60612496D01*
X136128467Y-60938158D01*
X135265812Y-62491234D01*
X135040976Y-63191516D01*
X135101242Y-63924533D01*
X135356742Y-64421683D01*
X134829402Y-64639576D01*
X134411045Y-65057203D01*
X134184353Y-65603138D01*
X134183837Y-66194268D01*
X134409576Y-66740598D01*
X134827203Y-67158955D01*
X135373138Y-67385647D01*
X135964268Y-67386163D01*
X136510598Y-67160424D01*
X136585000Y-67086152D01*
X136585000Y-67140198D01*
X136095698Y-67629500D01*
X123688559Y-67629500D01*
X123927377Y-67391099D01*
X124328447Y-66425216D01*
X124329360Y-65379373D01*
X123929976Y-64412791D01*
X123191099Y-63672623D01*
X122225216Y-63271553D01*
X121179373Y-63270640D01*
X120212791Y-63670024D01*
X119472623Y-64408901D01*
X119071553Y-65374784D01*
X119070640Y-66420627D01*
X119470024Y-67387209D01*
X119711892Y-67629500D01*
X111950500Y-67629500D01*
X111659661Y-67687352D01*
X111413099Y-67852099D01*
X110425198Y-68840000D01*
X109526802Y-68840000D01*
X116496802Y-61870000D01*
X116560876Y-61870000D01*
X116215812Y-62491234D01*
X115990976Y-63191516D01*
X116051242Y-63924533D01*
X116306742Y-64421683D01*
X115779402Y-64639576D01*
X115361045Y-65057203D01*
X115134353Y-65603138D01*
X115133837Y-66194268D01*
X115359576Y-66740598D01*
X115777203Y-67158955D01*
X116323138Y-67385647D01*
X116914268Y-67386163D01*
X117460598Y-67160424D01*
X117878955Y-66742797D01*
X118105647Y-66196862D01*
X118106163Y-65605732D01*
X117960658Y-65253582D01*
X118381667Y-65218968D01*
X119035825Y-64882777D01*
X119511532Y-64321842D01*
X120242862Y-63005197D01*
X120663091Y-62680992D01*
X121029167Y-62043078D01*
X121123258Y-61313631D01*
X121123258Y-61313630D01*
X122316742Y-61313630D01*
X122410833Y-62043077D01*
X122776909Y-62680992D01*
X123359238Y-63130257D01*
X123427287Y-63148682D01*
X124076993Y-64320781D01*
X124552211Y-64882131D01*
X125206076Y-65218892D01*
X125445640Y-65238798D01*
X125294353Y-65603138D01*
X125293837Y-66194268D01*
X125519576Y-66740598D01*
X125937203Y-67158955D01*
X126483138Y-67385647D01*
X127074268Y-67386163D01*
X127620598Y-67160424D01*
X128038955Y-66742797D01*
X128265647Y-66196862D01*
X128266163Y-65605732D01*
X128040424Y-65059402D01*
X127622797Y-64641045D01*
X127249453Y-64486019D01*
X127537629Y-63926489D01*
X127551463Y-63760000D01*
X129795504Y-63760000D01*
X129863538Y-63924655D01*
X130322927Y-64384846D01*
X130923453Y-64634206D01*
X131573694Y-64634774D01*
X132174655Y-64386462D01*
X132634846Y-63927073D01*
X132884206Y-63326547D01*
X132884774Y-62676306D01*
X132636462Y-62075345D01*
X132177073Y-61615154D01*
X131576547Y-61365794D01*
X130926306Y-61365226D01*
X130325345Y-61613538D01*
X129865154Y-62072927D01*
X129795779Y-62240000D01*
X127234043Y-62240000D01*
X126513007Y-60939219D01*
X126058197Y-60401975D01*
X126029167Y-60176922D01*
X125663091Y-59539008D01*
X125080762Y-59089743D01*
X124370834Y-58897524D01*
X123641387Y-58991614D01*
X123003472Y-59357691D01*
X122554207Y-59940020D01*
X122361988Y-60649948D01*
X122316742Y-61313630D01*
X121123258Y-61313630D01*
X121078012Y-60649948D01*
X120885793Y-59940020D01*
X120436528Y-59357691D01*
X119980000Y-59095706D01*
X119980000Y-56573694D01*
X123365226Y-56573694D01*
X123613538Y-57174655D01*
X124072927Y-57634846D01*
X124673453Y-57884206D01*
X125323694Y-57884774D01*
X125924655Y-57636462D01*
X126384846Y-57177073D01*
X126564742Y-56743836D01*
X126564197Y-57367914D01*
X127268347Y-59072087D01*
X128571055Y-60377071D01*
X130273997Y-61084194D01*
X132117914Y-61085803D01*
X133822087Y-60381653D01*
X135127071Y-59078945D01*
X135834194Y-57376003D01*
X135835803Y-55532086D01*
X135719459Y-55250510D01*
X135853070Y-55250510D01*
X135853070Y-57249490D01*
X135897348Y-57484807D01*
X136036420Y-57700931D01*
X136248620Y-57845921D01*
X136500510Y-57896930D01*
X138499490Y-57896930D01*
X138734807Y-57852652D01*
X138950931Y-57713580D01*
X139095921Y-57501380D01*
X139146930Y-57249490D01*
X139146930Y-56571154D01*
X144425226Y-56571154D01*
X144673538Y-57172115D01*
X145132927Y-57632306D01*
X145733453Y-57881666D01*
X146383694Y-57882234D01*
X146984655Y-57633922D01*
X147444846Y-57174533D01*
X147694206Y-56574007D01*
X147694774Y-55923766D01*
X147446462Y-55322805D01*
X146987073Y-54862614D01*
X146386547Y-54613254D01*
X145736306Y-54612686D01*
X145135345Y-54860998D01*
X144675154Y-55320387D01*
X144425794Y-55920913D01*
X144425226Y-56571154D01*
X139146930Y-56571154D01*
X139146930Y-55250510D01*
X139102652Y-55015193D01*
X138963580Y-54799069D01*
X138751380Y-54654079D01*
X138499490Y-54603070D01*
X136500510Y-54603070D01*
X136265193Y-54647348D01*
X136049069Y-54786420D01*
X135904079Y-54998620D01*
X135853070Y-55250510D01*
X135719459Y-55250510D01*
X135131653Y-53827913D01*
X133828945Y-52522929D01*
X132126003Y-51815806D01*
X130282086Y-51814197D01*
X128577913Y-52518347D01*
X127272929Y-53821055D01*
X126565806Y-55523997D01*
X126565601Y-55758895D01*
X126386462Y-55325345D01*
X125927073Y-54865154D01*
X125326547Y-54615794D01*
X124676306Y-54615226D01*
X124075345Y-54863538D01*
X123615154Y-55322927D01*
X123365794Y-55923453D01*
X123365226Y-56573694D01*
X119980000Y-56573694D01*
X119980000Y-55459516D01*
X119981692Y-55457827D01*
X120124338Y-55114299D01*
X120124662Y-54742333D01*
X119982617Y-54398557D01*
X119719827Y-54135308D01*
X119376299Y-53992662D01*
X119004333Y-53992338D01*
X118660557Y-54134383D01*
X118397308Y-54397173D01*
X118254662Y-54740701D01*
X118254514Y-54910143D01*
X118213580Y-54846529D01*
X118001380Y-54701539D01*
X117749490Y-54650530D01*
X115750510Y-54650530D01*
X115515193Y-54694808D01*
X115299069Y-54833880D01*
X115154079Y-55046080D01*
X115118300Y-55222762D01*
X114958387Y-55062570D01*
X114890000Y-55034173D01*
X114890000Y-54713802D01*
X117916802Y-51687000D01*
X122555000Y-51687000D01*
X122845839Y-51629148D01*
X123092401Y-51464401D01*
X124240560Y-50316242D01*
X124240560Y-51762000D01*
X124284838Y-51997317D01*
X124294291Y-52012007D01*
X124253000Y-52111691D01*
X124253000Y-52714250D01*
X124274573Y-52735823D01*
X124250856Y-52802302D01*
X124274002Y-53264748D01*
X124253000Y-53285750D01*
X124253000Y-53888309D01*
X124349673Y-54121698D01*
X124528301Y-54300327D01*
X124761690Y-54397000D01*
X125364250Y-54397000D01*
X125371082Y-54390168D01*
X125452302Y-54419144D01*
X125933794Y-54395044D01*
X125935750Y-54397000D01*
X126538310Y-54397000D01*
X126771699Y-54300327D01*
X126950327Y-54121698D01*
X127047000Y-53888309D01*
X127047000Y-53285750D01*
X127045427Y-53284177D01*
X127069144Y-53217698D01*
X127044091Y-52717159D01*
X127047000Y-52714250D01*
X127047000Y-52111691D01*
X127007222Y-52015659D01*
X127008431Y-52013890D01*
X127057820Y-51770000D01*
X127234500Y-51770000D01*
X127525339Y-51712148D01*
X127771901Y-51547401D01*
X128028680Y-51290622D01*
X128074167Y-51290662D01*
X128417943Y-51148617D01*
X128681192Y-50885827D01*
X128734704Y-50756957D01*
X128750000Y-50760000D01*
X135990560Y-50760000D01*
X135990560Y-51862000D01*
X136034838Y-52097317D01*
X136044291Y-52112007D01*
X136003000Y-52211691D01*
X136003000Y-52814250D01*
X136024573Y-52835823D01*
X136000856Y-52902302D01*
X136024002Y-53364748D01*
X136003000Y-53385750D01*
X136003000Y-53988309D01*
X136099673Y-54221698D01*
X136278301Y-54400327D01*
X136511690Y-54497000D01*
X137114250Y-54497000D01*
X137121082Y-54490168D01*
X137202302Y-54519144D01*
X137683794Y-54495044D01*
X137685750Y-54497000D01*
X138288310Y-54497000D01*
X138521699Y-54400327D01*
X138700327Y-54221698D01*
X138797000Y-53988309D01*
X138797000Y-53385750D01*
X138795427Y-53384177D01*
X138819144Y-53317698D01*
X138794091Y-52817159D01*
X138797000Y-52814250D01*
X138797000Y-52211691D01*
X138757222Y-52115659D01*
X138758431Y-52113890D01*
X138809440Y-51862000D01*
X138809440Y-50338000D01*
X138765162Y-50102683D01*
X138761768Y-50097409D01*
X138809440Y-49862000D01*
X138809440Y-48627131D01*
X139258901Y-49077377D01*
X140224784Y-49478447D01*
X141270627Y-49479360D01*
X142237209Y-49079976D01*
X142977377Y-48341099D01*
X143378447Y-47375216D01*
X143379360Y-46329373D01*
X142979976Y-45362791D01*
X142241099Y-44622623D01*
X141275216Y-44221553D01*
X140229373Y-44220640D01*
X139262791Y-44620024D01*
X138522623Y-45358901D01*
X138121553Y-46324784D01*
X138120640Y-47370627D01*
X138261128Y-47710634D01*
X138162000Y-47690560D01*
X136638000Y-47690560D01*
X136402683Y-47734838D01*
X136186559Y-47873910D01*
X136041569Y-48086110D01*
X135990560Y-48338000D01*
X135990560Y-49240000D01*
X129064802Y-49240000D01*
X128374102Y-48549300D01*
X129319020Y-48549300D01*
X129554337Y-48505022D01*
X129558826Y-48502133D01*
X129572383Y-48534943D01*
X129835173Y-48798192D01*
X130178701Y-48940838D01*
X130550667Y-48941162D01*
X130894443Y-48799117D01*
X131157692Y-48536327D01*
X131300338Y-48192799D01*
X131300662Y-47820833D01*
X131158617Y-47477057D01*
X131125500Y-47443882D01*
X131125500Y-46134692D01*
X131621991Y-46135125D01*
X131716603Y-46096032D01*
X131716338Y-46400467D01*
X131858383Y-46744243D01*
X132121173Y-47007492D01*
X132464701Y-47150138D01*
X132786571Y-47150418D01*
X132852890Y-47253481D01*
X133065090Y-47398471D01*
X133316980Y-47449480D01*
X135816340Y-47449480D01*
X136051657Y-47405202D01*
X136267781Y-47266130D01*
X136412771Y-47053930D01*
X136463780Y-46802040D01*
X136463780Y-46153825D01*
X136698650Y-46229234D01*
X137431667Y-46168968D01*
X138085825Y-45832777D01*
X138561532Y-45271842D01*
X139292862Y-43955197D01*
X139713091Y-43630992D01*
X140079167Y-42993078D01*
X140173258Y-42263631D01*
X140173258Y-42263630D01*
X141366742Y-42263630D01*
X141460833Y-42993077D01*
X141826909Y-43630992D01*
X142409238Y-44080257D01*
X142477287Y-44098682D01*
X143126993Y-45270781D01*
X143602211Y-45832131D01*
X144256076Y-46168892D01*
X144495640Y-46188798D01*
X144344353Y-46553138D01*
X144343837Y-47144268D01*
X144569576Y-47690598D01*
X144987203Y-48108955D01*
X145533138Y-48335647D01*
X146124268Y-48336163D01*
X146670598Y-48110424D01*
X147088955Y-47692797D01*
X147315647Y-47146862D01*
X147316163Y-46555732D01*
X147090424Y-46009402D01*
X146672797Y-45591045D01*
X146299453Y-45436019D01*
X146587629Y-44876489D01*
X146648534Y-44143525D01*
X146424309Y-43443047D01*
X145563007Y-41889219D01*
X145108197Y-41351975D01*
X145079167Y-41126922D01*
X144713091Y-40489008D01*
X144130762Y-40039743D01*
X143420834Y-39847524D01*
X142691387Y-39941614D01*
X142053472Y-40307691D01*
X141604207Y-40890020D01*
X141411988Y-41599948D01*
X141366742Y-42263630D01*
X140173258Y-42263630D01*
X140128012Y-41599948D01*
X139935793Y-40890020D01*
X139486528Y-40307691D01*
X138848613Y-39941615D01*
X138119166Y-39847524D01*
X137409238Y-40039743D01*
X136826909Y-40489008D01*
X136460833Y-41126923D01*
X136425624Y-41399880D01*
X136419502Y-41367343D01*
X136280430Y-41151219D01*
X136068230Y-41006229D01*
X135816340Y-40955220D01*
X133316980Y-40955220D01*
X133081663Y-40999498D01*
X132865539Y-41138570D01*
X132760261Y-41292649D01*
X132402833Y-41292338D01*
X132059057Y-41434383D01*
X131795808Y-41697173D01*
X131653162Y-42040701D01*
X131652838Y-42412667D01*
X131794883Y-42756443D01*
X132057673Y-43019692D01*
X132401201Y-43162338D01*
X132773167Y-43162662D01*
X132790234Y-43155610D01*
X132852890Y-43252981D01*
X133065090Y-43397971D01*
X133316980Y-43448980D01*
X135263325Y-43448980D01*
X135040976Y-44141516D01*
X135101242Y-44874533D01*
X135142966Y-44955720D01*
X133316980Y-44955720D01*
X133081663Y-44999998D01*
X132865539Y-45139070D01*
X132768971Y-45280402D01*
X132697514Y-45280339D01*
X132852733Y-44906530D01*
X132853265Y-44295869D01*
X132620068Y-43731489D01*
X132188643Y-43299309D01*
X131624670Y-43065127D01*
X131112238Y-43064681D01*
X131166708Y-42983160D01*
X131224560Y-42692320D01*
X131224560Y-39876000D01*
X132683502Y-39876000D01*
X132713818Y-40037117D01*
X132852890Y-40253241D01*
X133065090Y-40398231D01*
X133316980Y-40449240D01*
X135816340Y-40449240D01*
X136051657Y-40404962D01*
X136267781Y-40265890D01*
X136412771Y-40053690D01*
X136463780Y-39801800D01*
X136463780Y-38602920D01*
X136419502Y-38367603D01*
X136280430Y-38151479D01*
X136068230Y-38006489D01*
X135816340Y-37955480D01*
X133316980Y-37955480D01*
X133081663Y-37999758D01*
X132865539Y-38138830D01*
X132720549Y-38351030D01*
X132719543Y-38356000D01*
X132668537Y-38356000D01*
X132855273Y-37906290D01*
X132855805Y-37295629D01*
X132622608Y-36731249D01*
X132191183Y-36299069D01*
X131627210Y-36064887D01*
X131016549Y-36064355D01*
X130452169Y-36297552D01*
X130019989Y-36728977D01*
X129785807Y-37292950D01*
X129785275Y-37903611D01*
X129899882Y-38180981D01*
X129735833Y-38180838D01*
X129392057Y-38322883D01*
X129128808Y-38585673D01*
X128986162Y-38929201D01*
X128985838Y-39301167D01*
X129127883Y-39644943D01*
X129390673Y-39908192D01*
X129704560Y-40038530D01*
X129704560Y-42377518D01*
X129124519Y-42957559D01*
X128959772Y-43204121D01*
X128901920Y-43494960D01*
X128901920Y-45140880D01*
X128959772Y-45431719D01*
X129124519Y-45678281D01*
X129548185Y-46101947D01*
X129319020Y-46055540D01*
X127058818Y-46055540D01*
X127058862Y-46004733D01*
X126950448Y-45742350D01*
X127200868Y-45530353D01*
X127537629Y-44876489D01*
X127598534Y-44143525D01*
X127374309Y-43443047D01*
X126513007Y-41889219D01*
X126058197Y-41351975D01*
X126029167Y-41126922D01*
X125663091Y-40489008D01*
X125080762Y-40039743D01*
X124370834Y-39847524D01*
X123641387Y-39941614D01*
X123003472Y-40307691D01*
X122554207Y-40890020D01*
X122361988Y-41599948D01*
X122316742Y-42263630D01*
X122410833Y-42993077D01*
X122776909Y-43630992D01*
X123359238Y-44080257D01*
X123427287Y-44098682D01*
X124076993Y-45270781D01*
X124552211Y-45832131D01*
X124897311Y-46009869D01*
X124329143Y-46578037D01*
X124329360Y-46329373D01*
X123929976Y-45362791D01*
X123191099Y-44622623D01*
X122225216Y-44221553D01*
X121179373Y-44220640D01*
X120212791Y-44620024D01*
X119472623Y-45358901D01*
X119071553Y-46324784D01*
X119070640Y-47370627D01*
X119470024Y-48337209D01*
X120092228Y-48960500D01*
X108067963Y-48960500D01*
X108035827Y-48928308D01*
X107692299Y-48785662D01*
X107320333Y-48785338D01*
X106976557Y-48927383D01*
X106943382Y-48960500D01*
X104256894Y-48960500D01*
X104877377Y-48341099D01*
X105278447Y-47375216D01*
X105279360Y-46329373D01*
X104879976Y-45362791D01*
X104141099Y-44622623D01*
X103175216Y-44221553D01*
X102129373Y-44220640D01*
X101162791Y-44620024D01*
X100422623Y-45358901D01*
X100021553Y-46324784D01*
X100020640Y-47370627D01*
X100420024Y-48337209D01*
X101042228Y-48960500D01*
X90020140Y-48960500D01*
X89729301Y-49018352D01*
X89482739Y-49183099D01*
X86786878Y-51878960D01*
X83267403Y-51878960D01*
X83235267Y-51846768D01*
X82891739Y-51704122D01*
X82519773Y-51703798D01*
X82175997Y-51845843D01*
X81912748Y-52108633D01*
X81770102Y-52452161D01*
X81769778Y-52824127D01*
X81820523Y-52946939D01*
X81640147Y-52766248D01*
X81296619Y-52623602D01*
X81262760Y-52623573D01*
X81262760Y-48077611D01*
X81370024Y-48337209D01*
X82108901Y-49077377D01*
X83074784Y-49478447D01*
X84120627Y-49479360D01*
X85087209Y-49079976D01*
X85827377Y-48341099D01*
X86228447Y-47375216D01*
X86229360Y-46329373D01*
X85829976Y-45362791D01*
X85091099Y-44622623D01*
X84125216Y-44221553D01*
X83079373Y-44220640D01*
X82112791Y-44620024D01*
X81372623Y-45358901D01*
X81262760Y-45623480D01*
X81262760Y-45447268D01*
X81411532Y-45271842D01*
X82142862Y-43955197D01*
X82563091Y-43630992D01*
X82929167Y-42993078D01*
X83023258Y-42263631D01*
X82978012Y-41599948D01*
X82785793Y-40890020D01*
X82336528Y-40307691D01*
X81698613Y-39941615D01*
X80969166Y-39847524D01*
X80259238Y-40039743D01*
X79676909Y-40489008D01*
X79310833Y-41126923D01*
X79254649Y-41562496D01*
X78978467Y-41888158D01*
X78115812Y-43441234D01*
X77890976Y-44141516D01*
X77951242Y-44874533D01*
X78206742Y-45371683D01*
X77679402Y-45589576D01*
X77468000Y-45800609D01*
X77468000Y-38417500D01*
X77410148Y-38126661D01*
X77325588Y-38000107D01*
X77325662Y-37914833D01*
X77183617Y-37571057D01*
X76920827Y-37307808D01*
X76577299Y-37165162D01*
X76205333Y-37164838D01*
X75861557Y-37306883D01*
X75598308Y-37569673D01*
X75455662Y-37913201D01*
X75455338Y-38285167D01*
X75597383Y-38628943D01*
X75860173Y-38892192D01*
X75948000Y-38928661D01*
X75948000Y-50299620D01*
X76005852Y-50590459D01*
X76170599Y-50837021D01*
X79337979Y-54004401D01*
X79360943Y-54019745D01*
X82631198Y-57290000D01*
X79764441Y-57290000D01*
X79774846Y-57279613D01*
X80024206Y-56679087D01*
X80024774Y-56028846D01*
X79776462Y-55427885D01*
X79317073Y-54967694D01*
X78716547Y-54718334D01*
X78066306Y-54717766D01*
X77907801Y-54783259D01*
X75880500Y-52755958D01*
X75880500Y-45618400D01*
X75822648Y-45327561D01*
X75657901Y-45080999D01*
X74667301Y-44090399D01*
X74420739Y-43925652D01*
X74129900Y-43867800D01*
X73612164Y-43867800D01*
X73681037Y-43701935D01*
X73681562Y-43100703D01*
X73451965Y-42545036D01*
X73037302Y-42129649D01*
X73450471Y-41717200D01*
X73681037Y-41161935D01*
X73681562Y-40560703D01*
X73451965Y-40005036D01*
X73027200Y-39579529D01*
X72993408Y-39565497D01*
X73053396Y-39383001D01*
X72170000Y-38499605D01*
X71286604Y-39383001D01*
X71346447Y-39565056D01*
X71315036Y-39578035D01*
X70889529Y-40002800D01*
X70658963Y-40558065D01*
X70658438Y-41159297D01*
X70888035Y-41714964D01*
X71302698Y-42130351D01*
X70889529Y-42542800D01*
X70658963Y-43098065D01*
X70658438Y-43699297D01*
X70728062Y-43867800D01*
X70360274Y-43867800D01*
X70224309Y-43443047D01*
X69363007Y-41889219D01*
X68908197Y-41351975D01*
X68879167Y-41126922D01*
X68513091Y-40489008D01*
X67930762Y-40039743D01*
X67220834Y-39847524D01*
X66491387Y-39941614D01*
X65853472Y-40307691D01*
X65404207Y-40890020D01*
X65211988Y-41599948D01*
X65166742Y-42263630D01*
X65260833Y-42993077D01*
X65626909Y-43630992D01*
X66209238Y-44080257D01*
X66277287Y-44098682D01*
X66926993Y-45270781D01*
X67402211Y-45832131D01*
X68056076Y-46168892D01*
X68295640Y-46188798D01*
X68144353Y-46553138D01*
X68143837Y-47144268D01*
X68369576Y-47690598D01*
X68787203Y-48108955D01*
X69333138Y-48335647D01*
X69924268Y-48336163D01*
X70470598Y-48110424D01*
X70840293Y-47741374D01*
X70658963Y-48178065D01*
X70658438Y-48779297D01*
X70664146Y-48793112D01*
X70487793Y-48792958D01*
X70144017Y-48935003D01*
X70088924Y-48990000D01*
X66127342Y-48990000D01*
X66777377Y-48341099D01*
X67178447Y-47375216D01*
X67179360Y-46329373D01*
X66779976Y-45362791D01*
X66041099Y-44622623D01*
X65075216Y-44221553D01*
X64029373Y-44220640D01*
X63062791Y-44620024D01*
X62322623Y-45358901D01*
X61921553Y-46324784D01*
X61920640Y-47370627D01*
X62320024Y-48337209D01*
X62971676Y-48990000D01*
X59564802Y-48990000D01*
X58723916Y-48149114D01*
X59173138Y-48335647D01*
X59764268Y-48336163D01*
X60310598Y-48110424D01*
X60728955Y-47692797D01*
X60955647Y-47146862D01*
X60956163Y-46555732D01*
X60810658Y-46203582D01*
X61231667Y-46168968D01*
X61885825Y-45832777D01*
X62361532Y-45271842D01*
X63092862Y-43955197D01*
X63513091Y-43630992D01*
X63879167Y-42993078D01*
X63973258Y-42263631D01*
X63928012Y-41599948D01*
X63735793Y-40890020D01*
X63286528Y-40307691D01*
X62648613Y-39941615D01*
X61919166Y-39847524D01*
X61209238Y-40039743D01*
X60626909Y-40489008D01*
X60260833Y-41126923D01*
X60204649Y-41562496D01*
X59928467Y-41888158D01*
X59065812Y-43441234D01*
X58840976Y-44141516D01*
X58901242Y-44874533D01*
X59156742Y-45371683D01*
X58629402Y-45589576D01*
X58441443Y-45777207D01*
X58441562Y-45640703D01*
X58211965Y-45085036D01*
X57787200Y-44659529D01*
X57753408Y-44645497D01*
X57813396Y-44463001D01*
X56930000Y-43579605D01*
X56046604Y-44463001D01*
X56106447Y-44645056D01*
X56075036Y-44658035D01*
X55649529Y-45082800D01*
X55418963Y-45638065D01*
X55418438Y-46239297D01*
X55648035Y-46794964D01*
X56062698Y-47210351D01*
X55649529Y-47622800D01*
X55418963Y-48178065D01*
X55418438Y-48779297D01*
X55505499Y-48990000D01*
X55487702Y-48990000D01*
X54464141Y-47966439D01*
X54217579Y-47801692D01*
X53926740Y-47743840D01*
X51787823Y-47743840D01*
X51838955Y-47692797D01*
X52065647Y-47146862D01*
X52066163Y-46555732D01*
X51840424Y-46009402D01*
X51422797Y-45591045D01*
X51049453Y-45436019D01*
X51337629Y-44876489D01*
X51398534Y-44143525D01*
X51174309Y-43443047D01*
X51020184Y-43164997D01*
X55407118Y-43164997D01*
X55433109Y-43765668D01*
X55612973Y-44199896D01*
X55866999Y-44283396D01*
X56750395Y-43400000D01*
X57109605Y-43400000D01*
X57993001Y-44283396D01*
X58247027Y-44199896D01*
X58452882Y-43635003D01*
X58426891Y-43034332D01*
X58247027Y-42600104D01*
X57993001Y-42516604D01*
X57109605Y-43400000D01*
X56750395Y-43400000D01*
X55866999Y-42516604D01*
X55612973Y-42600104D01*
X55407118Y-43164997D01*
X51020184Y-43164997D01*
X50313007Y-41889219D01*
X50040517Y-41567341D01*
X50923997Y-41934194D01*
X52767914Y-41935803D01*
X52798897Y-41923001D01*
X56046604Y-41923001D01*
X56114646Y-42130000D01*
X56046604Y-42336999D01*
X56930000Y-43220395D01*
X57813396Y-42336999D01*
X57745354Y-42130000D01*
X57813396Y-41923001D01*
X56930000Y-41039605D01*
X56046604Y-41923001D01*
X52798897Y-41923001D01*
X54472087Y-41231653D01*
X55594270Y-40111427D01*
X55407118Y-40624997D01*
X55433109Y-41225668D01*
X55612973Y-41659896D01*
X55866999Y-41743396D01*
X56750395Y-40860000D01*
X57109605Y-40860000D01*
X57993001Y-41743396D01*
X58247027Y-41659896D01*
X58452882Y-41095003D01*
X58426891Y-40494332D01*
X58247027Y-40060104D01*
X57993001Y-39976604D01*
X57109605Y-40860000D01*
X56750395Y-40860000D01*
X55866999Y-39976604D01*
X55661741Y-40044074D01*
X55777071Y-39928945D01*
X55960272Y-39487747D01*
X56072800Y-39600471D01*
X56106592Y-39614503D01*
X56046604Y-39796999D01*
X56930000Y-40680395D01*
X57813396Y-39796999D01*
X57753553Y-39614944D01*
X57784964Y-39601965D01*
X58210471Y-39177200D01*
X58441037Y-38621935D01*
X58441562Y-38020703D01*
X58211965Y-37465036D01*
X57797302Y-37049649D01*
X58210471Y-36637200D01*
X58441037Y-36081935D01*
X58441562Y-35480703D01*
X58211965Y-34925036D01*
X58190667Y-34903700D01*
X70646260Y-34903700D01*
X70646260Y-36656300D01*
X70690538Y-36891617D01*
X70829610Y-37107741D01*
X71041810Y-37252731D01*
X71058280Y-37256066D01*
X70992369Y-37321977D01*
X71106997Y-37436605D01*
X70852973Y-37520104D01*
X70647118Y-38084997D01*
X70673109Y-38685668D01*
X70852973Y-39119896D01*
X71106999Y-39203396D01*
X71990395Y-38320000D01*
X71976253Y-38305858D01*
X72155858Y-38126253D01*
X72170000Y-38140395D01*
X72184143Y-38126253D01*
X72363748Y-38305858D01*
X72349605Y-38320000D01*
X73233001Y-39203396D01*
X73487027Y-39119896D01*
X73692882Y-38555003D01*
X73666891Y-37954332D01*
X73487027Y-37520104D01*
X73233003Y-37436605D01*
X73347631Y-37321977D01*
X73283746Y-37258092D01*
X73497741Y-37120390D01*
X73642731Y-36908190D01*
X73693740Y-36656300D01*
X73693740Y-34903700D01*
X73649462Y-34668383D01*
X73510390Y-34452259D01*
X73298190Y-34307269D01*
X73046300Y-34256260D01*
X71293700Y-34256260D01*
X71058383Y-34300538D01*
X70842259Y-34439610D01*
X70697269Y-34651810D01*
X70646260Y-34903700D01*
X58190667Y-34903700D01*
X57787200Y-34499529D01*
X57231935Y-34268963D01*
X56630703Y-34268438D01*
X56075036Y-34498035D01*
X55814707Y-34757910D01*
X55781653Y-34677913D01*
X54815428Y-33710000D01*
X74705908Y-33710000D01*
X79997954Y-39002046D01*
X79997954Y-39002046D01*
G37*
X79997954Y-39002046D02*
X80228295Y-39155954D01*
X80500000Y-39210001D01*
X80500005Y-39210000D01*
X93833832Y-39210000D01*
X93632308Y-39411173D01*
X93489662Y-39754701D01*
X93489338Y-40126667D01*
X93631383Y-40470443D01*
X93647027Y-40486115D01*
X93574007Y-40455794D01*
X92923766Y-40455226D01*
X92322805Y-40703538D01*
X91862614Y-41162927D01*
X91793239Y-41330000D01*
X87955362Y-41330000D01*
X87929167Y-41126922D01*
X87563091Y-40489008D01*
X86980762Y-40039743D01*
X86270834Y-39847524D01*
X85541387Y-39941614D01*
X84903472Y-40307691D01*
X84454207Y-40890020D01*
X84261988Y-41599948D01*
X84216742Y-42263630D01*
X84310833Y-42993077D01*
X84676909Y-43630992D01*
X85259238Y-44080257D01*
X85327287Y-44098682D01*
X85976993Y-45270781D01*
X86452211Y-45832131D01*
X87106076Y-46168892D01*
X87345640Y-46188798D01*
X87194353Y-46553138D01*
X87193837Y-47144268D01*
X87419576Y-47690598D01*
X87837203Y-48108955D01*
X88383138Y-48335647D01*
X88974268Y-48336163D01*
X89520598Y-48110424D01*
X89938955Y-47692797D01*
X90165647Y-47146862D01*
X90166163Y-46555732D01*
X89940424Y-46009402D01*
X89522797Y-45591045D01*
X89149453Y-45436019D01*
X89437629Y-44876489D01*
X89498534Y-44143525D01*
X89274309Y-43443047D01*
X88945577Y-42850000D01*
X91792964Y-42850000D01*
X91860998Y-43014655D01*
X92320387Y-43474846D01*
X92920913Y-43724206D01*
X93571154Y-43724774D01*
X94172115Y-43476462D01*
X94632306Y-43017073D01*
X94881666Y-42416547D01*
X94882234Y-41766306D01*
X94633922Y-41165345D01*
X94345512Y-40876432D01*
X94609667Y-40876662D01*
X94721164Y-40830593D01*
X94795710Y-40946441D01*
X95007910Y-41091431D01*
X95259800Y-41142440D01*
X96156559Y-41142440D01*
X96156338Y-41396667D01*
X96298383Y-41740443D01*
X96561173Y-42003692D01*
X96904701Y-42146338D01*
X97276667Y-42146662D01*
X97620443Y-42004617D01*
X97883692Y-41741827D01*
X98026338Y-41398299D01*
X98026662Y-41026333D01*
X97947492Y-40834728D01*
X98047701Y-40876338D01*
X98419667Y-40876662D01*
X98530800Y-40830743D01*
X98360833Y-41126923D01*
X98304649Y-41562496D01*
X98028467Y-41888158D01*
X97165812Y-43441234D01*
X96940976Y-44141516D01*
X97001242Y-44874533D01*
X97256742Y-45371683D01*
X96729402Y-45589576D01*
X96311045Y-46007203D01*
X96084353Y-46553138D01*
X96083837Y-47144268D01*
X96309576Y-47690598D01*
X96727203Y-48108955D01*
X97273138Y-48335647D01*
X97864268Y-48336163D01*
X98410598Y-48110424D01*
X98828955Y-47692797D01*
X99055647Y-47146862D01*
X99056163Y-46555732D01*
X98910658Y-46203582D01*
X99331667Y-46168968D01*
X99985825Y-45832777D01*
X100461532Y-45271842D01*
X101192862Y-43955197D01*
X101613091Y-43630992D01*
X101979167Y-42993078D01*
X102073258Y-42263631D01*
X102073258Y-42263630D01*
X103266742Y-42263630D01*
X103360833Y-42993077D01*
X103726909Y-43630992D01*
X104309238Y-44080257D01*
X104377287Y-44098682D01*
X105026993Y-45270781D01*
X105502211Y-45832131D01*
X106156076Y-46168892D01*
X106395640Y-46188798D01*
X106244353Y-46553138D01*
X106243837Y-47144268D01*
X106469576Y-47690598D01*
X106887203Y-48108955D01*
X107433138Y-48335647D01*
X108024268Y-48336163D01*
X108570598Y-48110424D01*
X108988955Y-47692797D01*
X109215647Y-47146862D01*
X109215649Y-47144268D01*
X115133837Y-47144268D01*
X115359576Y-47690598D01*
X115777203Y-48108955D01*
X116323138Y-48335647D01*
X116914268Y-48336163D01*
X117460598Y-48110424D01*
X117878955Y-47692797D01*
X118105647Y-47146862D01*
X118106163Y-46555732D01*
X117960658Y-46203582D01*
X118381667Y-46168968D01*
X119035825Y-45832777D01*
X119511532Y-45271842D01*
X120242862Y-43955197D01*
X120663091Y-43630992D01*
X121029167Y-42993078D01*
X121123258Y-42263631D01*
X121078012Y-41599948D01*
X120885793Y-40890020D01*
X120436528Y-40307691D01*
X119798613Y-39941615D01*
X119069166Y-39847524D01*
X118359238Y-40039743D01*
X117776909Y-40489008D01*
X117410833Y-41126923D01*
X117354649Y-41562496D01*
X117078467Y-41888158D01*
X116215812Y-43441234D01*
X115990976Y-44141516D01*
X116051242Y-44874533D01*
X116306742Y-45371683D01*
X115779402Y-45589576D01*
X115361045Y-46007203D01*
X115134353Y-46553138D01*
X115133837Y-47144268D01*
X109215649Y-47144268D01*
X109216163Y-46555732D01*
X108990424Y-46009402D01*
X108572797Y-45591045D01*
X108199453Y-45436019D01*
X108487629Y-44876489D01*
X108548534Y-44143525D01*
X108324309Y-43443047D01*
X107995577Y-42850000D01*
X110742964Y-42850000D01*
X110810998Y-43014655D01*
X111270387Y-43474846D01*
X111870913Y-43724206D01*
X112521154Y-43724774D01*
X113122115Y-43476462D01*
X113582306Y-43017073D01*
X113831666Y-42416547D01*
X113832234Y-41766306D01*
X113583922Y-41165345D01*
X113124533Y-40705154D01*
X112524007Y-40455794D01*
X111873766Y-40455226D01*
X111272805Y-40703538D01*
X110812614Y-41162927D01*
X110743239Y-41330000D01*
X107005362Y-41330000D01*
X106979167Y-41126922D01*
X106613091Y-40489008D01*
X106030762Y-40039743D01*
X105320834Y-39847524D01*
X104591387Y-39941614D01*
X103953472Y-40307691D01*
X103504207Y-40890020D01*
X103311988Y-41599948D01*
X103266742Y-42263630D01*
X102073258Y-42263630D01*
X102028012Y-41599948D01*
X101835793Y-40890020D01*
X101386528Y-40307691D01*
X100748613Y-39941615D01*
X100019166Y-39847524D01*
X99309238Y-40039743D01*
X99157500Y-40156809D01*
X99169338Y-40128299D01*
X99169662Y-39756333D01*
X99027617Y-39412557D01*
X98825413Y-39210000D01*
X121500000Y-39210000D01*
X121771705Y-39155954D01*
X122002046Y-39002046D01*
X126044092Y-34960000D01*
X137705908Y-34960000D01*
X142247954Y-39502046D01*
X142478295Y-39655954D01*
X142750000Y-39710000D01*
X148290000Y-39710000D01*
X148290000Y-93315895D01*
X148087073Y-93112614D01*
X147486547Y-92863254D01*
X146836306Y-92862686D01*
X146235345Y-93110998D01*
X145775154Y-93570387D01*
X145525794Y-94170913D01*
X145525226Y-94821154D01*
X145773538Y-95422115D01*
X146232927Y-95882306D01*
X146833453Y-96131666D01*
X147483694Y-96132234D01*
X148084655Y-95883922D01*
X148290000Y-95678935D01*
X148290000Y-111290000D01*
X132894390Y-111290000D01*
X132894390Y-109500510D01*
X132850112Y-109265193D01*
X132711040Y-109049069D01*
X132498840Y-108904079D01*
X132246950Y-108853070D01*
X130247970Y-108853070D01*
X130012653Y-108897348D01*
X129796529Y-109036420D01*
X129651539Y-109248620D01*
X129600530Y-109500510D01*
X129600530Y-109740000D01*
X116064802Y-109740000D01*
X114987401Y-108662599D01*
X114740839Y-108497852D01*
X114450000Y-108440000D01*
X113794390Y-108440000D01*
X113794390Y-108200510D01*
X113750112Y-107965193D01*
X113611040Y-107749069D01*
X113398840Y-107604079D01*
X113146950Y-107553070D01*
X111147970Y-107553070D01*
X110912653Y-107597348D01*
X110696529Y-107736420D01*
X110551539Y-107948620D01*
X110500530Y-108200510D01*
X110500530Y-108440000D01*
X94794390Y-108440000D01*
X94794390Y-108100510D01*
X94750112Y-107865193D01*
X94611040Y-107649069D01*
X94398840Y-107504079D01*
X94146950Y-107453070D01*
X92147970Y-107453070D01*
X91912653Y-107497348D01*
X91696529Y-107636420D01*
X91551539Y-107848620D01*
X91500530Y-108100510D01*
X91500530Y-108340000D01*
X75733004Y-108340000D01*
X75700112Y-108165193D01*
X75561040Y-107949069D01*
X75348840Y-107804079D01*
X75096950Y-107753070D01*
X73097970Y-107753070D01*
X72862653Y-107797348D01*
X72646529Y-107936420D01*
X72501539Y-108148620D01*
X72450530Y-108400510D01*
X72450530Y-109490000D01*
X56644390Y-109490000D01*
X56644390Y-109250510D01*
X56600112Y-109015193D01*
X56461040Y-108799069D01*
X56248840Y-108654079D01*
X55996950Y-108603070D01*
X53997970Y-108603070D01*
X53762653Y-108647348D01*
X53546529Y-108786420D01*
X53401539Y-108998620D01*
X53350530Y-109250510D01*
X53350530Y-111249490D01*
X53358152Y-111290000D01*
X37710000Y-111290000D01*
X37710000Y-104444268D01*
X38933837Y-104444268D01*
X39159576Y-104990598D01*
X39577203Y-105408955D01*
X40123138Y-105635647D01*
X40714268Y-105636163D01*
X41260598Y-105410424D01*
X41678955Y-104992797D01*
X41812731Y-104670627D01*
X42870640Y-104670627D01*
X43270024Y-105637209D01*
X44008901Y-106377377D01*
X44974784Y-106778447D01*
X46020627Y-106779360D01*
X46987209Y-106379976D01*
X47727377Y-105641099D01*
X48128447Y-104675216D01*
X48129360Y-103629373D01*
X47729976Y-102662791D01*
X46991099Y-101922623D01*
X46025216Y-101521553D01*
X44979373Y-101520640D01*
X44012791Y-101920024D01*
X43272623Y-102658901D01*
X42871553Y-103624784D01*
X42870640Y-104670627D01*
X41812731Y-104670627D01*
X41905647Y-104446862D01*
X41906163Y-103855732D01*
X41760658Y-103503582D01*
X42181667Y-103468968D01*
X42835825Y-103132777D01*
X43311532Y-102571842D01*
X44042862Y-101255197D01*
X44463091Y-100930992D01*
X44829167Y-100293078D01*
X44923258Y-99563631D01*
X44923258Y-99563630D01*
X46116742Y-99563630D01*
X46210833Y-100293077D01*
X46576909Y-100930992D01*
X47159238Y-101380257D01*
X47227287Y-101398682D01*
X47876993Y-102570781D01*
X48352211Y-103132131D01*
X49006076Y-103468892D01*
X49245640Y-103488798D01*
X49094353Y-103853138D01*
X49093837Y-104444268D01*
X49319576Y-104990598D01*
X49737203Y-105408955D01*
X50283138Y-105635647D01*
X50874268Y-105636163D01*
X51420598Y-105410424D01*
X51838955Y-104992797D01*
X52065647Y-104446862D01*
X52065780Y-104294268D01*
X57983837Y-104294268D01*
X58209576Y-104840598D01*
X58627203Y-105258955D01*
X59173138Y-105485647D01*
X59764268Y-105486163D01*
X60310598Y-105260424D01*
X60728955Y-104842797D01*
X60862731Y-104520627D01*
X61920640Y-104520627D01*
X62320024Y-105487209D01*
X63058901Y-106227377D01*
X64024784Y-106628447D01*
X65070627Y-106629360D01*
X66037209Y-106229976D01*
X66777377Y-105491099D01*
X67178447Y-104525216D01*
X67179360Y-103479373D01*
X66779976Y-102512791D01*
X66041099Y-101772623D01*
X65075216Y-101371553D01*
X64029373Y-101370640D01*
X63062791Y-101770024D01*
X62322623Y-102508901D01*
X61921553Y-103474784D01*
X61920640Y-104520627D01*
X60862731Y-104520627D01*
X60955647Y-104296862D01*
X60956163Y-103705732D01*
X60810658Y-103353582D01*
X61231667Y-103318968D01*
X61885825Y-102982777D01*
X62361532Y-102421842D01*
X63092862Y-101105197D01*
X63513091Y-100780992D01*
X63879167Y-100143078D01*
X63973258Y-99413631D01*
X63973258Y-99413630D01*
X65166742Y-99413630D01*
X65260833Y-100143077D01*
X65626909Y-100780992D01*
X66209238Y-101230257D01*
X66277287Y-101248682D01*
X66926993Y-102420781D01*
X67402211Y-102982131D01*
X68056076Y-103318892D01*
X68295640Y-103338798D01*
X68144353Y-103703138D01*
X68143837Y-104294268D01*
X68369576Y-104840598D01*
X68787203Y-105258955D01*
X69333138Y-105485647D01*
X69924268Y-105486163D01*
X70470598Y-105260424D01*
X70888955Y-104842797D01*
X71115647Y-104296862D01*
X71115649Y-104294268D01*
X77033837Y-104294268D01*
X77259576Y-104840598D01*
X77677203Y-105258955D01*
X78223138Y-105485647D01*
X78814268Y-105486163D01*
X79360598Y-105260424D01*
X79778955Y-104842797D01*
X79912731Y-104520627D01*
X80970640Y-104520627D01*
X81370024Y-105487209D01*
X82108901Y-106227377D01*
X83074784Y-106628447D01*
X84120627Y-106629360D01*
X85087209Y-106229976D01*
X85827377Y-105491099D01*
X86228447Y-104525216D01*
X86229360Y-103479373D01*
X85829976Y-102512791D01*
X85091099Y-101772623D01*
X84125216Y-101371553D01*
X83079373Y-101370640D01*
X82112791Y-101770024D01*
X81372623Y-102508901D01*
X80971553Y-103474784D01*
X80970640Y-104520627D01*
X79912731Y-104520627D01*
X80005647Y-104296862D01*
X80006163Y-103705732D01*
X79860658Y-103353582D01*
X80281667Y-103318968D01*
X80935825Y-102982777D01*
X81411532Y-102421842D01*
X82142862Y-101105197D01*
X82563091Y-100780992D01*
X82929167Y-100143078D01*
X83023258Y-99413631D01*
X83023258Y-99413630D01*
X84216742Y-99413630D01*
X84310833Y-100143077D01*
X84676909Y-100780992D01*
X85259238Y-101230257D01*
X85327287Y-101248682D01*
X85976993Y-102420781D01*
X86452211Y-102982131D01*
X87106076Y-103318892D01*
X87345640Y-103338798D01*
X87194353Y-103703138D01*
X87193837Y-104294268D01*
X87419576Y-104840598D01*
X87837203Y-105258955D01*
X88383138Y-105485647D01*
X88974268Y-105486163D01*
X89520598Y-105260424D01*
X89938955Y-104842797D01*
X90165647Y-104296862D01*
X90165649Y-104294268D01*
X96083837Y-104294268D01*
X96309576Y-104840598D01*
X96727203Y-105258955D01*
X97273138Y-105485647D01*
X97864268Y-105486163D01*
X98410598Y-105260424D01*
X98828955Y-104842797D01*
X98962731Y-104520627D01*
X100020640Y-104520627D01*
X100420024Y-105487209D01*
X101158901Y-106227377D01*
X102124784Y-106628447D01*
X103170627Y-106629360D01*
X104137209Y-106229976D01*
X104877377Y-105491099D01*
X105278447Y-104525216D01*
X105279360Y-103479373D01*
X104879976Y-102512791D01*
X104141099Y-101772623D01*
X103175216Y-101371553D01*
X102129373Y-101370640D01*
X101162791Y-101770024D01*
X100422623Y-102508901D01*
X100021553Y-103474784D01*
X100020640Y-104520627D01*
X98962731Y-104520627D01*
X99055647Y-104296862D01*
X99056163Y-103705732D01*
X98910658Y-103353582D01*
X99331667Y-103318968D01*
X99985825Y-102982777D01*
X100461532Y-102421842D01*
X101192862Y-101105197D01*
X101613091Y-100780992D01*
X101979167Y-100143078D01*
X102073258Y-99413631D01*
X102073258Y-99413630D01*
X103266742Y-99413630D01*
X103360833Y-100143077D01*
X103726909Y-100780992D01*
X104309238Y-101230257D01*
X104377287Y-101248682D01*
X105026993Y-102420781D01*
X105502211Y-102982131D01*
X106156076Y-103318892D01*
X106395640Y-103338798D01*
X106244353Y-103703138D01*
X106243837Y-104294268D01*
X106469576Y-104840598D01*
X106887203Y-105258955D01*
X107433138Y-105485647D01*
X108024268Y-105486163D01*
X108570598Y-105260424D01*
X108988955Y-104842797D01*
X109215647Y-104296862D01*
X109215649Y-104294268D01*
X115133837Y-104294268D01*
X115359576Y-104840598D01*
X115777203Y-105258955D01*
X116323138Y-105485647D01*
X116914268Y-105486163D01*
X117460598Y-105260424D01*
X117878955Y-104842797D01*
X118012731Y-104520627D01*
X119070640Y-104520627D01*
X119470024Y-105487209D01*
X120208901Y-106227377D01*
X121174784Y-106628447D01*
X122220627Y-106629360D01*
X123187209Y-106229976D01*
X123927377Y-105491099D01*
X124328447Y-104525216D01*
X124329360Y-103479373D01*
X123929976Y-102512791D01*
X123191099Y-101772623D01*
X122225216Y-101371553D01*
X121179373Y-101370640D01*
X120212791Y-101770024D01*
X119472623Y-102508901D01*
X119071553Y-103474784D01*
X119070640Y-104520627D01*
X118012731Y-104520627D01*
X118105647Y-104296862D01*
X118106163Y-103705732D01*
X117960658Y-103353582D01*
X118381667Y-103318968D01*
X119035825Y-102982777D01*
X119511532Y-102421842D01*
X120242862Y-101105197D01*
X120663091Y-100780992D01*
X121029167Y-100143078D01*
X121123258Y-99413631D01*
X121078012Y-98749948D01*
X120885793Y-98040020D01*
X120436528Y-97457691D01*
X119798613Y-97091615D01*
X119069166Y-96997524D01*
X118359238Y-97189743D01*
X117776909Y-97639008D01*
X117410833Y-98276923D01*
X117354649Y-98712496D01*
X117078467Y-99038158D01*
X116215812Y-100591234D01*
X115990976Y-101291516D01*
X116051242Y-102024533D01*
X116306742Y-102521683D01*
X115779402Y-102739576D01*
X115361045Y-103157203D01*
X115134353Y-103703138D01*
X115133837Y-104294268D01*
X109215649Y-104294268D01*
X109216163Y-103705732D01*
X108990424Y-103159402D01*
X108572797Y-102741045D01*
X108199453Y-102586019D01*
X108487629Y-102026489D01*
X108548534Y-101293525D01*
X108324309Y-100593047D01*
X107642867Y-99363694D01*
X110512686Y-99363694D01*
X110760998Y-99964655D01*
X111220387Y-100424846D01*
X111820913Y-100674206D01*
X112471154Y-100674774D01*
X113072115Y-100426462D01*
X113532306Y-99967073D01*
X113781666Y-99366547D01*
X113782234Y-98716306D01*
X113533922Y-98115345D01*
X113074533Y-97655154D01*
X112474007Y-97405794D01*
X111823766Y-97405226D01*
X111222805Y-97653538D01*
X110762614Y-98112927D01*
X110513254Y-98713453D01*
X110512686Y-99363694D01*
X107642867Y-99363694D01*
X107463007Y-99039219D01*
X107008197Y-98501975D01*
X106979167Y-98276922D01*
X106613091Y-97639008D01*
X106030762Y-97189743D01*
X105320834Y-96997524D01*
X104591387Y-97091614D01*
X103953472Y-97457691D01*
X103504207Y-98040020D01*
X103311988Y-98749948D01*
X103266742Y-99413630D01*
X102073258Y-99413630D01*
X102028012Y-98749948D01*
X101835793Y-98040020D01*
X101386528Y-97457691D01*
X100748613Y-97091615D01*
X100019166Y-96997524D01*
X99309238Y-97189743D01*
X98726909Y-97639008D01*
X98360833Y-98276923D01*
X98304649Y-98712496D01*
X98028467Y-99038158D01*
X97165812Y-100591234D01*
X96940976Y-101291516D01*
X97001242Y-102024533D01*
X97256742Y-102521683D01*
X96729402Y-102739576D01*
X96311045Y-103157203D01*
X96084353Y-103703138D01*
X96083837Y-104294268D01*
X90165649Y-104294268D01*
X90166163Y-103705732D01*
X89940424Y-103159402D01*
X89522797Y-102741045D01*
X89149453Y-102586019D01*
X89437629Y-102026489D01*
X89498534Y-101293525D01*
X89274309Y-100593047D01*
X88537436Y-99263694D01*
X91512686Y-99263694D01*
X91760998Y-99864655D01*
X92220387Y-100324846D01*
X92820913Y-100574206D01*
X93471154Y-100574774D01*
X94072115Y-100326462D01*
X94532306Y-99867073D01*
X94781666Y-99266547D01*
X94782234Y-98616306D01*
X94533922Y-98015345D01*
X94074533Y-97555154D01*
X93474007Y-97305794D01*
X92823766Y-97305226D01*
X92222805Y-97553538D01*
X91762614Y-98012927D01*
X91513254Y-98613453D01*
X91512686Y-99263694D01*
X88537436Y-99263694D01*
X88413007Y-99039219D01*
X87958197Y-98501975D01*
X87929167Y-98276922D01*
X87563091Y-97639008D01*
X86980762Y-97189743D01*
X86270834Y-96997524D01*
X85541387Y-97091614D01*
X84903472Y-97457691D01*
X84454207Y-98040020D01*
X84261988Y-98749948D01*
X84216742Y-99413630D01*
X83023258Y-99413630D01*
X82978012Y-98749948D01*
X82785793Y-98040020D01*
X82336528Y-97457691D01*
X81698613Y-97091615D01*
X80969166Y-96997524D01*
X80259238Y-97189743D01*
X79676909Y-97639008D01*
X79310833Y-98276923D01*
X79254649Y-98712496D01*
X78978467Y-99038158D01*
X78115812Y-100591234D01*
X77890976Y-101291516D01*
X77951242Y-102024533D01*
X78206742Y-102521683D01*
X77679402Y-102739576D01*
X77261045Y-103157203D01*
X77034353Y-103703138D01*
X77033837Y-104294268D01*
X71115649Y-104294268D01*
X71116163Y-103705732D01*
X70890424Y-103159402D01*
X70472797Y-102741045D01*
X70099453Y-102586019D01*
X70387629Y-102026489D01*
X70448534Y-101293525D01*
X70224309Y-100593047D01*
X69653729Y-99563694D01*
X72462686Y-99563694D01*
X72710998Y-100164655D01*
X73170387Y-100624846D01*
X73770913Y-100874206D01*
X74421154Y-100874774D01*
X75022115Y-100626462D01*
X75482306Y-100167073D01*
X75731666Y-99566547D01*
X75732234Y-98916306D01*
X75483922Y-98315345D01*
X75024533Y-97855154D01*
X74424007Y-97605794D01*
X73773766Y-97605226D01*
X73172805Y-97853538D01*
X72712614Y-98312927D01*
X72463254Y-98913453D01*
X72462686Y-99563694D01*
X69653729Y-99563694D01*
X69363007Y-99039219D01*
X68908197Y-98501975D01*
X68879167Y-98276922D01*
X68513091Y-97639008D01*
X67930762Y-97189743D01*
X67220834Y-96997524D01*
X66491387Y-97091614D01*
X65853472Y-97457691D01*
X65404207Y-98040020D01*
X65211988Y-98749948D01*
X65166742Y-99413630D01*
X63973258Y-99413630D01*
X63928012Y-98749948D01*
X63735793Y-98040020D01*
X63286528Y-97457691D01*
X62648613Y-97091615D01*
X61919166Y-96997524D01*
X61209238Y-97189743D01*
X60626909Y-97639008D01*
X60260833Y-98276923D01*
X60204649Y-98712496D01*
X59928467Y-99038158D01*
X59065812Y-100591234D01*
X58840976Y-101291516D01*
X58901242Y-102024533D01*
X59156742Y-102521683D01*
X58629402Y-102739576D01*
X58211045Y-103157203D01*
X57984353Y-103703138D01*
X57983837Y-104294268D01*
X52065780Y-104294268D01*
X52066163Y-103855732D01*
X51840424Y-103309402D01*
X51422797Y-102891045D01*
X51049453Y-102736019D01*
X51337629Y-102176489D01*
X51398534Y-101443525D01*
X51174309Y-100743047D01*
X50313007Y-99189219D01*
X49858197Y-98651975D01*
X49829167Y-98426922D01*
X49463091Y-97789008D01*
X48880762Y-97339743D01*
X48170834Y-97147524D01*
X47441387Y-97241614D01*
X46803472Y-97607691D01*
X46354207Y-98190020D01*
X46161988Y-98899948D01*
X46116742Y-99563630D01*
X44923258Y-99563630D01*
X44878012Y-98899948D01*
X44685793Y-98190020D01*
X44236528Y-97607691D01*
X43598613Y-97241615D01*
X42869166Y-97147524D01*
X42159238Y-97339743D01*
X41576909Y-97789008D01*
X41210833Y-98426923D01*
X41154649Y-98862496D01*
X40878467Y-99188158D01*
X40015812Y-100741234D01*
X39790976Y-101441516D01*
X39851242Y-102174533D01*
X40106742Y-102671683D01*
X39579402Y-102889576D01*
X39161045Y-103307203D01*
X38934353Y-103853138D01*
X38933837Y-104444268D01*
X37710000Y-104444268D01*
X37710000Y-95417914D01*
X50364197Y-95417914D01*
X51068347Y-97122087D01*
X52371055Y-98427071D01*
X53768480Y-99007332D01*
X53612614Y-99162927D01*
X53363254Y-99763453D01*
X53362686Y-100413694D01*
X53610998Y-101014655D01*
X54070387Y-101474846D01*
X54670913Y-101724206D01*
X55321154Y-101724774D01*
X55922115Y-101476462D01*
X56382306Y-101017073D01*
X56631666Y-100416547D01*
X56632234Y-99766306D01*
X56383922Y-99165345D01*
X56226959Y-99008108D01*
X57622087Y-98431653D01*
X58927071Y-97128945D01*
X59634194Y-95426003D01*
X59635803Y-93582086D01*
X59601047Y-93497970D01*
X113603070Y-93497970D01*
X113603070Y-95496950D01*
X113647348Y-95732267D01*
X113786420Y-95948391D01*
X113998620Y-96093381D01*
X114250510Y-96144390D01*
X116249490Y-96144390D01*
X116484807Y-96100112D01*
X116700931Y-95961040D01*
X116845921Y-95748840D01*
X116896930Y-95496950D01*
X116896930Y-93497970D01*
X116852652Y-93262653D01*
X116713580Y-93046529D01*
X116501380Y-92901539D01*
X116249490Y-92850530D01*
X114250510Y-92850530D01*
X114015193Y-92894808D01*
X113799069Y-93033880D01*
X113654079Y-93246080D01*
X113603070Y-93497970D01*
X59601047Y-93497970D01*
X58931653Y-91877913D01*
X57628945Y-90572929D01*
X56518042Y-90111642D01*
X56593381Y-90001380D01*
X56644390Y-89749490D01*
X56644390Y-89510000D01*
X62185198Y-89510000D01*
X63162599Y-90487401D01*
X63409160Y-90652148D01*
X63700000Y-90710000D01*
X72400530Y-90710000D01*
X72400530Y-90949490D01*
X72444808Y-91184807D01*
X72583880Y-91400931D01*
X72796080Y-91545921D01*
X73047970Y-91596930D01*
X75046950Y-91596930D01*
X75282267Y-91552652D01*
X75498391Y-91413580D01*
X75643381Y-91201380D01*
X75651761Y-91160000D01*
X91600530Y-91160000D01*
X91600530Y-91399490D01*
X91644808Y-91634807D01*
X91783880Y-91850931D01*
X91996080Y-91995921D01*
X92247970Y-92046930D01*
X94246950Y-92046930D01*
X94482267Y-92002652D01*
X94698391Y-91863580D01*
X94843381Y-91651380D01*
X94894390Y-91399490D01*
X94894390Y-91160000D01*
X110650530Y-91160000D01*
X110650530Y-91399490D01*
X110694808Y-91634807D01*
X110833880Y-91850931D01*
X111046080Y-91995921D01*
X111297970Y-92046930D01*
X113296950Y-92046930D01*
X113532267Y-92002652D01*
X113748391Y-91863580D01*
X113893381Y-91651380D01*
X113944390Y-91399490D01*
X113944390Y-89827872D01*
X115012262Y-88760000D01*
X129600530Y-88760000D01*
X129600530Y-88999490D01*
X129644808Y-89234807D01*
X129783880Y-89450931D01*
X129996080Y-89595921D01*
X130247970Y-89646930D01*
X131819588Y-89646930D01*
X132088300Y-89915642D01*
X130432086Y-89914197D01*
X128727913Y-90618347D01*
X127422929Y-91921055D01*
X126754512Y-93530782D01*
X126337073Y-93112614D01*
X125736547Y-92863254D01*
X125086306Y-92862686D01*
X124485345Y-93110998D01*
X124025154Y-93570387D01*
X123775794Y-94170913D01*
X123775226Y-94821154D01*
X124023538Y-95422115D01*
X124482927Y-95882306D01*
X125083453Y-96131666D01*
X125733694Y-96132234D01*
X126334655Y-95883922D01*
X126725058Y-95494199D01*
X127418347Y-97172087D01*
X128721055Y-98477071D01*
X130189350Y-99086760D01*
X129862614Y-99412927D01*
X129793239Y-99580000D01*
X126812767Y-99580000D01*
X126513007Y-99039219D01*
X126058197Y-98501975D01*
X126029167Y-98276922D01*
X125663091Y-97639008D01*
X125080762Y-97189743D01*
X124370834Y-96997524D01*
X123641387Y-97091614D01*
X123003472Y-97457691D01*
X122554207Y-98040020D01*
X122361988Y-98749948D01*
X122316742Y-99413630D01*
X122410833Y-100143077D01*
X122776909Y-100780992D01*
X123359238Y-101230257D01*
X123427287Y-101248682D01*
X124076993Y-102420781D01*
X124552211Y-102982131D01*
X125206076Y-103318892D01*
X125445640Y-103338798D01*
X125294353Y-103703138D01*
X125293837Y-104294268D01*
X125519576Y-104840598D01*
X125937203Y-105258955D01*
X126483138Y-105485647D01*
X127074268Y-105486163D01*
X127620598Y-105260424D01*
X128038955Y-104842797D01*
X128265647Y-104296862D01*
X128265649Y-104294268D01*
X134183837Y-104294268D01*
X134409576Y-104840598D01*
X134827203Y-105258955D01*
X135373138Y-105485647D01*
X135964268Y-105486163D01*
X136510598Y-105260424D01*
X136928955Y-104842797D01*
X137062731Y-104520627D01*
X138120640Y-104520627D01*
X138520024Y-105487209D01*
X139258901Y-106227377D01*
X140224784Y-106628447D01*
X141270627Y-106629360D01*
X142237209Y-106229976D01*
X142977377Y-105491099D01*
X143378447Y-104525216D01*
X143379360Y-103479373D01*
X142979976Y-102512791D01*
X142241099Y-101772623D01*
X141275216Y-101371553D01*
X140229373Y-101370640D01*
X139262791Y-101770024D01*
X138522623Y-102508901D01*
X138121553Y-103474784D01*
X138120640Y-104520627D01*
X137062731Y-104520627D01*
X137155647Y-104296862D01*
X137156163Y-103705732D01*
X137010658Y-103353582D01*
X137431667Y-103318968D01*
X138085825Y-102982777D01*
X138561532Y-102421842D01*
X139292862Y-101105197D01*
X139713091Y-100780992D01*
X140079167Y-100143078D01*
X140173258Y-99413631D01*
X140173258Y-99413630D01*
X141366742Y-99413630D01*
X141460833Y-100143077D01*
X141826909Y-100780992D01*
X142409238Y-101230257D01*
X142477287Y-101248682D01*
X143126993Y-102420781D01*
X143602211Y-102982131D01*
X144256076Y-103318892D01*
X144495640Y-103338798D01*
X144344353Y-103703138D01*
X144343837Y-104294268D01*
X144569576Y-104840598D01*
X144987203Y-105258955D01*
X145533138Y-105485647D01*
X146124268Y-105486163D01*
X146670598Y-105260424D01*
X147088955Y-104842797D01*
X147315647Y-104296862D01*
X147316163Y-103705732D01*
X147090424Y-103159402D01*
X146672797Y-102741045D01*
X146299453Y-102586019D01*
X146587629Y-102026489D01*
X146648534Y-101293525D01*
X146424309Y-100593047D01*
X145563007Y-99039219D01*
X145108197Y-98501975D01*
X145079167Y-98276922D01*
X144713091Y-97639008D01*
X144130762Y-97189743D01*
X143420834Y-96997524D01*
X142691387Y-97091614D01*
X142053472Y-97457691D01*
X141604207Y-98040020D01*
X141411988Y-98749948D01*
X141366742Y-99413630D01*
X140173258Y-99413630D01*
X140128012Y-98749948D01*
X139935793Y-98040020D01*
X139486528Y-97457691D01*
X138848613Y-97091615D01*
X138119166Y-96997524D01*
X137409238Y-97189743D01*
X136826909Y-97639008D01*
X136460833Y-98276923D01*
X136404649Y-98712496D01*
X136128467Y-99038158D01*
X135265812Y-100591234D01*
X135040976Y-101291516D01*
X135101242Y-102024533D01*
X135356742Y-102521683D01*
X134829402Y-102739576D01*
X134411045Y-103157203D01*
X134184353Y-103703138D01*
X134183837Y-104294268D01*
X128265649Y-104294268D01*
X128266163Y-103705732D01*
X128040424Y-103159402D01*
X127622797Y-102741045D01*
X127249453Y-102586019D01*
X127537629Y-102026489D01*
X127598534Y-101293525D01*
X127536586Y-101100000D01*
X129792964Y-101100000D01*
X129860998Y-101264655D01*
X130320387Y-101724846D01*
X130920913Y-101974206D01*
X131571154Y-101974774D01*
X132172115Y-101726462D01*
X132632306Y-101267073D01*
X132881666Y-100666547D01*
X132882234Y-100016306D01*
X132633922Y-99415345D01*
X132364812Y-99145765D01*
X133972087Y-98481653D01*
X135277071Y-97178945D01*
X135732430Y-96082319D01*
X135748620Y-96093381D01*
X136000510Y-96144390D01*
X137999490Y-96144390D01*
X138234807Y-96100112D01*
X138450931Y-95961040D01*
X138595921Y-95748840D01*
X138646930Y-95496950D01*
X138646930Y-93497970D01*
X138602652Y-93262653D01*
X138463580Y-93046529D01*
X138251380Y-92901539D01*
X137999490Y-92850530D01*
X137172792Y-92850530D01*
X132894390Y-88572128D01*
X132894390Y-87000510D01*
X132850112Y-86765193D01*
X132711040Y-86549069D01*
X132498840Y-86404079D01*
X132246950Y-86353070D01*
X130247970Y-86353070D01*
X130012653Y-86397348D01*
X129796529Y-86536420D01*
X129651539Y-86748620D01*
X129600530Y-87000510D01*
X129600530Y-87240000D01*
X123041940Y-87240000D01*
X123187209Y-87179976D01*
X123927377Y-86441099D01*
X124328447Y-85475216D01*
X124329360Y-84429373D01*
X123929976Y-83462791D01*
X123191099Y-82722623D01*
X122225216Y-82321553D01*
X121179373Y-82320640D01*
X120212791Y-82720024D01*
X119472623Y-83458901D01*
X119071553Y-84424784D01*
X119070640Y-85470627D01*
X119470024Y-86437209D01*
X120208901Y-87177377D01*
X120359714Y-87240000D01*
X114697460Y-87240000D01*
X114406621Y-87297852D01*
X114160059Y-87462599D01*
X112869588Y-88753070D01*
X111297970Y-88753070D01*
X111062653Y-88797348D01*
X110846529Y-88936420D01*
X110701539Y-89148620D01*
X110650530Y-89400510D01*
X110650530Y-89640000D01*
X94894390Y-89640000D01*
X94894390Y-89400510D01*
X94850112Y-89165193D01*
X94711040Y-88949069D01*
X94498840Y-88804079D01*
X94246950Y-88753070D01*
X92247970Y-88753070D01*
X92012653Y-88797348D01*
X91796529Y-88936420D01*
X91651539Y-89148620D01*
X91600530Y-89400510D01*
X91600530Y-89640000D01*
X75694390Y-89640000D01*
X75694390Y-88950510D01*
X75650112Y-88715193D01*
X75511040Y-88499069D01*
X75298840Y-88354079D01*
X75046950Y-88303070D01*
X73047970Y-88303070D01*
X72812653Y-88347348D01*
X72596529Y-88486420D01*
X72451539Y-88698620D01*
X72400530Y-88950510D01*
X72400530Y-89190000D01*
X64014802Y-89190000D01*
X63037401Y-88212599D01*
X62790839Y-88047852D01*
X62500000Y-87990000D01*
X56644390Y-87990000D01*
X56644390Y-87750510D01*
X56600112Y-87515193D01*
X56461040Y-87299069D01*
X56248840Y-87154079D01*
X55996950Y-87103070D01*
X53997970Y-87103070D01*
X53762653Y-87147348D01*
X53546529Y-87286420D01*
X53401539Y-87498620D01*
X53350530Y-87750510D01*
X53350530Y-89749490D01*
X53394808Y-89984807D01*
X53477852Y-90113861D01*
X52377913Y-90568347D01*
X51072929Y-91871055D01*
X50365806Y-93573997D01*
X50364197Y-95417914D01*
X37710000Y-95417914D01*
X37710000Y-85294268D01*
X38933837Y-85294268D01*
X39159576Y-85840598D01*
X39577203Y-86258955D01*
X40123138Y-86485647D01*
X40714268Y-86486163D01*
X41260598Y-86260424D01*
X41678955Y-85842797D01*
X41812731Y-85520627D01*
X42870640Y-85520627D01*
X43270024Y-86487209D01*
X44008901Y-87227377D01*
X44974784Y-87628447D01*
X46020627Y-87629360D01*
X46987209Y-87229976D01*
X47727377Y-86491099D01*
X48128447Y-85525216D01*
X48129360Y-84479373D01*
X47729976Y-83512791D01*
X46991099Y-82772623D01*
X46025216Y-82371553D01*
X44979373Y-82370640D01*
X44012791Y-82770024D01*
X43272623Y-83508901D01*
X42871553Y-84474784D01*
X42870640Y-85520627D01*
X41812731Y-85520627D01*
X41905647Y-85296862D01*
X41906163Y-84705732D01*
X41760658Y-84353582D01*
X42181667Y-84318968D01*
X42835825Y-83982777D01*
X43311532Y-83421842D01*
X44042862Y-82105197D01*
X44463091Y-81780992D01*
X44829167Y-81143078D01*
X44923258Y-80413631D01*
X44923258Y-80413630D01*
X46116742Y-80413630D01*
X46210833Y-81143077D01*
X46576909Y-81780992D01*
X47159238Y-82230257D01*
X47227287Y-82248682D01*
X47876993Y-83420781D01*
X48352211Y-83982131D01*
X49006076Y-84318892D01*
X49245640Y-84338798D01*
X49094353Y-84703138D01*
X49093837Y-85294268D01*
X49319576Y-85840598D01*
X49737203Y-86258955D01*
X50283138Y-86485647D01*
X50874268Y-86486163D01*
X51420598Y-86260424D01*
X51838955Y-85842797D01*
X52065647Y-85296862D01*
X52065692Y-85244268D01*
X57983837Y-85244268D01*
X58209576Y-85790598D01*
X58627203Y-86208955D01*
X59173138Y-86435647D01*
X59764268Y-86436163D01*
X60310598Y-86210424D01*
X60728955Y-85792797D01*
X60862731Y-85470627D01*
X61920640Y-85470627D01*
X62320024Y-86437209D01*
X63058901Y-87177377D01*
X64024784Y-87578447D01*
X65070627Y-87579360D01*
X66037209Y-87179976D01*
X66777377Y-86441099D01*
X67178447Y-85475216D01*
X67179360Y-84429373D01*
X66779976Y-83462791D01*
X66041099Y-82722623D01*
X65075216Y-82321553D01*
X64029373Y-82320640D01*
X63062791Y-82720024D01*
X62322623Y-83458901D01*
X61921553Y-84424784D01*
X61920640Y-85470627D01*
X60862731Y-85470627D01*
X60955647Y-85246862D01*
X60956163Y-84655732D01*
X60810658Y-84303582D01*
X61231667Y-84268968D01*
X61885825Y-83932777D01*
X62361532Y-83371842D01*
X63092862Y-82055197D01*
X63513091Y-81730992D01*
X63879167Y-81093078D01*
X63973258Y-80363631D01*
X63973258Y-80363630D01*
X65166742Y-80363630D01*
X65260833Y-81093077D01*
X65626909Y-81730992D01*
X66209238Y-82180257D01*
X66277287Y-82198682D01*
X66926993Y-83370781D01*
X67402211Y-83932131D01*
X68056076Y-84268892D01*
X68295640Y-84288798D01*
X68144353Y-84653138D01*
X68143837Y-85244268D01*
X68369576Y-85790598D01*
X68787203Y-86208955D01*
X69333138Y-86435647D01*
X69924268Y-86436163D01*
X70470598Y-86210424D01*
X70888955Y-85792797D01*
X71115647Y-85246862D01*
X71115649Y-85244268D01*
X77033837Y-85244268D01*
X77259576Y-85790598D01*
X77677203Y-86208955D01*
X78223138Y-86435647D01*
X78814268Y-86436163D01*
X79360598Y-86210424D01*
X79778955Y-85792797D01*
X79912731Y-85470627D01*
X80970640Y-85470627D01*
X81370024Y-86437209D01*
X82108901Y-87177377D01*
X83074784Y-87578447D01*
X84120627Y-87579360D01*
X85087209Y-87179976D01*
X85827377Y-86441099D01*
X86228447Y-85475216D01*
X86229360Y-84429373D01*
X85829976Y-83462791D01*
X85091099Y-82722623D01*
X84125216Y-82321553D01*
X83079373Y-82320640D01*
X82112791Y-82720024D01*
X81372623Y-83458901D01*
X80971553Y-84424784D01*
X80970640Y-85470627D01*
X79912731Y-85470627D01*
X80005647Y-85246862D01*
X80006163Y-84655732D01*
X79860658Y-84303582D01*
X80281667Y-84268968D01*
X80935825Y-83932777D01*
X81411532Y-83371842D01*
X82142862Y-82055197D01*
X82563091Y-81730992D01*
X82929167Y-81093078D01*
X83023258Y-80363631D01*
X83023258Y-80363630D01*
X84216742Y-80363630D01*
X84310833Y-81093077D01*
X84676909Y-81730992D01*
X85259238Y-82180257D01*
X85327287Y-82198682D01*
X85976993Y-83370781D01*
X86452211Y-83932131D01*
X87106076Y-84268892D01*
X87345640Y-84288798D01*
X87194353Y-84653138D01*
X87193837Y-85244268D01*
X87419576Y-85790598D01*
X87837203Y-86208955D01*
X88383138Y-86435647D01*
X88974268Y-86436163D01*
X89520598Y-86210424D01*
X89938955Y-85792797D01*
X90165647Y-85246862D01*
X90165649Y-85244268D01*
X96083837Y-85244268D01*
X96309576Y-85790598D01*
X96727203Y-86208955D01*
X97273138Y-86435647D01*
X97864268Y-86436163D01*
X98410598Y-86210424D01*
X98828955Y-85792797D01*
X98962731Y-85470627D01*
X100020640Y-85470627D01*
X100420024Y-86437209D01*
X101158901Y-87177377D01*
X102124784Y-87578447D01*
X103170627Y-87579360D01*
X104137209Y-87179976D01*
X104877377Y-86441099D01*
X105278447Y-85475216D01*
X105279360Y-84429373D01*
X104879976Y-83462791D01*
X104141099Y-82722623D01*
X103175216Y-82321553D01*
X102129373Y-82320640D01*
X101162791Y-82720024D01*
X100422623Y-83458901D01*
X100021553Y-84424784D01*
X100020640Y-85470627D01*
X98962731Y-85470627D01*
X99055647Y-85246862D01*
X99056163Y-84655732D01*
X98910658Y-84303582D01*
X99331667Y-84268968D01*
X99985825Y-83932777D01*
X100461532Y-83371842D01*
X101192862Y-82055197D01*
X101613091Y-81730992D01*
X101979167Y-81093078D01*
X102073258Y-80363631D01*
X102073258Y-80363630D01*
X103266742Y-80363630D01*
X103360833Y-81093077D01*
X103726909Y-81730992D01*
X104309238Y-82180257D01*
X104377287Y-82198682D01*
X105026993Y-83370781D01*
X105502211Y-83932131D01*
X106156076Y-84268892D01*
X106395640Y-84288798D01*
X106244353Y-84653138D01*
X106243837Y-85244268D01*
X106469576Y-85790598D01*
X106887203Y-86208955D01*
X107433138Y-86435647D01*
X108024268Y-86436163D01*
X108570598Y-86210424D01*
X108988955Y-85792797D01*
X109215647Y-85246862D01*
X109215649Y-85244268D01*
X115133837Y-85244268D01*
X115359576Y-85790598D01*
X115777203Y-86208955D01*
X116323138Y-86435647D01*
X116914268Y-86436163D01*
X117460598Y-86210424D01*
X117878955Y-85792797D01*
X118105647Y-85246862D01*
X118106163Y-84655732D01*
X117960658Y-84303582D01*
X118381667Y-84268968D01*
X119035825Y-83932777D01*
X119511532Y-83371842D01*
X120242862Y-82055197D01*
X120663091Y-81730992D01*
X121029167Y-81093078D01*
X121123258Y-80363631D01*
X121123258Y-80363630D01*
X122316742Y-80363630D01*
X122410833Y-81093077D01*
X122776909Y-81730992D01*
X123359238Y-82180257D01*
X123427287Y-82198682D01*
X124076993Y-83370781D01*
X124552211Y-83932131D01*
X125206076Y-84268892D01*
X125445640Y-84288798D01*
X125294353Y-84653138D01*
X125293837Y-85244268D01*
X125519576Y-85790598D01*
X125937203Y-86208955D01*
X126483138Y-86435647D01*
X127074268Y-86436163D01*
X127620598Y-86210424D01*
X128038955Y-85792797D01*
X128265647Y-85246862D01*
X128265649Y-85244268D01*
X134183837Y-85244268D01*
X134409576Y-85790598D01*
X134827203Y-86208955D01*
X135373138Y-86435647D01*
X135964268Y-86436163D01*
X136510598Y-86210424D01*
X136928955Y-85792797D01*
X137062731Y-85470627D01*
X138120640Y-85470627D01*
X138520024Y-86437209D01*
X139258901Y-87177377D01*
X140224784Y-87578447D01*
X141270627Y-87579360D01*
X142237209Y-87179976D01*
X142977377Y-86441099D01*
X143378447Y-85475216D01*
X143379360Y-84429373D01*
X142979976Y-83462791D01*
X142241099Y-82722623D01*
X141275216Y-82321553D01*
X140229373Y-82320640D01*
X139262791Y-82720024D01*
X138522623Y-83458901D01*
X138121553Y-84424784D01*
X138120640Y-85470627D01*
X137062731Y-85470627D01*
X137155647Y-85246862D01*
X137156163Y-84655732D01*
X137010658Y-84303582D01*
X137431667Y-84268968D01*
X138085825Y-83932777D01*
X138561532Y-83371842D01*
X139292862Y-82055197D01*
X139713091Y-81730992D01*
X140079167Y-81093078D01*
X140173258Y-80363631D01*
X140173258Y-80363630D01*
X141366742Y-80363630D01*
X141460833Y-81093077D01*
X141826909Y-81730992D01*
X142409238Y-82180257D01*
X142477287Y-82198682D01*
X143126993Y-83370781D01*
X143602211Y-83932131D01*
X144256076Y-84268892D01*
X144495640Y-84288798D01*
X144344353Y-84653138D01*
X144343837Y-85244268D01*
X144569576Y-85790598D01*
X144987203Y-86208955D01*
X145533138Y-86435647D01*
X146124268Y-86436163D01*
X146670598Y-86210424D01*
X147088955Y-85792797D01*
X147315647Y-85246862D01*
X147316163Y-84655732D01*
X147090424Y-84109402D01*
X146672797Y-83691045D01*
X146299453Y-83536019D01*
X146587629Y-82976489D01*
X146648534Y-82243525D01*
X146424309Y-81543047D01*
X145563007Y-79989219D01*
X145108197Y-79451975D01*
X145079167Y-79226922D01*
X144713091Y-78589008D01*
X144130762Y-78139743D01*
X143420834Y-77947524D01*
X142691387Y-78041614D01*
X142053472Y-78407691D01*
X141604207Y-78990020D01*
X141411988Y-79699948D01*
X141366742Y-80363630D01*
X140173258Y-80363630D01*
X140128012Y-79699948D01*
X139935793Y-78990020D01*
X139486528Y-78407691D01*
X138848613Y-78041615D01*
X138119166Y-77947524D01*
X137409238Y-78139743D01*
X136826909Y-78589008D01*
X136460833Y-79226923D01*
X136404649Y-79662496D01*
X136128467Y-79988158D01*
X135265812Y-81541234D01*
X135040976Y-82241516D01*
X135101242Y-82974533D01*
X135356742Y-83471683D01*
X134829402Y-83689576D01*
X134411045Y-84107203D01*
X134184353Y-84653138D01*
X134183837Y-85244268D01*
X128265649Y-85244268D01*
X128266163Y-84655732D01*
X128040424Y-84109402D01*
X127622797Y-83691045D01*
X127249453Y-83536019D01*
X127537629Y-82976489D01*
X127598534Y-82243525D01*
X127374309Y-81543047D01*
X126513007Y-79989219D01*
X126058197Y-79451975D01*
X126029167Y-79226922D01*
X125663091Y-78589008D01*
X125080762Y-78139743D01*
X124370834Y-77947524D01*
X123641387Y-78041614D01*
X123003472Y-78407691D01*
X122554207Y-78990020D01*
X122361988Y-79699948D01*
X122316742Y-80363630D01*
X121123258Y-80363630D01*
X121078012Y-79699948D01*
X120885793Y-78990020D01*
X120436528Y-78407691D01*
X119798613Y-78041615D01*
X119069166Y-77947524D01*
X118359238Y-78139743D01*
X117776909Y-78589008D01*
X117410833Y-79226923D01*
X117354649Y-79662496D01*
X117078467Y-79988158D01*
X116215812Y-81541234D01*
X115990976Y-82241516D01*
X116051242Y-82974533D01*
X116306742Y-83471683D01*
X115779402Y-83689576D01*
X115361045Y-84107203D01*
X115134353Y-84653138D01*
X115133837Y-85244268D01*
X109215649Y-85244268D01*
X109216163Y-84655732D01*
X108990424Y-84109402D01*
X108572797Y-83691045D01*
X108199453Y-83536019D01*
X108487629Y-82976489D01*
X108548534Y-82243525D01*
X108324309Y-81543047D01*
X107781445Y-80563694D01*
X110662686Y-80563694D01*
X110910998Y-81164655D01*
X111370387Y-81624846D01*
X111970913Y-81874206D01*
X112621154Y-81874774D01*
X113222115Y-81626462D01*
X113682306Y-81167073D01*
X113931666Y-80566547D01*
X113932234Y-79916306D01*
X113683922Y-79315345D01*
X113224533Y-78855154D01*
X112624007Y-78605794D01*
X111973766Y-78605226D01*
X111372805Y-78853538D01*
X110912614Y-79312927D01*
X110663254Y-79913453D01*
X110662686Y-80563694D01*
X107781445Y-80563694D01*
X107463007Y-79989219D01*
X107008197Y-79451975D01*
X106979167Y-79226922D01*
X106613091Y-78589008D01*
X106030762Y-78139743D01*
X105320834Y-77947524D01*
X104591387Y-78041614D01*
X103953472Y-78407691D01*
X103504207Y-78990020D01*
X103311988Y-79699948D01*
X103266742Y-80363630D01*
X102073258Y-80363630D01*
X102028012Y-79699948D01*
X101835793Y-78990020D01*
X101386528Y-78407691D01*
X100748613Y-78041615D01*
X100019166Y-77947524D01*
X99309238Y-78139743D01*
X98726909Y-78589008D01*
X98360833Y-79226923D01*
X98304649Y-79662496D01*
X98028467Y-79988158D01*
X97165812Y-81541234D01*
X96940976Y-82241516D01*
X97001242Y-82974533D01*
X97256742Y-83471683D01*
X96729402Y-83689576D01*
X96311045Y-84107203D01*
X96084353Y-84653138D01*
X96083837Y-85244268D01*
X90165649Y-85244268D01*
X90166163Y-84655732D01*
X89940424Y-84109402D01*
X89522797Y-83691045D01*
X89149453Y-83536019D01*
X89437629Y-82976489D01*
X89498534Y-82243525D01*
X89274309Y-81543047D01*
X88731445Y-80563694D01*
X91612686Y-80563694D01*
X91860998Y-81164655D01*
X92320387Y-81624846D01*
X92920913Y-81874206D01*
X93571154Y-81874774D01*
X94172115Y-81626462D01*
X94632306Y-81167073D01*
X94881666Y-80566547D01*
X94882234Y-79916306D01*
X94633922Y-79315345D01*
X94174533Y-78855154D01*
X93574007Y-78605794D01*
X92923766Y-78605226D01*
X92322805Y-78853538D01*
X91862614Y-79312927D01*
X91613254Y-79913453D01*
X91612686Y-80563694D01*
X88731445Y-80563694D01*
X88413007Y-79989219D01*
X87958197Y-79451975D01*
X87929167Y-79226922D01*
X87563091Y-78589008D01*
X86980762Y-78139743D01*
X86270834Y-77947524D01*
X85541387Y-78041614D01*
X84903472Y-78407691D01*
X84454207Y-78990020D01*
X84261988Y-79699948D01*
X84216742Y-80363630D01*
X83023258Y-80363630D01*
X82978012Y-79699948D01*
X82785793Y-78990020D01*
X82336528Y-78407691D01*
X81698613Y-78041615D01*
X80969166Y-77947524D01*
X80259238Y-78139743D01*
X79676909Y-78589008D01*
X79310833Y-79226923D01*
X79254649Y-79662496D01*
X78978467Y-79988158D01*
X78115812Y-81541234D01*
X77890976Y-82241516D01*
X77951242Y-82974533D01*
X78206742Y-83471683D01*
X77679402Y-83689576D01*
X77261045Y-84107203D01*
X77034353Y-84653138D01*
X77033837Y-85244268D01*
X71115649Y-85244268D01*
X71116163Y-84655732D01*
X70890424Y-84109402D01*
X70472797Y-83691045D01*
X70099453Y-83536019D01*
X70387629Y-82976489D01*
X70448534Y-82243525D01*
X70224309Y-81543047D01*
X69432005Y-80113694D01*
X72412686Y-80113694D01*
X72660998Y-80714655D01*
X73120387Y-81174846D01*
X73720913Y-81424206D01*
X74371154Y-81424774D01*
X74972115Y-81176462D01*
X75432306Y-80717073D01*
X75681666Y-80116547D01*
X75682234Y-79466306D01*
X75433922Y-78865345D01*
X74974533Y-78405154D01*
X74374007Y-78155794D01*
X73723766Y-78155226D01*
X73122805Y-78403538D01*
X72662614Y-78862927D01*
X72413254Y-79463453D01*
X72412686Y-80113694D01*
X69432005Y-80113694D01*
X69363007Y-79989219D01*
X68908197Y-79451975D01*
X68879167Y-79226922D01*
X68513091Y-78589008D01*
X67930762Y-78139743D01*
X67220834Y-77947524D01*
X66491387Y-78041614D01*
X65853472Y-78407691D01*
X65404207Y-78990020D01*
X65211988Y-79699948D01*
X65166742Y-80363630D01*
X63973258Y-80363630D01*
X63928012Y-79699948D01*
X63735793Y-78990020D01*
X63286528Y-78407691D01*
X62648613Y-78041615D01*
X61919166Y-77947524D01*
X61209238Y-78139743D01*
X60626909Y-78589008D01*
X60260833Y-79226923D01*
X60204649Y-79662496D01*
X59928467Y-79988158D01*
X59065812Y-81541234D01*
X58840976Y-82241516D01*
X58901242Y-82974533D01*
X59156742Y-83471683D01*
X58629402Y-83689576D01*
X58211045Y-84107203D01*
X57984353Y-84653138D01*
X57983837Y-85244268D01*
X52065692Y-85244268D01*
X52066163Y-84705732D01*
X51840424Y-84159402D01*
X51422797Y-83741045D01*
X51049453Y-83586019D01*
X51337629Y-83026489D01*
X51398534Y-82293525D01*
X51174309Y-81593047D01*
X50313007Y-80039219D01*
X49858197Y-79501975D01*
X49829167Y-79276922D01*
X49620724Y-78913694D01*
X53362686Y-78913694D01*
X53610998Y-79514655D01*
X54070387Y-79974846D01*
X54670913Y-80224206D01*
X55321154Y-80224774D01*
X55922115Y-79976462D01*
X56382306Y-79517073D01*
X56631666Y-78916547D01*
X56632234Y-78266306D01*
X56383922Y-77665345D01*
X56030445Y-77311250D01*
X125268860Y-77311250D01*
X125268860Y-77901809D01*
X125365533Y-78135198D01*
X125544161Y-78313827D01*
X125777550Y-78410500D01*
X127118110Y-78410500D01*
X127276860Y-78251750D01*
X127276860Y-77152500D01*
X127530860Y-77152500D01*
X127530860Y-78251750D01*
X127689610Y-78410500D01*
X129030170Y-78410500D01*
X129263559Y-78313827D01*
X129413691Y-78163694D01*
X129612686Y-78163694D01*
X129860998Y-78764655D01*
X130320387Y-79224846D01*
X130920913Y-79474206D01*
X131571154Y-79474774D01*
X132172115Y-79226462D01*
X132632306Y-78767073D01*
X132881666Y-78166547D01*
X132882234Y-77516306D01*
X132633922Y-76915345D01*
X132174533Y-76455154D01*
X131574007Y-76205794D01*
X130923766Y-76205226D01*
X130322805Y-76453538D01*
X129862614Y-76912927D01*
X129613254Y-77513453D01*
X129612686Y-78163694D01*
X129413691Y-78163694D01*
X129442187Y-78135198D01*
X129538860Y-77901809D01*
X129538860Y-77311250D01*
X129380110Y-77152500D01*
X127530860Y-77152500D01*
X127276860Y-77152500D01*
X125427610Y-77152500D01*
X125268860Y-77311250D01*
X56030445Y-77311250D01*
X55924533Y-77205154D01*
X55324007Y-76955794D01*
X54673766Y-76955226D01*
X54072805Y-77203538D01*
X53612614Y-77662927D01*
X53363254Y-78263453D01*
X53362686Y-78913694D01*
X49620724Y-78913694D01*
X49463091Y-78639008D01*
X48880762Y-78189743D01*
X48170834Y-77997524D01*
X47441387Y-78091614D01*
X46803472Y-78457691D01*
X46354207Y-79040020D01*
X46161988Y-79749948D01*
X46116742Y-80413630D01*
X44923258Y-80413630D01*
X44878012Y-79749948D01*
X44685793Y-79040020D01*
X44236528Y-78457691D01*
X43598613Y-78091615D01*
X42869166Y-77997524D01*
X42159238Y-78189743D01*
X41576909Y-78639008D01*
X41210833Y-79276923D01*
X41154649Y-79712496D01*
X40878467Y-80038158D01*
X40015812Y-81591234D01*
X39790976Y-82291516D01*
X39851242Y-83024533D01*
X40106742Y-83521683D01*
X39579402Y-83739576D01*
X39161045Y-84157203D01*
X38934353Y-84703138D01*
X38933837Y-85294268D01*
X37710000Y-85294268D01*
X37710000Y-75726234D01*
X38255226Y-75726234D01*
X38503538Y-76327195D01*
X38962927Y-76787386D01*
X39563453Y-77036746D01*
X40213694Y-77037314D01*
X40814655Y-76789002D01*
X41274846Y-76329613D01*
X41524206Y-75729087D01*
X41524774Y-75078846D01*
X41455691Y-74911651D01*
X49473070Y-66894272D01*
X49787203Y-67208955D01*
X50333138Y-67435647D01*
X50924268Y-67436163D01*
X51470598Y-67210424D01*
X51888955Y-66792797D01*
X52115647Y-66246862D01*
X52116163Y-65655732D01*
X51890424Y-65109402D01*
X51472797Y-64691045D01*
X51099453Y-64536019D01*
X51387629Y-63976489D01*
X51448534Y-63243525D01*
X51224309Y-62543047D01*
X50363007Y-60989219D01*
X49908197Y-60451975D01*
X49879167Y-60226922D01*
X49513091Y-59589008D01*
X48930762Y-59139743D01*
X48220834Y-58947524D01*
X47491387Y-59041614D01*
X46853472Y-59407691D01*
X46404207Y-59990020D01*
X46211988Y-60699948D01*
X46166742Y-61363630D01*
X46260833Y-62093077D01*
X46626909Y-62730992D01*
X47209238Y-63180257D01*
X47277287Y-63198682D01*
X47926993Y-64370781D01*
X48385000Y-64911801D01*
X48385000Y-65832738D01*
X48178828Y-66038910D01*
X48179360Y-65429373D01*
X47779976Y-64462791D01*
X47041099Y-63722623D01*
X46075216Y-63321553D01*
X45029373Y-63320640D01*
X44062791Y-63720024D01*
X43322623Y-64458901D01*
X42921553Y-65424784D01*
X42920640Y-66470627D01*
X43320024Y-67437209D01*
X44058901Y-68177377D01*
X45024784Y-68578447D01*
X45638755Y-68578983D01*
X40381083Y-73836655D01*
X40216547Y-73768334D01*
X39566306Y-73767766D01*
X38965345Y-74016078D01*
X38505154Y-74475467D01*
X38255794Y-75075993D01*
X38255226Y-75726234D01*
X37710000Y-75726234D01*
X37710000Y-66244268D01*
X38983837Y-66244268D01*
X39209576Y-66790598D01*
X39627203Y-67208955D01*
X40173138Y-67435647D01*
X40764268Y-67436163D01*
X41310598Y-67210424D01*
X41728955Y-66792797D01*
X41955647Y-66246862D01*
X41956163Y-65655732D01*
X41810658Y-65303582D01*
X42231667Y-65268968D01*
X42885825Y-64932777D01*
X43361532Y-64371842D01*
X44092862Y-63055197D01*
X44513091Y-62730992D01*
X44879167Y-62093078D01*
X44973258Y-61363631D01*
X44928012Y-60699948D01*
X44735793Y-59990020D01*
X44286528Y-59407691D01*
X43648613Y-59041615D01*
X42919166Y-58947524D01*
X42209238Y-59139743D01*
X41626909Y-59589008D01*
X41260833Y-60226923D01*
X41204649Y-60662496D01*
X40928467Y-60988158D01*
X40065812Y-62541234D01*
X39840976Y-63241516D01*
X39901242Y-63974533D01*
X40156742Y-64471683D01*
X39629402Y-64689576D01*
X39211045Y-65107203D01*
X38984353Y-65653138D01*
X38983837Y-66244268D01*
X37710000Y-66244268D01*
X37710000Y-56676234D01*
X39155226Y-56676234D01*
X39403538Y-57277195D01*
X39862927Y-57737386D01*
X40463453Y-57986746D01*
X41113694Y-57987314D01*
X41714655Y-57739002D01*
X42174846Y-57279613D01*
X42424206Y-56679087D01*
X42424774Y-56028846D01*
X42176462Y-55427885D01*
X42101758Y-55353050D01*
X49303070Y-55353050D01*
X49303070Y-57352030D01*
X49347348Y-57587347D01*
X49486420Y-57803471D01*
X49698620Y-57948461D01*
X49950510Y-57999470D01*
X51949490Y-57999470D01*
X52184807Y-57955192D01*
X52400931Y-57816120D01*
X52545921Y-57603920D01*
X52596930Y-57352030D01*
X52596930Y-55353050D01*
X52552652Y-55117733D01*
X52413580Y-54901609D01*
X52201380Y-54756619D01*
X51949490Y-54705610D01*
X49950510Y-54705610D01*
X49715193Y-54749888D01*
X49499069Y-54888960D01*
X49354079Y-55101160D01*
X49303070Y-55353050D01*
X42101758Y-55353050D01*
X41717073Y-54967694D01*
X41116547Y-54718334D01*
X40466306Y-54717766D01*
X39865345Y-54966078D01*
X39405154Y-55425467D01*
X39155794Y-56025993D01*
X39155226Y-56676234D01*
X37710000Y-56676234D01*
X37710000Y-39710000D01*
X44000000Y-39710000D01*
X44271705Y-39655954D01*
X44502046Y-39502046D01*
X47215444Y-36788648D01*
X47214197Y-38217914D01*
X47901873Y-39882217D01*
X47441387Y-39941614D01*
X46803472Y-40307691D01*
X46354207Y-40890020D01*
X46161988Y-41599948D01*
X46116742Y-42263630D01*
X46210833Y-42993077D01*
X46576909Y-43630992D01*
X47159238Y-44080257D01*
X47227287Y-44098682D01*
X47876993Y-45270781D01*
X48352211Y-45832131D01*
X49006076Y-46168892D01*
X49245640Y-46188798D01*
X49094353Y-46553138D01*
X49093837Y-47144268D01*
X49319576Y-47690598D01*
X49372725Y-47743840D01*
X48531780Y-47743840D01*
X48240940Y-47801692D01*
X47994379Y-47966439D01*
X47803824Y-48156994D01*
X48128447Y-47375216D01*
X48129360Y-46329373D01*
X47729976Y-45362791D01*
X46991099Y-44622623D01*
X46025216Y-44221553D01*
X44979373Y-44220640D01*
X44012791Y-44620024D01*
X43272623Y-45358901D01*
X42871553Y-46324784D01*
X42870640Y-47370627D01*
X43064426Y-47839624D01*
X42855000Y-47630198D01*
X42855000Y-45810167D01*
X43311532Y-45271842D01*
X44042862Y-43955197D01*
X44463091Y-43630992D01*
X44829167Y-42993078D01*
X44923258Y-42263631D01*
X44878012Y-41599948D01*
X44685793Y-40890020D01*
X44236528Y-40307691D01*
X43598613Y-39941615D01*
X42869166Y-39847524D01*
X42159238Y-40039743D01*
X41576909Y-40489008D01*
X41210833Y-41126923D01*
X41154649Y-41562496D01*
X40878467Y-41888158D01*
X40015812Y-43441234D01*
X39790976Y-44141516D01*
X39851242Y-44874533D01*
X40106742Y-45371683D01*
X39579402Y-45589576D01*
X39161045Y-46007203D01*
X38934353Y-46553138D01*
X38933837Y-47144268D01*
X39159576Y-47690598D01*
X39577203Y-48108955D01*
X40123138Y-48335647D01*
X40714268Y-48336163D01*
X41260598Y-48110424D01*
X41350128Y-48021051D01*
X41392852Y-48235839D01*
X41557599Y-48482401D01*
X43362599Y-50287401D01*
X43609160Y-50452148D01*
X43640747Y-50458431D01*
X43900000Y-50510000D01*
X47285620Y-50510000D01*
X47576459Y-50452148D01*
X47823021Y-50287401D01*
X48846582Y-49263840D01*
X49264700Y-49263840D01*
X49264700Y-50592420D01*
X49308978Y-50827737D01*
X49448050Y-51043861D01*
X49660250Y-51188851D01*
X49740074Y-51205016D01*
X49702223Y-51212138D01*
X49486099Y-51351210D01*
X49341109Y-51563410D01*
X49290100Y-51815300D01*
X49290100Y-53315300D01*
X49334378Y-53550617D01*
X49473450Y-53766741D01*
X49685650Y-53911731D01*
X49937540Y-53962740D01*
X52937540Y-53962740D01*
X53172857Y-53918462D01*
X53371291Y-53790773D01*
X53677919Y-54097401D01*
X53924481Y-54262148D01*
X54215320Y-54320000D01*
X55608797Y-54320000D01*
X55648035Y-54414964D01*
X56062698Y-54830351D01*
X55649529Y-55242800D01*
X55418963Y-55798065D01*
X55418438Y-56399297D01*
X55648035Y-56954964D01*
X56062698Y-57370351D01*
X55649529Y-57782800D01*
X55418963Y-58338065D01*
X55418438Y-58939297D01*
X55438163Y-58987035D01*
X52562599Y-61862599D01*
X52397852Y-62109161D01*
X52340000Y-62400000D01*
X52340000Y-72037738D01*
X50622128Y-73755610D01*
X49050510Y-73755610D01*
X48815193Y-73799888D01*
X48599069Y-73938960D01*
X48454079Y-74151160D01*
X48403070Y-74403050D01*
X48403070Y-76402030D01*
X48447348Y-76637347D01*
X48586420Y-76853471D01*
X48798620Y-76998461D01*
X49050510Y-77049470D01*
X51049490Y-77049470D01*
X51284807Y-77005192D01*
X51500931Y-76866120D01*
X51645921Y-76653920D01*
X51696930Y-76402030D01*
X51696930Y-76162540D01*
X58053070Y-76162540D01*
X58053070Y-76446950D01*
X58097348Y-76682267D01*
X58236420Y-76898391D01*
X58448620Y-77043381D01*
X58700510Y-77094390D01*
X60699490Y-77094390D01*
X60934807Y-77050112D01*
X61150931Y-76911040D01*
X61295921Y-76698840D01*
X61346930Y-76446950D01*
X61346930Y-76207460D01*
X63352540Y-76207460D01*
X63643379Y-76149608D01*
X63889941Y-75984861D01*
X64103648Y-75771154D01*
X68225226Y-75771154D01*
X68473538Y-76372115D01*
X68932927Y-76832306D01*
X69533453Y-77081666D01*
X70183694Y-77082234D01*
X70784655Y-76833922D01*
X71244846Y-76374533D01*
X71338416Y-76149191D01*
X125268860Y-76149191D01*
X125268860Y-76739750D01*
X125427610Y-76898500D01*
X127276860Y-76898500D01*
X127276860Y-75799250D01*
X127530860Y-75799250D01*
X127530860Y-76898500D01*
X129380110Y-76898500D01*
X129538860Y-76739750D01*
X129538860Y-76149191D01*
X129442187Y-75915802D01*
X129263559Y-75737173D01*
X129030170Y-75640500D01*
X127689610Y-75640500D01*
X127530860Y-75799250D01*
X127276860Y-75799250D01*
X127118110Y-75640500D01*
X125777550Y-75640500D01*
X125544161Y-75737173D01*
X125365533Y-75915802D01*
X125268860Y-76149191D01*
X71338416Y-76149191D01*
X71494206Y-75774007D01*
X71494774Y-75123766D01*
X71246462Y-74522805D01*
X70787073Y-74062614D01*
X70186547Y-73813254D01*
X69536306Y-73812686D01*
X68935345Y-74060998D01*
X68475154Y-74520387D01*
X68225794Y-75120913D01*
X68225226Y-75771154D01*
X64103648Y-75771154D01*
X67964802Y-71910000D01*
X91400530Y-71910000D01*
X91400530Y-72149490D01*
X91444808Y-72384807D01*
X91583880Y-72600931D01*
X91796080Y-72745921D01*
X92047970Y-72796930D01*
X94046950Y-72796930D01*
X94282267Y-72752652D01*
X94498391Y-72613580D01*
X94643381Y-72401380D01*
X94694390Y-72149490D01*
X94694390Y-71910000D01*
X110600530Y-71910000D01*
X110600530Y-72299490D01*
X110644808Y-72534807D01*
X110783880Y-72750931D01*
X110996080Y-72895921D01*
X111247970Y-72946930D01*
X113246950Y-72946930D01*
X113482267Y-72902652D01*
X113698391Y-72763580D01*
X113843381Y-72551380D01*
X113894390Y-72299490D01*
X113894390Y-70727872D01*
X114202762Y-70419500D01*
X125299600Y-70419500D01*
X125299600Y-70532174D01*
X125174416Y-70615819D01*
X125129099Y-70646099D01*
X125018820Y-70756378D01*
X124973333Y-70756338D01*
X124629557Y-70898383D01*
X124366308Y-71161173D01*
X124223662Y-71504701D01*
X124223338Y-71876667D01*
X124365383Y-72220443D01*
X124628173Y-72483692D01*
X124971701Y-72626338D01*
X125343667Y-72626662D01*
X125687443Y-72484617D01*
X125746195Y-72425968D01*
X125947040Y-72466640D01*
X128947040Y-72466640D01*
X129182357Y-72422362D01*
X129398481Y-72283290D01*
X129543471Y-72071090D01*
X129594480Y-71819200D01*
X129594480Y-70915782D01*
X129650530Y-70971832D01*
X129650530Y-72549490D01*
X129694808Y-72784807D01*
X129697201Y-72788526D01*
X129481833Y-72788338D01*
X129393243Y-72824942D01*
X129355250Y-72765899D01*
X129143050Y-72620909D01*
X128891160Y-72569900D01*
X125891160Y-72569900D01*
X125655843Y-72614178D01*
X125439719Y-72753250D01*
X125294729Y-72965450D01*
X125243720Y-73217340D01*
X125243720Y-74717340D01*
X125287998Y-74952657D01*
X125427070Y-75168781D01*
X125639270Y-75313771D01*
X125891160Y-75364780D01*
X128891160Y-75364780D01*
X129126477Y-75320502D01*
X129342601Y-75181430D01*
X129487591Y-74969230D01*
X129538600Y-74717340D01*
X129538600Y-74658389D01*
X129852167Y-74658662D01*
X130195943Y-74516617D01*
X130459192Y-74253827D01*
X130601838Y-73910299D01*
X130602162Y-73538333D01*
X130461098Y-73196930D01*
X132296950Y-73196930D01*
X132362360Y-73184622D01*
X133953070Y-74775332D01*
X133953070Y-76346950D01*
X133997348Y-76582267D01*
X134136420Y-76798391D01*
X134348620Y-76943381D01*
X134600510Y-76994390D01*
X136599490Y-76994390D01*
X136834807Y-76950112D01*
X137050931Y-76811040D01*
X137195921Y-76598840D01*
X137246930Y-76346950D01*
X137246930Y-75671154D01*
X144125226Y-75671154D01*
X144373538Y-76272115D01*
X144832927Y-76732306D01*
X145433453Y-76981666D01*
X146083694Y-76982234D01*
X146684655Y-76733922D01*
X147144846Y-76274533D01*
X147394206Y-75674007D01*
X147394774Y-75023766D01*
X147146462Y-74422805D01*
X146687073Y-73962614D01*
X146086547Y-73713254D01*
X145436306Y-73712686D01*
X144835345Y-73960998D01*
X144375154Y-74420387D01*
X144125794Y-75020913D01*
X144125226Y-75671154D01*
X137246930Y-75671154D01*
X137246930Y-74347970D01*
X137202652Y-74112653D01*
X137063580Y-73896529D01*
X136851380Y-73751539D01*
X136599490Y-73700530D01*
X135027872Y-73700530D01*
X132944390Y-71617048D01*
X132944390Y-70550510D01*
X132900112Y-70315193D01*
X132761040Y-70099069D01*
X132548840Y-69954079D01*
X132296950Y-69903070D01*
X130731372Y-69903070D01*
X129977802Y-69149500D01*
X136410500Y-69149500D01*
X136701339Y-69091648D01*
X136947901Y-68926901D01*
X137882401Y-67992401D01*
X138047148Y-67745839D01*
X138105000Y-67455000D01*
X138105000Y-66420627D01*
X138120640Y-66420627D01*
X138520024Y-67387209D01*
X139258901Y-68127377D01*
X140224784Y-68528447D01*
X141270627Y-68529360D01*
X142237209Y-68129976D01*
X142977377Y-67391099D01*
X143378447Y-66425216D01*
X143379360Y-65379373D01*
X142979976Y-64412791D01*
X142241099Y-63672623D01*
X141275216Y-63271553D01*
X140229373Y-63270640D01*
X139262791Y-63670024D01*
X138522623Y-64408901D01*
X138121553Y-65374784D01*
X138120640Y-66420627D01*
X138105000Y-66420627D01*
X138105000Y-64860167D01*
X138561532Y-64321842D01*
X139292862Y-63005197D01*
X139713091Y-62680992D01*
X140079167Y-62043078D01*
X140173258Y-61313631D01*
X140173258Y-61313630D01*
X141366742Y-61313630D01*
X141460833Y-62043077D01*
X141826909Y-62680992D01*
X142409238Y-63130257D01*
X142477287Y-63148682D01*
X143126993Y-64320781D01*
X143602211Y-64882131D01*
X144256076Y-65218892D01*
X144495640Y-65238798D01*
X144344353Y-65603138D01*
X144343837Y-66194268D01*
X144569576Y-66740598D01*
X144987203Y-67158955D01*
X145533138Y-67385647D01*
X146124268Y-67386163D01*
X146670598Y-67160424D01*
X147088955Y-66742797D01*
X147315647Y-66196862D01*
X147316163Y-65605732D01*
X147090424Y-65059402D01*
X146672797Y-64641045D01*
X146299453Y-64486019D01*
X146587629Y-63926489D01*
X146648534Y-63193525D01*
X146424309Y-62493047D01*
X145563007Y-60939219D01*
X145108197Y-60401975D01*
X145079167Y-60176922D01*
X144713091Y-59539008D01*
X144130762Y-59089743D01*
X143420834Y-58897524D01*
X142691387Y-58991614D01*
X142053472Y-59357691D01*
X141604207Y-59940020D01*
X141411988Y-60649948D01*
X141366742Y-61313630D01*
X140173258Y-61313630D01*
X140128012Y-60649948D01*
X139935793Y-59940020D01*
X139486528Y-59357691D01*
X138848613Y-58991615D01*
X138119166Y-58897524D01*
X137409238Y-59089743D01*
X136826909Y-59539008D01*
X136460833Y-60176923D01*
X136404649Y-60612496D01*
X136128467Y-60938158D01*
X135265812Y-62491234D01*
X135040976Y-63191516D01*
X135101242Y-63924533D01*
X135356742Y-64421683D01*
X134829402Y-64639576D01*
X134411045Y-65057203D01*
X134184353Y-65603138D01*
X134183837Y-66194268D01*
X134409576Y-66740598D01*
X134827203Y-67158955D01*
X135373138Y-67385647D01*
X135964268Y-67386163D01*
X136510598Y-67160424D01*
X136585000Y-67086152D01*
X136585000Y-67140198D01*
X136095698Y-67629500D01*
X123688559Y-67629500D01*
X123927377Y-67391099D01*
X124328447Y-66425216D01*
X124329360Y-65379373D01*
X123929976Y-64412791D01*
X123191099Y-63672623D01*
X122225216Y-63271553D01*
X121179373Y-63270640D01*
X120212791Y-63670024D01*
X119472623Y-64408901D01*
X119071553Y-65374784D01*
X119070640Y-66420627D01*
X119470024Y-67387209D01*
X119711892Y-67629500D01*
X111950500Y-67629500D01*
X111659661Y-67687352D01*
X111413099Y-67852099D01*
X110425198Y-68840000D01*
X109526802Y-68840000D01*
X116496802Y-61870000D01*
X116560876Y-61870000D01*
X116215812Y-62491234D01*
X115990976Y-63191516D01*
X116051242Y-63924533D01*
X116306742Y-64421683D01*
X115779402Y-64639576D01*
X115361045Y-65057203D01*
X115134353Y-65603138D01*
X115133837Y-66194268D01*
X115359576Y-66740598D01*
X115777203Y-67158955D01*
X116323138Y-67385647D01*
X116914268Y-67386163D01*
X117460598Y-67160424D01*
X117878955Y-66742797D01*
X118105647Y-66196862D01*
X118106163Y-65605732D01*
X117960658Y-65253582D01*
X118381667Y-65218968D01*
X119035825Y-64882777D01*
X119511532Y-64321842D01*
X120242862Y-63005197D01*
X120663091Y-62680992D01*
X121029167Y-62043078D01*
X121123258Y-61313631D01*
X121123258Y-61313630D01*
X122316742Y-61313630D01*
X122410833Y-62043077D01*
X122776909Y-62680992D01*
X123359238Y-63130257D01*
X123427287Y-63148682D01*
X124076993Y-64320781D01*
X124552211Y-64882131D01*
X125206076Y-65218892D01*
X125445640Y-65238798D01*
X125294353Y-65603138D01*
X125293837Y-66194268D01*
X125519576Y-66740598D01*
X125937203Y-67158955D01*
X126483138Y-67385647D01*
X127074268Y-67386163D01*
X127620598Y-67160424D01*
X128038955Y-66742797D01*
X128265647Y-66196862D01*
X128266163Y-65605732D01*
X128040424Y-65059402D01*
X127622797Y-64641045D01*
X127249453Y-64486019D01*
X127537629Y-63926489D01*
X127551463Y-63760000D01*
X129795504Y-63760000D01*
X129863538Y-63924655D01*
X130322927Y-64384846D01*
X130923453Y-64634206D01*
X131573694Y-64634774D01*
X132174655Y-64386462D01*
X132634846Y-63927073D01*
X132884206Y-63326547D01*
X132884774Y-62676306D01*
X132636462Y-62075345D01*
X132177073Y-61615154D01*
X131576547Y-61365794D01*
X130926306Y-61365226D01*
X130325345Y-61613538D01*
X129865154Y-62072927D01*
X129795779Y-62240000D01*
X127234043Y-62240000D01*
X126513007Y-60939219D01*
X126058197Y-60401975D01*
X126029167Y-60176922D01*
X125663091Y-59539008D01*
X125080762Y-59089743D01*
X124370834Y-58897524D01*
X123641387Y-58991614D01*
X123003472Y-59357691D01*
X122554207Y-59940020D01*
X122361988Y-60649948D01*
X122316742Y-61313630D01*
X121123258Y-61313630D01*
X121078012Y-60649948D01*
X120885793Y-59940020D01*
X120436528Y-59357691D01*
X119980000Y-59095706D01*
X119980000Y-56573694D01*
X123365226Y-56573694D01*
X123613538Y-57174655D01*
X124072927Y-57634846D01*
X124673453Y-57884206D01*
X125323694Y-57884774D01*
X125924655Y-57636462D01*
X126384846Y-57177073D01*
X126564742Y-56743836D01*
X126564197Y-57367914D01*
X127268347Y-59072087D01*
X128571055Y-60377071D01*
X130273997Y-61084194D01*
X132117914Y-61085803D01*
X133822087Y-60381653D01*
X135127071Y-59078945D01*
X135834194Y-57376003D01*
X135835803Y-55532086D01*
X135719459Y-55250510D01*
X135853070Y-55250510D01*
X135853070Y-57249490D01*
X135897348Y-57484807D01*
X136036420Y-57700931D01*
X136248620Y-57845921D01*
X136500510Y-57896930D01*
X138499490Y-57896930D01*
X138734807Y-57852652D01*
X138950931Y-57713580D01*
X139095921Y-57501380D01*
X139146930Y-57249490D01*
X139146930Y-56571154D01*
X144425226Y-56571154D01*
X144673538Y-57172115D01*
X145132927Y-57632306D01*
X145733453Y-57881666D01*
X146383694Y-57882234D01*
X146984655Y-57633922D01*
X147444846Y-57174533D01*
X147694206Y-56574007D01*
X147694774Y-55923766D01*
X147446462Y-55322805D01*
X146987073Y-54862614D01*
X146386547Y-54613254D01*
X145736306Y-54612686D01*
X145135345Y-54860998D01*
X144675154Y-55320387D01*
X144425794Y-55920913D01*
X144425226Y-56571154D01*
X139146930Y-56571154D01*
X139146930Y-55250510D01*
X139102652Y-55015193D01*
X138963580Y-54799069D01*
X138751380Y-54654079D01*
X138499490Y-54603070D01*
X136500510Y-54603070D01*
X136265193Y-54647348D01*
X136049069Y-54786420D01*
X135904079Y-54998620D01*
X135853070Y-55250510D01*
X135719459Y-55250510D01*
X135131653Y-53827913D01*
X133828945Y-52522929D01*
X132126003Y-51815806D01*
X130282086Y-51814197D01*
X128577913Y-52518347D01*
X127272929Y-53821055D01*
X126565806Y-55523997D01*
X126565601Y-55758895D01*
X126386462Y-55325345D01*
X125927073Y-54865154D01*
X125326547Y-54615794D01*
X124676306Y-54615226D01*
X124075345Y-54863538D01*
X123615154Y-55322927D01*
X123365794Y-55923453D01*
X123365226Y-56573694D01*
X119980000Y-56573694D01*
X119980000Y-55459516D01*
X119981692Y-55457827D01*
X120124338Y-55114299D01*
X120124662Y-54742333D01*
X119982617Y-54398557D01*
X119719827Y-54135308D01*
X119376299Y-53992662D01*
X119004333Y-53992338D01*
X118660557Y-54134383D01*
X118397308Y-54397173D01*
X118254662Y-54740701D01*
X118254514Y-54910143D01*
X118213580Y-54846529D01*
X118001380Y-54701539D01*
X117749490Y-54650530D01*
X115750510Y-54650530D01*
X115515193Y-54694808D01*
X115299069Y-54833880D01*
X115154079Y-55046080D01*
X115118300Y-55222762D01*
X114958387Y-55062570D01*
X114890000Y-55034173D01*
X114890000Y-54713802D01*
X117916802Y-51687000D01*
X122555000Y-51687000D01*
X122845839Y-51629148D01*
X123092401Y-51464401D01*
X124240560Y-50316242D01*
X124240560Y-51762000D01*
X124284838Y-51997317D01*
X124294291Y-52012007D01*
X124253000Y-52111691D01*
X124253000Y-52714250D01*
X124274573Y-52735823D01*
X124250856Y-52802302D01*
X124274002Y-53264748D01*
X124253000Y-53285750D01*
X124253000Y-53888309D01*
X124349673Y-54121698D01*
X124528301Y-54300327D01*
X124761690Y-54397000D01*
X125364250Y-54397000D01*
X125371082Y-54390168D01*
X125452302Y-54419144D01*
X125933794Y-54395044D01*
X125935750Y-54397000D01*
X126538310Y-54397000D01*
X126771699Y-54300327D01*
X126950327Y-54121698D01*
X127047000Y-53888309D01*
X127047000Y-53285750D01*
X127045427Y-53284177D01*
X127069144Y-53217698D01*
X127044091Y-52717159D01*
X127047000Y-52714250D01*
X127047000Y-52111691D01*
X127007222Y-52015659D01*
X127008431Y-52013890D01*
X127057820Y-51770000D01*
X127234500Y-51770000D01*
X127525339Y-51712148D01*
X127771901Y-51547401D01*
X128028680Y-51290622D01*
X128074167Y-51290662D01*
X128417943Y-51148617D01*
X128681192Y-50885827D01*
X128734704Y-50756957D01*
X128750000Y-50760000D01*
X135990560Y-50760000D01*
X135990560Y-51862000D01*
X136034838Y-52097317D01*
X136044291Y-52112007D01*
X136003000Y-52211691D01*
X136003000Y-52814250D01*
X136024573Y-52835823D01*
X136000856Y-52902302D01*
X136024002Y-53364748D01*
X136003000Y-53385750D01*
X136003000Y-53988309D01*
X136099673Y-54221698D01*
X136278301Y-54400327D01*
X136511690Y-54497000D01*
X137114250Y-54497000D01*
X137121082Y-54490168D01*
X137202302Y-54519144D01*
X137683794Y-54495044D01*
X137685750Y-54497000D01*
X138288310Y-54497000D01*
X138521699Y-54400327D01*
X138700327Y-54221698D01*
X138797000Y-53988309D01*
X138797000Y-53385750D01*
X138795427Y-53384177D01*
X138819144Y-53317698D01*
X138794091Y-52817159D01*
X138797000Y-52814250D01*
X138797000Y-52211691D01*
X138757222Y-52115659D01*
X138758431Y-52113890D01*
X138809440Y-51862000D01*
X138809440Y-50338000D01*
X138765162Y-50102683D01*
X138761768Y-50097409D01*
X138809440Y-49862000D01*
X138809440Y-48627131D01*
X139258901Y-49077377D01*
X140224784Y-49478447D01*
X141270627Y-49479360D01*
X142237209Y-49079976D01*
X142977377Y-48341099D01*
X143378447Y-47375216D01*
X143379360Y-46329373D01*
X142979976Y-45362791D01*
X142241099Y-44622623D01*
X141275216Y-44221553D01*
X140229373Y-44220640D01*
X139262791Y-44620024D01*
X138522623Y-45358901D01*
X138121553Y-46324784D01*
X138120640Y-47370627D01*
X138261128Y-47710634D01*
X138162000Y-47690560D01*
X136638000Y-47690560D01*
X136402683Y-47734838D01*
X136186559Y-47873910D01*
X136041569Y-48086110D01*
X135990560Y-48338000D01*
X135990560Y-49240000D01*
X129064802Y-49240000D01*
X128374102Y-48549300D01*
X129319020Y-48549300D01*
X129554337Y-48505022D01*
X129558826Y-48502133D01*
X129572383Y-48534943D01*
X129835173Y-48798192D01*
X130178701Y-48940838D01*
X130550667Y-48941162D01*
X130894443Y-48799117D01*
X131157692Y-48536327D01*
X131300338Y-48192799D01*
X131300662Y-47820833D01*
X131158617Y-47477057D01*
X131125500Y-47443882D01*
X131125500Y-46134692D01*
X131621991Y-46135125D01*
X131716603Y-46096032D01*
X131716338Y-46400467D01*
X131858383Y-46744243D01*
X132121173Y-47007492D01*
X132464701Y-47150138D01*
X132786571Y-47150418D01*
X132852890Y-47253481D01*
X133065090Y-47398471D01*
X133316980Y-47449480D01*
X135816340Y-47449480D01*
X136051657Y-47405202D01*
X136267781Y-47266130D01*
X136412771Y-47053930D01*
X136463780Y-46802040D01*
X136463780Y-46153825D01*
X136698650Y-46229234D01*
X137431667Y-46168968D01*
X138085825Y-45832777D01*
X138561532Y-45271842D01*
X139292862Y-43955197D01*
X139713091Y-43630992D01*
X140079167Y-42993078D01*
X140173258Y-42263631D01*
X140173258Y-42263630D01*
X141366742Y-42263630D01*
X141460833Y-42993077D01*
X141826909Y-43630992D01*
X142409238Y-44080257D01*
X142477287Y-44098682D01*
X143126993Y-45270781D01*
X143602211Y-45832131D01*
X144256076Y-46168892D01*
X144495640Y-46188798D01*
X144344353Y-46553138D01*
X144343837Y-47144268D01*
X144569576Y-47690598D01*
X144987203Y-48108955D01*
X145533138Y-48335647D01*
X146124268Y-48336163D01*
X146670598Y-48110424D01*
X147088955Y-47692797D01*
X147315647Y-47146862D01*
X147316163Y-46555732D01*
X147090424Y-46009402D01*
X146672797Y-45591045D01*
X146299453Y-45436019D01*
X146587629Y-44876489D01*
X146648534Y-44143525D01*
X146424309Y-43443047D01*
X145563007Y-41889219D01*
X145108197Y-41351975D01*
X145079167Y-41126922D01*
X144713091Y-40489008D01*
X144130762Y-40039743D01*
X143420834Y-39847524D01*
X142691387Y-39941614D01*
X142053472Y-40307691D01*
X141604207Y-40890020D01*
X141411988Y-41599948D01*
X141366742Y-42263630D01*
X140173258Y-42263630D01*
X140128012Y-41599948D01*
X139935793Y-40890020D01*
X139486528Y-40307691D01*
X138848613Y-39941615D01*
X138119166Y-39847524D01*
X137409238Y-40039743D01*
X136826909Y-40489008D01*
X136460833Y-41126923D01*
X136425624Y-41399880D01*
X136419502Y-41367343D01*
X136280430Y-41151219D01*
X136068230Y-41006229D01*
X135816340Y-40955220D01*
X133316980Y-40955220D01*
X133081663Y-40999498D01*
X132865539Y-41138570D01*
X132760261Y-41292649D01*
X132402833Y-41292338D01*
X132059057Y-41434383D01*
X131795808Y-41697173D01*
X131653162Y-42040701D01*
X131652838Y-42412667D01*
X131794883Y-42756443D01*
X132057673Y-43019692D01*
X132401201Y-43162338D01*
X132773167Y-43162662D01*
X132790234Y-43155610D01*
X132852890Y-43252981D01*
X133065090Y-43397971D01*
X133316980Y-43448980D01*
X135263325Y-43448980D01*
X135040976Y-44141516D01*
X135101242Y-44874533D01*
X135142966Y-44955720D01*
X133316980Y-44955720D01*
X133081663Y-44999998D01*
X132865539Y-45139070D01*
X132768971Y-45280402D01*
X132697514Y-45280339D01*
X132852733Y-44906530D01*
X132853265Y-44295869D01*
X132620068Y-43731489D01*
X132188643Y-43299309D01*
X131624670Y-43065127D01*
X131112238Y-43064681D01*
X131166708Y-42983160D01*
X131224560Y-42692320D01*
X131224560Y-39876000D01*
X132683502Y-39876000D01*
X132713818Y-40037117D01*
X132852890Y-40253241D01*
X133065090Y-40398231D01*
X133316980Y-40449240D01*
X135816340Y-40449240D01*
X136051657Y-40404962D01*
X136267781Y-40265890D01*
X136412771Y-40053690D01*
X136463780Y-39801800D01*
X136463780Y-38602920D01*
X136419502Y-38367603D01*
X136280430Y-38151479D01*
X136068230Y-38006489D01*
X135816340Y-37955480D01*
X133316980Y-37955480D01*
X133081663Y-37999758D01*
X132865539Y-38138830D01*
X132720549Y-38351030D01*
X132719543Y-38356000D01*
X132668537Y-38356000D01*
X132855273Y-37906290D01*
X132855805Y-37295629D01*
X132622608Y-36731249D01*
X132191183Y-36299069D01*
X131627210Y-36064887D01*
X131016549Y-36064355D01*
X130452169Y-36297552D01*
X130019989Y-36728977D01*
X129785807Y-37292950D01*
X129785275Y-37903611D01*
X129899882Y-38180981D01*
X129735833Y-38180838D01*
X129392057Y-38322883D01*
X129128808Y-38585673D01*
X128986162Y-38929201D01*
X128985838Y-39301167D01*
X129127883Y-39644943D01*
X129390673Y-39908192D01*
X129704560Y-40038530D01*
X129704560Y-42377518D01*
X129124519Y-42957559D01*
X128959772Y-43204121D01*
X128901920Y-43494960D01*
X128901920Y-45140880D01*
X128959772Y-45431719D01*
X129124519Y-45678281D01*
X129548185Y-46101947D01*
X129319020Y-46055540D01*
X127058818Y-46055540D01*
X127058862Y-46004733D01*
X126950448Y-45742350D01*
X127200868Y-45530353D01*
X127537629Y-44876489D01*
X127598534Y-44143525D01*
X127374309Y-43443047D01*
X126513007Y-41889219D01*
X126058197Y-41351975D01*
X126029167Y-41126922D01*
X125663091Y-40489008D01*
X125080762Y-40039743D01*
X124370834Y-39847524D01*
X123641387Y-39941614D01*
X123003472Y-40307691D01*
X122554207Y-40890020D01*
X122361988Y-41599948D01*
X122316742Y-42263630D01*
X122410833Y-42993077D01*
X122776909Y-43630992D01*
X123359238Y-44080257D01*
X123427287Y-44098682D01*
X124076993Y-45270781D01*
X124552211Y-45832131D01*
X124897311Y-46009869D01*
X124329143Y-46578037D01*
X124329360Y-46329373D01*
X123929976Y-45362791D01*
X123191099Y-44622623D01*
X122225216Y-44221553D01*
X121179373Y-44220640D01*
X120212791Y-44620024D01*
X119472623Y-45358901D01*
X119071553Y-46324784D01*
X119070640Y-47370627D01*
X119470024Y-48337209D01*
X120092228Y-48960500D01*
X108067963Y-48960500D01*
X108035827Y-48928308D01*
X107692299Y-48785662D01*
X107320333Y-48785338D01*
X106976557Y-48927383D01*
X106943382Y-48960500D01*
X104256894Y-48960500D01*
X104877377Y-48341099D01*
X105278447Y-47375216D01*
X105279360Y-46329373D01*
X104879976Y-45362791D01*
X104141099Y-44622623D01*
X103175216Y-44221553D01*
X102129373Y-44220640D01*
X101162791Y-44620024D01*
X100422623Y-45358901D01*
X100021553Y-46324784D01*
X100020640Y-47370627D01*
X100420024Y-48337209D01*
X101042228Y-48960500D01*
X90020140Y-48960500D01*
X89729301Y-49018352D01*
X89482739Y-49183099D01*
X86786878Y-51878960D01*
X83267403Y-51878960D01*
X83235267Y-51846768D01*
X82891739Y-51704122D01*
X82519773Y-51703798D01*
X82175997Y-51845843D01*
X81912748Y-52108633D01*
X81770102Y-52452161D01*
X81769778Y-52824127D01*
X81820523Y-52946939D01*
X81640147Y-52766248D01*
X81296619Y-52623602D01*
X81262760Y-52623573D01*
X81262760Y-48077611D01*
X81370024Y-48337209D01*
X82108901Y-49077377D01*
X83074784Y-49478447D01*
X84120627Y-49479360D01*
X85087209Y-49079976D01*
X85827377Y-48341099D01*
X86228447Y-47375216D01*
X86229360Y-46329373D01*
X85829976Y-45362791D01*
X85091099Y-44622623D01*
X84125216Y-44221553D01*
X83079373Y-44220640D01*
X82112791Y-44620024D01*
X81372623Y-45358901D01*
X81262760Y-45623480D01*
X81262760Y-45447268D01*
X81411532Y-45271842D01*
X82142862Y-43955197D01*
X82563091Y-43630992D01*
X82929167Y-42993078D01*
X83023258Y-42263631D01*
X82978012Y-41599948D01*
X82785793Y-40890020D01*
X82336528Y-40307691D01*
X81698613Y-39941615D01*
X80969166Y-39847524D01*
X80259238Y-40039743D01*
X79676909Y-40489008D01*
X79310833Y-41126923D01*
X79254649Y-41562496D01*
X78978467Y-41888158D01*
X78115812Y-43441234D01*
X77890976Y-44141516D01*
X77951242Y-44874533D01*
X78206742Y-45371683D01*
X77679402Y-45589576D01*
X77468000Y-45800609D01*
X77468000Y-38417500D01*
X77410148Y-38126661D01*
X77325588Y-38000107D01*
X77325662Y-37914833D01*
X77183617Y-37571057D01*
X76920827Y-37307808D01*
X76577299Y-37165162D01*
X76205333Y-37164838D01*
X75861557Y-37306883D01*
X75598308Y-37569673D01*
X75455662Y-37913201D01*
X75455338Y-38285167D01*
X75597383Y-38628943D01*
X75860173Y-38892192D01*
X75948000Y-38928661D01*
X75948000Y-50299620D01*
X76005852Y-50590459D01*
X76170599Y-50837021D01*
X79337979Y-54004401D01*
X79360943Y-54019745D01*
X82631198Y-57290000D01*
X79764441Y-57290000D01*
X79774846Y-57279613D01*
X80024206Y-56679087D01*
X80024774Y-56028846D01*
X79776462Y-55427885D01*
X79317073Y-54967694D01*
X78716547Y-54718334D01*
X78066306Y-54717766D01*
X77907801Y-54783259D01*
X75880500Y-52755958D01*
X75880500Y-45618400D01*
X75822648Y-45327561D01*
X75657901Y-45080999D01*
X74667301Y-44090399D01*
X74420739Y-43925652D01*
X74129900Y-43867800D01*
X73612164Y-43867800D01*
X73681037Y-43701935D01*
X73681562Y-43100703D01*
X73451965Y-42545036D01*
X73037302Y-42129649D01*
X73450471Y-41717200D01*
X73681037Y-41161935D01*
X73681562Y-40560703D01*
X73451965Y-40005036D01*
X73027200Y-39579529D01*
X72993408Y-39565497D01*
X73053396Y-39383001D01*
X72170000Y-38499605D01*
X71286604Y-39383001D01*
X71346447Y-39565056D01*
X71315036Y-39578035D01*
X70889529Y-40002800D01*
X70658963Y-40558065D01*
X70658438Y-41159297D01*
X70888035Y-41714964D01*
X71302698Y-42130351D01*
X70889529Y-42542800D01*
X70658963Y-43098065D01*
X70658438Y-43699297D01*
X70728062Y-43867800D01*
X70360274Y-43867800D01*
X70224309Y-43443047D01*
X69363007Y-41889219D01*
X68908197Y-41351975D01*
X68879167Y-41126922D01*
X68513091Y-40489008D01*
X67930762Y-40039743D01*
X67220834Y-39847524D01*
X66491387Y-39941614D01*
X65853472Y-40307691D01*
X65404207Y-40890020D01*
X65211988Y-41599948D01*
X65166742Y-42263630D01*
X65260833Y-42993077D01*
X65626909Y-43630992D01*
X66209238Y-44080257D01*
X66277287Y-44098682D01*
X66926993Y-45270781D01*
X67402211Y-45832131D01*
X68056076Y-46168892D01*
X68295640Y-46188798D01*
X68144353Y-46553138D01*
X68143837Y-47144268D01*
X68369576Y-47690598D01*
X68787203Y-48108955D01*
X69333138Y-48335647D01*
X69924268Y-48336163D01*
X70470598Y-48110424D01*
X70840293Y-47741374D01*
X70658963Y-48178065D01*
X70658438Y-48779297D01*
X70664146Y-48793112D01*
X70487793Y-48792958D01*
X70144017Y-48935003D01*
X70088924Y-48990000D01*
X66127342Y-48990000D01*
X66777377Y-48341099D01*
X67178447Y-47375216D01*
X67179360Y-46329373D01*
X66779976Y-45362791D01*
X66041099Y-44622623D01*
X65075216Y-44221553D01*
X64029373Y-44220640D01*
X63062791Y-44620024D01*
X62322623Y-45358901D01*
X61921553Y-46324784D01*
X61920640Y-47370627D01*
X62320024Y-48337209D01*
X62971676Y-48990000D01*
X59564802Y-48990000D01*
X58723916Y-48149114D01*
X59173138Y-48335647D01*
X59764268Y-48336163D01*
X60310598Y-48110424D01*
X60728955Y-47692797D01*
X60955647Y-47146862D01*
X60956163Y-46555732D01*
X60810658Y-46203582D01*
X61231667Y-46168968D01*
X61885825Y-45832777D01*
X62361532Y-45271842D01*
X63092862Y-43955197D01*
X63513091Y-43630992D01*
X63879167Y-42993078D01*
X63973258Y-42263631D01*
X63928012Y-41599948D01*
X63735793Y-40890020D01*
X63286528Y-40307691D01*
X62648613Y-39941615D01*
X61919166Y-39847524D01*
X61209238Y-40039743D01*
X60626909Y-40489008D01*
X60260833Y-41126923D01*
X60204649Y-41562496D01*
X59928467Y-41888158D01*
X59065812Y-43441234D01*
X58840976Y-44141516D01*
X58901242Y-44874533D01*
X59156742Y-45371683D01*
X58629402Y-45589576D01*
X58441443Y-45777207D01*
X58441562Y-45640703D01*
X58211965Y-45085036D01*
X57787200Y-44659529D01*
X57753408Y-44645497D01*
X57813396Y-44463001D01*
X56930000Y-43579605D01*
X56046604Y-44463001D01*
X56106447Y-44645056D01*
X56075036Y-44658035D01*
X55649529Y-45082800D01*
X55418963Y-45638065D01*
X55418438Y-46239297D01*
X55648035Y-46794964D01*
X56062698Y-47210351D01*
X55649529Y-47622800D01*
X55418963Y-48178065D01*
X55418438Y-48779297D01*
X55505499Y-48990000D01*
X55487702Y-48990000D01*
X54464141Y-47966439D01*
X54217579Y-47801692D01*
X53926740Y-47743840D01*
X51787823Y-47743840D01*
X51838955Y-47692797D01*
X52065647Y-47146862D01*
X52066163Y-46555732D01*
X51840424Y-46009402D01*
X51422797Y-45591045D01*
X51049453Y-45436019D01*
X51337629Y-44876489D01*
X51398534Y-44143525D01*
X51174309Y-43443047D01*
X51020184Y-43164997D01*
X55407118Y-43164997D01*
X55433109Y-43765668D01*
X55612973Y-44199896D01*
X55866999Y-44283396D01*
X56750395Y-43400000D01*
X57109605Y-43400000D01*
X57993001Y-44283396D01*
X58247027Y-44199896D01*
X58452882Y-43635003D01*
X58426891Y-43034332D01*
X58247027Y-42600104D01*
X57993001Y-42516604D01*
X57109605Y-43400000D01*
X56750395Y-43400000D01*
X55866999Y-42516604D01*
X55612973Y-42600104D01*
X55407118Y-43164997D01*
X51020184Y-43164997D01*
X50313007Y-41889219D01*
X50040517Y-41567341D01*
X50923997Y-41934194D01*
X52767914Y-41935803D01*
X52798897Y-41923001D01*
X56046604Y-41923001D01*
X56114646Y-42130000D01*
X56046604Y-42336999D01*
X56930000Y-43220395D01*
X57813396Y-42336999D01*
X57745354Y-42130000D01*
X57813396Y-41923001D01*
X56930000Y-41039605D01*
X56046604Y-41923001D01*
X52798897Y-41923001D01*
X54472087Y-41231653D01*
X55594270Y-40111427D01*
X55407118Y-40624997D01*
X55433109Y-41225668D01*
X55612973Y-41659896D01*
X55866999Y-41743396D01*
X56750395Y-40860000D01*
X57109605Y-40860000D01*
X57993001Y-41743396D01*
X58247027Y-41659896D01*
X58452882Y-41095003D01*
X58426891Y-40494332D01*
X58247027Y-40060104D01*
X57993001Y-39976604D01*
X57109605Y-40860000D01*
X56750395Y-40860000D01*
X55866999Y-39976604D01*
X55661741Y-40044074D01*
X55777071Y-39928945D01*
X55960272Y-39487747D01*
X56072800Y-39600471D01*
X56106592Y-39614503D01*
X56046604Y-39796999D01*
X56930000Y-40680395D01*
X57813396Y-39796999D01*
X57753553Y-39614944D01*
X57784964Y-39601965D01*
X58210471Y-39177200D01*
X58441037Y-38621935D01*
X58441562Y-38020703D01*
X58211965Y-37465036D01*
X57797302Y-37049649D01*
X58210471Y-36637200D01*
X58441037Y-36081935D01*
X58441562Y-35480703D01*
X58211965Y-34925036D01*
X58190667Y-34903700D01*
X70646260Y-34903700D01*
X70646260Y-36656300D01*
X70690538Y-36891617D01*
X70829610Y-37107741D01*
X71041810Y-37252731D01*
X71058280Y-37256066D01*
X70992369Y-37321977D01*
X71106997Y-37436605D01*
X70852973Y-37520104D01*
X70647118Y-38084997D01*
X70673109Y-38685668D01*
X70852973Y-39119896D01*
X71106999Y-39203396D01*
X71990395Y-38320000D01*
X71976253Y-38305858D01*
X72155858Y-38126253D01*
X72170000Y-38140395D01*
X72184143Y-38126253D01*
X72363748Y-38305858D01*
X72349605Y-38320000D01*
X73233001Y-39203396D01*
X73487027Y-39119896D01*
X73692882Y-38555003D01*
X73666891Y-37954332D01*
X73487027Y-37520104D01*
X73233003Y-37436605D01*
X73347631Y-37321977D01*
X73283746Y-37258092D01*
X73497741Y-37120390D01*
X73642731Y-36908190D01*
X73693740Y-36656300D01*
X73693740Y-34903700D01*
X73649462Y-34668383D01*
X73510390Y-34452259D01*
X73298190Y-34307269D01*
X73046300Y-34256260D01*
X71293700Y-34256260D01*
X71058383Y-34300538D01*
X70842259Y-34439610D01*
X70697269Y-34651810D01*
X70646260Y-34903700D01*
X58190667Y-34903700D01*
X57787200Y-34499529D01*
X57231935Y-34268963D01*
X56630703Y-34268438D01*
X56075036Y-34498035D01*
X55814707Y-34757910D01*
X55781653Y-34677913D01*
X54815428Y-33710000D01*
X74705908Y-33710000D01*
X79997954Y-39002046D01*
G36*
X137547000Y-53039110D02*
X137547000Y-53180890D01*
X137480890Y-53247000D01*
X137339110Y-53247000D01*
X137216253Y-53124143D01*
X137230395Y-53110000D01*
X137216253Y-53095858D01*
X137359110Y-52953000D01*
X137460890Y-52953000D01*
X137547000Y-53039110D01*
X137547000Y-53039110D01*
G37*
X137547000Y-53039110D02*
X137547000Y-53180890D01*
X137480890Y-53247000D01*
X137339110Y-53247000D01*
X137216253Y-53124143D01*
X137230395Y-53110000D01*
X137216253Y-53095858D01*
X137359110Y-52953000D01*
X137460890Y-52953000D01*
X137547000Y-53039110D01*
G36*
X125797000Y-52939110D02*
X125797000Y-53080890D01*
X125730890Y-53147000D01*
X125589110Y-53147000D01*
X125466253Y-53024143D01*
X125480395Y-53010000D01*
X125466253Y-52995858D01*
X125609110Y-52853000D01*
X125710890Y-52853000D01*
X125797000Y-52939110D01*
X125797000Y-52939110D01*
G37*
X125797000Y-52939110D02*
X125797000Y-53080890D01*
X125730890Y-53147000D01*
X125589110Y-53147000D01*
X125466253Y-53024143D01*
X125480395Y-53010000D01*
X125466253Y-52995858D01*
X125609110Y-52853000D01*
X125710890Y-52853000D01*
X125797000Y-52939110D01*
M02*
