M48
;DRILL file {KiCad 4.0.7} date 08/30/18 17:20:43
;FORMAT={-:-/ absolute / metric / decimal}
FMAT,2
METRIC,TZ
T1C0.250
T2C0.400
T3C0.991
T4C1.001
T5C1.092
T6C1.270
T7C1.500
T8C8.000
T9C1.600
T10C1.702
T11C3.988
%
G90
G05
M71
T1
X125.64Y-49.
X125.66Y-51.01
X125.66Y-53.01
X137.39Y-49.1
X137.41Y-51.11
X137.41Y-53.11
T2
X56.959Y-74.168
X57.975Y-74.295
X61.976Y-74.168
X70.673Y-49.728
X76.391Y-38.1
X79.416Y-70.325
X81.11Y-53.558
X82.705Y-52.639
X82.865Y-70.31
X83.566Y-57.087
X94.424Y-39.941
X94.805Y-58.102
X96.837Y-58.102
X97.091Y-41.212
X98.234Y-39.941
X99.187Y-53.404
X99.504Y-58.102
X107.505Y-49.721
X118.554Y-58.102
X119.189Y-54.927
X123.888Y-70.675
X125.158Y-71.691
X126.124Y-46.19
X127.889Y-50.355
X129.667Y-73.724
X129.731Y-47.307
X129.921Y-39.116
X130.365Y-39.116
X130.365Y-48.006
X132.588Y-42.227
X132.651Y-46.215
T3
X91.32Y-56.3
X101.48Y-56.3
X103.97Y-56.3
X114.13Y-56.3
T4
X50.05Y-75.403
X50.95Y-56.353
X54.997Y-88.75
X54.997Y-110.25
X59.7Y-75.447
X74.047Y-89.95
X74.097Y-109.4
X88.55Y-56.353
X93.047Y-71.15
X93.147Y-109.1
X93.247Y-52.25
X93.247Y-90.4
X112.147Y-109.2
X112.197Y-52.25
X112.247Y-71.3
X112.297Y-90.4
X115.25Y-94.497
X116.75Y-56.297
X131.247Y-88.
X131.247Y-110.5
X131.297Y-71.55
X135.6Y-75.347
X137.Y-94.497
X137.5Y-56.25
T5
X56.93Y-35.78
X56.93Y-38.32
X56.93Y-40.86
X56.93Y-43.4
X56.93Y-45.94
X56.93Y-48.48
X56.93Y-51.02
X56.93Y-53.56
X56.93Y-56.1
X56.93Y-58.64
X56.93Y-61.18
X56.93Y-63.72
X72.17Y-35.78
X72.17Y-38.32
X72.17Y-40.86
X72.17Y-43.4
X72.17Y-45.94
X72.17Y-48.48
X72.17Y-51.02
X72.17Y-53.56
X72.17Y-56.1
X72.17Y-58.64
X72.17Y-61.18
X72.17Y-63.72
T6
X39.89Y-75.403
X40.79Y-56.353
X54.997Y-78.59
X54.997Y-100.09
X69.86Y-75.447
X74.047Y-79.79
X74.097Y-99.24
X78.39Y-56.353
X93.047Y-60.99
X93.147Y-98.94
X93.247Y-42.09
X93.247Y-80.24
X112.147Y-99.04
X112.197Y-42.09
X112.247Y-61.14
X112.297Y-80.24
X125.Y-56.25
X125.41Y-94.497
X131.247Y-77.84
X131.247Y-100.34
X131.25Y-63.
X145.76Y-75.347
X146.06Y-56.247
X147.16Y-94.497
T8
X51.85Y-37.3
X55.Y-94.5
X131.2Y-56.45
X131.35Y-94.55
T9
X131.318Y-44.6
X131.321Y-37.6
T10
X40.42Y-46.85
X40.42Y-85.
X40.42Y-104.15
X40.47Y-65.95
X50.58Y-46.85
X50.58Y-85.
X50.58Y-104.15
X50.63Y-65.95
X59.47Y-46.85
X59.47Y-65.9
X59.47Y-84.95
X59.47Y-104.
X69.63Y-46.85
X69.63Y-65.9
X69.63Y-84.95
X69.63Y-104.
X78.52Y-46.85
X78.52Y-65.9
X78.52Y-84.95
X78.52Y-104.
X88.68Y-46.85
X88.68Y-65.9
X88.68Y-84.95
X88.68Y-104.
X97.57Y-46.85
X97.57Y-65.9
X97.57Y-84.95
X97.57Y-104.
X107.73Y-46.85
X107.73Y-65.9
X107.73Y-84.95
X107.73Y-104.
X116.62Y-46.85
X116.62Y-65.9
X116.62Y-84.95
X116.62Y-104.
X126.78Y-65.9
X126.78Y-84.95
X126.78Y-104.
X135.67Y-65.9
X135.67Y-84.95
X135.67Y-104.
X145.83Y-46.85
X145.83Y-65.9
X145.83Y-84.95
X145.83Y-104.
T11
X45.5Y-46.85
X45.5Y-85.
X45.5Y-104.15
X45.55Y-65.95
X64.55Y-46.85
X64.55Y-65.9
X64.55Y-84.95
X64.55Y-104.
X83.6Y-46.85
X83.6Y-65.9
X83.6Y-84.95
X83.6Y-104.
X102.65Y-46.85
X102.65Y-65.9
X102.65Y-84.95
X102.65Y-104.
X121.7Y-46.85
X121.7Y-65.9
X121.7Y-84.95
X121.7Y-104.
X140.75Y-46.85
X140.75Y-65.9
X140.75Y-84.95
X140.75Y-104.
T7
X42.5Y-42.85G85X41.69Y-44.31
G05
X42.5Y-81.G85X41.69Y-82.46
G05
X42.5Y-100.15G85X41.69Y-101.61
G05
X42.55Y-61.95G85X41.74Y-63.41
G05
X43.Y-41.771G85X43.04Y-42.349
G05
X43.Y-79.921G85X43.04Y-80.499
G05
X43.Y-99.071G85X43.04Y-99.649
G05
X43.05Y-60.871G85X43.09Y-61.449
G05
X48.04Y-41.771G85X48.Y-42.349
G05
X48.04Y-79.921G85X48.Y-80.499
G05
X48.04Y-99.071G85X48.Y-99.649
G05
X48.09Y-60.871G85X48.05Y-61.449
G05
X48.69Y-42.85G85X49.5Y-44.31
G05
X48.69Y-81.G85X49.5Y-82.46
G05
X48.69Y-100.15G85X49.5Y-101.61
G05
X48.74Y-61.95G85X49.55Y-63.41
G05
X61.55Y-42.85G85X60.74Y-44.31
G05
X61.55Y-61.9G85X60.74Y-63.36
G05
X61.55Y-80.95G85X60.74Y-82.41
G05
X61.55Y-100.G85X60.74Y-101.46
G05
X62.05Y-41.771G85X62.09Y-42.349
G05
X62.05Y-60.821G85X62.09Y-61.399
G05
X62.05Y-79.871G85X62.09Y-80.449
G05
X62.05Y-98.921G85X62.09Y-99.499
G05
X67.09Y-41.771G85X67.05Y-42.349
G05
X67.09Y-60.821G85X67.05Y-61.399
G05
X67.09Y-79.871G85X67.05Y-80.449
G05
X67.09Y-98.921G85X67.05Y-99.499
G05
X67.74Y-42.85G85X68.55Y-44.31
G05
X67.74Y-61.9G85X68.55Y-63.36
G05
X67.74Y-80.95G85X68.55Y-82.41
G05
X67.74Y-100.G85X68.55Y-101.46
G05
X80.6Y-42.85G85X79.79Y-44.31
G05
X80.6Y-61.9G85X79.79Y-63.36
G05
X80.6Y-80.95G85X79.79Y-82.41
G05
X80.6Y-100.G85X79.79Y-101.46
G05
X81.1Y-41.771G85X81.14Y-42.349
G05
X81.1Y-60.821G85X81.14Y-61.399
G05
X81.1Y-79.871G85X81.14Y-80.449
G05
X81.1Y-98.921G85X81.14Y-99.499
G05
X86.14Y-41.771G85X86.1Y-42.349
G05
X86.14Y-60.821G85X86.1Y-61.399
G05
X86.14Y-79.871G85X86.1Y-80.449
G05
X86.14Y-98.921G85X86.1Y-99.499
G05
X86.79Y-42.85G85X87.6Y-44.31
G05
X86.79Y-61.9G85X87.6Y-63.36
G05
X86.79Y-80.95G85X87.6Y-82.41
G05
X86.79Y-100.G85X87.6Y-101.46
G05
X99.65Y-42.85G85X98.84Y-44.31
G05
X99.65Y-61.9G85X98.84Y-63.36
G05
X99.65Y-80.95G85X98.84Y-82.41
G05
X99.65Y-100.G85X98.84Y-101.46
G05
X100.15Y-41.771G85X100.19Y-42.349
G05
X100.15Y-60.821G85X100.19Y-61.399
G05
X100.15Y-79.871G85X100.19Y-80.449
G05
X100.15Y-98.921G85X100.19Y-99.499
G05
X105.19Y-41.771G85X105.15Y-42.349
G05
X105.19Y-60.821G85X105.15Y-61.399
G05
X105.19Y-79.871G85X105.15Y-80.449
G05
X105.19Y-98.921G85X105.15Y-99.499
G05
X105.84Y-42.85G85X106.65Y-44.31
G05
X105.84Y-61.9G85X106.65Y-63.36
G05
X105.84Y-80.95G85X106.65Y-82.41
G05
X105.84Y-100.G85X106.65Y-101.46
G05
X118.7Y-42.85G85X117.89Y-44.31
G05
X118.7Y-61.9G85X117.89Y-63.36
G05
X118.7Y-80.95G85X117.89Y-82.41
G05
X118.7Y-100.G85X117.89Y-101.46
G05
X119.2Y-41.771G85X119.24Y-42.349
G05
X119.2Y-60.821G85X119.24Y-61.399
G05
X119.2Y-79.871G85X119.24Y-80.449
G05
X119.2Y-98.921G85X119.24Y-99.499
G05
X124.24Y-41.771G85X124.2Y-42.349
G05
X124.24Y-60.821G85X124.2Y-61.399
G05
X124.24Y-79.871G85X124.2Y-80.449
G05
X124.24Y-98.921G85X124.2Y-99.499
G05
X124.89Y-42.85G85X125.7Y-44.31
G05
X124.89Y-61.9G85X125.7Y-63.36
G05
X124.89Y-80.95G85X125.7Y-82.41
G05
X124.89Y-100.G85X125.7Y-101.46
G05
X137.75Y-42.85G85X136.94Y-44.31
G05
X137.75Y-61.9G85X136.94Y-63.36
G05
X137.75Y-80.95G85X136.94Y-82.41
G05
X137.75Y-100.G85X136.94Y-101.46
G05
X138.25Y-41.771G85X138.29Y-42.349
G05
X138.25Y-60.821G85X138.29Y-61.399
G05
X138.25Y-79.871G85X138.29Y-80.449
G05
X138.25Y-98.921G85X138.29Y-99.499
G05
X143.29Y-41.771G85X143.25Y-42.349
G05
X143.29Y-60.821G85X143.25Y-61.399
G05
X143.29Y-79.871G85X143.25Y-80.449
G05
X143.29Y-98.921G85X143.25Y-99.499
G05
X143.94Y-42.85G85X144.75Y-44.31
G05
X143.94Y-61.9G85X144.75Y-63.36
G05
X143.94Y-80.95G85X144.75Y-82.41
G05
X143.94Y-100.G85X144.75Y-101.46
G05
T0
M30
