G04 #@! TF.FileFunction,Copper,L2,Bot,Signal*
%FSLAX46Y46*%
G04 Gerber Fmt 4.6, Leading zero omitted, Abs format (unit mm)*
G04 Created by KiCad (PCBNEW 4.0.7) date 08/30/18 17:20:36*
%MOMM*%
%LPD*%
G01*
G04 APERTURE LIST*
%ADD10C,0.100000*%
%ADD11C,1.998980*%
%ADD12R,1.998980X1.998980*%
%ADD13R,0.500000X1.000000*%
%ADD14R,1.000000X1.000000*%
%ADD15C,1.800000*%
%ADD16R,2.499360X1.198880*%
%ADD17R,3.000000X1.500000*%
%ADD18C,2.500000*%
%ADD19C,3.987810*%
%ADD20C,1.701810*%
%ADD21C,1.651000*%
%ADD22R,1.752600X1.752600*%
%ADD23C,1.752600*%
%ADD24R,1.524000X1.524000*%
%ADD25C,1.524000*%
%ADD26C,8.000000*%
%ADD27C,0.600000*%
%ADD28C,0.250000*%
%ADD29C,0.254000*%
G04 APERTURE END LIST*
D10*
D11*
X146060000Y-56247460D03*
D12*
X137500000Y-56250000D03*
D10*
G36*
X97401050Y-39479600D02*
X96901050Y-39979600D01*
X96900950Y-39979600D01*
X96400950Y-39479600D01*
X97401050Y-39479600D01*
X97401050Y-39479600D01*
G37*
G36*
X96261000Y-39479676D02*
X96760924Y-39979600D01*
X96261000Y-40479524D01*
X95761076Y-39979600D01*
X96261000Y-39479676D01*
X96261000Y-39479676D01*
G37*
G36*
X96400950Y-40479600D02*
X96900950Y-39979600D01*
X96901050Y-39979600D01*
X97401050Y-40479600D01*
X96400950Y-40479600D01*
X96400950Y-40479600D01*
G37*
D13*
X97151000Y-39979600D03*
D14*
X95759800Y-39985000D03*
D11*
X69860000Y-75447460D03*
D12*
X59700000Y-75447460D03*
D11*
X125410000Y-94497460D03*
D12*
X115250000Y-94497460D03*
D11*
X93247460Y-42090000D03*
D12*
X93247460Y-52250000D03*
D11*
X93047460Y-60990000D03*
D12*
X93047460Y-71150000D03*
D11*
X112247460Y-61140000D03*
D12*
X112247460Y-71300000D03*
D11*
X131250000Y-63000000D03*
D12*
X131297460Y-71550000D03*
D11*
X93147460Y-98940000D03*
D12*
X93147460Y-109100000D03*
D11*
X147160000Y-94497460D03*
D12*
X137000000Y-94497460D03*
D11*
X145760000Y-75347460D03*
D12*
X135600000Y-75347460D03*
D11*
X131247460Y-100340000D03*
D12*
X131247460Y-110500000D03*
D11*
X112147460Y-99040000D03*
D12*
X112147460Y-109200000D03*
D11*
X112297460Y-80240000D03*
D12*
X112297460Y-90400000D03*
D11*
X93247460Y-80240000D03*
D12*
X93247460Y-90400000D03*
D11*
X74047460Y-79790000D03*
D12*
X74047460Y-89950000D03*
D11*
X74097460Y-99240000D03*
D12*
X74097460Y-109400000D03*
D11*
X54997460Y-100090000D03*
D12*
X54997460Y-110250000D03*
D11*
X54997460Y-78590000D03*
D12*
X54997460Y-88750000D03*
D11*
X39890000Y-75402540D03*
D12*
X50050000Y-75402540D03*
D11*
X40790000Y-56352540D03*
D12*
X50950000Y-56352540D03*
D11*
X78390000Y-56352540D03*
D12*
X88550000Y-56352540D03*
D11*
X125000000Y-56250000D03*
D12*
X116750000Y-56297460D03*
D15*
X131318000Y-44599860D03*
D16*
X134566660Y-47302420D03*
X128069340Y-42202100D03*
X128069340Y-39202360D03*
X128069340Y-46202600D03*
D17*
X51401980Y-49847500D03*
X51419760Y-52557680D03*
X127388620Y-73299320D03*
X127447040Y-70530720D03*
X127411480Y-76362560D03*
D15*
X131320540Y-37599620D03*
D17*
X71211440Y-69598540D03*
D11*
X112197460Y-42090000D03*
D12*
X112197460Y-52250000D03*
D18*
X138250276Y-41770672D02*
X138289724Y-42349328D01*
X143940184Y-42849693D02*
X144749816Y-44310307D01*
D19*
X140750000Y-46850000D03*
D20*
X145830000Y-46850000D03*
D18*
X137750453Y-42850046D02*
X136939547Y-44309954D01*
X143289724Y-41770672D02*
X143250276Y-42349328D01*
X119200276Y-41770672D02*
X119239724Y-42349328D01*
X124890184Y-42849693D02*
X125699816Y-44310307D01*
D19*
X121700000Y-46850000D03*
D20*
X116620000Y-46850000D03*
D18*
X118700453Y-42850046D02*
X117889547Y-44309954D01*
X124239724Y-41770672D02*
X124200276Y-42349328D01*
D11*
X131247460Y-77840000D03*
D12*
X131247460Y-88000000D03*
D21*
X101480000Y-56300000D03*
X91320000Y-56300000D03*
X103970000Y-56300000D03*
X114130000Y-56300000D03*
D18*
X43000276Y-41770672D02*
X43039724Y-42349328D01*
X48690184Y-42849693D02*
X49499816Y-44310307D01*
D19*
X45500000Y-46850000D03*
D20*
X40420000Y-46850000D03*
X50580000Y-46850000D03*
D18*
X42500453Y-42850046D02*
X41689547Y-44309954D01*
X48039724Y-41770672D02*
X48000276Y-42349328D01*
X43050276Y-60870672D02*
X43089724Y-61449328D01*
X48740184Y-61949693D02*
X49549816Y-63410307D01*
D19*
X45550000Y-65950000D03*
D20*
X40470000Y-65950000D03*
X50630000Y-65950000D03*
D18*
X42550453Y-61950046D02*
X41739547Y-63409954D01*
X48089724Y-60870672D02*
X48050276Y-61449328D01*
X43000276Y-79920672D02*
X43039724Y-80499328D01*
X48690184Y-80999693D02*
X49499816Y-82460307D01*
D19*
X45500000Y-85000000D03*
D20*
X40420000Y-85000000D03*
X50580000Y-85000000D03*
D18*
X42500453Y-81000046D02*
X41689547Y-82459954D01*
X48039724Y-79920672D02*
X48000276Y-80499328D01*
X43000276Y-99070672D02*
X43039724Y-99649328D01*
X48690184Y-100149693D02*
X49499816Y-101610307D01*
D19*
X45500000Y-104150000D03*
D20*
X40420000Y-104150000D03*
X50580000Y-104150000D03*
D18*
X42500453Y-100150046D02*
X41689547Y-101609954D01*
X48039724Y-99070672D02*
X48000276Y-99649328D01*
X62050276Y-41770672D02*
X62089724Y-42349328D01*
X67740184Y-42849693D02*
X68549816Y-44310307D01*
D19*
X64550000Y-46850000D03*
D20*
X59470000Y-46850000D03*
X69630000Y-46850000D03*
D18*
X61550453Y-42850046D02*
X60739547Y-44309954D01*
X67089724Y-41770672D02*
X67050276Y-42349328D01*
X62050276Y-60820672D02*
X62089724Y-61399328D01*
X67740184Y-61899693D02*
X68549816Y-63360307D01*
D19*
X64550000Y-65900000D03*
D20*
X59470000Y-65900000D03*
X69630000Y-65900000D03*
D18*
X61550453Y-61900046D02*
X60739547Y-63359954D01*
X67089724Y-60820672D02*
X67050276Y-61399328D01*
X62050276Y-79870672D02*
X62089724Y-80449328D01*
X67740184Y-80949693D02*
X68549816Y-82410307D01*
D19*
X64550000Y-84950000D03*
D20*
X59470000Y-84950000D03*
X69630000Y-84950000D03*
D18*
X61550453Y-80950046D02*
X60739547Y-82409954D01*
X67089724Y-79870672D02*
X67050276Y-80449328D01*
X62050276Y-98920672D02*
X62089724Y-99499328D01*
X67740184Y-99999693D02*
X68549816Y-101460307D01*
D19*
X64550000Y-104000000D03*
D20*
X59470000Y-104000000D03*
X69630000Y-104000000D03*
D18*
X61550453Y-100000046D02*
X60739547Y-101459954D01*
X67089724Y-98920672D02*
X67050276Y-99499328D01*
X81100276Y-41770672D02*
X81139724Y-42349328D01*
X86790184Y-42849693D02*
X87599816Y-44310307D01*
D19*
X83600000Y-46850000D03*
D20*
X78520000Y-46850000D03*
X88680000Y-46850000D03*
D18*
X80600453Y-42850046D02*
X79789547Y-44309954D01*
X86139724Y-41770672D02*
X86100276Y-42349328D01*
X81100276Y-60820672D02*
X81139724Y-61399328D01*
X86790184Y-61899693D02*
X87599816Y-63360307D01*
D19*
X83600000Y-65900000D03*
D20*
X78520000Y-65900000D03*
X88680000Y-65900000D03*
D18*
X80600453Y-61900046D02*
X79789547Y-63359954D01*
X86139724Y-60820672D02*
X86100276Y-61399328D01*
X81100276Y-79870672D02*
X81139724Y-80449328D01*
X86790184Y-80949693D02*
X87599816Y-82410307D01*
D19*
X83600000Y-84950000D03*
D20*
X78520000Y-84950000D03*
X88680000Y-84950000D03*
D18*
X80600453Y-80950046D02*
X79789547Y-82409954D01*
X86139724Y-79870672D02*
X86100276Y-80449328D01*
X81100276Y-98920672D02*
X81139724Y-99499328D01*
X86790184Y-99999693D02*
X87599816Y-101460307D01*
D19*
X83600000Y-104000000D03*
D20*
X78520000Y-104000000D03*
X88680000Y-104000000D03*
D18*
X80600453Y-100000046D02*
X79789547Y-101459954D01*
X86139724Y-98920672D02*
X86100276Y-99499328D01*
X100150276Y-41770672D02*
X100189724Y-42349328D01*
X105840184Y-42849693D02*
X106649816Y-44310307D01*
D19*
X102650000Y-46850000D03*
D20*
X97570000Y-46850000D03*
X107730000Y-46850000D03*
D18*
X99650453Y-42850046D02*
X98839547Y-44309954D01*
X105189724Y-41770672D02*
X105150276Y-42349328D01*
X100150276Y-60820672D02*
X100189724Y-61399328D01*
X105840184Y-61899693D02*
X106649816Y-63360307D01*
D19*
X102650000Y-65900000D03*
D20*
X97570000Y-65900000D03*
X107730000Y-65900000D03*
D18*
X99650453Y-61900046D02*
X98839547Y-63359954D01*
X105189724Y-60820672D02*
X105150276Y-61399328D01*
X100150276Y-79870672D02*
X100189724Y-80449328D01*
X105840184Y-80949693D02*
X106649816Y-82410307D01*
D19*
X102650000Y-84950000D03*
D20*
X97570000Y-84950000D03*
X107730000Y-84950000D03*
D18*
X99650453Y-80950046D02*
X98839547Y-82409954D01*
X105189724Y-79870672D02*
X105150276Y-80449328D01*
X100150276Y-98920672D02*
X100189724Y-99499328D01*
X105840184Y-99999693D02*
X106649816Y-101460307D01*
D19*
X102650000Y-104000000D03*
D20*
X97570000Y-104000000D03*
X107730000Y-104000000D03*
D18*
X99650453Y-100000046D02*
X98839547Y-101459954D01*
X105189724Y-98920672D02*
X105150276Y-99499328D01*
X119200276Y-60820672D02*
X119239724Y-61399328D01*
X124890184Y-61899693D02*
X125699816Y-63360307D01*
D19*
X121700000Y-65900000D03*
D20*
X116620000Y-65900000D03*
X126780000Y-65900000D03*
D18*
X118700453Y-61900046D02*
X117889547Y-63359954D01*
X124239724Y-60820672D02*
X124200276Y-61399328D01*
X119200276Y-79870672D02*
X119239724Y-80449328D01*
X124890184Y-80949693D02*
X125699816Y-82410307D01*
D19*
X121700000Y-84950000D03*
D20*
X116620000Y-84950000D03*
X126780000Y-84950000D03*
D18*
X118700453Y-80950046D02*
X117889547Y-82409954D01*
X124239724Y-79870672D02*
X124200276Y-80449328D01*
X119200276Y-98920672D02*
X119239724Y-99499328D01*
X124890184Y-99999693D02*
X125699816Y-101460307D01*
D19*
X121700000Y-104000000D03*
D20*
X116620000Y-104000000D03*
X126780000Y-104000000D03*
D18*
X118700453Y-100000046D02*
X117889547Y-101459954D01*
X124239724Y-98920672D02*
X124200276Y-99499328D01*
X138250276Y-60820672D02*
X138289724Y-61399328D01*
X143940184Y-61899693D02*
X144749816Y-63360307D01*
D19*
X140750000Y-65900000D03*
D20*
X135670000Y-65900000D03*
X145830000Y-65900000D03*
D18*
X137750453Y-61900046D02*
X136939547Y-63359954D01*
X143289724Y-60820672D02*
X143250276Y-61399328D01*
X138250276Y-79870672D02*
X138289724Y-80449328D01*
X143940184Y-80949693D02*
X144749816Y-82410307D01*
D19*
X140750000Y-84950000D03*
D20*
X135670000Y-84950000D03*
X145830000Y-84950000D03*
D18*
X137750453Y-80950046D02*
X136939547Y-82409954D01*
X143289724Y-79870672D02*
X143250276Y-80449328D01*
X138250276Y-98920672D02*
X138289724Y-99499328D01*
X143940184Y-99999693D02*
X144749816Y-101460307D01*
D19*
X140750000Y-104000000D03*
D20*
X135670000Y-104000000D03*
X145830000Y-104000000D03*
D18*
X137750453Y-100000046D02*
X136939547Y-101459954D01*
X143289724Y-98920672D02*
X143250276Y-99499328D01*
D22*
X72170000Y-35780000D03*
D23*
X72170000Y-38320000D03*
X72170000Y-40860000D03*
X72170000Y-43400000D03*
X72170000Y-45940000D03*
X72170000Y-48480000D03*
X72170000Y-51020000D03*
X72170000Y-53560000D03*
X72170000Y-56100000D03*
X72170000Y-58640000D03*
X72170000Y-61180000D03*
X72170000Y-63720000D03*
X56930000Y-63720000D03*
X56930000Y-61180000D03*
X56930000Y-58640000D03*
X56930000Y-56100000D03*
X56930000Y-53560000D03*
X56930000Y-51020000D03*
X56930000Y-48480000D03*
X56930000Y-40860000D03*
X56930000Y-38320000D03*
X56930000Y-35780000D03*
X56930000Y-45940000D03*
X56930000Y-43400000D03*
D24*
X137400000Y-53100000D03*
X137400000Y-51100000D03*
X137400000Y-49100000D03*
D25*
X137410000Y-51110000D03*
X137390000Y-49100000D03*
X137410000Y-53110000D03*
D24*
X125650000Y-53000000D03*
X125650000Y-51000000D03*
X125650000Y-49000000D03*
D25*
X125660000Y-51010000D03*
X125640000Y-49000000D03*
X125660000Y-53010000D03*
D26*
X55000000Y-94500000D03*
X131350000Y-94550000D03*
X131200000Y-56450000D03*
X51850000Y-37300000D03*
D27*
X132588000Y-42227500D03*
X132651500Y-46215300D03*
X56959500Y-74168000D03*
X57975500Y-74295000D03*
X123888500Y-70675500D03*
X129730500Y-47307500D03*
X125158500Y-71691500D03*
X82704940Y-52638960D03*
X70672960Y-49728120D03*
X126123700Y-46189900D03*
X107505500Y-49720500D03*
X98234500Y-39941500D03*
X97091500Y-41211500D03*
X79415640Y-70324980D03*
X82864960Y-70309740D03*
X130365500Y-48006000D03*
X129921000Y-39116000D03*
X130365500Y-39116000D03*
X127889000Y-50355500D03*
X94424500Y-39941500D03*
X61976000Y-74168000D03*
X81109820Y-53558440D03*
X99187000Y-53403500D03*
X119189500Y-54927500D03*
X99504500Y-58102500D03*
X96837500Y-58102500D03*
X94805500Y-58102500D03*
X118554500Y-58102500D03*
X129667000Y-73723500D03*
X83566000Y-57086500D03*
X76390500Y-38100000D03*
D28*
X128069340Y-42202100D02*
X132562600Y-42202100D01*
X132562600Y-42202100D02*
X132588000Y-42227500D01*
X128069340Y-46202600D02*
X132638800Y-46202600D01*
X132638800Y-46202600D02*
X132651500Y-46215300D01*
X130200000Y-59550000D02*
X130150000Y-59600000D01*
X49095000Y-43580000D02*
X48330000Y-43580000D01*
X48330000Y-43580000D02*
X44550000Y-39800000D01*
X44550000Y-39800000D02*
X41700000Y-39800000D01*
X41700000Y-39800000D02*
X38750000Y-42750000D01*
X38750000Y-42750000D02*
X38750000Y-54312540D01*
X38750000Y-54312540D02*
X40790000Y-56352540D01*
X134493000Y-61341000D02*
X137500000Y-58334000D01*
X137500000Y-58334000D02*
X137500000Y-56250000D01*
X129413000Y-61341000D02*
X134493000Y-61341000D01*
X125920500Y-57848500D02*
X129413000Y-61341000D01*
X123952000Y-57848500D02*
X125920500Y-57848500D01*
X122400960Y-56297460D02*
X123952000Y-57848500D01*
X116750000Y-56297460D02*
X122400960Y-56297460D01*
X112197460Y-52250000D02*
X112702540Y-52250000D01*
X112702540Y-52250000D02*
X116750000Y-56297460D01*
X50950000Y-56352540D02*
X56677460Y-56352540D01*
X56677460Y-56352540D02*
X56930000Y-56100000D01*
X49095000Y-81730000D02*
X51857460Y-81730000D01*
X51857460Y-81730000D02*
X54997460Y-78590000D01*
X57000000Y-80250000D02*
X57000000Y-74208500D01*
X57000000Y-74208500D02*
X56959500Y-74168000D01*
X54997460Y-82252540D02*
X57000000Y-80250000D01*
X54997460Y-88750000D02*
X54997460Y-82252540D01*
X56930000Y-61570000D02*
X56930000Y-61180000D01*
X56930000Y-61180000D02*
X56320000Y-61180000D01*
X49095000Y-100880000D02*
X54207460Y-100880000D01*
X54207460Y-100880000D02*
X54997460Y-100090000D01*
X48640000Y-98740000D02*
X48020000Y-99360000D01*
X48020000Y-99360000D02*
X49095000Y-100880000D01*
X57975500Y-74295000D02*
X57975500Y-80772000D01*
X57975500Y-80772000D02*
X56642000Y-82105500D01*
X59500000Y-89250000D02*
X59500000Y-98250000D01*
X56642000Y-82105500D02*
X56642000Y-86392000D01*
X56642000Y-86392000D02*
X59500000Y-89250000D01*
X59500000Y-98250000D02*
X54997460Y-102752540D01*
X54997460Y-102752540D02*
X54997460Y-110250000D01*
X115250000Y-94497460D02*
X115250000Y-106097460D01*
X115250000Y-106097460D02*
X112147460Y-109200000D01*
X68145000Y-62630000D02*
X68145000Y-73732460D01*
X68145000Y-73732460D02*
X69860000Y-75447460D01*
X68145000Y-81680000D02*
X72157460Y-81680000D01*
X72157460Y-81680000D02*
X74047460Y-79790000D01*
X68145000Y-100730000D02*
X72607460Y-100730000D01*
X72607460Y-100730000D02*
X74097460Y-99240000D01*
X93047460Y-60990000D02*
X86240000Y-60990000D01*
X86240000Y-60990000D02*
X86120000Y-61110000D01*
X86120000Y-61110000D02*
X87195000Y-62630000D01*
X87195000Y-81680000D02*
X91807460Y-81680000D01*
X91807460Y-81680000D02*
X93247460Y-80240000D01*
X87195000Y-100730000D02*
X91357460Y-100730000D01*
X91357460Y-100730000D02*
X93147460Y-98940000D01*
X112247460Y-61140000D02*
X107735000Y-61140000D01*
X107735000Y-61140000D02*
X106245000Y-62630000D01*
X106245000Y-81680000D02*
X110857460Y-81680000D01*
X110857460Y-81680000D02*
X112297460Y-80240000D01*
X106245000Y-100730000D02*
X111370000Y-100730000D01*
X111370000Y-100730000D02*
X112147460Y-99952540D01*
X112147460Y-99952540D02*
X112147460Y-99040000D01*
X123444000Y-48641000D02*
X125295000Y-46790000D01*
X125295000Y-46790000D02*
X125295000Y-43580000D01*
X123444000Y-54673500D02*
X123444000Y-48641000D01*
X125000000Y-56229500D02*
X123444000Y-54673500D01*
X125000000Y-56250000D02*
X125000000Y-56229500D01*
X125000000Y-56250000D02*
X125000000Y-56229000D01*
X130880000Y-62630000D02*
X131250000Y-63000000D01*
X125295000Y-81680000D02*
X125320000Y-81680000D01*
X125320000Y-81680000D02*
X129160000Y-77840000D01*
X129160000Y-77840000D02*
X131247460Y-77840000D01*
X144345000Y-43580000D02*
X144345000Y-54532460D01*
X144345000Y-54532460D02*
X146060000Y-56247460D01*
X144345000Y-62630000D02*
X144345000Y-73932460D01*
X144345000Y-73932460D02*
X145760000Y-75347460D01*
X145981270Y-94018730D02*
X146681270Y-94018730D01*
X146681270Y-94018730D02*
X147160000Y-94497460D01*
X144345000Y-81680000D02*
X144345000Y-92382460D01*
X144345000Y-92382460D02*
X145981270Y-94018730D01*
X145981270Y-94018730D02*
X146110000Y-94147460D01*
X125410000Y-94497460D02*
X125410000Y-96410000D01*
X144000000Y-106000000D02*
X144000000Y-101075000D01*
X143250000Y-106750000D02*
X144000000Y-106000000D01*
X135750000Y-106750000D02*
X143250000Y-106750000D01*
X125410000Y-96410000D02*
X135750000Y-106750000D01*
X144000000Y-101075000D02*
X144345000Y-100730000D01*
X127381000Y-70675500D02*
X123888500Y-70675500D01*
X134566660Y-47302420D02*
X129735580Y-47302420D01*
X129735580Y-47302420D02*
X129730500Y-47307500D01*
X134620000Y-49974500D02*
X134620000Y-47307500D01*
X135755500Y-51110000D02*
X134620000Y-49974500D01*
X137410000Y-51110000D02*
X135755500Y-51110000D01*
X125158500Y-76390500D02*
X127381000Y-76390500D01*
X125158500Y-71691500D02*
X125158500Y-76390500D01*
X74632820Y-49740820D02*
X77530960Y-52638960D01*
X77530960Y-52638960D02*
X82704940Y-52638960D01*
X70685660Y-49740820D02*
X74632820Y-49740820D01*
X70672960Y-49728120D02*
X70685660Y-49740820D01*
X126123700Y-46189900D02*
X127469900Y-46189900D01*
X127469900Y-46189900D02*
X127495300Y-46164500D01*
X103970000Y-56300000D02*
X103974000Y-56300000D01*
X103974000Y-56300000D02*
X107505500Y-52768500D01*
X107505500Y-52768500D02*
X107505500Y-49720500D01*
X98234500Y-39941500D02*
X97189100Y-39941500D01*
X97189100Y-39941500D02*
X97151000Y-39979600D01*
X97091500Y-41211500D02*
X97091500Y-40039100D01*
X97091500Y-40039100D02*
X97151000Y-39979600D01*
X99123500Y-39965000D02*
X98258000Y-39965000D01*
X98258000Y-39965000D02*
X98234500Y-39941500D01*
X97139800Y-41676280D02*
X97139800Y-41259800D01*
X97139800Y-41259800D02*
X97091500Y-41211500D01*
X99123500Y-39965000D02*
X125436000Y-39965000D01*
X72732900Y-70317360D02*
X72113140Y-69697600D01*
X77589380Y-70317360D02*
X72732900Y-70317360D01*
X79408020Y-70317360D02*
X77589380Y-70317360D01*
X79415640Y-70324980D02*
X79408020Y-70317360D01*
X95595440Y-61422280D02*
X86707980Y-70309740D01*
X86707980Y-70309740D02*
X82864960Y-70309740D01*
X95595440Y-43220640D02*
X95595440Y-61422280D01*
X97139800Y-41676280D02*
X95595440Y-43220640D01*
X125436000Y-39965000D02*
X127444500Y-41973500D01*
X130365500Y-48006000D02*
X130238500Y-48006000D01*
X130238500Y-48006000D02*
X127889000Y-50355500D01*
X129921000Y-39116000D02*
X128524000Y-39116000D01*
X94424500Y-39941500D02*
X95716300Y-39941500D01*
X95716300Y-39941500D02*
X95759800Y-39985000D01*
X93769500Y-39985000D02*
X94381000Y-39985000D01*
X94381000Y-39985000D02*
X94424500Y-39941500D01*
X56896000Y-45910500D02*
X57023000Y-46037500D01*
X56930000Y-45940000D02*
X58674000Y-44196000D01*
X58674000Y-44196000D02*
X58674000Y-41402000D01*
X58674000Y-41402000D02*
X60515500Y-39560500D01*
X60515500Y-39560500D02*
X78486000Y-39560500D01*
X78486000Y-39560500D02*
X78930500Y-40005000D01*
X78930500Y-40005000D02*
X91313000Y-40005000D01*
X91313000Y-40005000D02*
X91313000Y-42545000D01*
X91313000Y-42545000D02*
X91320000Y-42552000D01*
X91320000Y-42552000D02*
X91320000Y-56300000D01*
X91313000Y-40005000D02*
X91333000Y-39985000D01*
X91333000Y-39985000D02*
X93769500Y-39985000D01*
X43020000Y-65000000D02*
X43020000Y-63555000D01*
X43020000Y-63555000D02*
X42145000Y-62680000D01*
X42145000Y-62680000D02*
X42145000Y-62085000D01*
X42145000Y-62085000D02*
X43070000Y-61160000D01*
X42095000Y-43580000D02*
X42095000Y-54445000D01*
X43070000Y-55420000D02*
X43070000Y-61755000D01*
X42095000Y-54445000D02*
X43070000Y-55420000D01*
X43070000Y-61755000D02*
X43020000Y-61805000D01*
X43020000Y-61805000D02*
X43020000Y-65000000D01*
X43020000Y-65000000D02*
X43020000Y-99360000D01*
X61976000Y-74168000D02*
X62070000Y-74262000D01*
X62070000Y-74262000D02*
X62070000Y-80160000D01*
X72170000Y-53560000D02*
X65660000Y-53560000D01*
X65660000Y-53560000D02*
X62077600Y-53568600D01*
X62070000Y-61110000D02*
X62077600Y-53568600D01*
X62077600Y-53568600D02*
X62070000Y-42060000D01*
X62070000Y-99210000D02*
X62070000Y-80160000D01*
X81120000Y-61110000D02*
X81120000Y-53568620D01*
X81120000Y-53568620D02*
X81109820Y-53558440D01*
X72170000Y-56100000D02*
X74000000Y-56100000D01*
X79010000Y-61110000D02*
X81120000Y-61110000D01*
X74000000Y-56100000D02*
X79010000Y-61110000D01*
X81120000Y-61110000D02*
X81120000Y-80160000D01*
X81120000Y-80160000D02*
X81120000Y-99210000D01*
X99187000Y-53403500D02*
X99245000Y-53345500D01*
X99245000Y-53345500D02*
X99245000Y-43580000D01*
X100170000Y-80160000D02*
X100170000Y-61110000D01*
X100170000Y-61110000D02*
X99245000Y-60185000D01*
X100170000Y-99210000D02*
X100170000Y-80160000D01*
X118295000Y-43580000D02*
X118295000Y-54033000D01*
X118295000Y-54033000D02*
X119189500Y-54927500D01*
X119220000Y-61110000D02*
X119220000Y-80160000D01*
X119220000Y-80160000D02*
X119220000Y-99210000D01*
X138270000Y-80160000D02*
X138270000Y-89270000D01*
X139250000Y-90250000D02*
X139250000Y-98230000D01*
X138270000Y-89270000D02*
X139250000Y-90250000D01*
X139250000Y-98230000D02*
X138270000Y-99210000D01*
X138270000Y-80160000D02*
X138270000Y-61110000D01*
X138270000Y-61110000D02*
X140950000Y-58430000D01*
X137345000Y-46845000D02*
X137345000Y-43580000D01*
X140950000Y-50450000D02*
X137345000Y-46845000D01*
X140950000Y-58430000D02*
X140950000Y-50450000D01*
X52717700Y-52575460D02*
X51607720Y-52575460D01*
X53784500Y-53642260D02*
X52717700Y-52575460D01*
X53784500Y-53657500D02*
X53784500Y-53642260D01*
X56769000Y-53657500D02*
X56832500Y-53594000D01*
X53784500Y-53657500D02*
X56769000Y-53657500D01*
X53784500Y-51046380D02*
X52585620Y-49847500D01*
X52585620Y-49847500D02*
X51401980Y-49847500D01*
X53784500Y-51054000D02*
X53784500Y-51046380D01*
X53784500Y-51054000D02*
X56832500Y-51054000D01*
X122047000Y-58102500D02*
X118554500Y-58102500D01*
X122047000Y-58102500D02*
X122872500Y-58928000D01*
X122872500Y-58928000D02*
X125349000Y-58928000D01*
X125349000Y-58928000D02*
X129667000Y-63246000D01*
X129667000Y-63246000D02*
X129667000Y-73723500D01*
X96837500Y-58102500D02*
X99504500Y-58102500D01*
X84645500Y-58166000D02*
X94742000Y-58166000D01*
X94742000Y-58166000D02*
X94805500Y-58102500D01*
X129667000Y-73723500D02*
X128397000Y-73723500D01*
X84645500Y-58166000D02*
X84709000Y-58102500D01*
X83566000Y-57086500D02*
X84645500Y-58166000D01*
X69532500Y-37020500D02*
X75311000Y-37020500D01*
X75311000Y-37020500D02*
X76390500Y-38100000D01*
X68292000Y-35780000D02*
X69532500Y-37020500D01*
X56930000Y-35780000D02*
X68292000Y-35780000D01*
D29*
G36*
X142247954Y-39502046D02*
X142478295Y-39655954D01*
X142750000Y-39710000D01*
X148290000Y-39710000D01*
X148290000Y-93315895D01*
X148087073Y-93112614D01*
X147486547Y-92863254D01*
X146836306Y-92862686D01*
X146235345Y-93110998D01*
X146191805Y-93154463D01*
X145105000Y-92067658D01*
X145105000Y-86257869D01*
X145533138Y-86435647D01*
X146124268Y-86436163D01*
X146670598Y-86210424D01*
X147088955Y-85792797D01*
X147315647Y-85246862D01*
X147316163Y-84655732D01*
X147090424Y-84109402D01*
X146672797Y-83691045D01*
X146299453Y-83536019D01*
X146587629Y-82976489D01*
X146648534Y-82243525D01*
X146424309Y-81543047D01*
X145563007Y-79989219D01*
X145108197Y-79451975D01*
X145079167Y-79226922D01*
X144713091Y-78589008D01*
X144130762Y-78139743D01*
X143420834Y-77947524D01*
X142691387Y-78041614D01*
X142053472Y-78407691D01*
X141604207Y-78990020D01*
X141411988Y-79699948D01*
X141366742Y-80363630D01*
X141460833Y-81093077D01*
X141826909Y-81730992D01*
X142409238Y-82180257D01*
X142477287Y-82198682D01*
X143126993Y-83370781D01*
X143585000Y-83911801D01*
X143585000Y-92382460D01*
X143642852Y-92673299D01*
X143807599Y-92919861D01*
X145525386Y-94637648D01*
X145525226Y-94821154D01*
X145773538Y-95422115D01*
X146232927Y-95882306D01*
X146833453Y-96131666D01*
X147483694Y-96132234D01*
X148084655Y-95883922D01*
X148290000Y-95678935D01*
X148290000Y-111290000D01*
X132894390Y-111290000D01*
X132894390Y-109500510D01*
X132850112Y-109265193D01*
X132711040Y-109049069D01*
X132498840Y-108904079D01*
X132246950Y-108853070D01*
X130247970Y-108853070D01*
X130012653Y-108897348D01*
X129796529Y-109036420D01*
X129651539Y-109248620D01*
X129600530Y-109500510D01*
X129600530Y-111290000D01*
X56636187Y-111290000D01*
X56644390Y-111249490D01*
X56644390Y-109250510D01*
X56600112Y-109015193D01*
X56461040Y-108799069D01*
X56248840Y-108654079D01*
X55996950Y-108603070D01*
X55757460Y-108603070D01*
X55757460Y-108400510D01*
X72450530Y-108400510D01*
X72450530Y-110399490D01*
X72494808Y-110634807D01*
X72633880Y-110850931D01*
X72846080Y-110995921D01*
X73097970Y-111046930D01*
X75096950Y-111046930D01*
X75332267Y-111002652D01*
X75548391Y-110863580D01*
X75693381Y-110651380D01*
X75744390Y-110399490D01*
X75744390Y-108400510D01*
X75700112Y-108165193D01*
X75658490Y-108100510D01*
X91500530Y-108100510D01*
X91500530Y-110099490D01*
X91544808Y-110334807D01*
X91683880Y-110550931D01*
X91896080Y-110695921D01*
X92147970Y-110746930D01*
X94146950Y-110746930D01*
X94382267Y-110702652D01*
X94598391Y-110563580D01*
X94743381Y-110351380D01*
X94794390Y-110099490D01*
X94794390Y-108100510D01*
X94750112Y-107865193D01*
X94611040Y-107649069D01*
X94398840Y-107504079D01*
X94146950Y-107453070D01*
X92147970Y-107453070D01*
X91912653Y-107497348D01*
X91696529Y-107636420D01*
X91551539Y-107848620D01*
X91500530Y-108100510D01*
X75658490Y-108100510D01*
X75561040Y-107949069D01*
X75348840Y-107804079D01*
X75096950Y-107753070D01*
X73097970Y-107753070D01*
X72862653Y-107797348D01*
X72646529Y-107936420D01*
X72501539Y-108148620D01*
X72450530Y-108400510D01*
X55757460Y-108400510D01*
X55757460Y-103067342D01*
X60037401Y-98787401D01*
X60202148Y-98540839D01*
X60260000Y-98250000D01*
X60260000Y-89250000D01*
X60202148Y-88959161D01*
X60202148Y-88959160D01*
X60037401Y-88712599D01*
X57402000Y-86077198D01*
X57402000Y-82420302D01*
X58512901Y-81309401D01*
X58677648Y-81062839D01*
X58735500Y-80772000D01*
X58735500Y-77094390D01*
X60699490Y-77094390D01*
X60934807Y-77050112D01*
X61150931Y-76911040D01*
X61295921Y-76698840D01*
X61310000Y-76629316D01*
X61310000Y-78112461D01*
X61209238Y-78139743D01*
X60626909Y-78589008D01*
X60260833Y-79226923D01*
X60204649Y-79662496D01*
X59928467Y-79988158D01*
X59065812Y-81541234D01*
X58840976Y-82241516D01*
X58901242Y-82974533D01*
X59156742Y-83471683D01*
X58629402Y-83689576D01*
X58211045Y-84107203D01*
X57984353Y-84653138D01*
X57983837Y-85244268D01*
X58209576Y-85790598D01*
X58627203Y-86208955D01*
X59173138Y-86435647D01*
X59764268Y-86436163D01*
X60310598Y-86210424D01*
X60728955Y-85792797D01*
X60955647Y-85246862D01*
X60956163Y-84655732D01*
X60810658Y-84303582D01*
X61231667Y-84268968D01*
X61310000Y-84228710D01*
X61310000Y-97162461D01*
X61209238Y-97189743D01*
X60626909Y-97639008D01*
X60260833Y-98276923D01*
X60204649Y-98712496D01*
X59928467Y-99038158D01*
X59065812Y-100591234D01*
X58840976Y-101291516D01*
X58901242Y-102024533D01*
X59156742Y-102521683D01*
X58629402Y-102739576D01*
X58211045Y-103157203D01*
X57984353Y-103703138D01*
X57983837Y-104294268D01*
X58209576Y-104840598D01*
X58627203Y-105258955D01*
X59173138Y-105485647D01*
X59764268Y-105486163D01*
X60310598Y-105260424D01*
X60728955Y-104842797D01*
X60862731Y-104520627D01*
X61920640Y-104520627D01*
X62320024Y-105487209D01*
X63058901Y-106227377D01*
X64024784Y-106628447D01*
X65070627Y-106629360D01*
X66037209Y-106229976D01*
X66777377Y-105491099D01*
X67178447Y-104525216D01*
X67179360Y-103479373D01*
X66779976Y-102512791D01*
X66041099Y-101772623D01*
X65075216Y-101371553D01*
X64029373Y-101370640D01*
X63062791Y-101770024D01*
X62322623Y-102508901D01*
X61921553Y-103474784D01*
X61920640Y-104520627D01*
X60862731Y-104520627D01*
X60955647Y-104296862D01*
X60956163Y-103705732D01*
X60810658Y-103353582D01*
X61231667Y-103318968D01*
X61885825Y-102982777D01*
X62361532Y-102421842D01*
X63092862Y-101105197D01*
X63513091Y-100780992D01*
X63879167Y-100143078D01*
X63973258Y-99413631D01*
X63973258Y-99413630D01*
X65166742Y-99413630D01*
X65260833Y-100143077D01*
X65626909Y-100780992D01*
X66209238Y-101230257D01*
X66277287Y-101248682D01*
X66926993Y-102420781D01*
X67402211Y-102982131D01*
X68056076Y-103318892D01*
X68295640Y-103338798D01*
X68144353Y-103703138D01*
X68143837Y-104294268D01*
X68369576Y-104840598D01*
X68787203Y-105258955D01*
X69333138Y-105485647D01*
X69924268Y-105486163D01*
X70470598Y-105260424D01*
X70888955Y-104842797D01*
X71115647Y-104296862D01*
X71116163Y-103705732D01*
X70890424Y-103159402D01*
X70472797Y-102741045D01*
X70099453Y-102586019D01*
X70387629Y-102026489D01*
X70432208Y-101490000D01*
X72607460Y-101490000D01*
X72898299Y-101432148D01*
X73144861Y-101267401D01*
X73606377Y-100805885D01*
X73770913Y-100874206D01*
X74421154Y-100874774D01*
X75022115Y-100626462D01*
X75482306Y-100167073D01*
X75731666Y-99566547D01*
X75732234Y-98916306D01*
X75483922Y-98315345D01*
X75024533Y-97855154D01*
X74424007Y-97605794D01*
X73773766Y-97605226D01*
X73172805Y-97853538D01*
X72712614Y-98312927D01*
X72463254Y-98913453D01*
X72462686Y-99563694D01*
X72531769Y-99730889D01*
X72292658Y-99970000D01*
X69878948Y-99970000D01*
X69363007Y-99039219D01*
X68908197Y-98501975D01*
X68879167Y-98276922D01*
X68513091Y-97639008D01*
X67930762Y-97189743D01*
X67220834Y-96997524D01*
X66491387Y-97091614D01*
X65853472Y-97457691D01*
X65404207Y-98040020D01*
X65211988Y-98749948D01*
X65166742Y-99413630D01*
X63973258Y-99413630D01*
X63928012Y-98749948D01*
X63735793Y-98040020D01*
X63286528Y-97457691D01*
X62830000Y-97195706D01*
X62830000Y-88950510D01*
X72400530Y-88950510D01*
X72400530Y-90949490D01*
X72444808Y-91184807D01*
X72583880Y-91400931D01*
X72796080Y-91545921D01*
X73047970Y-91596930D01*
X75046950Y-91596930D01*
X75282267Y-91552652D01*
X75498391Y-91413580D01*
X75643381Y-91201380D01*
X75694390Y-90949490D01*
X75694390Y-88950510D01*
X75650112Y-88715193D01*
X75511040Y-88499069D01*
X75298840Y-88354079D01*
X75046950Y-88303070D01*
X73047970Y-88303070D01*
X72812653Y-88347348D01*
X72596529Y-88486420D01*
X72451539Y-88698620D01*
X72400530Y-88950510D01*
X62830000Y-88950510D01*
X62830000Y-86948076D01*
X63058901Y-87177377D01*
X64024784Y-87578447D01*
X65070627Y-87579360D01*
X66037209Y-87179976D01*
X66777377Y-86441099D01*
X67178447Y-85475216D01*
X67179360Y-84429373D01*
X66779976Y-83462791D01*
X66041099Y-82722623D01*
X65075216Y-82321553D01*
X64029373Y-82320640D01*
X63062791Y-82720024D01*
X62830000Y-82952409D01*
X62830000Y-82528439D01*
X63092862Y-82055197D01*
X63513091Y-81730992D01*
X63879167Y-81093078D01*
X63973258Y-80363631D01*
X63973258Y-80363630D01*
X65166742Y-80363630D01*
X65260833Y-81093077D01*
X65626909Y-81730992D01*
X66209238Y-82180257D01*
X66277287Y-82198682D01*
X66926993Y-83370781D01*
X67402211Y-83932131D01*
X68056076Y-84268892D01*
X68295640Y-84288798D01*
X68144353Y-84653138D01*
X68143837Y-85244268D01*
X68369576Y-85790598D01*
X68787203Y-86208955D01*
X69333138Y-86435647D01*
X69924268Y-86436163D01*
X70470598Y-86210424D01*
X70888955Y-85792797D01*
X71115647Y-85246862D01*
X71116163Y-84655732D01*
X70890424Y-84109402D01*
X70472797Y-83691045D01*
X70099453Y-83536019D01*
X70387629Y-82976489D01*
X70432208Y-82440000D01*
X72157460Y-82440000D01*
X72448299Y-82382148D01*
X72694861Y-82217401D01*
X73556377Y-81355885D01*
X73720913Y-81424206D01*
X74371154Y-81424774D01*
X74972115Y-81176462D01*
X75432306Y-80717073D01*
X75681666Y-80116547D01*
X75682234Y-79466306D01*
X75433922Y-78865345D01*
X74974533Y-78405154D01*
X74374007Y-78155794D01*
X73723766Y-78155226D01*
X73122805Y-78403538D01*
X72662614Y-78862927D01*
X72413254Y-79463453D01*
X72412686Y-80113694D01*
X72481769Y-80280889D01*
X71842658Y-80920000D01*
X69878948Y-80920000D01*
X69363007Y-79989219D01*
X68908197Y-79451975D01*
X68879167Y-79226922D01*
X68513091Y-78589008D01*
X67930762Y-78139743D01*
X67220834Y-77947524D01*
X66491387Y-78041614D01*
X65853472Y-78407691D01*
X65404207Y-78990020D01*
X65211988Y-79699948D01*
X65166742Y-80363630D01*
X63973258Y-80363630D01*
X63928012Y-79699948D01*
X63735793Y-78990020D01*
X63286528Y-78407691D01*
X62830000Y-78145706D01*
X62830000Y-74549478D01*
X62910838Y-74354799D01*
X62911162Y-73982833D01*
X62769117Y-73639057D01*
X62506327Y-73375808D01*
X62162799Y-73233162D01*
X61790833Y-73232838D01*
X61447057Y-73374883D01*
X61183808Y-73637673D01*
X61063260Y-73927983D01*
X60951380Y-73851539D01*
X60699490Y-73800530D01*
X58782861Y-73800530D01*
X58768617Y-73766057D01*
X58505827Y-73502808D01*
X58162299Y-73360162D01*
X57790333Y-73359838D01*
X57566294Y-73452409D01*
X57489827Y-73375808D01*
X57146299Y-73233162D01*
X56774333Y-73232838D01*
X56430557Y-73374883D01*
X56167308Y-73637673D01*
X56024662Y-73981201D01*
X56024338Y-74353167D01*
X56166383Y-74696943D01*
X56240000Y-74770689D01*
X56240000Y-77521172D01*
X55924533Y-77205154D01*
X55324007Y-76955794D01*
X54673766Y-76955226D01*
X54072805Y-77203538D01*
X53612614Y-77662927D01*
X53363254Y-78263453D01*
X53362686Y-78913694D01*
X53431769Y-79080889D01*
X51542658Y-80970000D01*
X50828948Y-80970000D01*
X50313007Y-80039219D01*
X49858197Y-79501975D01*
X49829167Y-79276922D01*
X49463091Y-78639008D01*
X48880762Y-78189743D01*
X48170834Y-77997524D01*
X47441387Y-78091614D01*
X46803472Y-78457691D01*
X46354207Y-79040020D01*
X46161988Y-79749948D01*
X46116742Y-80413630D01*
X46210833Y-81143077D01*
X46576909Y-81780992D01*
X47159238Y-82230257D01*
X47227287Y-82248682D01*
X47876993Y-83420781D01*
X48352211Y-83982131D01*
X49006076Y-84318892D01*
X49245640Y-84338798D01*
X49094353Y-84703138D01*
X49093837Y-85294268D01*
X49319576Y-85840598D01*
X49737203Y-86258955D01*
X50283138Y-86485647D01*
X50874268Y-86486163D01*
X51420598Y-86260424D01*
X51838955Y-85842797D01*
X52065647Y-85296862D01*
X52066163Y-84705732D01*
X51840424Y-84159402D01*
X51422797Y-83741045D01*
X51049453Y-83586019D01*
X51337629Y-83026489D01*
X51382208Y-82490000D01*
X51857460Y-82490000D01*
X52148299Y-82432148D01*
X52394861Y-82267401D01*
X54506377Y-80155885D01*
X54670913Y-80224206D01*
X55321154Y-80224774D01*
X55922115Y-79976462D01*
X56240000Y-79659131D01*
X56240000Y-79935198D01*
X54460059Y-81715139D01*
X54295312Y-81961701D01*
X54237460Y-82252540D01*
X54237460Y-87103070D01*
X53997970Y-87103070D01*
X53762653Y-87147348D01*
X53546529Y-87286420D01*
X53401539Y-87498620D01*
X53350530Y-87750510D01*
X53350530Y-89749490D01*
X53394808Y-89984807D01*
X53477852Y-90113861D01*
X52377913Y-90568347D01*
X51072929Y-91871055D01*
X50365806Y-93573997D01*
X50364197Y-95417914D01*
X51068347Y-97122087D01*
X52371055Y-98427071D01*
X53768480Y-99007332D01*
X53612614Y-99162927D01*
X53363254Y-99763453D01*
X53362943Y-100120000D01*
X50828948Y-100120000D01*
X50313007Y-99189219D01*
X49858197Y-98651975D01*
X49829167Y-98426922D01*
X49463091Y-97789008D01*
X48880762Y-97339743D01*
X48170834Y-97147524D01*
X47441387Y-97241614D01*
X46803472Y-97607691D01*
X46354207Y-98190020D01*
X46161988Y-98899948D01*
X46116742Y-99563630D01*
X46210833Y-100293077D01*
X46576909Y-100930992D01*
X47159238Y-101380257D01*
X47227287Y-101398682D01*
X47876993Y-102570781D01*
X48352211Y-103132131D01*
X49006076Y-103468892D01*
X49245640Y-103488798D01*
X49094353Y-103853138D01*
X49093837Y-104444268D01*
X49319576Y-104990598D01*
X49737203Y-105408955D01*
X50283138Y-105635647D01*
X50874268Y-105636163D01*
X51420598Y-105410424D01*
X51838955Y-104992797D01*
X52065647Y-104446862D01*
X52066163Y-103855732D01*
X51840424Y-103309402D01*
X51422797Y-102891045D01*
X51049453Y-102736019D01*
X51337629Y-102176489D01*
X51382208Y-101640000D01*
X54207460Y-101640000D01*
X54383698Y-101604944D01*
X54670913Y-101724206D01*
X54950748Y-101724450D01*
X54460059Y-102215139D01*
X54295312Y-102461701D01*
X54237460Y-102752540D01*
X54237460Y-108603070D01*
X53997970Y-108603070D01*
X53762653Y-108647348D01*
X53546529Y-108786420D01*
X53401539Y-108998620D01*
X53350530Y-109250510D01*
X53350530Y-111249490D01*
X53358152Y-111290000D01*
X37710000Y-111290000D01*
X37710000Y-75726234D01*
X38255226Y-75726234D01*
X38503538Y-76327195D01*
X38962927Y-76787386D01*
X39563453Y-77036746D01*
X40213694Y-77037314D01*
X40814655Y-76789002D01*
X41274846Y-76329613D01*
X41524206Y-75729087D01*
X41524774Y-75078846D01*
X41276462Y-74477885D01*
X40817073Y-74017694D01*
X40216547Y-73768334D01*
X39566306Y-73767766D01*
X38965345Y-74016078D01*
X38505154Y-74475467D01*
X38255794Y-75075993D01*
X38255226Y-75726234D01*
X37710000Y-75726234D01*
X37710000Y-39710000D01*
X40715198Y-39710000D01*
X38212599Y-42212599D01*
X38047852Y-42459161D01*
X37990000Y-42750000D01*
X37990000Y-54312540D01*
X38047852Y-54603379D01*
X38212599Y-54849941D01*
X39224115Y-55861457D01*
X39155794Y-56025993D01*
X39155226Y-56676234D01*
X39403538Y-57277195D01*
X39862927Y-57737386D01*
X40463453Y-57986746D01*
X41113694Y-57987314D01*
X41714655Y-57739002D01*
X42174846Y-57279613D01*
X42310000Y-56954126D01*
X42310000Y-59112461D01*
X42209238Y-59139743D01*
X41626909Y-59589008D01*
X41260833Y-60226923D01*
X41204649Y-60662496D01*
X40928467Y-60988158D01*
X40065812Y-62541234D01*
X39840976Y-63241516D01*
X39901242Y-63974533D01*
X40156742Y-64471683D01*
X39629402Y-64689576D01*
X39211045Y-65107203D01*
X38984353Y-65653138D01*
X38983837Y-66244268D01*
X39209576Y-66790598D01*
X39627203Y-67208955D01*
X40173138Y-67435647D01*
X40764268Y-67436163D01*
X41310598Y-67210424D01*
X41728955Y-66792797D01*
X41955647Y-66246862D01*
X41956163Y-65655732D01*
X41810658Y-65303582D01*
X42231667Y-65268968D01*
X42260000Y-65254407D01*
X42260000Y-78162461D01*
X42159238Y-78189743D01*
X41576909Y-78639008D01*
X41210833Y-79276923D01*
X41154649Y-79712496D01*
X40878467Y-80038158D01*
X40015812Y-81591234D01*
X39790976Y-82291516D01*
X39851242Y-83024533D01*
X40106742Y-83521683D01*
X39579402Y-83739576D01*
X39161045Y-84157203D01*
X38934353Y-84703138D01*
X38933837Y-85294268D01*
X39159576Y-85840598D01*
X39577203Y-86258955D01*
X40123138Y-86485647D01*
X40714268Y-86486163D01*
X41260598Y-86260424D01*
X41678955Y-85842797D01*
X41905647Y-85296862D01*
X41906163Y-84705732D01*
X41760658Y-84353582D01*
X42181667Y-84318968D01*
X42260000Y-84278710D01*
X42260000Y-97312461D01*
X42159238Y-97339743D01*
X41576909Y-97789008D01*
X41210833Y-98426923D01*
X41154649Y-98862496D01*
X40878467Y-99188158D01*
X40015812Y-100741234D01*
X39790976Y-101441516D01*
X39851242Y-102174533D01*
X40106742Y-102671683D01*
X39579402Y-102889576D01*
X39161045Y-103307203D01*
X38934353Y-103853138D01*
X38933837Y-104444268D01*
X39159576Y-104990598D01*
X39577203Y-105408955D01*
X40123138Y-105635647D01*
X40714268Y-105636163D01*
X41260598Y-105410424D01*
X41678955Y-104992797D01*
X41812731Y-104670627D01*
X42870640Y-104670627D01*
X43270024Y-105637209D01*
X44008901Y-106377377D01*
X44974784Y-106778447D01*
X46020627Y-106779360D01*
X46987209Y-106379976D01*
X47727377Y-105641099D01*
X48128447Y-104675216D01*
X48129360Y-103629373D01*
X47729976Y-102662791D01*
X46991099Y-101922623D01*
X46025216Y-101521553D01*
X44979373Y-101520640D01*
X44012791Y-101920024D01*
X43272623Y-102658901D01*
X42871553Y-103624784D01*
X42870640Y-104670627D01*
X41812731Y-104670627D01*
X41905647Y-104446862D01*
X41906163Y-103855732D01*
X41760658Y-103503582D01*
X42181667Y-103468968D01*
X42835825Y-103132777D01*
X43311532Y-102571842D01*
X44042862Y-101255197D01*
X44463091Y-100930992D01*
X44829167Y-100293078D01*
X44923258Y-99563631D01*
X44878012Y-98899948D01*
X44685793Y-98190020D01*
X44236528Y-97607691D01*
X43780000Y-97345706D01*
X43780000Y-86998076D01*
X44008901Y-87227377D01*
X44974784Y-87628447D01*
X46020627Y-87629360D01*
X46987209Y-87229976D01*
X47727377Y-86491099D01*
X48128447Y-85525216D01*
X48129360Y-84479373D01*
X47729976Y-83512791D01*
X46991099Y-82772623D01*
X46025216Y-82371553D01*
X44979373Y-82370640D01*
X44012791Y-82770024D01*
X43780000Y-83002409D01*
X43780000Y-82578439D01*
X44042862Y-82105197D01*
X44463091Y-81780992D01*
X44829167Y-81143078D01*
X44923258Y-80413631D01*
X44878012Y-79749948D01*
X44685793Y-79040020D01*
X44236528Y-78457691D01*
X43780000Y-78195706D01*
X43780000Y-74403050D01*
X48403070Y-74403050D01*
X48403070Y-76402030D01*
X48447348Y-76637347D01*
X48586420Y-76853471D01*
X48798620Y-76998461D01*
X49050510Y-77049470D01*
X51049490Y-77049470D01*
X51284807Y-77005192D01*
X51500931Y-76866120D01*
X51645921Y-76653920D01*
X51696930Y-76402030D01*
X51696930Y-74403050D01*
X51652652Y-74167733D01*
X51513580Y-73951609D01*
X51301380Y-73806619D01*
X51049490Y-73755610D01*
X49050510Y-73755610D01*
X48815193Y-73799888D01*
X48599069Y-73938960D01*
X48454079Y-74151160D01*
X48403070Y-74403050D01*
X43780000Y-74403050D01*
X43780000Y-67897989D01*
X44058901Y-68177377D01*
X45024784Y-68578447D01*
X46070627Y-68579360D01*
X47037209Y-68179976D01*
X47777377Y-67441099D01*
X48178447Y-66475216D01*
X48179360Y-65429373D01*
X47779976Y-64462791D01*
X47041099Y-63722623D01*
X46075216Y-63321553D01*
X45029373Y-63320640D01*
X44062791Y-63720024D01*
X43780000Y-64002322D01*
X43780000Y-63618456D01*
X44092862Y-63055197D01*
X44513091Y-62730992D01*
X44879167Y-62093078D01*
X44973258Y-61363631D01*
X44973258Y-61363630D01*
X46166742Y-61363630D01*
X46260833Y-62093077D01*
X46626909Y-62730992D01*
X47209238Y-63180257D01*
X47277287Y-63198682D01*
X47926993Y-64370781D01*
X48402211Y-64932131D01*
X49056076Y-65268892D01*
X49295640Y-65288798D01*
X49144353Y-65653138D01*
X49143837Y-66244268D01*
X49369576Y-66790598D01*
X49787203Y-67208955D01*
X50333138Y-67435647D01*
X50924268Y-67436163D01*
X51470598Y-67210424D01*
X51888955Y-66792797D01*
X52115647Y-66246862D01*
X52116163Y-65655732D01*
X51890424Y-65109402D01*
X51472797Y-64691045D01*
X51099453Y-64536019D01*
X51387629Y-63976489D01*
X51448534Y-63243525D01*
X51224309Y-62543047D01*
X50363007Y-60989219D01*
X49908197Y-60451975D01*
X49879167Y-60226922D01*
X49513091Y-59589008D01*
X48930762Y-59139743D01*
X48220834Y-58947524D01*
X47491387Y-59041614D01*
X46853472Y-59407691D01*
X46404207Y-59990020D01*
X46211988Y-60699948D01*
X46166742Y-61363630D01*
X44973258Y-61363630D01*
X44928012Y-60699948D01*
X44735793Y-59990020D01*
X44286528Y-59407691D01*
X43830000Y-59145706D01*
X43830000Y-55420000D01*
X43805727Y-55297970D01*
X43772148Y-55129160D01*
X43607401Y-54882599D01*
X42855000Y-54130198D01*
X42855000Y-47370627D01*
X42870640Y-47370627D01*
X43270024Y-48337209D01*
X44008901Y-49077377D01*
X44974784Y-49478447D01*
X46020627Y-49479360D01*
X46987209Y-49079976D01*
X47727377Y-48341099D01*
X48128447Y-47375216D01*
X48129360Y-46329373D01*
X47729976Y-45362791D01*
X46991099Y-44622623D01*
X46025216Y-44221553D01*
X44979373Y-44220640D01*
X44012791Y-44620024D01*
X43272623Y-45358901D01*
X42871553Y-46324784D01*
X42870640Y-47370627D01*
X42855000Y-47370627D01*
X42855000Y-45810167D01*
X43311532Y-45271842D01*
X44042862Y-43955197D01*
X44463091Y-43630992D01*
X44829167Y-42993078D01*
X44923258Y-42263631D01*
X44878012Y-41599948D01*
X44730561Y-41055363D01*
X46143090Y-42467892D01*
X46210833Y-42993077D01*
X46576909Y-43630992D01*
X47159238Y-44080257D01*
X47227287Y-44098682D01*
X47876993Y-45270781D01*
X48352211Y-45832131D01*
X49006076Y-46168892D01*
X49245640Y-46188798D01*
X49094353Y-46553138D01*
X49093837Y-47144268D01*
X49319576Y-47690598D01*
X49737203Y-48108955D01*
X50283138Y-48335647D01*
X50874268Y-48336163D01*
X51420598Y-48110424D01*
X51838955Y-47692797D01*
X52065647Y-47146862D01*
X52066163Y-46555732D01*
X51840424Y-46009402D01*
X51422797Y-45591045D01*
X51049453Y-45436019D01*
X51337629Y-44876489D01*
X51398534Y-44143525D01*
X51174309Y-43443047D01*
X50313007Y-41889219D01*
X50040517Y-41567341D01*
X50923997Y-41934194D01*
X52767914Y-41935803D01*
X54472087Y-41231653D01*
X55611611Y-40094116D01*
X55418963Y-40558065D01*
X55418438Y-41159297D01*
X55648035Y-41714964D01*
X56062698Y-42130351D01*
X55649529Y-42542800D01*
X55418963Y-43098065D01*
X55418438Y-43699297D01*
X55648035Y-44254964D01*
X56062698Y-44670351D01*
X55649529Y-45082800D01*
X55418963Y-45638065D01*
X55418438Y-46239297D01*
X55648035Y-46794964D01*
X56062698Y-47210351D01*
X55649529Y-47622800D01*
X55418963Y-48178065D01*
X55418438Y-48779297D01*
X55648035Y-49334964D01*
X56062698Y-49750351D01*
X55649529Y-50162800D01*
X55595050Y-50294000D01*
X54106922Y-50294000D01*
X53549420Y-49736498D01*
X53549420Y-49097500D01*
X53505142Y-48862183D01*
X53366070Y-48646059D01*
X53153870Y-48501069D01*
X52901980Y-48450060D01*
X49901980Y-48450060D01*
X49666663Y-48494338D01*
X49450539Y-48633410D01*
X49305549Y-48845610D01*
X49254540Y-49097500D01*
X49254540Y-50597500D01*
X49298818Y-50832817D01*
X49437890Y-51048941D01*
X49650090Y-51193931D01*
X49693736Y-51202769D01*
X49684443Y-51204518D01*
X49468319Y-51343590D01*
X49323329Y-51555790D01*
X49272320Y-51807680D01*
X49272320Y-53307680D01*
X49316598Y-53542997D01*
X49455670Y-53759121D01*
X49667870Y-53904111D01*
X49919760Y-53955120D01*
X52919760Y-53955120D01*
X53006278Y-53938840D01*
X53216411Y-54148973D01*
X53247099Y-54194901D01*
X53493661Y-54359648D01*
X53784500Y-54417500D01*
X55650567Y-54417500D01*
X56062698Y-54830351D01*
X55649529Y-55242800D01*
X55504304Y-55592540D01*
X52596930Y-55592540D01*
X52596930Y-55353050D01*
X52552652Y-55117733D01*
X52413580Y-54901609D01*
X52201380Y-54756619D01*
X51949490Y-54705610D01*
X49950510Y-54705610D01*
X49715193Y-54749888D01*
X49499069Y-54888960D01*
X49354079Y-55101160D01*
X49303070Y-55353050D01*
X49303070Y-57352030D01*
X49347348Y-57587347D01*
X49486420Y-57803471D01*
X49698620Y-57948461D01*
X49950510Y-57999470D01*
X51949490Y-57999470D01*
X52184807Y-57955192D01*
X52400931Y-57816120D01*
X52545921Y-57603920D01*
X52596930Y-57352030D01*
X52596930Y-57112540D01*
X55805336Y-57112540D01*
X56062698Y-57370351D01*
X55649529Y-57782800D01*
X55418963Y-58338065D01*
X55418438Y-58939297D01*
X55648035Y-59494964D01*
X56062698Y-59910351D01*
X55649529Y-60322800D01*
X55418963Y-60878065D01*
X55418438Y-61479297D01*
X55648035Y-62034964D01*
X56062698Y-62450351D01*
X55649529Y-62862800D01*
X55418963Y-63418065D01*
X55418438Y-64019297D01*
X55648035Y-64574964D01*
X56072800Y-65000471D01*
X56628065Y-65231037D01*
X57229297Y-65231562D01*
X57784964Y-65001965D01*
X58210471Y-64577200D01*
X58441037Y-64021935D01*
X58441562Y-63420703D01*
X58211965Y-62865036D01*
X57797302Y-62449649D01*
X58210471Y-62037200D01*
X58441037Y-61481935D01*
X58441562Y-60880703D01*
X58211965Y-60325036D01*
X57797302Y-59909649D01*
X58210471Y-59497200D01*
X58441037Y-58941935D01*
X58441562Y-58340703D01*
X58211965Y-57785036D01*
X57797302Y-57369649D01*
X58210471Y-56957200D01*
X58441037Y-56401935D01*
X58441562Y-55800703D01*
X58211965Y-55245036D01*
X57797302Y-54829649D01*
X58210471Y-54417200D01*
X58441037Y-53861935D01*
X58441562Y-53260703D01*
X58211965Y-52705036D01*
X57797302Y-52289649D01*
X58210471Y-51877200D01*
X58441037Y-51321935D01*
X58441562Y-50720703D01*
X58211965Y-50165036D01*
X57797302Y-49749649D01*
X58210471Y-49337200D01*
X58441037Y-48781935D01*
X58441562Y-48180703D01*
X58259874Y-47740983D01*
X58627203Y-48108955D01*
X59173138Y-48335647D01*
X59764268Y-48336163D01*
X60310598Y-48110424D01*
X60728955Y-47692797D01*
X60955647Y-47146862D01*
X60956163Y-46555732D01*
X60810658Y-46203582D01*
X61231667Y-46168968D01*
X61312686Y-46127330D01*
X61317599Y-53568336D01*
X61312063Y-59061902D01*
X61209238Y-59089743D01*
X60626909Y-59539008D01*
X60260833Y-60176923D01*
X60204649Y-60612496D01*
X59928467Y-60938158D01*
X59065812Y-62491234D01*
X58840976Y-63191516D01*
X58901242Y-63924533D01*
X59156742Y-64421683D01*
X58629402Y-64639576D01*
X58211045Y-65057203D01*
X57984353Y-65603138D01*
X57983837Y-66194268D01*
X58209576Y-66740598D01*
X58627203Y-67158955D01*
X59173138Y-67385647D01*
X59764268Y-67386163D01*
X60310598Y-67160424D01*
X60728955Y-66742797D01*
X60862731Y-66420627D01*
X61920640Y-66420627D01*
X62320024Y-67387209D01*
X63058901Y-68127377D01*
X64024784Y-68528447D01*
X65070627Y-68529360D01*
X66037209Y-68129976D01*
X66777377Y-67391099D01*
X67178447Y-66425216D01*
X67179360Y-65379373D01*
X66779976Y-64412791D01*
X66041099Y-63672623D01*
X65075216Y-63271553D01*
X64029373Y-63270640D01*
X63062791Y-63670024D01*
X62322623Y-64408901D01*
X61921553Y-65374784D01*
X61920640Y-66420627D01*
X60862731Y-66420627D01*
X60955647Y-66196862D01*
X60956163Y-65605732D01*
X60810658Y-65253582D01*
X61231667Y-65218968D01*
X61885825Y-64882777D01*
X62361532Y-64321842D01*
X63092862Y-63005197D01*
X63513091Y-62680992D01*
X63879167Y-62043078D01*
X63973258Y-61313631D01*
X63973258Y-61313630D01*
X65166742Y-61313630D01*
X65260833Y-62043077D01*
X65626909Y-62680992D01*
X66209238Y-63130257D01*
X66277287Y-63148682D01*
X66926993Y-64320781D01*
X67385000Y-64861801D01*
X67385000Y-73732460D01*
X67442852Y-74023299D01*
X67607599Y-74269861D01*
X68294115Y-74956377D01*
X68225794Y-75120913D01*
X68225226Y-75771154D01*
X68473538Y-76372115D01*
X68932927Y-76832306D01*
X69533453Y-77081666D01*
X70183694Y-77082234D01*
X70784655Y-76833922D01*
X71244846Y-76374533D01*
X71494206Y-75774007D01*
X71494774Y-75123766D01*
X71246462Y-74522805D01*
X70787073Y-74062614D01*
X70186547Y-73813254D01*
X69536306Y-73812686D01*
X69369111Y-73881769D01*
X68905000Y-73417658D01*
X68905000Y-68848540D01*
X69064000Y-68848540D01*
X69064000Y-70348540D01*
X69108278Y-70583857D01*
X69247350Y-70799981D01*
X69459550Y-70944971D01*
X69711440Y-70995980D01*
X72406849Y-70995980D01*
X72442061Y-71019508D01*
X72732900Y-71077360D01*
X78845570Y-71077360D01*
X78885313Y-71117172D01*
X79228841Y-71259818D01*
X79600807Y-71260142D01*
X79944583Y-71118097D01*
X80207832Y-70855307D01*
X80350478Y-70511779D01*
X80350802Y-70139813D01*
X80208757Y-69796037D01*
X79945967Y-69532788D01*
X79602439Y-69390142D01*
X79230473Y-69389818D01*
X78886697Y-69531863D01*
X78861155Y-69557360D01*
X73358880Y-69557360D01*
X73358880Y-68848540D01*
X73314602Y-68613223D01*
X73175530Y-68397099D01*
X72963330Y-68252109D01*
X72711440Y-68201100D01*
X69711440Y-68201100D01*
X69476123Y-68245378D01*
X69259999Y-68384450D01*
X69115009Y-68596650D01*
X69064000Y-68848540D01*
X68905000Y-68848540D01*
X68905000Y-67207869D01*
X69333138Y-67385647D01*
X69924268Y-67386163D01*
X70470598Y-67160424D01*
X70888955Y-66742797D01*
X71115647Y-66196862D01*
X71116163Y-65605732D01*
X70890424Y-65059402D01*
X70472797Y-64641045D01*
X70099453Y-64486019D01*
X70387629Y-63926489D01*
X70448534Y-63193525D01*
X70224309Y-62493047D01*
X69363007Y-60939219D01*
X68908197Y-60401975D01*
X68879167Y-60176922D01*
X68513091Y-59539008D01*
X67930762Y-59089743D01*
X67220834Y-58897524D01*
X66491387Y-58991614D01*
X65853472Y-59357691D01*
X65404207Y-59940020D01*
X65211988Y-60649948D01*
X65166742Y-61313630D01*
X63973258Y-61313630D01*
X63928012Y-60649948D01*
X63735793Y-59940020D01*
X63286528Y-59357691D01*
X62832030Y-59096871D01*
X62836837Y-54326780D01*
X65660991Y-54320000D01*
X70848797Y-54320000D01*
X70888035Y-54414964D01*
X71302698Y-54830351D01*
X70889529Y-55242800D01*
X70658963Y-55798065D01*
X70658438Y-56399297D01*
X70888035Y-56954964D01*
X71302698Y-57370351D01*
X70889529Y-57782800D01*
X70658963Y-58338065D01*
X70658438Y-58939297D01*
X70888035Y-59494964D01*
X71302698Y-59910351D01*
X70889529Y-60322800D01*
X70658963Y-60878065D01*
X70658438Y-61479297D01*
X70888035Y-62034964D01*
X71302698Y-62450351D01*
X70889529Y-62862800D01*
X70658963Y-63418065D01*
X70658438Y-64019297D01*
X70888035Y-64574964D01*
X71312800Y-65000471D01*
X71868065Y-65231037D01*
X72469297Y-65231562D01*
X73024964Y-65001965D01*
X73450471Y-64577200D01*
X73681037Y-64021935D01*
X73681562Y-63420703D01*
X73451965Y-62865036D01*
X73037302Y-62449649D01*
X73450471Y-62037200D01*
X73681037Y-61481935D01*
X73681562Y-60880703D01*
X73451965Y-60325036D01*
X73037302Y-59909649D01*
X73450471Y-59497200D01*
X73681037Y-58941935D01*
X73681562Y-58340703D01*
X73451965Y-57785036D01*
X73037302Y-57369649D01*
X73450471Y-56957200D01*
X73490832Y-56860000D01*
X73685198Y-56860000D01*
X78472599Y-61647401D01*
X78554224Y-61701941D01*
X78115812Y-62491234D01*
X77890976Y-63191516D01*
X77951242Y-63924533D01*
X78206742Y-64421683D01*
X77679402Y-64639576D01*
X77261045Y-65057203D01*
X77034353Y-65603138D01*
X77033837Y-66194268D01*
X77259576Y-66740598D01*
X77677203Y-67158955D01*
X78223138Y-67385647D01*
X78814268Y-67386163D01*
X79360598Y-67160424D01*
X79778955Y-66742797D01*
X80005647Y-66196862D01*
X80006163Y-65605732D01*
X79860658Y-65253582D01*
X80281667Y-65218968D01*
X80360000Y-65178710D01*
X80360000Y-78112461D01*
X80259238Y-78139743D01*
X79676909Y-78589008D01*
X79310833Y-79226923D01*
X79254649Y-79662496D01*
X78978467Y-79988158D01*
X78115812Y-81541234D01*
X77890976Y-82241516D01*
X77951242Y-82974533D01*
X78206742Y-83471683D01*
X77679402Y-83689576D01*
X77261045Y-84107203D01*
X77034353Y-84653138D01*
X77033837Y-85244268D01*
X77259576Y-85790598D01*
X77677203Y-86208955D01*
X78223138Y-86435647D01*
X78814268Y-86436163D01*
X79360598Y-86210424D01*
X79778955Y-85792797D01*
X80005647Y-85246862D01*
X80006163Y-84655732D01*
X79860658Y-84303582D01*
X80281667Y-84268968D01*
X80360000Y-84228710D01*
X80360000Y-97162461D01*
X80259238Y-97189743D01*
X79676909Y-97639008D01*
X79310833Y-98276923D01*
X79254649Y-98712496D01*
X78978467Y-99038158D01*
X78115812Y-100591234D01*
X77890976Y-101291516D01*
X77951242Y-102024533D01*
X78206742Y-102521683D01*
X77679402Y-102739576D01*
X77261045Y-103157203D01*
X77034353Y-103703138D01*
X77033837Y-104294268D01*
X77259576Y-104840598D01*
X77677203Y-105258955D01*
X78223138Y-105485647D01*
X78814268Y-105486163D01*
X79360598Y-105260424D01*
X79778955Y-104842797D01*
X79912731Y-104520627D01*
X80970640Y-104520627D01*
X81370024Y-105487209D01*
X82108901Y-106227377D01*
X83074784Y-106628447D01*
X84120627Y-106629360D01*
X85087209Y-106229976D01*
X85827377Y-105491099D01*
X86228447Y-104525216D01*
X86229360Y-103479373D01*
X85829976Y-102512791D01*
X85091099Y-101772623D01*
X84125216Y-101371553D01*
X83079373Y-101370640D01*
X82112791Y-101770024D01*
X81372623Y-102508901D01*
X80971553Y-103474784D01*
X80970640Y-104520627D01*
X79912731Y-104520627D01*
X80005647Y-104296862D01*
X80006163Y-103705732D01*
X79860658Y-103353582D01*
X80281667Y-103318968D01*
X80935825Y-102982777D01*
X81411532Y-102421842D01*
X82142862Y-101105197D01*
X82563091Y-100780992D01*
X82929167Y-100143078D01*
X83023258Y-99413631D01*
X83023258Y-99413630D01*
X84216742Y-99413630D01*
X84310833Y-100143077D01*
X84676909Y-100780992D01*
X85259238Y-101230257D01*
X85327287Y-101248682D01*
X85976993Y-102420781D01*
X86452211Y-102982131D01*
X87106076Y-103318892D01*
X87345640Y-103338798D01*
X87194353Y-103703138D01*
X87193837Y-104294268D01*
X87419576Y-104840598D01*
X87837203Y-105258955D01*
X88383138Y-105485647D01*
X88974268Y-105486163D01*
X89520598Y-105260424D01*
X89938955Y-104842797D01*
X90165647Y-104296862D01*
X90166163Y-103705732D01*
X89940424Y-103159402D01*
X89522797Y-102741045D01*
X89149453Y-102586019D01*
X89437629Y-102026489D01*
X89482208Y-101490000D01*
X91357460Y-101490000D01*
X91648299Y-101432148D01*
X91894861Y-101267401D01*
X92656377Y-100505885D01*
X92820913Y-100574206D01*
X93471154Y-100574774D01*
X94072115Y-100326462D01*
X94532306Y-99867073D01*
X94781666Y-99266547D01*
X94782234Y-98616306D01*
X94533922Y-98015345D01*
X94074533Y-97555154D01*
X93474007Y-97305794D01*
X92823766Y-97305226D01*
X92222805Y-97553538D01*
X91762614Y-98012927D01*
X91513254Y-98613453D01*
X91512686Y-99263694D01*
X91581769Y-99430889D01*
X91042658Y-99970000D01*
X88928948Y-99970000D01*
X88413007Y-99039219D01*
X87958197Y-98501975D01*
X87929167Y-98276922D01*
X87563091Y-97639008D01*
X86980762Y-97189743D01*
X86270834Y-96997524D01*
X85541387Y-97091614D01*
X84903472Y-97457691D01*
X84454207Y-98040020D01*
X84261988Y-98749948D01*
X84216742Y-99413630D01*
X83023258Y-99413630D01*
X82978012Y-98749948D01*
X82785793Y-98040020D01*
X82336528Y-97457691D01*
X81880000Y-97195706D01*
X81880000Y-89400510D01*
X91600530Y-89400510D01*
X91600530Y-91399490D01*
X91644808Y-91634807D01*
X91783880Y-91850931D01*
X91996080Y-91995921D01*
X92247970Y-92046930D01*
X94246950Y-92046930D01*
X94482267Y-92002652D01*
X94698391Y-91863580D01*
X94843381Y-91651380D01*
X94894390Y-91399490D01*
X94894390Y-89400510D01*
X94850112Y-89165193D01*
X94711040Y-88949069D01*
X94498840Y-88804079D01*
X94246950Y-88753070D01*
X92247970Y-88753070D01*
X92012653Y-88797348D01*
X91796529Y-88936420D01*
X91651539Y-89148620D01*
X91600530Y-89400510D01*
X81880000Y-89400510D01*
X81880000Y-86948076D01*
X82108901Y-87177377D01*
X83074784Y-87578447D01*
X84120627Y-87579360D01*
X85087209Y-87179976D01*
X85827377Y-86441099D01*
X86228447Y-85475216D01*
X86229360Y-84429373D01*
X85829976Y-83462791D01*
X85091099Y-82722623D01*
X84125216Y-82321553D01*
X83079373Y-82320640D01*
X82112791Y-82720024D01*
X81880000Y-82952409D01*
X81880000Y-82528439D01*
X82142862Y-82055197D01*
X82563091Y-81730992D01*
X82929167Y-81093078D01*
X83023258Y-80363631D01*
X83023258Y-80363630D01*
X84216742Y-80363630D01*
X84310833Y-81093077D01*
X84676909Y-81730992D01*
X85259238Y-82180257D01*
X85327287Y-82198682D01*
X85976993Y-83370781D01*
X86452211Y-83932131D01*
X87106076Y-84268892D01*
X87345640Y-84288798D01*
X87194353Y-84653138D01*
X87193837Y-85244268D01*
X87419576Y-85790598D01*
X87837203Y-86208955D01*
X88383138Y-86435647D01*
X88974268Y-86436163D01*
X89520598Y-86210424D01*
X89938955Y-85792797D01*
X90165647Y-85246862D01*
X90166163Y-84655732D01*
X89940424Y-84109402D01*
X89522797Y-83691045D01*
X89149453Y-83536019D01*
X89437629Y-82976489D01*
X89482208Y-82440000D01*
X91807460Y-82440000D01*
X92098299Y-82382148D01*
X92344861Y-82217401D01*
X92756377Y-81805885D01*
X92920913Y-81874206D01*
X93571154Y-81874774D01*
X94172115Y-81626462D01*
X94632306Y-81167073D01*
X94881666Y-80566547D01*
X94882234Y-79916306D01*
X94633922Y-79315345D01*
X94174533Y-78855154D01*
X93574007Y-78605794D01*
X92923766Y-78605226D01*
X92322805Y-78853538D01*
X91862614Y-79312927D01*
X91613254Y-79913453D01*
X91612686Y-80563694D01*
X91681769Y-80730889D01*
X91492658Y-80920000D01*
X88928948Y-80920000D01*
X88413007Y-79989219D01*
X87958197Y-79451975D01*
X87929167Y-79226922D01*
X87563091Y-78589008D01*
X86980762Y-78139743D01*
X86270834Y-77947524D01*
X85541387Y-78041614D01*
X84903472Y-78407691D01*
X84454207Y-78990020D01*
X84261988Y-79699948D01*
X84216742Y-80363630D01*
X83023258Y-80363630D01*
X82978012Y-79699948D01*
X82785793Y-78990020D01*
X82336528Y-78407691D01*
X81880000Y-78145706D01*
X81880000Y-67898076D01*
X82108901Y-68127377D01*
X83074784Y-68528447D01*
X84120627Y-68529360D01*
X85087209Y-68129976D01*
X85827377Y-67391099D01*
X86228447Y-66425216D01*
X86229360Y-65379373D01*
X85829976Y-64412791D01*
X85091099Y-63672623D01*
X84125216Y-63271553D01*
X83079373Y-63270640D01*
X82112791Y-63670024D01*
X81880000Y-63902409D01*
X81880000Y-63478439D01*
X82142862Y-63005197D01*
X82563091Y-62680992D01*
X82929167Y-62043078D01*
X83023258Y-61313631D01*
X82978012Y-60649948D01*
X82785793Y-59940020D01*
X82336528Y-59357691D01*
X81880000Y-59095706D01*
X81880000Y-54110741D01*
X81902012Y-54088767D01*
X82044658Y-53745239D01*
X82044960Y-53398960D01*
X82142477Y-53398960D01*
X82174613Y-53431152D01*
X82518141Y-53573798D01*
X82890107Y-53574122D01*
X83233883Y-53432077D01*
X83497132Y-53169287D01*
X83639778Y-52825759D01*
X83640102Y-52453793D01*
X83498057Y-52110017D01*
X83235267Y-51846768D01*
X82891739Y-51704122D01*
X82519773Y-51703798D01*
X82175997Y-51845843D01*
X82142822Y-51878960D01*
X77845762Y-51878960D01*
X75170221Y-49203419D01*
X74923659Y-49038672D01*
X74632820Y-48980820D01*
X73598453Y-48980820D01*
X73681037Y-48781935D01*
X73681562Y-48180703D01*
X73451965Y-47625036D01*
X73037302Y-47209649D01*
X73450471Y-46797200D01*
X73681037Y-46241935D01*
X73681562Y-45640703D01*
X73451965Y-45085036D01*
X73027200Y-44659529D01*
X72993408Y-44645497D01*
X73053396Y-44463001D01*
X72170000Y-43579605D01*
X71286604Y-44463001D01*
X71346447Y-44645056D01*
X71315036Y-44658035D01*
X70889529Y-45082800D01*
X70658963Y-45638065D01*
X70658841Y-45777415D01*
X70472797Y-45591045D01*
X70099453Y-45436019D01*
X70387629Y-44876489D01*
X70448534Y-44143525D01*
X70224309Y-43443047D01*
X70070184Y-43164997D01*
X70647118Y-43164997D01*
X70673109Y-43765668D01*
X70852973Y-44199896D01*
X71106999Y-44283396D01*
X71990395Y-43400000D01*
X72349605Y-43400000D01*
X73233001Y-44283396D01*
X73487027Y-44199896D01*
X73692882Y-43635003D01*
X73666891Y-43034332D01*
X73487027Y-42600104D01*
X73233001Y-42516604D01*
X72349605Y-43400000D01*
X71990395Y-43400000D01*
X71106999Y-42516604D01*
X70852973Y-42600104D01*
X70647118Y-43164997D01*
X70070184Y-43164997D01*
X69363007Y-41889219D01*
X68908197Y-41351975D01*
X68879167Y-41126922D01*
X68513091Y-40489008D01*
X68294674Y-40320500D01*
X70757609Y-40320500D01*
X70658963Y-40558065D01*
X70658438Y-41159297D01*
X70888035Y-41714964D01*
X71312800Y-42140471D01*
X71346592Y-42154503D01*
X71286604Y-42336999D01*
X72170000Y-43220395D01*
X73053396Y-42336999D01*
X72993553Y-42154944D01*
X73024964Y-42141965D01*
X73450471Y-41717200D01*
X73681037Y-41161935D01*
X73681562Y-40560703D01*
X73582312Y-40320500D01*
X78171198Y-40320500D01*
X78393099Y-40542401D01*
X78639661Y-40707148D01*
X78930500Y-40765000D01*
X79518527Y-40765000D01*
X79310833Y-41126923D01*
X79254649Y-41562496D01*
X78978467Y-41888158D01*
X78115812Y-43441234D01*
X77890976Y-44141516D01*
X77951242Y-44874533D01*
X78206742Y-45371683D01*
X77679402Y-45589576D01*
X77261045Y-46007203D01*
X77034353Y-46553138D01*
X77033837Y-47144268D01*
X77259576Y-47690598D01*
X77677203Y-48108955D01*
X78223138Y-48335647D01*
X78814268Y-48336163D01*
X79360598Y-48110424D01*
X79778955Y-47692797D01*
X79912731Y-47370627D01*
X80970640Y-47370627D01*
X81370024Y-48337209D01*
X82108901Y-49077377D01*
X83074784Y-49478447D01*
X84120627Y-49479360D01*
X85087209Y-49079976D01*
X85827377Y-48341099D01*
X86228447Y-47375216D01*
X86229360Y-46329373D01*
X85829976Y-45362791D01*
X85091099Y-44622623D01*
X84125216Y-44221553D01*
X83079373Y-44220640D01*
X82112791Y-44620024D01*
X81372623Y-45358901D01*
X80971553Y-46324784D01*
X80970640Y-47370627D01*
X79912731Y-47370627D01*
X80005647Y-47146862D01*
X80006163Y-46555732D01*
X79860658Y-46203582D01*
X80281667Y-46168968D01*
X80935825Y-45832777D01*
X81411532Y-45271842D01*
X82142862Y-43955197D01*
X82563091Y-43630992D01*
X82929167Y-42993078D01*
X83023258Y-42263631D01*
X82978012Y-41599948D01*
X82785793Y-40890020D01*
X82689340Y-40765000D01*
X84550660Y-40765000D01*
X84454207Y-40890020D01*
X84261988Y-41599948D01*
X84216742Y-42263630D01*
X84310833Y-42993077D01*
X84676909Y-43630992D01*
X85259238Y-44080257D01*
X85327287Y-44098682D01*
X85976993Y-45270781D01*
X86452211Y-45832131D01*
X87106076Y-46168892D01*
X87345640Y-46188798D01*
X87194353Y-46553138D01*
X87193837Y-47144268D01*
X87419576Y-47690598D01*
X87837203Y-48108955D01*
X88383138Y-48335647D01*
X88974268Y-48336163D01*
X89520598Y-48110424D01*
X89938955Y-47692797D01*
X90165647Y-47146862D01*
X90166163Y-46555732D01*
X89940424Y-46009402D01*
X89522797Y-45591045D01*
X89149453Y-45436019D01*
X89437629Y-44876489D01*
X89498534Y-44143525D01*
X89274309Y-43443047D01*
X88413007Y-41889219D01*
X87958197Y-41351975D01*
X87929167Y-41126922D01*
X87721473Y-40765000D01*
X90553000Y-40765000D01*
X90553000Y-42545000D01*
X90560000Y-42580191D01*
X90560000Y-55033762D01*
X90493774Y-55061126D01*
X90196930Y-55357452D01*
X90196930Y-55353050D01*
X90152652Y-55117733D01*
X90013580Y-54901609D01*
X89801380Y-54756619D01*
X89549490Y-54705610D01*
X87550510Y-54705610D01*
X87315193Y-54749888D01*
X87099069Y-54888960D01*
X86954079Y-55101160D01*
X86903070Y-55353050D01*
X86903070Y-57352030D01*
X86913225Y-57406000D01*
X85008293Y-57406000D01*
X84999840Y-57400352D01*
X84943434Y-57389132D01*
X84501122Y-56946820D01*
X84501162Y-56901333D01*
X84359117Y-56557557D01*
X84096327Y-56294308D01*
X83752799Y-56151662D01*
X83380833Y-56151338D01*
X83037057Y-56293383D01*
X82773808Y-56556173D01*
X82631162Y-56899701D01*
X82630838Y-57271667D01*
X82772883Y-57615443D01*
X83035673Y-57878692D01*
X83379201Y-58021338D01*
X83426077Y-58021379D01*
X84108099Y-58703401D01*
X84354661Y-58868148D01*
X84645500Y-58926000D01*
X86050069Y-58926000D01*
X85541387Y-58991614D01*
X84903472Y-59357691D01*
X84454207Y-59940020D01*
X84261988Y-60649948D01*
X84216742Y-61313630D01*
X84310833Y-62043077D01*
X84676909Y-62680992D01*
X85259238Y-63130257D01*
X85327287Y-63148682D01*
X85976993Y-64320781D01*
X86452211Y-64882131D01*
X87106076Y-65218892D01*
X87345640Y-65238798D01*
X87194353Y-65603138D01*
X87193837Y-66194268D01*
X87419576Y-66740598D01*
X87837203Y-67158955D01*
X88383138Y-67385647D01*
X88557119Y-67385799D01*
X86393178Y-69549740D01*
X83427423Y-69549740D01*
X83395287Y-69517548D01*
X83051759Y-69374902D01*
X82679793Y-69374578D01*
X82336017Y-69516623D01*
X82072768Y-69779413D01*
X81930122Y-70122941D01*
X81929798Y-70494907D01*
X82071843Y-70838683D01*
X82334633Y-71101932D01*
X82678161Y-71244578D01*
X83050127Y-71244902D01*
X83393903Y-71102857D01*
X83427078Y-71069740D01*
X86707980Y-71069740D01*
X86998819Y-71011888D01*
X87245381Y-70847141D01*
X87942012Y-70150510D01*
X91400530Y-70150510D01*
X91400530Y-72149490D01*
X91444808Y-72384807D01*
X91583880Y-72600931D01*
X91796080Y-72745921D01*
X92047970Y-72796930D01*
X94046950Y-72796930D01*
X94282267Y-72752652D01*
X94498391Y-72613580D01*
X94643381Y-72401380D01*
X94694390Y-72149490D01*
X94694390Y-70150510D01*
X94650112Y-69915193D01*
X94511040Y-69699069D01*
X94298840Y-69554079D01*
X94046950Y-69503070D01*
X92047970Y-69503070D01*
X91812653Y-69547348D01*
X91596529Y-69686420D01*
X91451539Y-69898620D01*
X91400530Y-70150510D01*
X87942012Y-70150510D01*
X96132841Y-61959681D01*
X96297588Y-61713120D01*
X96316100Y-61620052D01*
X96355440Y-61422280D01*
X96355440Y-58914734D01*
X96650701Y-59037338D01*
X97022667Y-59037662D01*
X97366443Y-58895617D01*
X97399618Y-58862500D01*
X98942037Y-58862500D01*
X98974173Y-58894692D01*
X99317701Y-59037338D01*
X99502193Y-59037499D01*
X99309238Y-59089743D01*
X98726909Y-59539008D01*
X98360833Y-60176923D01*
X98304649Y-60612496D01*
X98028467Y-60938158D01*
X97165812Y-62491234D01*
X96940976Y-63191516D01*
X97001242Y-63924533D01*
X97256742Y-64421683D01*
X96729402Y-64639576D01*
X96311045Y-65057203D01*
X96084353Y-65603138D01*
X96083837Y-66194268D01*
X96309576Y-66740598D01*
X96727203Y-67158955D01*
X97273138Y-67385647D01*
X97864268Y-67386163D01*
X98410598Y-67160424D01*
X98828955Y-66742797D01*
X99055647Y-66196862D01*
X99056163Y-65605732D01*
X98910658Y-65253582D01*
X99331667Y-65218968D01*
X99410000Y-65178710D01*
X99410000Y-78112461D01*
X99309238Y-78139743D01*
X98726909Y-78589008D01*
X98360833Y-79226923D01*
X98304649Y-79662496D01*
X98028467Y-79988158D01*
X97165812Y-81541234D01*
X96940976Y-82241516D01*
X97001242Y-82974533D01*
X97256742Y-83471683D01*
X96729402Y-83689576D01*
X96311045Y-84107203D01*
X96084353Y-84653138D01*
X96083837Y-85244268D01*
X96309576Y-85790598D01*
X96727203Y-86208955D01*
X97273138Y-86435647D01*
X97864268Y-86436163D01*
X98410598Y-86210424D01*
X98828955Y-85792797D01*
X99055647Y-85246862D01*
X99056163Y-84655732D01*
X98910658Y-84303582D01*
X99331667Y-84268968D01*
X99410000Y-84228710D01*
X99410000Y-97162461D01*
X99309238Y-97189743D01*
X98726909Y-97639008D01*
X98360833Y-98276923D01*
X98304649Y-98712496D01*
X98028467Y-99038158D01*
X97165812Y-100591234D01*
X96940976Y-101291516D01*
X97001242Y-102024533D01*
X97256742Y-102521683D01*
X96729402Y-102739576D01*
X96311045Y-103157203D01*
X96084353Y-103703138D01*
X96083837Y-104294268D01*
X96309576Y-104840598D01*
X96727203Y-105258955D01*
X97273138Y-105485647D01*
X97864268Y-105486163D01*
X98410598Y-105260424D01*
X98828955Y-104842797D01*
X98962731Y-104520627D01*
X100020640Y-104520627D01*
X100420024Y-105487209D01*
X101158901Y-106227377D01*
X102124784Y-106628447D01*
X103170627Y-106629360D01*
X104137209Y-106229976D01*
X104877377Y-105491099D01*
X105278447Y-104525216D01*
X105279360Y-103479373D01*
X104879976Y-102512791D01*
X104141099Y-101772623D01*
X103175216Y-101371553D01*
X102129373Y-101370640D01*
X101162791Y-101770024D01*
X100422623Y-102508901D01*
X100021553Y-103474784D01*
X100020640Y-104520627D01*
X98962731Y-104520627D01*
X99055647Y-104296862D01*
X99056163Y-103705732D01*
X98910658Y-103353582D01*
X99331667Y-103318968D01*
X99985825Y-102982777D01*
X100461532Y-102421842D01*
X101192862Y-101105197D01*
X101613091Y-100780992D01*
X101979167Y-100143078D01*
X102073258Y-99413631D01*
X102073258Y-99413630D01*
X103266742Y-99413630D01*
X103360833Y-100143077D01*
X103726909Y-100780992D01*
X104309238Y-101230257D01*
X104377287Y-101248682D01*
X105026993Y-102420781D01*
X105502211Y-102982131D01*
X106156076Y-103318892D01*
X106395640Y-103338798D01*
X106244353Y-103703138D01*
X106243837Y-104294268D01*
X106469576Y-104840598D01*
X106887203Y-105258955D01*
X107433138Y-105485647D01*
X108024268Y-105486163D01*
X108570598Y-105260424D01*
X108988955Y-104842797D01*
X109215647Y-104296862D01*
X109216163Y-103705732D01*
X108990424Y-103159402D01*
X108572797Y-102741045D01*
X108199453Y-102586019D01*
X108487629Y-102026489D01*
X108532208Y-101490000D01*
X111370000Y-101490000D01*
X111660839Y-101432148D01*
X111907401Y-101267401D01*
X112520359Y-100654443D01*
X113072115Y-100426462D01*
X113532306Y-99967073D01*
X113781666Y-99366547D01*
X113782234Y-98716306D01*
X113533922Y-98115345D01*
X113074533Y-97655154D01*
X112474007Y-97405794D01*
X111823766Y-97405226D01*
X111222805Y-97653538D01*
X110762614Y-98112927D01*
X110513254Y-98713453D01*
X110512686Y-99363694D01*
X110760998Y-99964655D01*
X110766334Y-99970000D01*
X107978948Y-99970000D01*
X107463007Y-99039219D01*
X107008197Y-98501975D01*
X106979167Y-98276922D01*
X106613091Y-97639008D01*
X106030762Y-97189743D01*
X105320834Y-96997524D01*
X104591387Y-97091614D01*
X103953472Y-97457691D01*
X103504207Y-98040020D01*
X103311988Y-98749948D01*
X103266742Y-99413630D01*
X102073258Y-99413630D01*
X102028012Y-98749948D01*
X101835793Y-98040020D01*
X101386528Y-97457691D01*
X100930000Y-97195706D01*
X100930000Y-89400510D01*
X110650530Y-89400510D01*
X110650530Y-91399490D01*
X110694808Y-91634807D01*
X110833880Y-91850931D01*
X111046080Y-91995921D01*
X111297970Y-92046930D01*
X113296950Y-92046930D01*
X113532267Y-92002652D01*
X113748391Y-91863580D01*
X113893381Y-91651380D01*
X113944390Y-91399490D01*
X113944390Y-89400510D01*
X113900112Y-89165193D01*
X113761040Y-88949069D01*
X113548840Y-88804079D01*
X113296950Y-88753070D01*
X111297970Y-88753070D01*
X111062653Y-88797348D01*
X110846529Y-88936420D01*
X110701539Y-89148620D01*
X110650530Y-89400510D01*
X100930000Y-89400510D01*
X100930000Y-86948076D01*
X101158901Y-87177377D01*
X102124784Y-87578447D01*
X103170627Y-87579360D01*
X104137209Y-87179976D01*
X104877377Y-86441099D01*
X105278447Y-85475216D01*
X105279360Y-84429373D01*
X104879976Y-83462791D01*
X104141099Y-82722623D01*
X103175216Y-82321553D01*
X102129373Y-82320640D01*
X101162791Y-82720024D01*
X100930000Y-82952409D01*
X100930000Y-82528439D01*
X101192862Y-82055197D01*
X101613091Y-81730992D01*
X101979167Y-81093078D01*
X102073258Y-80363631D01*
X102073258Y-80363630D01*
X103266742Y-80363630D01*
X103360833Y-81093077D01*
X103726909Y-81730992D01*
X104309238Y-82180257D01*
X104377287Y-82198682D01*
X105026993Y-83370781D01*
X105502211Y-83932131D01*
X106156076Y-84268892D01*
X106395640Y-84288798D01*
X106244353Y-84653138D01*
X106243837Y-85244268D01*
X106469576Y-85790598D01*
X106887203Y-86208955D01*
X107433138Y-86435647D01*
X108024268Y-86436163D01*
X108570598Y-86210424D01*
X108988955Y-85792797D01*
X109215647Y-85246862D01*
X109216163Y-84655732D01*
X108990424Y-84109402D01*
X108572797Y-83691045D01*
X108199453Y-83536019D01*
X108487629Y-82976489D01*
X108532208Y-82440000D01*
X110857460Y-82440000D01*
X111148299Y-82382148D01*
X111394861Y-82217401D01*
X111806377Y-81805885D01*
X111970913Y-81874206D01*
X112621154Y-81874774D01*
X113222115Y-81626462D01*
X113682306Y-81167073D01*
X113931666Y-80566547D01*
X113932234Y-79916306D01*
X113683922Y-79315345D01*
X113224533Y-78855154D01*
X112624007Y-78605794D01*
X111973766Y-78605226D01*
X111372805Y-78853538D01*
X110912614Y-79312927D01*
X110663254Y-79913453D01*
X110662686Y-80563694D01*
X110731769Y-80730889D01*
X110542658Y-80920000D01*
X107978948Y-80920000D01*
X107463007Y-79989219D01*
X107008197Y-79451975D01*
X106979167Y-79226922D01*
X106613091Y-78589008D01*
X106030762Y-78139743D01*
X105320834Y-77947524D01*
X104591387Y-78041614D01*
X103953472Y-78407691D01*
X103504207Y-78990020D01*
X103311988Y-79699948D01*
X103266742Y-80363630D01*
X102073258Y-80363630D01*
X102028012Y-79699948D01*
X101835793Y-78990020D01*
X101386528Y-78407691D01*
X100930000Y-78145706D01*
X100930000Y-70300510D01*
X110600530Y-70300510D01*
X110600530Y-72299490D01*
X110644808Y-72534807D01*
X110783880Y-72750931D01*
X110996080Y-72895921D01*
X111247970Y-72946930D01*
X113246950Y-72946930D01*
X113482267Y-72902652D01*
X113698391Y-72763580D01*
X113843381Y-72551380D01*
X113894390Y-72299490D01*
X113894390Y-70300510D01*
X113850112Y-70065193D01*
X113711040Y-69849069D01*
X113498840Y-69704079D01*
X113246950Y-69653070D01*
X111247970Y-69653070D01*
X111012653Y-69697348D01*
X110796529Y-69836420D01*
X110651539Y-70048620D01*
X110600530Y-70300510D01*
X100930000Y-70300510D01*
X100930000Y-67898076D01*
X101158901Y-68127377D01*
X102124784Y-68528447D01*
X103170627Y-68529360D01*
X104137209Y-68129976D01*
X104877377Y-67391099D01*
X105278447Y-66425216D01*
X105279360Y-65379373D01*
X104879976Y-64412791D01*
X104141099Y-63672623D01*
X103175216Y-63271553D01*
X102129373Y-63270640D01*
X101162791Y-63670024D01*
X100930000Y-63902409D01*
X100930000Y-63478439D01*
X101192862Y-63005197D01*
X101613091Y-62680992D01*
X101979167Y-62043078D01*
X102073258Y-61313631D01*
X102073258Y-61313630D01*
X103266742Y-61313630D01*
X103360833Y-62043077D01*
X103726909Y-62680992D01*
X104309238Y-63130257D01*
X104377287Y-63148682D01*
X105026993Y-64320781D01*
X105502211Y-64882131D01*
X106156076Y-65218892D01*
X106395640Y-65238798D01*
X106244353Y-65603138D01*
X106243837Y-66194268D01*
X106469576Y-66740598D01*
X106887203Y-67158955D01*
X107433138Y-67385647D01*
X108024268Y-67386163D01*
X108570598Y-67160424D01*
X108988955Y-66742797D01*
X109215647Y-66196862D01*
X109216163Y-65605732D01*
X108990424Y-65059402D01*
X108572797Y-64641045D01*
X108199453Y-64486019D01*
X108487629Y-63926489D01*
X108548534Y-63193525D01*
X108324309Y-62493047D01*
X108014915Y-61934887D01*
X108049802Y-61900000D01*
X110792964Y-61900000D01*
X110860998Y-62064655D01*
X111320387Y-62524846D01*
X111920913Y-62774206D01*
X112571154Y-62774774D01*
X113172115Y-62526462D01*
X113632306Y-62067073D01*
X113881666Y-61466547D01*
X113882234Y-60816306D01*
X113633922Y-60215345D01*
X113174533Y-59755154D01*
X112574007Y-59505794D01*
X111923766Y-59505226D01*
X111322805Y-59753538D01*
X110862614Y-60212927D01*
X110793239Y-60380000D01*
X107735000Y-60380000D01*
X107444160Y-60437852D01*
X107197599Y-60602599D01*
X107187005Y-60613193D01*
X107008197Y-60401975D01*
X106979167Y-60176922D01*
X106613091Y-59539008D01*
X106030762Y-59089743D01*
X105320834Y-58897524D01*
X104591387Y-58991614D01*
X103953472Y-59357691D01*
X103504207Y-59940020D01*
X103311988Y-60649948D01*
X103266742Y-61313630D01*
X102073258Y-61313630D01*
X102028012Y-60649948D01*
X101835793Y-59940020D01*
X101386528Y-59357691D01*
X100748613Y-58991615D01*
X100026529Y-58898474D01*
X100033443Y-58895617D01*
X100296692Y-58632827D01*
X100439338Y-58289299D01*
X100439662Y-57917333D01*
X100297617Y-57573557D01*
X100050707Y-57326215D01*
X100633390Y-57326215D01*
X100710656Y-57574976D01*
X101257131Y-57772340D01*
X101837535Y-57745553D01*
X102249344Y-57574976D01*
X102326610Y-57326215D01*
X101480000Y-56479605D01*
X100633390Y-57326215D01*
X100050707Y-57326215D01*
X100034827Y-57310308D01*
X99691299Y-57167662D01*
X99319333Y-57167338D01*
X98975557Y-57309383D01*
X98942382Y-57342500D01*
X97399963Y-57342500D01*
X97367827Y-57310308D01*
X97024299Y-57167662D01*
X96652333Y-57167338D01*
X96355440Y-57290011D01*
X96355440Y-56077131D01*
X100007660Y-56077131D01*
X100034447Y-56657535D01*
X100205024Y-57069344D01*
X100453785Y-57146610D01*
X101300395Y-56300000D01*
X101659605Y-56300000D01*
X102506215Y-57146610D01*
X102713009Y-57082379D01*
X102731126Y-57126226D01*
X103141613Y-57537430D01*
X103678214Y-57760246D01*
X104259237Y-57760753D01*
X104796226Y-57538874D01*
X105207430Y-57128387D01*
X105430246Y-56591786D01*
X105430695Y-56077131D01*
X112657660Y-56077131D01*
X112684447Y-56657535D01*
X112855024Y-57069344D01*
X113103785Y-57146610D01*
X113950395Y-56300000D01*
X113103785Y-55453390D01*
X112855024Y-55530656D01*
X112657660Y-56077131D01*
X105430695Y-56077131D01*
X105430753Y-56010763D01*
X105403645Y-55945157D01*
X108042901Y-53305901D01*
X108207648Y-53059340D01*
X108265500Y-52768500D01*
X108265500Y-50282963D01*
X108297692Y-50250827D01*
X108440338Y-49907299D01*
X108440662Y-49535333D01*
X108298617Y-49191557D01*
X108035827Y-48928308D01*
X107692299Y-48785662D01*
X107320333Y-48785338D01*
X106976557Y-48927383D01*
X106713308Y-49190173D01*
X106570662Y-49533701D01*
X106570338Y-49905667D01*
X106712383Y-50249443D01*
X106745500Y-50282618D01*
X106745500Y-52453698D01*
X104330791Y-54868407D01*
X104261786Y-54839754D01*
X103680763Y-54839247D01*
X103143774Y-55061126D01*
X102732570Y-55471613D01*
X102713414Y-55517747D01*
X102506215Y-55453390D01*
X101659605Y-56300000D01*
X101300395Y-56300000D01*
X100453785Y-55453390D01*
X100205024Y-55530656D01*
X100007660Y-56077131D01*
X96355440Y-56077131D01*
X96355440Y-55273785D01*
X100633390Y-55273785D01*
X101480000Y-56120395D01*
X102326610Y-55273785D01*
X102249344Y-55025024D01*
X101702869Y-54827660D01*
X101122465Y-54854447D01*
X100710656Y-55025024D01*
X100633390Y-55273785D01*
X96355440Y-55273785D01*
X96355440Y-47736542D01*
X96727203Y-48108955D01*
X97273138Y-48335647D01*
X97864268Y-48336163D01*
X98410598Y-48110424D01*
X98485000Y-48036152D01*
X98485000Y-52783138D01*
X98394808Y-52873173D01*
X98252162Y-53216701D01*
X98251838Y-53588667D01*
X98393883Y-53932443D01*
X98656673Y-54195692D01*
X99000201Y-54338338D01*
X99372167Y-54338662D01*
X99715943Y-54196617D01*
X99979192Y-53933827D01*
X100121838Y-53590299D01*
X100122162Y-53218333D01*
X100005000Y-52934779D01*
X100005000Y-47370627D01*
X100020640Y-47370627D01*
X100420024Y-48337209D01*
X101158901Y-49077377D01*
X102124784Y-49478447D01*
X103170627Y-49479360D01*
X104137209Y-49079976D01*
X104877377Y-48341099D01*
X105278447Y-47375216D01*
X105279360Y-46329373D01*
X104879976Y-45362791D01*
X104141099Y-44622623D01*
X103175216Y-44221553D01*
X102129373Y-44220640D01*
X101162791Y-44620024D01*
X100422623Y-45358901D01*
X100021553Y-46324784D01*
X100020640Y-47370627D01*
X100005000Y-47370627D01*
X100005000Y-45810167D01*
X100461532Y-45271842D01*
X101192862Y-43955197D01*
X101613091Y-43630992D01*
X101979167Y-42993078D01*
X102073258Y-42263631D01*
X102028012Y-41599948D01*
X101835793Y-40890020D01*
X101708481Y-40725000D01*
X103631519Y-40725000D01*
X103504207Y-40890020D01*
X103311988Y-41599948D01*
X103266742Y-42263630D01*
X103360833Y-42993077D01*
X103726909Y-43630992D01*
X104309238Y-44080257D01*
X104377287Y-44098682D01*
X105026993Y-45270781D01*
X105502211Y-45832131D01*
X106156076Y-46168892D01*
X106395640Y-46188798D01*
X106244353Y-46553138D01*
X106243837Y-47144268D01*
X106469576Y-47690598D01*
X106887203Y-48108955D01*
X107433138Y-48335647D01*
X108024268Y-48336163D01*
X108570598Y-48110424D01*
X108988955Y-47692797D01*
X109215647Y-47146862D01*
X109216163Y-46555732D01*
X108990424Y-46009402D01*
X108572797Y-45591045D01*
X108199453Y-45436019D01*
X108487629Y-44876489D01*
X108548534Y-44143525D01*
X108324309Y-43443047D01*
X107463007Y-41889219D01*
X107008197Y-41351975D01*
X106979167Y-41126922D01*
X106748518Y-40725000D01*
X111251306Y-40725000D01*
X110812614Y-41162927D01*
X110563254Y-41763453D01*
X110562686Y-42413694D01*
X110810998Y-43014655D01*
X111270387Y-43474846D01*
X111870913Y-43724206D01*
X112521154Y-43724774D01*
X113122115Y-43476462D01*
X113582306Y-43017073D01*
X113831666Y-42416547D01*
X113832234Y-41766306D01*
X113583922Y-41165345D01*
X113144344Y-40725000D01*
X117641482Y-40725000D01*
X117410833Y-41126923D01*
X117354649Y-41562496D01*
X117078467Y-41888158D01*
X116215812Y-43441234D01*
X115990976Y-44141516D01*
X116051242Y-44874533D01*
X116306742Y-45371683D01*
X115779402Y-45589576D01*
X115361045Y-46007203D01*
X115134353Y-46553138D01*
X115133837Y-47144268D01*
X115359576Y-47690598D01*
X115777203Y-48108955D01*
X116323138Y-48335647D01*
X116914268Y-48336163D01*
X117460598Y-48110424D01*
X117535000Y-48036152D01*
X117535000Y-54033000D01*
X117592852Y-54323839D01*
X117757599Y-54570401D01*
X117860134Y-54672936D01*
X117749490Y-54650530D01*
X116177872Y-54650530D01*
X113844390Y-52317048D01*
X113844390Y-51250510D01*
X113800112Y-51015193D01*
X113661040Y-50799069D01*
X113448840Y-50654079D01*
X113196950Y-50603070D01*
X111197970Y-50603070D01*
X110962653Y-50647348D01*
X110746529Y-50786420D01*
X110601539Y-50998620D01*
X110550530Y-51250510D01*
X110550530Y-53249490D01*
X110594808Y-53484807D01*
X110733880Y-53700931D01*
X110946080Y-53845921D01*
X111197970Y-53896930D01*
X113196950Y-53896930D01*
X113262360Y-53884622D01*
X114211904Y-54834166D01*
X113772465Y-54854447D01*
X113360656Y-55025024D01*
X113283390Y-55273785D01*
X114130000Y-56120395D01*
X114144143Y-56106253D01*
X114323748Y-56285858D01*
X114309605Y-56300000D01*
X114323748Y-56314143D01*
X114144143Y-56493748D01*
X114130000Y-56479605D01*
X113283390Y-57326215D01*
X113360656Y-57574976D01*
X113907131Y-57772340D01*
X114487535Y-57745553D01*
X114899344Y-57574976D01*
X114976609Y-57326217D01*
X115091399Y-57441007D01*
X115124035Y-57408371D01*
X115147348Y-57532267D01*
X115286420Y-57748391D01*
X115498620Y-57893381D01*
X115750510Y-57944390D01*
X117619637Y-57944390D01*
X117619338Y-58287667D01*
X117761383Y-58631443D01*
X118024173Y-58894692D01*
X118367701Y-59037338D01*
X118552193Y-59037499D01*
X118359238Y-59089743D01*
X117776909Y-59539008D01*
X117410833Y-60176923D01*
X117354649Y-60612496D01*
X117078467Y-60938158D01*
X116215812Y-62491234D01*
X115990976Y-63191516D01*
X116051242Y-63924533D01*
X116306742Y-64421683D01*
X115779402Y-64639576D01*
X115361045Y-65057203D01*
X115134353Y-65603138D01*
X115133837Y-66194268D01*
X115359576Y-66740598D01*
X115777203Y-67158955D01*
X116323138Y-67385647D01*
X116914268Y-67386163D01*
X117460598Y-67160424D01*
X117878955Y-66742797D01*
X118105647Y-66196862D01*
X118106163Y-65605732D01*
X117960658Y-65253582D01*
X118381667Y-65218968D01*
X118460000Y-65178710D01*
X118460000Y-78112461D01*
X118359238Y-78139743D01*
X117776909Y-78589008D01*
X117410833Y-79226923D01*
X117354649Y-79662496D01*
X117078467Y-79988158D01*
X116215812Y-81541234D01*
X115990976Y-82241516D01*
X116051242Y-82974533D01*
X116306742Y-83471683D01*
X115779402Y-83689576D01*
X115361045Y-84107203D01*
X115134353Y-84653138D01*
X115133837Y-85244268D01*
X115359576Y-85790598D01*
X115777203Y-86208955D01*
X116323138Y-86435647D01*
X116914268Y-86436163D01*
X117460598Y-86210424D01*
X117878955Y-85792797D01*
X118105647Y-85246862D01*
X118106163Y-84655732D01*
X117960658Y-84303582D01*
X118381667Y-84268968D01*
X118460000Y-84228710D01*
X118460000Y-97162461D01*
X118359238Y-97189743D01*
X117776909Y-97639008D01*
X117410833Y-98276923D01*
X117354649Y-98712496D01*
X117078467Y-99038158D01*
X116215812Y-100591234D01*
X116010000Y-101232263D01*
X116010000Y-96144390D01*
X116249490Y-96144390D01*
X116484807Y-96100112D01*
X116700931Y-95961040D01*
X116845921Y-95748840D01*
X116896930Y-95496950D01*
X116896930Y-93497970D01*
X116852652Y-93262653D01*
X116713580Y-93046529D01*
X116501380Y-92901539D01*
X116249490Y-92850530D01*
X114250510Y-92850530D01*
X114015193Y-92894808D01*
X113799069Y-93033880D01*
X113654079Y-93246080D01*
X113603070Y-93497970D01*
X113603070Y-95496950D01*
X113647348Y-95732267D01*
X113786420Y-95948391D01*
X113998620Y-96093381D01*
X114250510Y-96144390D01*
X114490000Y-96144390D01*
X114490000Y-105782658D01*
X112719588Y-107553070D01*
X111147970Y-107553070D01*
X110912653Y-107597348D01*
X110696529Y-107736420D01*
X110551539Y-107948620D01*
X110500530Y-108200510D01*
X110500530Y-110199490D01*
X110544808Y-110434807D01*
X110683880Y-110650931D01*
X110896080Y-110795921D01*
X111147970Y-110846930D01*
X113146950Y-110846930D01*
X113382267Y-110802652D01*
X113598391Y-110663580D01*
X113743381Y-110451380D01*
X113794390Y-110199490D01*
X113794390Y-108627872D01*
X115787401Y-106634861D01*
X115952148Y-106388299D01*
X116010000Y-106097460D01*
X116010000Y-105355621D01*
X116323138Y-105485647D01*
X116914268Y-105486163D01*
X117460598Y-105260424D01*
X117878955Y-104842797D01*
X118012731Y-104520627D01*
X119070640Y-104520627D01*
X119470024Y-105487209D01*
X120208901Y-106227377D01*
X121174784Y-106628447D01*
X122220627Y-106629360D01*
X123187209Y-106229976D01*
X123927377Y-105491099D01*
X124328447Y-104525216D01*
X124329360Y-103479373D01*
X123929976Y-102512791D01*
X123191099Y-101772623D01*
X122225216Y-101371553D01*
X121179373Y-101370640D01*
X120212791Y-101770024D01*
X119472623Y-102508901D01*
X119071553Y-103474784D01*
X119070640Y-104520627D01*
X118012731Y-104520627D01*
X118105647Y-104296862D01*
X118106163Y-103705732D01*
X117960658Y-103353582D01*
X118381667Y-103318968D01*
X119035825Y-102982777D01*
X119511532Y-102421842D01*
X120242862Y-101105197D01*
X120663091Y-100780992D01*
X121029167Y-100143078D01*
X121123258Y-99413631D01*
X121078012Y-98749948D01*
X120885793Y-98040020D01*
X120436528Y-97457691D01*
X119980000Y-97195706D01*
X119980000Y-86948076D01*
X120208901Y-87177377D01*
X121174784Y-87578447D01*
X122220627Y-87579360D01*
X123187209Y-87179976D01*
X123366988Y-87000510D01*
X129600530Y-87000510D01*
X129600530Y-88999490D01*
X129644808Y-89234807D01*
X129783880Y-89450931D01*
X129996080Y-89595921D01*
X130247970Y-89646930D01*
X132246950Y-89646930D01*
X132482267Y-89602652D01*
X132698391Y-89463580D01*
X132843381Y-89251380D01*
X132894390Y-88999490D01*
X132894390Y-87000510D01*
X132850112Y-86765193D01*
X132711040Y-86549069D01*
X132498840Y-86404079D01*
X132246950Y-86353070D01*
X130247970Y-86353070D01*
X130012653Y-86397348D01*
X129796529Y-86536420D01*
X129651539Y-86748620D01*
X129600530Y-87000510D01*
X123366988Y-87000510D01*
X123927377Y-86441099D01*
X124328447Y-85475216D01*
X124329360Y-84429373D01*
X123929976Y-83462791D01*
X123191099Y-82722623D01*
X122225216Y-82321553D01*
X121179373Y-82320640D01*
X120212791Y-82720024D01*
X119980000Y-82952409D01*
X119980000Y-82528439D01*
X120242862Y-82055197D01*
X120663091Y-81730992D01*
X121029167Y-81093078D01*
X121123258Y-80363631D01*
X121123258Y-80363630D01*
X122316742Y-80363630D01*
X122410833Y-81093077D01*
X122776909Y-81730992D01*
X123359238Y-82180257D01*
X123427287Y-82198682D01*
X124076993Y-83370781D01*
X124552211Y-83932131D01*
X125206076Y-84268892D01*
X125445640Y-84288798D01*
X125294353Y-84653138D01*
X125293837Y-85244268D01*
X125519576Y-85790598D01*
X125937203Y-86208955D01*
X126483138Y-86435647D01*
X127074268Y-86436163D01*
X127620598Y-86210424D01*
X128038955Y-85792797D01*
X128265647Y-85246862D01*
X128266163Y-84655732D01*
X128040424Y-84109402D01*
X127622797Y-83691045D01*
X127249453Y-83536019D01*
X127537629Y-82976489D01*
X127598534Y-82243525D01*
X127374309Y-81543047D01*
X127073831Y-81000971D01*
X129474802Y-78600000D01*
X129792964Y-78600000D01*
X129860998Y-78764655D01*
X130320387Y-79224846D01*
X130920913Y-79474206D01*
X131571154Y-79474774D01*
X132172115Y-79226462D01*
X132632306Y-78767073D01*
X132881666Y-78166547D01*
X132882234Y-77516306D01*
X132633922Y-76915345D01*
X132174533Y-76455154D01*
X131574007Y-76205794D01*
X130923766Y-76205226D01*
X130322805Y-76453538D01*
X129862614Y-76912927D01*
X129793239Y-77080000D01*
X129546480Y-77080000D01*
X129546480Y-76648310D01*
X129387730Y-76489560D01*
X127538480Y-76489560D01*
X127538480Y-77588810D01*
X127697230Y-77747560D01*
X128177638Y-77747560D01*
X126248467Y-79676731D01*
X126058197Y-79451975D01*
X126029167Y-79226922D01*
X125663091Y-78589008D01*
X125080762Y-78139743D01*
X124370834Y-77947524D01*
X123641387Y-78041614D01*
X123003472Y-78407691D01*
X122554207Y-78990020D01*
X122361988Y-79699948D01*
X122316742Y-80363630D01*
X121123258Y-80363630D01*
X121078012Y-79699948D01*
X120885793Y-78990020D01*
X120436528Y-78407691D01*
X119980000Y-78145706D01*
X119980000Y-76648310D01*
X125276480Y-76648310D01*
X125276480Y-77238869D01*
X125373153Y-77472258D01*
X125551781Y-77650887D01*
X125785170Y-77747560D01*
X127125730Y-77747560D01*
X127284480Y-77588810D01*
X127284480Y-76489560D01*
X125435230Y-76489560D01*
X125276480Y-76648310D01*
X119980000Y-76648310D01*
X119980000Y-75486251D01*
X125276480Y-75486251D01*
X125276480Y-76076810D01*
X125435230Y-76235560D01*
X127284480Y-76235560D01*
X127284480Y-75136310D01*
X127538480Y-75136310D01*
X127538480Y-76235560D01*
X129387730Y-76235560D01*
X129546480Y-76076810D01*
X129546480Y-75486251D01*
X129449807Y-75252862D01*
X129271179Y-75074233D01*
X129037790Y-74977560D01*
X127697230Y-74977560D01*
X127538480Y-75136310D01*
X127284480Y-75136310D01*
X127125730Y-74977560D01*
X125785170Y-74977560D01*
X125551781Y-75074233D01*
X125373153Y-75252862D01*
X125276480Y-75486251D01*
X119980000Y-75486251D01*
X119980000Y-67898076D01*
X120208901Y-68127377D01*
X121174784Y-68528447D01*
X122220627Y-68529360D01*
X123187209Y-68129976D01*
X123927377Y-67391099D01*
X124328447Y-66425216D01*
X124329360Y-65379373D01*
X123929976Y-64412791D01*
X123191099Y-63672623D01*
X122225216Y-63271553D01*
X121179373Y-63270640D01*
X120212791Y-63670024D01*
X119980000Y-63902409D01*
X119980000Y-63478439D01*
X120242862Y-63005197D01*
X120663091Y-62680992D01*
X121029167Y-62043078D01*
X121123258Y-61313631D01*
X121078012Y-60649948D01*
X120885793Y-59940020D01*
X120436528Y-59357691D01*
X119798613Y-58991615D01*
X119076529Y-58898474D01*
X119083443Y-58895617D01*
X119116618Y-58862500D01*
X121732198Y-58862500D01*
X122335099Y-59465401D01*
X122581660Y-59630148D01*
X122765119Y-59666640D01*
X122554207Y-59940020D01*
X122361988Y-60649948D01*
X122316742Y-61313630D01*
X122410833Y-62043077D01*
X122776909Y-62680992D01*
X123359238Y-63130257D01*
X123427287Y-63148682D01*
X124076993Y-64320781D01*
X124552211Y-64882131D01*
X125206076Y-65218892D01*
X125445640Y-65238798D01*
X125294353Y-65603138D01*
X125293837Y-66194268D01*
X125519576Y-66740598D01*
X125937203Y-67158955D01*
X126483138Y-67385647D01*
X127074268Y-67386163D01*
X127620598Y-67160424D01*
X128038955Y-66742797D01*
X128265647Y-66196862D01*
X128266163Y-65605732D01*
X128040424Y-65059402D01*
X127622797Y-64641045D01*
X127249453Y-64486019D01*
X127537629Y-63926489D01*
X127598534Y-63193525D01*
X127374309Y-62493047D01*
X126796063Y-61449865D01*
X128907000Y-63560802D01*
X128907000Y-69133280D01*
X125947040Y-69133280D01*
X125711723Y-69177558D01*
X125495599Y-69316630D01*
X125350609Y-69528830D01*
X125299600Y-69780720D01*
X125299600Y-69915500D01*
X124450963Y-69915500D01*
X124418827Y-69883308D01*
X124075299Y-69740662D01*
X123703333Y-69740338D01*
X123359557Y-69882383D01*
X123096308Y-70145173D01*
X122953662Y-70488701D01*
X122953338Y-70860667D01*
X123095383Y-71204443D01*
X123358173Y-71467692D01*
X123701701Y-71610338D01*
X124073667Y-71610662D01*
X124417443Y-71468617D01*
X124450618Y-71435500D01*
X125328724Y-71435500D01*
X125343878Y-71516037D01*
X125482950Y-71732161D01*
X125695150Y-71877151D01*
X125851633Y-71908840D01*
X125653303Y-71946158D01*
X125437179Y-72085230D01*
X125292189Y-72297430D01*
X125241180Y-72549320D01*
X125241180Y-74049320D01*
X125285458Y-74284637D01*
X125424530Y-74500761D01*
X125636730Y-74645751D01*
X125888620Y-74696760D01*
X128888620Y-74696760D01*
X129123937Y-74652482D01*
X129258135Y-74566128D01*
X129480201Y-74658338D01*
X129852167Y-74658662D01*
X130195943Y-74516617D01*
X130364884Y-74347970D01*
X133953070Y-74347970D01*
X133953070Y-76346950D01*
X133997348Y-76582267D01*
X134136420Y-76798391D01*
X134348620Y-76943381D01*
X134600510Y-76994390D01*
X136599490Y-76994390D01*
X136834807Y-76950112D01*
X137050931Y-76811040D01*
X137195921Y-76598840D01*
X137246930Y-76346950D01*
X137246930Y-74347970D01*
X137202652Y-74112653D01*
X137063580Y-73896529D01*
X136851380Y-73751539D01*
X136599490Y-73700530D01*
X134600510Y-73700530D01*
X134365193Y-73744808D01*
X134149069Y-73883880D01*
X134004079Y-74096080D01*
X133953070Y-74347970D01*
X130364884Y-74347970D01*
X130459192Y-74253827D01*
X130601838Y-73910299D01*
X130602162Y-73538333D01*
X130461098Y-73196930D01*
X132296950Y-73196930D01*
X132532267Y-73152652D01*
X132748391Y-73013580D01*
X132893381Y-72801380D01*
X132944390Y-72549490D01*
X132944390Y-70550510D01*
X132900112Y-70315193D01*
X132761040Y-70099069D01*
X132548840Y-69954079D01*
X132296950Y-69903070D01*
X130427000Y-69903070D01*
X130427000Y-64428061D01*
X130923453Y-64634206D01*
X131573694Y-64634774D01*
X132174655Y-64386462D01*
X132634846Y-63927073D01*
X132884206Y-63326547D01*
X132884774Y-62676306D01*
X132647062Y-62101000D01*
X134493000Y-62101000D01*
X134783839Y-62043148D01*
X135030401Y-61878401D01*
X136420693Y-60488109D01*
X136404649Y-60612496D01*
X136128467Y-60938158D01*
X135265812Y-62491234D01*
X135040976Y-63191516D01*
X135101242Y-63924533D01*
X135356742Y-64421683D01*
X134829402Y-64639576D01*
X134411045Y-65057203D01*
X134184353Y-65603138D01*
X134183837Y-66194268D01*
X134409576Y-66740598D01*
X134827203Y-67158955D01*
X135373138Y-67385647D01*
X135964268Y-67386163D01*
X136510598Y-67160424D01*
X136928955Y-66742797D01*
X137155647Y-66196862D01*
X137156163Y-65605732D01*
X137010658Y-65253582D01*
X137431667Y-65218968D01*
X137510000Y-65178710D01*
X137510000Y-78112461D01*
X137409238Y-78139743D01*
X136826909Y-78589008D01*
X136460833Y-79226923D01*
X136404649Y-79662496D01*
X136128467Y-79988158D01*
X135265812Y-81541234D01*
X135040976Y-82241516D01*
X135101242Y-82974533D01*
X135356742Y-83471683D01*
X134829402Y-83689576D01*
X134411045Y-84107203D01*
X134184353Y-84653138D01*
X134183837Y-85244268D01*
X134409576Y-85790598D01*
X134827203Y-86208955D01*
X135373138Y-86435647D01*
X135964268Y-86436163D01*
X136510598Y-86210424D01*
X136928955Y-85792797D01*
X137155647Y-85246862D01*
X137156163Y-84655732D01*
X137010658Y-84303582D01*
X137431667Y-84268968D01*
X137510000Y-84228710D01*
X137510000Y-89270000D01*
X137567852Y-89560839D01*
X137732599Y-89807401D01*
X138490000Y-90564802D01*
X138490000Y-93087587D01*
X138463580Y-93046529D01*
X138251380Y-92901539D01*
X137999490Y-92850530D01*
X136000510Y-92850530D01*
X135765193Y-92894808D01*
X135698815Y-92937521D01*
X135281653Y-91927913D01*
X133978945Y-90622929D01*
X132276003Y-89915806D01*
X130432086Y-89914197D01*
X128727913Y-90618347D01*
X127422929Y-91921055D01*
X126754512Y-93530782D01*
X126337073Y-93112614D01*
X125736547Y-92863254D01*
X125086306Y-92862686D01*
X124485345Y-93110998D01*
X124025154Y-93570387D01*
X123775794Y-94170913D01*
X123775226Y-94821154D01*
X124023538Y-95422115D01*
X124482927Y-95882306D01*
X124650000Y-95951681D01*
X124650000Y-96410000D01*
X124707852Y-96700839D01*
X124872599Y-96947401D01*
X125230340Y-97305142D01*
X125080762Y-97189743D01*
X124370834Y-96997524D01*
X123641387Y-97091614D01*
X123003472Y-97457691D01*
X122554207Y-98040020D01*
X122361988Y-98749948D01*
X122316742Y-99413630D01*
X122410833Y-100143077D01*
X122776909Y-100780992D01*
X123359238Y-101230257D01*
X123427287Y-101248682D01*
X124076993Y-102420781D01*
X124552211Y-102982131D01*
X125206076Y-103318892D01*
X125445640Y-103338798D01*
X125294353Y-103703138D01*
X125293837Y-104294268D01*
X125519576Y-104840598D01*
X125937203Y-105258955D01*
X126483138Y-105485647D01*
X127074268Y-105486163D01*
X127620598Y-105260424D01*
X128038955Y-104842797D01*
X128265647Y-104296862D01*
X128266163Y-103705732D01*
X128040424Y-103159402D01*
X127622797Y-102741045D01*
X127249453Y-102586019D01*
X127537629Y-102026489D01*
X127598534Y-101293525D01*
X127374309Y-100593047D01*
X126513007Y-99039219D01*
X126058197Y-98501975D01*
X126029167Y-98276922D01*
X125796256Y-97871058D01*
X135212599Y-107287401D01*
X135459160Y-107452148D01*
X135750000Y-107510000D01*
X143250000Y-107510000D01*
X143540839Y-107452148D01*
X143787401Y-107287401D01*
X144537401Y-106537401D01*
X144702148Y-106290840D01*
X144760000Y-106000000D01*
X144760000Y-105031355D01*
X144987203Y-105258955D01*
X145533138Y-105485647D01*
X146124268Y-105486163D01*
X146670598Y-105260424D01*
X147088955Y-104842797D01*
X147315647Y-104296862D01*
X147316163Y-103705732D01*
X147090424Y-103159402D01*
X146672797Y-102741045D01*
X146299453Y-102586019D01*
X146587629Y-102026489D01*
X146648534Y-101293525D01*
X146424309Y-100593047D01*
X145563007Y-99039219D01*
X145108197Y-98501975D01*
X145079167Y-98276922D01*
X144713091Y-97639008D01*
X144130762Y-97189743D01*
X143420834Y-96997524D01*
X142691387Y-97091614D01*
X142053472Y-97457691D01*
X141604207Y-98040020D01*
X141411988Y-98749948D01*
X141366742Y-99413630D01*
X141460833Y-100143077D01*
X141826909Y-100780992D01*
X142409238Y-101230257D01*
X142477287Y-101248682D01*
X143126993Y-102420781D01*
X143240000Y-102554270D01*
X143240000Y-103142096D01*
X142979976Y-102512791D01*
X142241099Y-101772623D01*
X141275216Y-101371553D01*
X140229373Y-101370640D01*
X139262791Y-101770024D01*
X138522623Y-102508901D01*
X138121553Y-103474784D01*
X138120640Y-104520627D01*
X138520024Y-105487209D01*
X139021938Y-105990000D01*
X136064802Y-105990000D01*
X135560613Y-105485811D01*
X135964268Y-105486163D01*
X136510598Y-105260424D01*
X136928955Y-104842797D01*
X137155647Y-104296862D01*
X137156163Y-103705732D01*
X137010658Y-103353582D01*
X137431667Y-103318968D01*
X138085825Y-102982777D01*
X138561532Y-102421842D01*
X139292862Y-101105197D01*
X139713091Y-100780992D01*
X140079167Y-100143078D01*
X140173258Y-99413631D01*
X140128012Y-98749948D01*
X140000357Y-98278477D01*
X140010000Y-98230000D01*
X140010000Y-90250000D01*
X140002756Y-90213580D01*
X139952148Y-89959160D01*
X139787401Y-89712599D01*
X139030000Y-88955198D01*
X139030000Y-86948076D01*
X139258901Y-87177377D01*
X140224784Y-87578447D01*
X141270627Y-87579360D01*
X142237209Y-87179976D01*
X142977377Y-86441099D01*
X143378447Y-85475216D01*
X143379360Y-84429373D01*
X142979976Y-83462791D01*
X142241099Y-82722623D01*
X141275216Y-82321553D01*
X140229373Y-82320640D01*
X139262791Y-82720024D01*
X139030000Y-82952409D01*
X139030000Y-82528439D01*
X139292862Y-82055197D01*
X139713091Y-81730992D01*
X140079167Y-81093078D01*
X140173258Y-80363631D01*
X140128012Y-79699948D01*
X139935793Y-78990020D01*
X139486528Y-78407691D01*
X139030000Y-78145706D01*
X139030000Y-67898076D01*
X139258901Y-68127377D01*
X140224784Y-68528447D01*
X141270627Y-68529360D01*
X142237209Y-68129976D01*
X142977377Y-67391099D01*
X143378447Y-66425216D01*
X143379360Y-65379373D01*
X142979976Y-64412791D01*
X142241099Y-63672623D01*
X141275216Y-63271553D01*
X140229373Y-63270640D01*
X139262791Y-63670024D01*
X139030000Y-63902409D01*
X139030000Y-63478439D01*
X139292862Y-63005197D01*
X139713091Y-62680992D01*
X140079167Y-62043078D01*
X140173258Y-61313631D01*
X140173258Y-61313630D01*
X141366742Y-61313630D01*
X141460833Y-62043077D01*
X141826909Y-62680992D01*
X142409238Y-63130257D01*
X142477287Y-63148682D01*
X143126993Y-64320781D01*
X143585000Y-64861801D01*
X143585000Y-73932460D01*
X143642852Y-74223299D01*
X143807599Y-74469861D01*
X144194115Y-74856377D01*
X144125794Y-75020913D01*
X144125226Y-75671154D01*
X144373538Y-76272115D01*
X144832927Y-76732306D01*
X145433453Y-76981666D01*
X146083694Y-76982234D01*
X146684655Y-76733922D01*
X147144846Y-76274533D01*
X147394206Y-75674007D01*
X147394774Y-75023766D01*
X147146462Y-74422805D01*
X146687073Y-73962614D01*
X146086547Y-73713254D01*
X145436306Y-73712686D01*
X145269111Y-73781769D01*
X145105000Y-73617658D01*
X145105000Y-67207869D01*
X145533138Y-67385647D01*
X146124268Y-67386163D01*
X146670598Y-67160424D01*
X147088955Y-66742797D01*
X147315647Y-66196862D01*
X147316163Y-65605732D01*
X147090424Y-65059402D01*
X146672797Y-64641045D01*
X146299453Y-64486019D01*
X146587629Y-63926489D01*
X146648534Y-63193525D01*
X146424309Y-62493047D01*
X145563007Y-60939219D01*
X145108197Y-60401975D01*
X145079167Y-60176922D01*
X144713091Y-59539008D01*
X144130762Y-59089743D01*
X143420834Y-58897524D01*
X142691387Y-58991614D01*
X142053472Y-59357691D01*
X141604207Y-59940020D01*
X141411988Y-60649948D01*
X141366742Y-61313630D01*
X140173258Y-61313630D01*
X140128012Y-60649948D01*
X140059157Y-60395645D01*
X141487401Y-58967401D01*
X141652148Y-58720840D01*
X141710000Y-58430000D01*
X141710000Y-50450000D01*
X141652148Y-50159161D01*
X141487401Y-49912599D01*
X141053973Y-49479171D01*
X141270627Y-49479360D01*
X142237209Y-49079976D01*
X142977377Y-48341099D01*
X143378447Y-47375216D01*
X143379360Y-46329373D01*
X142979976Y-45362791D01*
X142241099Y-44622623D01*
X141275216Y-44221553D01*
X140229373Y-44220640D01*
X139262791Y-44620024D01*
X138522623Y-45358901D01*
X138121553Y-46324784D01*
X138121359Y-46546557D01*
X138105000Y-46530198D01*
X138105000Y-45810167D01*
X138561532Y-45271842D01*
X139292862Y-43955197D01*
X139713091Y-43630992D01*
X140079167Y-42993078D01*
X140173258Y-42263631D01*
X140173258Y-42263630D01*
X141366742Y-42263630D01*
X141460833Y-42993077D01*
X141826909Y-43630992D01*
X142409238Y-44080257D01*
X142477287Y-44098682D01*
X143126993Y-45270781D01*
X143585000Y-45811801D01*
X143585000Y-54532460D01*
X143642852Y-54823299D01*
X143807599Y-55069861D01*
X144494115Y-55756377D01*
X144425794Y-55920913D01*
X144425226Y-56571154D01*
X144673538Y-57172115D01*
X145132927Y-57632306D01*
X145733453Y-57881666D01*
X146383694Y-57882234D01*
X146984655Y-57633922D01*
X147444846Y-57174533D01*
X147694206Y-56574007D01*
X147694774Y-55923766D01*
X147446462Y-55322805D01*
X146987073Y-54862614D01*
X146386547Y-54613254D01*
X145736306Y-54612686D01*
X145569111Y-54681769D01*
X145105000Y-54217658D01*
X145105000Y-48157869D01*
X145533138Y-48335647D01*
X146124268Y-48336163D01*
X146670598Y-48110424D01*
X147088955Y-47692797D01*
X147315647Y-47146862D01*
X147316163Y-46555732D01*
X147090424Y-46009402D01*
X146672797Y-45591045D01*
X146299453Y-45436019D01*
X146587629Y-44876489D01*
X146648534Y-44143525D01*
X146424309Y-43443047D01*
X145563007Y-41889219D01*
X145108197Y-41351975D01*
X145079167Y-41126922D01*
X144713091Y-40489008D01*
X144130762Y-40039743D01*
X143420834Y-39847524D01*
X142691387Y-39941614D01*
X142053472Y-40307691D01*
X141604207Y-40890020D01*
X141411988Y-41599948D01*
X141366742Y-42263630D01*
X140173258Y-42263630D01*
X140128012Y-41599948D01*
X139935793Y-40890020D01*
X139486528Y-40307691D01*
X138848613Y-39941615D01*
X138119166Y-39847524D01*
X137409238Y-40039743D01*
X136826909Y-40489008D01*
X136460833Y-41126923D01*
X136404649Y-41562496D01*
X136128467Y-41888158D01*
X135265812Y-43441234D01*
X135040976Y-44141516D01*
X135101242Y-44874533D01*
X135437433Y-45528691D01*
X135998368Y-46004398D01*
X136585000Y-46192745D01*
X136585000Y-46845000D01*
X136642852Y-47135839D01*
X136807599Y-47382401D01*
X137139012Y-47713814D01*
X137125729Y-47714479D01*
X137114250Y-47703000D01*
X136511690Y-47703000D01*
X136463780Y-47722845D01*
X136463780Y-46702980D01*
X136419502Y-46467663D01*
X136280430Y-46251539D01*
X136068230Y-46106549D01*
X135816340Y-46055540D01*
X133586640Y-46055540D01*
X133586662Y-46030133D01*
X133444617Y-45686357D01*
X133181827Y-45423108D01*
X132838299Y-45280462D01*
X132697514Y-45280339D01*
X132852733Y-44906530D01*
X132853265Y-44295869D01*
X132620068Y-43731489D01*
X132188643Y-43299309D01*
X131624670Y-43065127D01*
X131014009Y-43064595D01*
X130449629Y-43297792D01*
X130017449Y-43729217D01*
X129783267Y-44293190D01*
X129782735Y-44903851D01*
X130005341Y-45442600D01*
X129936249Y-45442600D01*
X129922182Y-45367843D01*
X129783110Y-45151719D01*
X129570910Y-45006729D01*
X129319020Y-44955720D01*
X127496822Y-44955720D01*
X127537629Y-44876489D01*
X127598534Y-44143525D01*
X127376208Y-43448980D01*
X129319020Y-43448980D01*
X129554337Y-43404702D01*
X129770461Y-43265630D01*
X129915451Y-43053430D01*
X129933946Y-42962100D01*
X132000181Y-42962100D01*
X132057673Y-43019692D01*
X132401201Y-43162338D01*
X132773167Y-43162662D01*
X133116943Y-43020617D01*
X133380192Y-42757827D01*
X133522838Y-42414299D01*
X133523162Y-42042333D01*
X133381117Y-41698557D01*
X133118327Y-41435308D01*
X132774799Y-41292662D01*
X132402833Y-41292338D01*
X132059057Y-41434383D01*
X132051327Y-41442100D01*
X129936249Y-41442100D01*
X129922182Y-41367343D01*
X129783110Y-41151219D01*
X129570910Y-41006229D01*
X129319020Y-40955220D01*
X127501022Y-40955220D01*
X126995042Y-40449240D01*
X129319020Y-40449240D01*
X129554337Y-40404962D01*
X129770461Y-40265890D01*
X129915451Y-40053690D01*
X129915996Y-40050996D01*
X130106167Y-40051162D01*
X130142915Y-40035978D01*
X130178701Y-40050838D01*
X130550667Y-40051162D01*
X130894443Y-39909117D01*
X131157692Y-39646327D01*
X131300338Y-39302799D01*
X131300485Y-39134603D01*
X131624531Y-39134885D01*
X132188911Y-38901688D01*
X132621091Y-38470263D01*
X132855273Y-37906290D01*
X132855805Y-37295629D01*
X132622608Y-36731249D01*
X132191183Y-36299069D01*
X131627210Y-36064887D01*
X131016549Y-36064355D01*
X130452169Y-36297552D01*
X130019989Y-36728977D01*
X129785807Y-37292950D01*
X129785275Y-37903611D01*
X129899882Y-38180981D01*
X129802039Y-38180896D01*
X129783110Y-38151479D01*
X129570910Y-38006489D01*
X129319020Y-37955480D01*
X126819660Y-37955480D01*
X126584343Y-37999758D01*
X126368219Y-38138830D01*
X126223229Y-38351030D01*
X126172220Y-38602920D01*
X126172220Y-39626418D01*
X125973401Y-39427599D01*
X125726839Y-39262852D01*
X125436000Y-39205000D01*
X121525136Y-39205000D01*
X121771705Y-39155954D01*
X122002046Y-39002046D01*
X126044092Y-34960000D01*
X137705908Y-34960000D01*
X142247954Y-39502046D01*
X142247954Y-39502046D01*
G37*
X142247954Y-39502046D02*
X142478295Y-39655954D01*
X142750000Y-39710000D01*
X148290000Y-39710000D01*
X148290000Y-93315895D01*
X148087073Y-93112614D01*
X147486547Y-92863254D01*
X146836306Y-92862686D01*
X146235345Y-93110998D01*
X146191805Y-93154463D01*
X145105000Y-92067658D01*
X145105000Y-86257869D01*
X145533138Y-86435647D01*
X146124268Y-86436163D01*
X146670598Y-86210424D01*
X147088955Y-85792797D01*
X147315647Y-85246862D01*
X147316163Y-84655732D01*
X147090424Y-84109402D01*
X146672797Y-83691045D01*
X146299453Y-83536019D01*
X146587629Y-82976489D01*
X146648534Y-82243525D01*
X146424309Y-81543047D01*
X145563007Y-79989219D01*
X145108197Y-79451975D01*
X145079167Y-79226922D01*
X144713091Y-78589008D01*
X144130762Y-78139743D01*
X143420834Y-77947524D01*
X142691387Y-78041614D01*
X142053472Y-78407691D01*
X141604207Y-78990020D01*
X141411988Y-79699948D01*
X141366742Y-80363630D01*
X141460833Y-81093077D01*
X141826909Y-81730992D01*
X142409238Y-82180257D01*
X142477287Y-82198682D01*
X143126993Y-83370781D01*
X143585000Y-83911801D01*
X143585000Y-92382460D01*
X143642852Y-92673299D01*
X143807599Y-92919861D01*
X145525386Y-94637648D01*
X145525226Y-94821154D01*
X145773538Y-95422115D01*
X146232927Y-95882306D01*
X146833453Y-96131666D01*
X147483694Y-96132234D01*
X148084655Y-95883922D01*
X148290000Y-95678935D01*
X148290000Y-111290000D01*
X132894390Y-111290000D01*
X132894390Y-109500510D01*
X132850112Y-109265193D01*
X132711040Y-109049069D01*
X132498840Y-108904079D01*
X132246950Y-108853070D01*
X130247970Y-108853070D01*
X130012653Y-108897348D01*
X129796529Y-109036420D01*
X129651539Y-109248620D01*
X129600530Y-109500510D01*
X129600530Y-111290000D01*
X56636187Y-111290000D01*
X56644390Y-111249490D01*
X56644390Y-109250510D01*
X56600112Y-109015193D01*
X56461040Y-108799069D01*
X56248840Y-108654079D01*
X55996950Y-108603070D01*
X55757460Y-108603070D01*
X55757460Y-108400510D01*
X72450530Y-108400510D01*
X72450530Y-110399490D01*
X72494808Y-110634807D01*
X72633880Y-110850931D01*
X72846080Y-110995921D01*
X73097970Y-111046930D01*
X75096950Y-111046930D01*
X75332267Y-111002652D01*
X75548391Y-110863580D01*
X75693381Y-110651380D01*
X75744390Y-110399490D01*
X75744390Y-108400510D01*
X75700112Y-108165193D01*
X75658490Y-108100510D01*
X91500530Y-108100510D01*
X91500530Y-110099490D01*
X91544808Y-110334807D01*
X91683880Y-110550931D01*
X91896080Y-110695921D01*
X92147970Y-110746930D01*
X94146950Y-110746930D01*
X94382267Y-110702652D01*
X94598391Y-110563580D01*
X94743381Y-110351380D01*
X94794390Y-110099490D01*
X94794390Y-108100510D01*
X94750112Y-107865193D01*
X94611040Y-107649069D01*
X94398840Y-107504079D01*
X94146950Y-107453070D01*
X92147970Y-107453070D01*
X91912653Y-107497348D01*
X91696529Y-107636420D01*
X91551539Y-107848620D01*
X91500530Y-108100510D01*
X75658490Y-108100510D01*
X75561040Y-107949069D01*
X75348840Y-107804079D01*
X75096950Y-107753070D01*
X73097970Y-107753070D01*
X72862653Y-107797348D01*
X72646529Y-107936420D01*
X72501539Y-108148620D01*
X72450530Y-108400510D01*
X55757460Y-108400510D01*
X55757460Y-103067342D01*
X60037401Y-98787401D01*
X60202148Y-98540839D01*
X60260000Y-98250000D01*
X60260000Y-89250000D01*
X60202148Y-88959161D01*
X60202148Y-88959160D01*
X60037401Y-88712599D01*
X57402000Y-86077198D01*
X57402000Y-82420302D01*
X58512901Y-81309401D01*
X58677648Y-81062839D01*
X58735500Y-80772000D01*
X58735500Y-77094390D01*
X60699490Y-77094390D01*
X60934807Y-77050112D01*
X61150931Y-76911040D01*
X61295921Y-76698840D01*
X61310000Y-76629316D01*
X61310000Y-78112461D01*
X61209238Y-78139743D01*
X60626909Y-78589008D01*
X60260833Y-79226923D01*
X60204649Y-79662496D01*
X59928467Y-79988158D01*
X59065812Y-81541234D01*
X58840976Y-82241516D01*
X58901242Y-82974533D01*
X59156742Y-83471683D01*
X58629402Y-83689576D01*
X58211045Y-84107203D01*
X57984353Y-84653138D01*
X57983837Y-85244268D01*
X58209576Y-85790598D01*
X58627203Y-86208955D01*
X59173138Y-86435647D01*
X59764268Y-86436163D01*
X60310598Y-86210424D01*
X60728955Y-85792797D01*
X60955647Y-85246862D01*
X60956163Y-84655732D01*
X60810658Y-84303582D01*
X61231667Y-84268968D01*
X61310000Y-84228710D01*
X61310000Y-97162461D01*
X61209238Y-97189743D01*
X60626909Y-97639008D01*
X60260833Y-98276923D01*
X60204649Y-98712496D01*
X59928467Y-99038158D01*
X59065812Y-100591234D01*
X58840976Y-101291516D01*
X58901242Y-102024533D01*
X59156742Y-102521683D01*
X58629402Y-102739576D01*
X58211045Y-103157203D01*
X57984353Y-103703138D01*
X57983837Y-104294268D01*
X58209576Y-104840598D01*
X58627203Y-105258955D01*
X59173138Y-105485647D01*
X59764268Y-105486163D01*
X60310598Y-105260424D01*
X60728955Y-104842797D01*
X60862731Y-104520627D01*
X61920640Y-104520627D01*
X62320024Y-105487209D01*
X63058901Y-106227377D01*
X64024784Y-106628447D01*
X65070627Y-106629360D01*
X66037209Y-106229976D01*
X66777377Y-105491099D01*
X67178447Y-104525216D01*
X67179360Y-103479373D01*
X66779976Y-102512791D01*
X66041099Y-101772623D01*
X65075216Y-101371553D01*
X64029373Y-101370640D01*
X63062791Y-101770024D01*
X62322623Y-102508901D01*
X61921553Y-103474784D01*
X61920640Y-104520627D01*
X60862731Y-104520627D01*
X60955647Y-104296862D01*
X60956163Y-103705732D01*
X60810658Y-103353582D01*
X61231667Y-103318968D01*
X61885825Y-102982777D01*
X62361532Y-102421842D01*
X63092862Y-101105197D01*
X63513091Y-100780992D01*
X63879167Y-100143078D01*
X63973258Y-99413631D01*
X63973258Y-99413630D01*
X65166742Y-99413630D01*
X65260833Y-100143077D01*
X65626909Y-100780992D01*
X66209238Y-101230257D01*
X66277287Y-101248682D01*
X66926993Y-102420781D01*
X67402211Y-102982131D01*
X68056076Y-103318892D01*
X68295640Y-103338798D01*
X68144353Y-103703138D01*
X68143837Y-104294268D01*
X68369576Y-104840598D01*
X68787203Y-105258955D01*
X69333138Y-105485647D01*
X69924268Y-105486163D01*
X70470598Y-105260424D01*
X70888955Y-104842797D01*
X71115647Y-104296862D01*
X71116163Y-103705732D01*
X70890424Y-103159402D01*
X70472797Y-102741045D01*
X70099453Y-102586019D01*
X70387629Y-102026489D01*
X70432208Y-101490000D01*
X72607460Y-101490000D01*
X72898299Y-101432148D01*
X73144861Y-101267401D01*
X73606377Y-100805885D01*
X73770913Y-100874206D01*
X74421154Y-100874774D01*
X75022115Y-100626462D01*
X75482306Y-100167073D01*
X75731666Y-99566547D01*
X75732234Y-98916306D01*
X75483922Y-98315345D01*
X75024533Y-97855154D01*
X74424007Y-97605794D01*
X73773766Y-97605226D01*
X73172805Y-97853538D01*
X72712614Y-98312927D01*
X72463254Y-98913453D01*
X72462686Y-99563694D01*
X72531769Y-99730889D01*
X72292658Y-99970000D01*
X69878948Y-99970000D01*
X69363007Y-99039219D01*
X68908197Y-98501975D01*
X68879167Y-98276922D01*
X68513091Y-97639008D01*
X67930762Y-97189743D01*
X67220834Y-96997524D01*
X66491387Y-97091614D01*
X65853472Y-97457691D01*
X65404207Y-98040020D01*
X65211988Y-98749948D01*
X65166742Y-99413630D01*
X63973258Y-99413630D01*
X63928012Y-98749948D01*
X63735793Y-98040020D01*
X63286528Y-97457691D01*
X62830000Y-97195706D01*
X62830000Y-88950510D01*
X72400530Y-88950510D01*
X72400530Y-90949490D01*
X72444808Y-91184807D01*
X72583880Y-91400931D01*
X72796080Y-91545921D01*
X73047970Y-91596930D01*
X75046950Y-91596930D01*
X75282267Y-91552652D01*
X75498391Y-91413580D01*
X75643381Y-91201380D01*
X75694390Y-90949490D01*
X75694390Y-88950510D01*
X75650112Y-88715193D01*
X75511040Y-88499069D01*
X75298840Y-88354079D01*
X75046950Y-88303070D01*
X73047970Y-88303070D01*
X72812653Y-88347348D01*
X72596529Y-88486420D01*
X72451539Y-88698620D01*
X72400530Y-88950510D01*
X62830000Y-88950510D01*
X62830000Y-86948076D01*
X63058901Y-87177377D01*
X64024784Y-87578447D01*
X65070627Y-87579360D01*
X66037209Y-87179976D01*
X66777377Y-86441099D01*
X67178447Y-85475216D01*
X67179360Y-84429373D01*
X66779976Y-83462791D01*
X66041099Y-82722623D01*
X65075216Y-82321553D01*
X64029373Y-82320640D01*
X63062791Y-82720024D01*
X62830000Y-82952409D01*
X62830000Y-82528439D01*
X63092862Y-82055197D01*
X63513091Y-81730992D01*
X63879167Y-81093078D01*
X63973258Y-80363631D01*
X63973258Y-80363630D01*
X65166742Y-80363630D01*
X65260833Y-81093077D01*
X65626909Y-81730992D01*
X66209238Y-82180257D01*
X66277287Y-82198682D01*
X66926993Y-83370781D01*
X67402211Y-83932131D01*
X68056076Y-84268892D01*
X68295640Y-84288798D01*
X68144353Y-84653138D01*
X68143837Y-85244268D01*
X68369576Y-85790598D01*
X68787203Y-86208955D01*
X69333138Y-86435647D01*
X69924268Y-86436163D01*
X70470598Y-86210424D01*
X70888955Y-85792797D01*
X71115647Y-85246862D01*
X71116163Y-84655732D01*
X70890424Y-84109402D01*
X70472797Y-83691045D01*
X70099453Y-83536019D01*
X70387629Y-82976489D01*
X70432208Y-82440000D01*
X72157460Y-82440000D01*
X72448299Y-82382148D01*
X72694861Y-82217401D01*
X73556377Y-81355885D01*
X73720913Y-81424206D01*
X74371154Y-81424774D01*
X74972115Y-81176462D01*
X75432306Y-80717073D01*
X75681666Y-80116547D01*
X75682234Y-79466306D01*
X75433922Y-78865345D01*
X74974533Y-78405154D01*
X74374007Y-78155794D01*
X73723766Y-78155226D01*
X73122805Y-78403538D01*
X72662614Y-78862927D01*
X72413254Y-79463453D01*
X72412686Y-80113694D01*
X72481769Y-80280889D01*
X71842658Y-80920000D01*
X69878948Y-80920000D01*
X69363007Y-79989219D01*
X68908197Y-79451975D01*
X68879167Y-79226922D01*
X68513091Y-78589008D01*
X67930762Y-78139743D01*
X67220834Y-77947524D01*
X66491387Y-78041614D01*
X65853472Y-78407691D01*
X65404207Y-78990020D01*
X65211988Y-79699948D01*
X65166742Y-80363630D01*
X63973258Y-80363630D01*
X63928012Y-79699948D01*
X63735793Y-78990020D01*
X63286528Y-78407691D01*
X62830000Y-78145706D01*
X62830000Y-74549478D01*
X62910838Y-74354799D01*
X62911162Y-73982833D01*
X62769117Y-73639057D01*
X62506327Y-73375808D01*
X62162799Y-73233162D01*
X61790833Y-73232838D01*
X61447057Y-73374883D01*
X61183808Y-73637673D01*
X61063260Y-73927983D01*
X60951380Y-73851539D01*
X60699490Y-73800530D01*
X58782861Y-73800530D01*
X58768617Y-73766057D01*
X58505827Y-73502808D01*
X58162299Y-73360162D01*
X57790333Y-73359838D01*
X57566294Y-73452409D01*
X57489827Y-73375808D01*
X57146299Y-73233162D01*
X56774333Y-73232838D01*
X56430557Y-73374883D01*
X56167308Y-73637673D01*
X56024662Y-73981201D01*
X56024338Y-74353167D01*
X56166383Y-74696943D01*
X56240000Y-74770689D01*
X56240000Y-77521172D01*
X55924533Y-77205154D01*
X55324007Y-76955794D01*
X54673766Y-76955226D01*
X54072805Y-77203538D01*
X53612614Y-77662927D01*
X53363254Y-78263453D01*
X53362686Y-78913694D01*
X53431769Y-79080889D01*
X51542658Y-80970000D01*
X50828948Y-80970000D01*
X50313007Y-80039219D01*
X49858197Y-79501975D01*
X49829167Y-79276922D01*
X49463091Y-78639008D01*
X48880762Y-78189743D01*
X48170834Y-77997524D01*
X47441387Y-78091614D01*
X46803472Y-78457691D01*
X46354207Y-79040020D01*
X46161988Y-79749948D01*
X46116742Y-80413630D01*
X46210833Y-81143077D01*
X46576909Y-81780992D01*
X47159238Y-82230257D01*
X47227287Y-82248682D01*
X47876993Y-83420781D01*
X48352211Y-83982131D01*
X49006076Y-84318892D01*
X49245640Y-84338798D01*
X49094353Y-84703138D01*
X49093837Y-85294268D01*
X49319576Y-85840598D01*
X49737203Y-86258955D01*
X50283138Y-86485647D01*
X50874268Y-86486163D01*
X51420598Y-86260424D01*
X51838955Y-85842797D01*
X52065647Y-85296862D01*
X52066163Y-84705732D01*
X51840424Y-84159402D01*
X51422797Y-83741045D01*
X51049453Y-83586019D01*
X51337629Y-83026489D01*
X51382208Y-82490000D01*
X51857460Y-82490000D01*
X52148299Y-82432148D01*
X52394861Y-82267401D01*
X54506377Y-80155885D01*
X54670913Y-80224206D01*
X55321154Y-80224774D01*
X55922115Y-79976462D01*
X56240000Y-79659131D01*
X56240000Y-79935198D01*
X54460059Y-81715139D01*
X54295312Y-81961701D01*
X54237460Y-82252540D01*
X54237460Y-87103070D01*
X53997970Y-87103070D01*
X53762653Y-87147348D01*
X53546529Y-87286420D01*
X53401539Y-87498620D01*
X53350530Y-87750510D01*
X53350530Y-89749490D01*
X53394808Y-89984807D01*
X53477852Y-90113861D01*
X52377913Y-90568347D01*
X51072929Y-91871055D01*
X50365806Y-93573997D01*
X50364197Y-95417914D01*
X51068347Y-97122087D01*
X52371055Y-98427071D01*
X53768480Y-99007332D01*
X53612614Y-99162927D01*
X53363254Y-99763453D01*
X53362943Y-100120000D01*
X50828948Y-100120000D01*
X50313007Y-99189219D01*
X49858197Y-98651975D01*
X49829167Y-98426922D01*
X49463091Y-97789008D01*
X48880762Y-97339743D01*
X48170834Y-97147524D01*
X47441387Y-97241614D01*
X46803472Y-97607691D01*
X46354207Y-98190020D01*
X46161988Y-98899948D01*
X46116742Y-99563630D01*
X46210833Y-100293077D01*
X46576909Y-100930992D01*
X47159238Y-101380257D01*
X47227287Y-101398682D01*
X47876993Y-102570781D01*
X48352211Y-103132131D01*
X49006076Y-103468892D01*
X49245640Y-103488798D01*
X49094353Y-103853138D01*
X49093837Y-104444268D01*
X49319576Y-104990598D01*
X49737203Y-105408955D01*
X50283138Y-105635647D01*
X50874268Y-105636163D01*
X51420598Y-105410424D01*
X51838955Y-104992797D01*
X52065647Y-104446862D01*
X52066163Y-103855732D01*
X51840424Y-103309402D01*
X51422797Y-102891045D01*
X51049453Y-102736019D01*
X51337629Y-102176489D01*
X51382208Y-101640000D01*
X54207460Y-101640000D01*
X54383698Y-101604944D01*
X54670913Y-101724206D01*
X54950748Y-101724450D01*
X54460059Y-102215139D01*
X54295312Y-102461701D01*
X54237460Y-102752540D01*
X54237460Y-108603070D01*
X53997970Y-108603070D01*
X53762653Y-108647348D01*
X53546529Y-108786420D01*
X53401539Y-108998620D01*
X53350530Y-109250510D01*
X53350530Y-111249490D01*
X53358152Y-111290000D01*
X37710000Y-111290000D01*
X37710000Y-75726234D01*
X38255226Y-75726234D01*
X38503538Y-76327195D01*
X38962927Y-76787386D01*
X39563453Y-77036746D01*
X40213694Y-77037314D01*
X40814655Y-76789002D01*
X41274846Y-76329613D01*
X41524206Y-75729087D01*
X41524774Y-75078846D01*
X41276462Y-74477885D01*
X40817073Y-74017694D01*
X40216547Y-73768334D01*
X39566306Y-73767766D01*
X38965345Y-74016078D01*
X38505154Y-74475467D01*
X38255794Y-75075993D01*
X38255226Y-75726234D01*
X37710000Y-75726234D01*
X37710000Y-39710000D01*
X40715198Y-39710000D01*
X38212599Y-42212599D01*
X38047852Y-42459161D01*
X37990000Y-42750000D01*
X37990000Y-54312540D01*
X38047852Y-54603379D01*
X38212599Y-54849941D01*
X39224115Y-55861457D01*
X39155794Y-56025993D01*
X39155226Y-56676234D01*
X39403538Y-57277195D01*
X39862927Y-57737386D01*
X40463453Y-57986746D01*
X41113694Y-57987314D01*
X41714655Y-57739002D01*
X42174846Y-57279613D01*
X42310000Y-56954126D01*
X42310000Y-59112461D01*
X42209238Y-59139743D01*
X41626909Y-59589008D01*
X41260833Y-60226923D01*
X41204649Y-60662496D01*
X40928467Y-60988158D01*
X40065812Y-62541234D01*
X39840976Y-63241516D01*
X39901242Y-63974533D01*
X40156742Y-64471683D01*
X39629402Y-64689576D01*
X39211045Y-65107203D01*
X38984353Y-65653138D01*
X38983837Y-66244268D01*
X39209576Y-66790598D01*
X39627203Y-67208955D01*
X40173138Y-67435647D01*
X40764268Y-67436163D01*
X41310598Y-67210424D01*
X41728955Y-66792797D01*
X41955647Y-66246862D01*
X41956163Y-65655732D01*
X41810658Y-65303582D01*
X42231667Y-65268968D01*
X42260000Y-65254407D01*
X42260000Y-78162461D01*
X42159238Y-78189743D01*
X41576909Y-78639008D01*
X41210833Y-79276923D01*
X41154649Y-79712496D01*
X40878467Y-80038158D01*
X40015812Y-81591234D01*
X39790976Y-82291516D01*
X39851242Y-83024533D01*
X40106742Y-83521683D01*
X39579402Y-83739576D01*
X39161045Y-84157203D01*
X38934353Y-84703138D01*
X38933837Y-85294268D01*
X39159576Y-85840598D01*
X39577203Y-86258955D01*
X40123138Y-86485647D01*
X40714268Y-86486163D01*
X41260598Y-86260424D01*
X41678955Y-85842797D01*
X41905647Y-85296862D01*
X41906163Y-84705732D01*
X41760658Y-84353582D01*
X42181667Y-84318968D01*
X42260000Y-84278710D01*
X42260000Y-97312461D01*
X42159238Y-97339743D01*
X41576909Y-97789008D01*
X41210833Y-98426923D01*
X41154649Y-98862496D01*
X40878467Y-99188158D01*
X40015812Y-100741234D01*
X39790976Y-101441516D01*
X39851242Y-102174533D01*
X40106742Y-102671683D01*
X39579402Y-102889576D01*
X39161045Y-103307203D01*
X38934353Y-103853138D01*
X38933837Y-104444268D01*
X39159576Y-104990598D01*
X39577203Y-105408955D01*
X40123138Y-105635647D01*
X40714268Y-105636163D01*
X41260598Y-105410424D01*
X41678955Y-104992797D01*
X41812731Y-104670627D01*
X42870640Y-104670627D01*
X43270024Y-105637209D01*
X44008901Y-106377377D01*
X44974784Y-106778447D01*
X46020627Y-106779360D01*
X46987209Y-106379976D01*
X47727377Y-105641099D01*
X48128447Y-104675216D01*
X48129360Y-103629373D01*
X47729976Y-102662791D01*
X46991099Y-101922623D01*
X46025216Y-101521553D01*
X44979373Y-101520640D01*
X44012791Y-101920024D01*
X43272623Y-102658901D01*
X42871553Y-103624784D01*
X42870640Y-104670627D01*
X41812731Y-104670627D01*
X41905647Y-104446862D01*
X41906163Y-103855732D01*
X41760658Y-103503582D01*
X42181667Y-103468968D01*
X42835825Y-103132777D01*
X43311532Y-102571842D01*
X44042862Y-101255197D01*
X44463091Y-100930992D01*
X44829167Y-100293078D01*
X44923258Y-99563631D01*
X44878012Y-98899948D01*
X44685793Y-98190020D01*
X44236528Y-97607691D01*
X43780000Y-97345706D01*
X43780000Y-86998076D01*
X44008901Y-87227377D01*
X44974784Y-87628447D01*
X46020627Y-87629360D01*
X46987209Y-87229976D01*
X47727377Y-86491099D01*
X48128447Y-85525216D01*
X48129360Y-84479373D01*
X47729976Y-83512791D01*
X46991099Y-82772623D01*
X46025216Y-82371553D01*
X44979373Y-82370640D01*
X44012791Y-82770024D01*
X43780000Y-83002409D01*
X43780000Y-82578439D01*
X44042862Y-82105197D01*
X44463091Y-81780992D01*
X44829167Y-81143078D01*
X44923258Y-80413631D01*
X44878012Y-79749948D01*
X44685793Y-79040020D01*
X44236528Y-78457691D01*
X43780000Y-78195706D01*
X43780000Y-74403050D01*
X48403070Y-74403050D01*
X48403070Y-76402030D01*
X48447348Y-76637347D01*
X48586420Y-76853471D01*
X48798620Y-76998461D01*
X49050510Y-77049470D01*
X51049490Y-77049470D01*
X51284807Y-77005192D01*
X51500931Y-76866120D01*
X51645921Y-76653920D01*
X51696930Y-76402030D01*
X51696930Y-74403050D01*
X51652652Y-74167733D01*
X51513580Y-73951609D01*
X51301380Y-73806619D01*
X51049490Y-73755610D01*
X49050510Y-73755610D01*
X48815193Y-73799888D01*
X48599069Y-73938960D01*
X48454079Y-74151160D01*
X48403070Y-74403050D01*
X43780000Y-74403050D01*
X43780000Y-67897989D01*
X44058901Y-68177377D01*
X45024784Y-68578447D01*
X46070627Y-68579360D01*
X47037209Y-68179976D01*
X47777377Y-67441099D01*
X48178447Y-66475216D01*
X48179360Y-65429373D01*
X47779976Y-64462791D01*
X47041099Y-63722623D01*
X46075216Y-63321553D01*
X45029373Y-63320640D01*
X44062791Y-63720024D01*
X43780000Y-64002322D01*
X43780000Y-63618456D01*
X44092862Y-63055197D01*
X44513091Y-62730992D01*
X44879167Y-62093078D01*
X44973258Y-61363631D01*
X44973258Y-61363630D01*
X46166742Y-61363630D01*
X46260833Y-62093077D01*
X46626909Y-62730992D01*
X47209238Y-63180257D01*
X47277287Y-63198682D01*
X47926993Y-64370781D01*
X48402211Y-64932131D01*
X49056076Y-65268892D01*
X49295640Y-65288798D01*
X49144353Y-65653138D01*
X49143837Y-66244268D01*
X49369576Y-66790598D01*
X49787203Y-67208955D01*
X50333138Y-67435647D01*
X50924268Y-67436163D01*
X51470598Y-67210424D01*
X51888955Y-66792797D01*
X52115647Y-66246862D01*
X52116163Y-65655732D01*
X51890424Y-65109402D01*
X51472797Y-64691045D01*
X51099453Y-64536019D01*
X51387629Y-63976489D01*
X51448534Y-63243525D01*
X51224309Y-62543047D01*
X50363007Y-60989219D01*
X49908197Y-60451975D01*
X49879167Y-60226922D01*
X49513091Y-59589008D01*
X48930762Y-59139743D01*
X48220834Y-58947524D01*
X47491387Y-59041614D01*
X46853472Y-59407691D01*
X46404207Y-59990020D01*
X46211988Y-60699948D01*
X46166742Y-61363630D01*
X44973258Y-61363630D01*
X44928012Y-60699948D01*
X44735793Y-59990020D01*
X44286528Y-59407691D01*
X43830000Y-59145706D01*
X43830000Y-55420000D01*
X43805727Y-55297970D01*
X43772148Y-55129160D01*
X43607401Y-54882599D01*
X42855000Y-54130198D01*
X42855000Y-47370627D01*
X42870640Y-47370627D01*
X43270024Y-48337209D01*
X44008901Y-49077377D01*
X44974784Y-49478447D01*
X46020627Y-49479360D01*
X46987209Y-49079976D01*
X47727377Y-48341099D01*
X48128447Y-47375216D01*
X48129360Y-46329373D01*
X47729976Y-45362791D01*
X46991099Y-44622623D01*
X46025216Y-44221553D01*
X44979373Y-44220640D01*
X44012791Y-44620024D01*
X43272623Y-45358901D01*
X42871553Y-46324784D01*
X42870640Y-47370627D01*
X42855000Y-47370627D01*
X42855000Y-45810167D01*
X43311532Y-45271842D01*
X44042862Y-43955197D01*
X44463091Y-43630992D01*
X44829167Y-42993078D01*
X44923258Y-42263631D01*
X44878012Y-41599948D01*
X44730561Y-41055363D01*
X46143090Y-42467892D01*
X46210833Y-42993077D01*
X46576909Y-43630992D01*
X47159238Y-44080257D01*
X47227287Y-44098682D01*
X47876993Y-45270781D01*
X48352211Y-45832131D01*
X49006076Y-46168892D01*
X49245640Y-46188798D01*
X49094353Y-46553138D01*
X49093837Y-47144268D01*
X49319576Y-47690598D01*
X49737203Y-48108955D01*
X50283138Y-48335647D01*
X50874268Y-48336163D01*
X51420598Y-48110424D01*
X51838955Y-47692797D01*
X52065647Y-47146862D01*
X52066163Y-46555732D01*
X51840424Y-46009402D01*
X51422797Y-45591045D01*
X51049453Y-45436019D01*
X51337629Y-44876489D01*
X51398534Y-44143525D01*
X51174309Y-43443047D01*
X50313007Y-41889219D01*
X50040517Y-41567341D01*
X50923997Y-41934194D01*
X52767914Y-41935803D01*
X54472087Y-41231653D01*
X55611611Y-40094116D01*
X55418963Y-40558065D01*
X55418438Y-41159297D01*
X55648035Y-41714964D01*
X56062698Y-42130351D01*
X55649529Y-42542800D01*
X55418963Y-43098065D01*
X55418438Y-43699297D01*
X55648035Y-44254964D01*
X56062698Y-44670351D01*
X55649529Y-45082800D01*
X55418963Y-45638065D01*
X55418438Y-46239297D01*
X55648035Y-46794964D01*
X56062698Y-47210351D01*
X55649529Y-47622800D01*
X55418963Y-48178065D01*
X55418438Y-48779297D01*
X55648035Y-49334964D01*
X56062698Y-49750351D01*
X55649529Y-50162800D01*
X55595050Y-50294000D01*
X54106922Y-50294000D01*
X53549420Y-49736498D01*
X53549420Y-49097500D01*
X53505142Y-48862183D01*
X53366070Y-48646059D01*
X53153870Y-48501069D01*
X52901980Y-48450060D01*
X49901980Y-48450060D01*
X49666663Y-48494338D01*
X49450539Y-48633410D01*
X49305549Y-48845610D01*
X49254540Y-49097500D01*
X49254540Y-50597500D01*
X49298818Y-50832817D01*
X49437890Y-51048941D01*
X49650090Y-51193931D01*
X49693736Y-51202769D01*
X49684443Y-51204518D01*
X49468319Y-51343590D01*
X49323329Y-51555790D01*
X49272320Y-51807680D01*
X49272320Y-53307680D01*
X49316598Y-53542997D01*
X49455670Y-53759121D01*
X49667870Y-53904111D01*
X49919760Y-53955120D01*
X52919760Y-53955120D01*
X53006278Y-53938840D01*
X53216411Y-54148973D01*
X53247099Y-54194901D01*
X53493661Y-54359648D01*
X53784500Y-54417500D01*
X55650567Y-54417500D01*
X56062698Y-54830351D01*
X55649529Y-55242800D01*
X55504304Y-55592540D01*
X52596930Y-55592540D01*
X52596930Y-55353050D01*
X52552652Y-55117733D01*
X52413580Y-54901609D01*
X52201380Y-54756619D01*
X51949490Y-54705610D01*
X49950510Y-54705610D01*
X49715193Y-54749888D01*
X49499069Y-54888960D01*
X49354079Y-55101160D01*
X49303070Y-55353050D01*
X49303070Y-57352030D01*
X49347348Y-57587347D01*
X49486420Y-57803471D01*
X49698620Y-57948461D01*
X49950510Y-57999470D01*
X51949490Y-57999470D01*
X52184807Y-57955192D01*
X52400931Y-57816120D01*
X52545921Y-57603920D01*
X52596930Y-57352030D01*
X52596930Y-57112540D01*
X55805336Y-57112540D01*
X56062698Y-57370351D01*
X55649529Y-57782800D01*
X55418963Y-58338065D01*
X55418438Y-58939297D01*
X55648035Y-59494964D01*
X56062698Y-59910351D01*
X55649529Y-60322800D01*
X55418963Y-60878065D01*
X55418438Y-61479297D01*
X55648035Y-62034964D01*
X56062698Y-62450351D01*
X55649529Y-62862800D01*
X55418963Y-63418065D01*
X55418438Y-64019297D01*
X55648035Y-64574964D01*
X56072800Y-65000471D01*
X56628065Y-65231037D01*
X57229297Y-65231562D01*
X57784964Y-65001965D01*
X58210471Y-64577200D01*
X58441037Y-64021935D01*
X58441562Y-63420703D01*
X58211965Y-62865036D01*
X57797302Y-62449649D01*
X58210471Y-62037200D01*
X58441037Y-61481935D01*
X58441562Y-60880703D01*
X58211965Y-60325036D01*
X57797302Y-59909649D01*
X58210471Y-59497200D01*
X58441037Y-58941935D01*
X58441562Y-58340703D01*
X58211965Y-57785036D01*
X57797302Y-57369649D01*
X58210471Y-56957200D01*
X58441037Y-56401935D01*
X58441562Y-55800703D01*
X58211965Y-55245036D01*
X57797302Y-54829649D01*
X58210471Y-54417200D01*
X58441037Y-53861935D01*
X58441562Y-53260703D01*
X58211965Y-52705036D01*
X57797302Y-52289649D01*
X58210471Y-51877200D01*
X58441037Y-51321935D01*
X58441562Y-50720703D01*
X58211965Y-50165036D01*
X57797302Y-49749649D01*
X58210471Y-49337200D01*
X58441037Y-48781935D01*
X58441562Y-48180703D01*
X58259874Y-47740983D01*
X58627203Y-48108955D01*
X59173138Y-48335647D01*
X59764268Y-48336163D01*
X60310598Y-48110424D01*
X60728955Y-47692797D01*
X60955647Y-47146862D01*
X60956163Y-46555732D01*
X60810658Y-46203582D01*
X61231667Y-46168968D01*
X61312686Y-46127330D01*
X61317599Y-53568336D01*
X61312063Y-59061902D01*
X61209238Y-59089743D01*
X60626909Y-59539008D01*
X60260833Y-60176923D01*
X60204649Y-60612496D01*
X59928467Y-60938158D01*
X59065812Y-62491234D01*
X58840976Y-63191516D01*
X58901242Y-63924533D01*
X59156742Y-64421683D01*
X58629402Y-64639576D01*
X58211045Y-65057203D01*
X57984353Y-65603138D01*
X57983837Y-66194268D01*
X58209576Y-66740598D01*
X58627203Y-67158955D01*
X59173138Y-67385647D01*
X59764268Y-67386163D01*
X60310598Y-67160424D01*
X60728955Y-66742797D01*
X60862731Y-66420627D01*
X61920640Y-66420627D01*
X62320024Y-67387209D01*
X63058901Y-68127377D01*
X64024784Y-68528447D01*
X65070627Y-68529360D01*
X66037209Y-68129976D01*
X66777377Y-67391099D01*
X67178447Y-66425216D01*
X67179360Y-65379373D01*
X66779976Y-64412791D01*
X66041099Y-63672623D01*
X65075216Y-63271553D01*
X64029373Y-63270640D01*
X63062791Y-63670024D01*
X62322623Y-64408901D01*
X61921553Y-65374784D01*
X61920640Y-66420627D01*
X60862731Y-66420627D01*
X60955647Y-66196862D01*
X60956163Y-65605732D01*
X60810658Y-65253582D01*
X61231667Y-65218968D01*
X61885825Y-64882777D01*
X62361532Y-64321842D01*
X63092862Y-63005197D01*
X63513091Y-62680992D01*
X63879167Y-62043078D01*
X63973258Y-61313631D01*
X63973258Y-61313630D01*
X65166742Y-61313630D01*
X65260833Y-62043077D01*
X65626909Y-62680992D01*
X66209238Y-63130257D01*
X66277287Y-63148682D01*
X66926993Y-64320781D01*
X67385000Y-64861801D01*
X67385000Y-73732460D01*
X67442852Y-74023299D01*
X67607599Y-74269861D01*
X68294115Y-74956377D01*
X68225794Y-75120913D01*
X68225226Y-75771154D01*
X68473538Y-76372115D01*
X68932927Y-76832306D01*
X69533453Y-77081666D01*
X70183694Y-77082234D01*
X70784655Y-76833922D01*
X71244846Y-76374533D01*
X71494206Y-75774007D01*
X71494774Y-75123766D01*
X71246462Y-74522805D01*
X70787073Y-74062614D01*
X70186547Y-73813254D01*
X69536306Y-73812686D01*
X69369111Y-73881769D01*
X68905000Y-73417658D01*
X68905000Y-68848540D01*
X69064000Y-68848540D01*
X69064000Y-70348540D01*
X69108278Y-70583857D01*
X69247350Y-70799981D01*
X69459550Y-70944971D01*
X69711440Y-70995980D01*
X72406849Y-70995980D01*
X72442061Y-71019508D01*
X72732900Y-71077360D01*
X78845570Y-71077360D01*
X78885313Y-71117172D01*
X79228841Y-71259818D01*
X79600807Y-71260142D01*
X79944583Y-71118097D01*
X80207832Y-70855307D01*
X80350478Y-70511779D01*
X80350802Y-70139813D01*
X80208757Y-69796037D01*
X79945967Y-69532788D01*
X79602439Y-69390142D01*
X79230473Y-69389818D01*
X78886697Y-69531863D01*
X78861155Y-69557360D01*
X73358880Y-69557360D01*
X73358880Y-68848540D01*
X73314602Y-68613223D01*
X73175530Y-68397099D01*
X72963330Y-68252109D01*
X72711440Y-68201100D01*
X69711440Y-68201100D01*
X69476123Y-68245378D01*
X69259999Y-68384450D01*
X69115009Y-68596650D01*
X69064000Y-68848540D01*
X68905000Y-68848540D01*
X68905000Y-67207869D01*
X69333138Y-67385647D01*
X69924268Y-67386163D01*
X70470598Y-67160424D01*
X70888955Y-66742797D01*
X71115647Y-66196862D01*
X71116163Y-65605732D01*
X70890424Y-65059402D01*
X70472797Y-64641045D01*
X70099453Y-64486019D01*
X70387629Y-63926489D01*
X70448534Y-63193525D01*
X70224309Y-62493047D01*
X69363007Y-60939219D01*
X68908197Y-60401975D01*
X68879167Y-60176922D01*
X68513091Y-59539008D01*
X67930762Y-59089743D01*
X67220834Y-58897524D01*
X66491387Y-58991614D01*
X65853472Y-59357691D01*
X65404207Y-59940020D01*
X65211988Y-60649948D01*
X65166742Y-61313630D01*
X63973258Y-61313630D01*
X63928012Y-60649948D01*
X63735793Y-59940020D01*
X63286528Y-59357691D01*
X62832030Y-59096871D01*
X62836837Y-54326780D01*
X65660991Y-54320000D01*
X70848797Y-54320000D01*
X70888035Y-54414964D01*
X71302698Y-54830351D01*
X70889529Y-55242800D01*
X70658963Y-55798065D01*
X70658438Y-56399297D01*
X70888035Y-56954964D01*
X71302698Y-57370351D01*
X70889529Y-57782800D01*
X70658963Y-58338065D01*
X70658438Y-58939297D01*
X70888035Y-59494964D01*
X71302698Y-59910351D01*
X70889529Y-60322800D01*
X70658963Y-60878065D01*
X70658438Y-61479297D01*
X70888035Y-62034964D01*
X71302698Y-62450351D01*
X70889529Y-62862800D01*
X70658963Y-63418065D01*
X70658438Y-64019297D01*
X70888035Y-64574964D01*
X71312800Y-65000471D01*
X71868065Y-65231037D01*
X72469297Y-65231562D01*
X73024964Y-65001965D01*
X73450471Y-64577200D01*
X73681037Y-64021935D01*
X73681562Y-63420703D01*
X73451965Y-62865036D01*
X73037302Y-62449649D01*
X73450471Y-62037200D01*
X73681037Y-61481935D01*
X73681562Y-60880703D01*
X73451965Y-60325036D01*
X73037302Y-59909649D01*
X73450471Y-59497200D01*
X73681037Y-58941935D01*
X73681562Y-58340703D01*
X73451965Y-57785036D01*
X73037302Y-57369649D01*
X73450471Y-56957200D01*
X73490832Y-56860000D01*
X73685198Y-56860000D01*
X78472599Y-61647401D01*
X78554224Y-61701941D01*
X78115812Y-62491234D01*
X77890976Y-63191516D01*
X77951242Y-63924533D01*
X78206742Y-64421683D01*
X77679402Y-64639576D01*
X77261045Y-65057203D01*
X77034353Y-65603138D01*
X77033837Y-66194268D01*
X77259576Y-66740598D01*
X77677203Y-67158955D01*
X78223138Y-67385647D01*
X78814268Y-67386163D01*
X79360598Y-67160424D01*
X79778955Y-66742797D01*
X80005647Y-66196862D01*
X80006163Y-65605732D01*
X79860658Y-65253582D01*
X80281667Y-65218968D01*
X80360000Y-65178710D01*
X80360000Y-78112461D01*
X80259238Y-78139743D01*
X79676909Y-78589008D01*
X79310833Y-79226923D01*
X79254649Y-79662496D01*
X78978467Y-79988158D01*
X78115812Y-81541234D01*
X77890976Y-82241516D01*
X77951242Y-82974533D01*
X78206742Y-83471683D01*
X77679402Y-83689576D01*
X77261045Y-84107203D01*
X77034353Y-84653138D01*
X77033837Y-85244268D01*
X77259576Y-85790598D01*
X77677203Y-86208955D01*
X78223138Y-86435647D01*
X78814268Y-86436163D01*
X79360598Y-86210424D01*
X79778955Y-85792797D01*
X80005647Y-85246862D01*
X80006163Y-84655732D01*
X79860658Y-84303582D01*
X80281667Y-84268968D01*
X80360000Y-84228710D01*
X80360000Y-97162461D01*
X80259238Y-97189743D01*
X79676909Y-97639008D01*
X79310833Y-98276923D01*
X79254649Y-98712496D01*
X78978467Y-99038158D01*
X78115812Y-100591234D01*
X77890976Y-101291516D01*
X77951242Y-102024533D01*
X78206742Y-102521683D01*
X77679402Y-102739576D01*
X77261045Y-103157203D01*
X77034353Y-103703138D01*
X77033837Y-104294268D01*
X77259576Y-104840598D01*
X77677203Y-105258955D01*
X78223138Y-105485647D01*
X78814268Y-105486163D01*
X79360598Y-105260424D01*
X79778955Y-104842797D01*
X79912731Y-104520627D01*
X80970640Y-104520627D01*
X81370024Y-105487209D01*
X82108901Y-106227377D01*
X83074784Y-106628447D01*
X84120627Y-106629360D01*
X85087209Y-106229976D01*
X85827377Y-105491099D01*
X86228447Y-104525216D01*
X86229360Y-103479373D01*
X85829976Y-102512791D01*
X85091099Y-101772623D01*
X84125216Y-101371553D01*
X83079373Y-101370640D01*
X82112791Y-101770024D01*
X81372623Y-102508901D01*
X80971553Y-103474784D01*
X80970640Y-104520627D01*
X79912731Y-104520627D01*
X80005647Y-104296862D01*
X80006163Y-103705732D01*
X79860658Y-103353582D01*
X80281667Y-103318968D01*
X80935825Y-102982777D01*
X81411532Y-102421842D01*
X82142862Y-101105197D01*
X82563091Y-100780992D01*
X82929167Y-100143078D01*
X83023258Y-99413631D01*
X83023258Y-99413630D01*
X84216742Y-99413630D01*
X84310833Y-100143077D01*
X84676909Y-100780992D01*
X85259238Y-101230257D01*
X85327287Y-101248682D01*
X85976993Y-102420781D01*
X86452211Y-102982131D01*
X87106076Y-103318892D01*
X87345640Y-103338798D01*
X87194353Y-103703138D01*
X87193837Y-104294268D01*
X87419576Y-104840598D01*
X87837203Y-105258955D01*
X88383138Y-105485647D01*
X88974268Y-105486163D01*
X89520598Y-105260424D01*
X89938955Y-104842797D01*
X90165647Y-104296862D01*
X90166163Y-103705732D01*
X89940424Y-103159402D01*
X89522797Y-102741045D01*
X89149453Y-102586019D01*
X89437629Y-102026489D01*
X89482208Y-101490000D01*
X91357460Y-101490000D01*
X91648299Y-101432148D01*
X91894861Y-101267401D01*
X92656377Y-100505885D01*
X92820913Y-100574206D01*
X93471154Y-100574774D01*
X94072115Y-100326462D01*
X94532306Y-99867073D01*
X94781666Y-99266547D01*
X94782234Y-98616306D01*
X94533922Y-98015345D01*
X94074533Y-97555154D01*
X93474007Y-97305794D01*
X92823766Y-97305226D01*
X92222805Y-97553538D01*
X91762614Y-98012927D01*
X91513254Y-98613453D01*
X91512686Y-99263694D01*
X91581769Y-99430889D01*
X91042658Y-99970000D01*
X88928948Y-99970000D01*
X88413007Y-99039219D01*
X87958197Y-98501975D01*
X87929167Y-98276922D01*
X87563091Y-97639008D01*
X86980762Y-97189743D01*
X86270834Y-96997524D01*
X85541387Y-97091614D01*
X84903472Y-97457691D01*
X84454207Y-98040020D01*
X84261988Y-98749948D01*
X84216742Y-99413630D01*
X83023258Y-99413630D01*
X82978012Y-98749948D01*
X82785793Y-98040020D01*
X82336528Y-97457691D01*
X81880000Y-97195706D01*
X81880000Y-89400510D01*
X91600530Y-89400510D01*
X91600530Y-91399490D01*
X91644808Y-91634807D01*
X91783880Y-91850931D01*
X91996080Y-91995921D01*
X92247970Y-92046930D01*
X94246950Y-92046930D01*
X94482267Y-92002652D01*
X94698391Y-91863580D01*
X94843381Y-91651380D01*
X94894390Y-91399490D01*
X94894390Y-89400510D01*
X94850112Y-89165193D01*
X94711040Y-88949069D01*
X94498840Y-88804079D01*
X94246950Y-88753070D01*
X92247970Y-88753070D01*
X92012653Y-88797348D01*
X91796529Y-88936420D01*
X91651539Y-89148620D01*
X91600530Y-89400510D01*
X81880000Y-89400510D01*
X81880000Y-86948076D01*
X82108901Y-87177377D01*
X83074784Y-87578447D01*
X84120627Y-87579360D01*
X85087209Y-87179976D01*
X85827377Y-86441099D01*
X86228447Y-85475216D01*
X86229360Y-84429373D01*
X85829976Y-83462791D01*
X85091099Y-82722623D01*
X84125216Y-82321553D01*
X83079373Y-82320640D01*
X82112791Y-82720024D01*
X81880000Y-82952409D01*
X81880000Y-82528439D01*
X82142862Y-82055197D01*
X82563091Y-81730992D01*
X82929167Y-81093078D01*
X83023258Y-80363631D01*
X83023258Y-80363630D01*
X84216742Y-80363630D01*
X84310833Y-81093077D01*
X84676909Y-81730992D01*
X85259238Y-82180257D01*
X85327287Y-82198682D01*
X85976993Y-83370781D01*
X86452211Y-83932131D01*
X87106076Y-84268892D01*
X87345640Y-84288798D01*
X87194353Y-84653138D01*
X87193837Y-85244268D01*
X87419576Y-85790598D01*
X87837203Y-86208955D01*
X88383138Y-86435647D01*
X88974268Y-86436163D01*
X89520598Y-86210424D01*
X89938955Y-85792797D01*
X90165647Y-85246862D01*
X90166163Y-84655732D01*
X89940424Y-84109402D01*
X89522797Y-83691045D01*
X89149453Y-83536019D01*
X89437629Y-82976489D01*
X89482208Y-82440000D01*
X91807460Y-82440000D01*
X92098299Y-82382148D01*
X92344861Y-82217401D01*
X92756377Y-81805885D01*
X92920913Y-81874206D01*
X93571154Y-81874774D01*
X94172115Y-81626462D01*
X94632306Y-81167073D01*
X94881666Y-80566547D01*
X94882234Y-79916306D01*
X94633922Y-79315345D01*
X94174533Y-78855154D01*
X93574007Y-78605794D01*
X92923766Y-78605226D01*
X92322805Y-78853538D01*
X91862614Y-79312927D01*
X91613254Y-79913453D01*
X91612686Y-80563694D01*
X91681769Y-80730889D01*
X91492658Y-80920000D01*
X88928948Y-80920000D01*
X88413007Y-79989219D01*
X87958197Y-79451975D01*
X87929167Y-79226922D01*
X87563091Y-78589008D01*
X86980762Y-78139743D01*
X86270834Y-77947524D01*
X85541387Y-78041614D01*
X84903472Y-78407691D01*
X84454207Y-78990020D01*
X84261988Y-79699948D01*
X84216742Y-80363630D01*
X83023258Y-80363630D01*
X82978012Y-79699948D01*
X82785793Y-78990020D01*
X82336528Y-78407691D01*
X81880000Y-78145706D01*
X81880000Y-67898076D01*
X82108901Y-68127377D01*
X83074784Y-68528447D01*
X84120627Y-68529360D01*
X85087209Y-68129976D01*
X85827377Y-67391099D01*
X86228447Y-66425216D01*
X86229360Y-65379373D01*
X85829976Y-64412791D01*
X85091099Y-63672623D01*
X84125216Y-63271553D01*
X83079373Y-63270640D01*
X82112791Y-63670024D01*
X81880000Y-63902409D01*
X81880000Y-63478439D01*
X82142862Y-63005197D01*
X82563091Y-62680992D01*
X82929167Y-62043078D01*
X83023258Y-61313631D01*
X82978012Y-60649948D01*
X82785793Y-59940020D01*
X82336528Y-59357691D01*
X81880000Y-59095706D01*
X81880000Y-54110741D01*
X81902012Y-54088767D01*
X82044658Y-53745239D01*
X82044960Y-53398960D01*
X82142477Y-53398960D01*
X82174613Y-53431152D01*
X82518141Y-53573798D01*
X82890107Y-53574122D01*
X83233883Y-53432077D01*
X83497132Y-53169287D01*
X83639778Y-52825759D01*
X83640102Y-52453793D01*
X83498057Y-52110017D01*
X83235267Y-51846768D01*
X82891739Y-51704122D01*
X82519773Y-51703798D01*
X82175997Y-51845843D01*
X82142822Y-51878960D01*
X77845762Y-51878960D01*
X75170221Y-49203419D01*
X74923659Y-49038672D01*
X74632820Y-48980820D01*
X73598453Y-48980820D01*
X73681037Y-48781935D01*
X73681562Y-48180703D01*
X73451965Y-47625036D01*
X73037302Y-47209649D01*
X73450471Y-46797200D01*
X73681037Y-46241935D01*
X73681562Y-45640703D01*
X73451965Y-45085036D01*
X73027200Y-44659529D01*
X72993408Y-44645497D01*
X73053396Y-44463001D01*
X72170000Y-43579605D01*
X71286604Y-44463001D01*
X71346447Y-44645056D01*
X71315036Y-44658035D01*
X70889529Y-45082800D01*
X70658963Y-45638065D01*
X70658841Y-45777415D01*
X70472797Y-45591045D01*
X70099453Y-45436019D01*
X70387629Y-44876489D01*
X70448534Y-44143525D01*
X70224309Y-43443047D01*
X70070184Y-43164997D01*
X70647118Y-43164997D01*
X70673109Y-43765668D01*
X70852973Y-44199896D01*
X71106999Y-44283396D01*
X71990395Y-43400000D01*
X72349605Y-43400000D01*
X73233001Y-44283396D01*
X73487027Y-44199896D01*
X73692882Y-43635003D01*
X73666891Y-43034332D01*
X73487027Y-42600104D01*
X73233001Y-42516604D01*
X72349605Y-43400000D01*
X71990395Y-43400000D01*
X71106999Y-42516604D01*
X70852973Y-42600104D01*
X70647118Y-43164997D01*
X70070184Y-43164997D01*
X69363007Y-41889219D01*
X68908197Y-41351975D01*
X68879167Y-41126922D01*
X68513091Y-40489008D01*
X68294674Y-40320500D01*
X70757609Y-40320500D01*
X70658963Y-40558065D01*
X70658438Y-41159297D01*
X70888035Y-41714964D01*
X71312800Y-42140471D01*
X71346592Y-42154503D01*
X71286604Y-42336999D01*
X72170000Y-43220395D01*
X73053396Y-42336999D01*
X72993553Y-42154944D01*
X73024964Y-42141965D01*
X73450471Y-41717200D01*
X73681037Y-41161935D01*
X73681562Y-40560703D01*
X73582312Y-40320500D01*
X78171198Y-40320500D01*
X78393099Y-40542401D01*
X78639661Y-40707148D01*
X78930500Y-40765000D01*
X79518527Y-40765000D01*
X79310833Y-41126923D01*
X79254649Y-41562496D01*
X78978467Y-41888158D01*
X78115812Y-43441234D01*
X77890976Y-44141516D01*
X77951242Y-44874533D01*
X78206742Y-45371683D01*
X77679402Y-45589576D01*
X77261045Y-46007203D01*
X77034353Y-46553138D01*
X77033837Y-47144268D01*
X77259576Y-47690598D01*
X77677203Y-48108955D01*
X78223138Y-48335647D01*
X78814268Y-48336163D01*
X79360598Y-48110424D01*
X79778955Y-47692797D01*
X79912731Y-47370627D01*
X80970640Y-47370627D01*
X81370024Y-48337209D01*
X82108901Y-49077377D01*
X83074784Y-49478447D01*
X84120627Y-49479360D01*
X85087209Y-49079976D01*
X85827377Y-48341099D01*
X86228447Y-47375216D01*
X86229360Y-46329373D01*
X85829976Y-45362791D01*
X85091099Y-44622623D01*
X84125216Y-44221553D01*
X83079373Y-44220640D01*
X82112791Y-44620024D01*
X81372623Y-45358901D01*
X80971553Y-46324784D01*
X80970640Y-47370627D01*
X79912731Y-47370627D01*
X80005647Y-47146862D01*
X80006163Y-46555732D01*
X79860658Y-46203582D01*
X80281667Y-46168968D01*
X80935825Y-45832777D01*
X81411532Y-45271842D01*
X82142862Y-43955197D01*
X82563091Y-43630992D01*
X82929167Y-42993078D01*
X83023258Y-42263631D01*
X82978012Y-41599948D01*
X82785793Y-40890020D01*
X82689340Y-40765000D01*
X84550660Y-40765000D01*
X84454207Y-40890020D01*
X84261988Y-41599948D01*
X84216742Y-42263630D01*
X84310833Y-42993077D01*
X84676909Y-43630992D01*
X85259238Y-44080257D01*
X85327287Y-44098682D01*
X85976993Y-45270781D01*
X86452211Y-45832131D01*
X87106076Y-46168892D01*
X87345640Y-46188798D01*
X87194353Y-46553138D01*
X87193837Y-47144268D01*
X87419576Y-47690598D01*
X87837203Y-48108955D01*
X88383138Y-48335647D01*
X88974268Y-48336163D01*
X89520598Y-48110424D01*
X89938955Y-47692797D01*
X90165647Y-47146862D01*
X90166163Y-46555732D01*
X89940424Y-46009402D01*
X89522797Y-45591045D01*
X89149453Y-45436019D01*
X89437629Y-44876489D01*
X89498534Y-44143525D01*
X89274309Y-43443047D01*
X88413007Y-41889219D01*
X87958197Y-41351975D01*
X87929167Y-41126922D01*
X87721473Y-40765000D01*
X90553000Y-40765000D01*
X90553000Y-42545000D01*
X90560000Y-42580191D01*
X90560000Y-55033762D01*
X90493774Y-55061126D01*
X90196930Y-55357452D01*
X90196930Y-55353050D01*
X90152652Y-55117733D01*
X90013580Y-54901609D01*
X89801380Y-54756619D01*
X89549490Y-54705610D01*
X87550510Y-54705610D01*
X87315193Y-54749888D01*
X87099069Y-54888960D01*
X86954079Y-55101160D01*
X86903070Y-55353050D01*
X86903070Y-57352030D01*
X86913225Y-57406000D01*
X85008293Y-57406000D01*
X84999840Y-57400352D01*
X84943434Y-57389132D01*
X84501122Y-56946820D01*
X84501162Y-56901333D01*
X84359117Y-56557557D01*
X84096327Y-56294308D01*
X83752799Y-56151662D01*
X83380833Y-56151338D01*
X83037057Y-56293383D01*
X82773808Y-56556173D01*
X82631162Y-56899701D01*
X82630838Y-57271667D01*
X82772883Y-57615443D01*
X83035673Y-57878692D01*
X83379201Y-58021338D01*
X83426077Y-58021379D01*
X84108099Y-58703401D01*
X84354661Y-58868148D01*
X84645500Y-58926000D01*
X86050069Y-58926000D01*
X85541387Y-58991614D01*
X84903472Y-59357691D01*
X84454207Y-59940020D01*
X84261988Y-60649948D01*
X84216742Y-61313630D01*
X84310833Y-62043077D01*
X84676909Y-62680992D01*
X85259238Y-63130257D01*
X85327287Y-63148682D01*
X85976993Y-64320781D01*
X86452211Y-64882131D01*
X87106076Y-65218892D01*
X87345640Y-65238798D01*
X87194353Y-65603138D01*
X87193837Y-66194268D01*
X87419576Y-66740598D01*
X87837203Y-67158955D01*
X88383138Y-67385647D01*
X88557119Y-67385799D01*
X86393178Y-69549740D01*
X83427423Y-69549740D01*
X83395287Y-69517548D01*
X83051759Y-69374902D01*
X82679793Y-69374578D01*
X82336017Y-69516623D01*
X82072768Y-69779413D01*
X81930122Y-70122941D01*
X81929798Y-70494907D01*
X82071843Y-70838683D01*
X82334633Y-71101932D01*
X82678161Y-71244578D01*
X83050127Y-71244902D01*
X83393903Y-71102857D01*
X83427078Y-71069740D01*
X86707980Y-71069740D01*
X86998819Y-71011888D01*
X87245381Y-70847141D01*
X87942012Y-70150510D01*
X91400530Y-70150510D01*
X91400530Y-72149490D01*
X91444808Y-72384807D01*
X91583880Y-72600931D01*
X91796080Y-72745921D01*
X92047970Y-72796930D01*
X94046950Y-72796930D01*
X94282267Y-72752652D01*
X94498391Y-72613580D01*
X94643381Y-72401380D01*
X94694390Y-72149490D01*
X94694390Y-70150510D01*
X94650112Y-69915193D01*
X94511040Y-69699069D01*
X94298840Y-69554079D01*
X94046950Y-69503070D01*
X92047970Y-69503070D01*
X91812653Y-69547348D01*
X91596529Y-69686420D01*
X91451539Y-69898620D01*
X91400530Y-70150510D01*
X87942012Y-70150510D01*
X96132841Y-61959681D01*
X96297588Y-61713120D01*
X96316100Y-61620052D01*
X96355440Y-61422280D01*
X96355440Y-58914734D01*
X96650701Y-59037338D01*
X97022667Y-59037662D01*
X97366443Y-58895617D01*
X97399618Y-58862500D01*
X98942037Y-58862500D01*
X98974173Y-58894692D01*
X99317701Y-59037338D01*
X99502193Y-59037499D01*
X99309238Y-59089743D01*
X98726909Y-59539008D01*
X98360833Y-60176923D01*
X98304649Y-60612496D01*
X98028467Y-60938158D01*
X97165812Y-62491234D01*
X96940976Y-63191516D01*
X97001242Y-63924533D01*
X97256742Y-64421683D01*
X96729402Y-64639576D01*
X96311045Y-65057203D01*
X96084353Y-65603138D01*
X96083837Y-66194268D01*
X96309576Y-66740598D01*
X96727203Y-67158955D01*
X97273138Y-67385647D01*
X97864268Y-67386163D01*
X98410598Y-67160424D01*
X98828955Y-66742797D01*
X99055647Y-66196862D01*
X99056163Y-65605732D01*
X98910658Y-65253582D01*
X99331667Y-65218968D01*
X99410000Y-65178710D01*
X99410000Y-78112461D01*
X99309238Y-78139743D01*
X98726909Y-78589008D01*
X98360833Y-79226923D01*
X98304649Y-79662496D01*
X98028467Y-79988158D01*
X97165812Y-81541234D01*
X96940976Y-82241516D01*
X97001242Y-82974533D01*
X97256742Y-83471683D01*
X96729402Y-83689576D01*
X96311045Y-84107203D01*
X96084353Y-84653138D01*
X96083837Y-85244268D01*
X96309576Y-85790598D01*
X96727203Y-86208955D01*
X97273138Y-86435647D01*
X97864268Y-86436163D01*
X98410598Y-86210424D01*
X98828955Y-85792797D01*
X99055647Y-85246862D01*
X99056163Y-84655732D01*
X98910658Y-84303582D01*
X99331667Y-84268968D01*
X99410000Y-84228710D01*
X99410000Y-97162461D01*
X99309238Y-97189743D01*
X98726909Y-97639008D01*
X98360833Y-98276923D01*
X98304649Y-98712496D01*
X98028467Y-99038158D01*
X97165812Y-100591234D01*
X96940976Y-101291516D01*
X97001242Y-102024533D01*
X97256742Y-102521683D01*
X96729402Y-102739576D01*
X96311045Y-103157203D01*
X96084353Y-103703138D01*
X96083837Y-104294268D01*
X96309576Y-104840598D01*
X96727203Y-105258955D01*
X97273138Y-105485647D01*
X97864268Y-105486163D01*
X98410598Y-105260424D01*
X98828955Y-104842797D01*
X98962731Y-104520627D01*
X100020640Y-104520627D01*
X100420024Y-105487209D01*
X101158901Y-106227377D01*
X102124784Y-106628447D01*
X103170627Y-106629360D01*
X104137209Y-106229976D01*
X104877377Y-105491099D01*
X105278447Y-104525216D01*
X105279360Y-103479373D01*
X104879976Y-102512791D01*
X104141099Y-101772623D01*
X103175216Y-101371553D01*
X102129373Y-101370640D01*
X101162791Y-101770024D01*
X100422623Y-102508901D01*
X100021553Y-103474784D01*
X100020640Y-104520627D01*
X98962731Y-104520627D01*
X99055647Y-104296862D01*
X99056163Y-103705732D01*
X98910658Y-103353582D01*
X99331667Y-103318968D01*
X99985825Y-102982777D01*
X100461532Y-102421842D01*
X101192862Y-101105197D01*
X101613091Y-100780992D01*
X101979167Y-100143078D01*
X102073258Y-99413631D01*
X102073258Y-99413630D01*
X103266742Y-99413630D01*
X103360833Y-100143077D01*
X103726909Y-100780992D01*
X104309238Y-101230257D01*
X104377287Y-101248682D01*
X105026993Y-102420781D01*
X105502211Y-102982131D01*
X106156076Y-103318892D01*
X106395640Y-103338798D01*
X106244353Y-103703138D01*
X106243837Y-104294268D01*
X106469576Y-104840598D01*
X106887203Y-105258955D01*
X107433138Y-105485647D01*
X108024268Y-105486163D01*
X108570598Y-105260424D01*
X108988955Y-104842797D01*
X109215647Y-104296862D01*
X109216163Y-103705732D01*
X108990424Y-103159402D01*
X108572797Y-102741045D01*
X108199453Y-102586019D01*
X108487629Y-102026489D01*
X108532208Y-101490000D01*
X111370000Y-101490000D01*
X111660839Y-101432148D01*
X111907401Y-101267401D01*
X112520359Y-100654443D01*
X113072115Y-100426462D01*
X113532306Y-99967073D01*
X113781666Y-99366547D01*
X113782234Y-98716306D01*
X113533922Y-98115345D01*
X113074533Y-97655154D01*
X112474007Y-97405794D01*
X111823766Y-97405226D01*
X111222805Y-97653538D01*
X110762614Y-98112927D01*
X110513254Y-98713453D01*
X110512686Y-99363694D01*
X110760998Y-99964655D01*
X110766334Y-99970000D01*
X107978948Y-99970000D01*
X107463007Y-99039219D01*
X107008197Y-98501975D01*
X106979167Y-98276922D01*
X106613091Y-97639008D01*
X106030762Y-97189743D01*
X105320834Y-96997524D01*
X104591387Y-97091614D01*
X103953472Y-97457691D01*
X103504207Y-98040020D01*
X103311988Y-98749948D01*
X103266742Y-99413630D01*
X102073258Y-99413630D01*
X102028012Y-98749948D01*
X101835793Y-98040020D01*
X101386528Y-97457691D01*
X100930000Y-97195706D01*
X100930000Y-89400510D01*
X110650530Y-89400510D01*
X110650530Y-91399490D01*
X110694808Y-91634807D01*
X110833880Y-91850931D01*
X111046080Y-91995921D01*
X111297970Y-92046930D01*
X113296950Y-92046930D01*
X113532267Y-92002652D01*
X113748391Y-91863580D01*
X113893381Y-91651380D01*
X113944390Y-91399490D01*
X113944390Y-89400510D01*
X113900112Y-89165193D01*
X113761040Y-88949069D01*
X113548840Y-88804079D01*
X113296950Y-88753070D01*
X111297970Y-88753070D01*
X111062653Y-88797348D01*
X110846529Y-88936420D01*
X110701539Y-89148620D01*
X110650530Y-89400510D01*
X100930000Y-89400510D01*
X100930000Y-86948076D01*
X101158901Y-87177377D01*
X102124784Y-87578447D01*
X103170627Y-87579360D01*
X104137209Y-87179976D01*
X104877377Y-86441099D01*
X105278447Y-85475216D01*
X105279360Y-84429373D01*
X104879976Y-83462791D01*
X104141099Y-82722623D01*
X103175216Y-82321553D01*
X102129373Y-82320640D01*
X101162791Y-82720024D01*
X100930000Y-82952409D01*
X100930000Y-82528439D01*
X101192862Y-82055197D01*
X101613091Y-81730992D01*
X101979167Y-81093078D01*
X102073258Y-80363631D01*
X102073258Y-80363630D01*
X103266742Y-80363630D01*
X103360833Y-81093077D01*
X103726909Y-81730992D01*
X104309238Y-82180257D01*
X104377287Y-82198682D01*
X105026993Y-83370781D01*
X105502211Y-83932131D01*
X106156076Y-84268892D01*
X106395640Y-84288798D01*
X106244353Y-84653138D01*
X106243837Y-85244268D01*
X106469576Y-85790598D01*
X106887203Y-86208955D01*
X107433138Y-86435647D01*
X108024268Y-86436163D01*
X108570598Y-86210424D01*
X108988955Y-85792797D01*
X109215647Y-85246862D01*
X109216163Y-84655732D01*
X108990424Y-84109402D01*
X108572797Y-83691045D01*
X108199453Y-83536019D01*
X108487629Y-82976489D01*
X108532208Y-82440000D01*
X110857460Y-82440000D01*
X111148299Y-82382148D01*
X111394861Y-82217401D01*
X111806377Y-81805885D01*
X111970913Y-81874206D01*
X112621154Y-81874774D01*
X113222115Y-81626462D01*
X113682306Y-81167073D01*
X113931666Y-80566547D01*
X113932234Y-79916306D01*
X113683922Y-79315345D01*
X113224533Y-78855154D01*
X112624007Y-78605794D01*
X111973766Y-78605226D01*
X111372805Y-78853538D01*
X110912614Y-79312927D01*
X110663254Y-79913453D01*
X110662686Y-80563694D01*
X110731769Y-80730889D01*
X110542658Y-80920000D01*
X107978948Y-80920000D01*
X107463007Y-79989219D01*
X107008197Y-79451975D01*
X106979167Y-79226922D01*
X106613091Y-78589008D01*
X106030762Y-78139743D01*
X105320834Y-77947524D01*
X104591387Y-78041614D01*
X103953472Y-78407691D01*
X103504207Y-78990020D01*
X103311988Y-79699948D01*
X103266742Y-80363630D01*
X102073258Y-80363630D01*
X102028012Y-79699948D01*
X101835793Y-78990020D01*
X101386528Y-78407691D01*
X100930000Y-78145706D01*
X100930000Y-70300510D01*
X110600530Y-70300510D01*
X110600530Y-72299490D01*
X110644808Y-72534807D01*
X110783880Y-72750931D01*
X110996080Y-72895921D01*
X111247970Y-72946930D01*
X113246950Y-72946930D01*
X113482267Y-72902652D01*
X113698391Y-72763580D01*
X113843381Y-72551380D01*
X113894390Y-72299490D01*
X113894390Y-70300510D01*
X113850112Y-70065193D01*
X113711040Y-69849069D01*
X113498840Y-69704079D01*
X113246950Y-69653070D01*
X111247970Y-69653070D01*
X111012653Y-69697348D01*
X110796529Y-69836420D01*
X110651539Y-70048620D01*
X110600530Y-70300510D01*
X100930000Y-70300510D01*
X100930000Y-67898076D01*
X101158901Y-68127377D01*
X102124784Y-68528447D01*
X103170627Y-68529360D01*
X104137209Y-68129976D01*
X104877377Y-67391099D01*
X105278447Y-66425216D01*
X105279360Y-65379373D01*
X104879976Y-64412791D01*
X104141099Y-63672623D01*
X103175216Y-63271553D01*
X102129373Y-63270640D01*
X101162791Y-63670024D01*
X100930000Y-63902409D01*
X100930000Y-63478439D01*
X101192862Y-63005197D01*
X101613091Y-62680992D01*
X101979167Y-62043078D01*
X102073258Y-61313631D01*
X102073258Y-61313630D01*
X103266742Y-61313630D01*
X103360833Y-62043077D01*
X103726909Y-62680992D01*
X104309238Y-63130257D01*
X104377287Y-63148682D01*
X105026993Y-64320781D01*
X105502211Y-64882131D01*
X106156076Y-65218892D01*
X106395640Y-65238798D01*
X106244353Y-65603138D01*
X106243837Y-66194268D01*
X106469576Y-66740598D01*
X106887203Y-67158955D01*
X107433138Y-67385647D01*
X108024268Y-67386163D01*
X108570598Y-67160424D01*
X108988955Y-66742797D01*
X109215647Y-66196862D01*
X109216163Y-65605732D01*
X108990424Y-65059402D01*
X108572797Y-64641045D01*
X108199453Y-64486019D01*
X108487629Y-63926489D01*
X108548534Y-63193525D01*
X108324309Y-62493047D01*
X108014915Y-61934887D01*
X108049802Y-61900000D01*
X110792964Y-61900000D01*
X110860998Y-62064655D01*
X111320387Y-62524846D01*
X111920913Y-62774206D01*
X112571154Y-62774774D01*
X113172115Y-62526462D01*
X113632306Y-62067073D01*
X113881666Y-61466547D01*
X113882234Y-60816306D01*
X113633922Y-60215345D01*
X113174533Y-59755154D01*
X112574007Y-59505794D01*
X111923766Y-59505226D01*
X111322805Y-59753538D01*
X110862614Y-60212927D01*
X110793239Y-60380000D01*
X107735000Y-60380000D01*
X107444160Y-60437852D01*
X107197599Y-60602599D01*
X107187005Y-60613193D01*
X107008197Y-60401975D01*
X106979167Y-60176922D01*
X106613091Y-59539008D01*
X106030762Y-59089743D01*
X105320834Y-58897524D01*
X104591387Y-58991614D01*
X103953472Y-59357691D01*
X103504207Y-59940020D01*
X103311988Y-60649948D01*
X103266742Y-61313630D01*
X102073258Y-61313630D01*
X102028012Y-60649948D01*
X101835793Y-59940020D01*
X101386528Y-59357691D01*
X100748613Y-58991615D01*
X100026529Y-58898474D01*
X100033443Y-58895617D01*
X100296692Y-58632827D01*
X100439338Y-58289299D01*
X100439662Y-57917333D01*
X100297617Y-57573557D01*
X100050707Y-57326215D01*
X100633390Y-57326215D01*
X100710656Y-57574976D01*
X101257131Y-57772340D01*
X101837535Y-57745553D01*
X102249344Y-57574976D01*
X102326610Y-57326215D01*
X101480000Y-56479605D01*
X100633390Y-57326215D01*
X100050707Y-57326215D01*
X100034827Y-57310308D01*
X99691299Y-57167662D01*
X99319333Y-57167338D01*
X98975557Y-57309383D01*
X98942382Y-57342500D01*
X97399963Y-57342500D01*
X97367827Y-57310308D01*
X97024299Y-57167662D01*
X96652333Y-57167338D01*
X96355440Y-57290011D01*
X96355440Y-56077131D01*
X100007660Y-56077131D01*
X100034447Y-56657535D01*
X100205024Y-57069344D01*
X100453785Y-57146610D01*
X101300395Y-56300000D01*
X101659605Y-56300000D01*
X102506215Y-57146610D01*
X102713009Y-57082379D01*
X102731126Y-57126226D01*
X103141613Y-57537430D01*
X103678214Y-57760246D01*
X104259237Y-57760753D01*
X104796226Y-57538874D01*
X105207430Y-57128387D01*
X105430246Y-56591786D01*
X105430695Y-56077131D01*
X112657660Y-56077131D01*
X112684447Y-56657535D01*
X112855024Y-57069344D01*
X113103785Y-57146610D01*
X113950395Y-56300000D01*
X113103785Y-55453390D01*
X112855024Y-55530656D01*
X112657660Y-56077131D01*
X105430695Y-56077131D01*
X105430753Y-56010763D01*
X105403645Y-55945157D01*
X108042901Y-53305901D01*
X108207648Y-53059340D01*
X108265500Y-52768500D01*
X108265500Y-50282963D01*
X108297692Y-50250827D01*
X108440338Y-49907299D01*
X108440662Y-49535333D01*
X108298617Y-49191557D01*
X108035827Y-48928308D01*
X107692299Y-48785662D01*
X107320333Y-48785338D01*
X106976557Y-48927383D01*
X106713308Y-49190173D01*
X106570662Y-49533701D01*
X106570338Y-49905667D01*
X106712383Y-50249443D01*
X106745500Y-50282618D01*
X106745500Y-52453698D01*
X104330791Y-54868407D01*
X104261786Y-54839754D01*
X103680763Y-54839247D01*
X103143774Y-55061126D01*
X102732570Y-55471613D01*
X102713414Y-55517747D01*
X102506215Y-55453390D01*
X101659605Y-56300000D01*
X101300395Y-56300000D01*
X100453785Y-55453390D01*
X100205024Y-55530656D01*
X100007660Y-56077131D01*
X96355440Y-56077131D01*
X96355440Y-55273785D01*
X100633390Y-55273785D01*
X101480000Y-56120395D01*
X102326610Y-55273785D01*
X102249344Y-55025024D01*
X101702869Y-54827660D01*
X101122465Y-54854447D01*
X100710656Y-55025024D01*
X100633390Y-55273785D01*
X96355440Y-55273785D01*
X96355440Y-47736542D01*
X96727203Y-48108955D01*
X97273138Y-48335647D01*
X97864268Y-48336163D01*
X98410598Y-48110424D01*
X98485000Y-48036152D01*
X98485000Y-52783138D01*
X98394808Y-52873173D01*
X98252162Y-53216701D01*
X98251838Y-53588667D01*
X98393883Y-53932443D01*
X98656673Y-54195692D01*
X99000201Y-54338338D01*
X99372167Y-54338662D01*
X99715943Y-54196617D01*
X99979192Y-53933827D01*
X100121838Y-53590299D01*
X100122162Y-53218333D01*
X100005000Y-52934779D01*
X100005000Y-47370627D01*
X100020640Y-47370627D01*
X100420024Y-48337209D01*
X101158901Y-49077377D01*
X102124784Y-49478447D01*
X103170627Y-49479360D01*
X104137209Y-49079976D01*
X104877377Y-48341099D01*
X105278447Y-47375216D01*
X105279360Y-46329373D01*
X104879976Y-45362791D01*
X104141099Y-44622623D01*
X103175216Y-44221553D01*
X102129373Y-44220640D01*
X101162791Y-44620024D01*
X100422623Y-45358901D01*
X100021553Y-46324784D01*
X100020640Y-47370627D01*
X100005000Y-47370627D01*
X100005000Y-45810167D01*
X100461532Y-45271842D01*
X101192862Y-43955197D01*
X101613091Y-43630992D01*
X101979167Y-42993078D01*
X102073258Y-42263631D01*
X102028012Y-41599948D01*
X101835793Y-40890020D01*
X101708481Y-40725000D01*
X103631519Y-40725000D01*
X103504207Y-40890020D01*
X103311988Y-41599948D01*
X103266742Y-42263630D01*
X103360833Y-42993077D01*
X103726909Y-43630992D01*
X104309238Y-44080257D01*
X104377287Y-44098682D01*
X105026993Y-45270781D01*
X105502211Y-45832131D01*
X106156076Y-46168892D01*
X106395640Y-46188798D01*
X106244353Y-46553138D01*
X106243837Y-47144268D01*
X106469576Y-47690598D01*
X106887203Y-48108955D01*
X107433138Y-48335647D01*
X108024268Y-48336163D01*
X108570598Y-48110424D01*
X108988955Y-47692797D01*
X109215647Y-47146862D01*
X109216163Y-46555732D01*
X108990424Y-46009402D01*
X108572797Y-45591045D01*
X108199453Y-45436019D01*
X108487629Y-44876489D01*
X108548534Y-44143525D01*
X108324309Y-43443047D01*
X107463007Y-41889219D01*
X107008197Y-41351975D01*
X106979167Y-41126922D01*
X106748518Y-40725000D01*
X111251306Y-40725000D01*
X110812614Y-41162927D01*
X110563254Y-41763453D01*
X110562686Y-42413694D01*
X110810998Y-43014655D01*
X111270387Y-43474846D01*
X111870913Y-43724206D01*
X112521154Y-43724774D01*
X113122115Y-43476462D01*
X113582306Y-43017073D01*
X113831666Y-42416547D01*
X113832234Y-41766306D01*
X113583922Y-41165345D01*
X113144344Y-40725000D01*
X117641482Y-40725000D01*
X117410833Y-41126923D01*
X117354649Y-41562496D01*
X117078467Y-41888158D01*
X116215812Y-43441234D01*
X115990976Y-44141516D01*
X116051242Y-44874533D01*
X116306742Y-45371683D01*
X115779402Y-45589576D01*
X115361045Y-46007203D01*
X115134353Y-46553138D01*
X115133837Y-47144268D01*
X115359576Y-47690598D01*
X115777203Y-48108955D01*
X116323138Y-48335647D01*
X116914268Y-48336163D01*
X117460598Y-48110424D01*
X117535000Y-48036152D01*
X117535000Y-54033000D01*
X117592852Y-54323839D01*
X117757599Y-54570401D01*
X117860134Y-54672936D01*
X117749490Y-54650530D01*
X116177872Y-54650530D01*
X113844390Y-52317048D01*
X113844390Y-51250510D01*
X113800112Y-51015193D01*
X113661040Y-50799069D01*
X113448840Y-50654079D01*
X113196950Y-50603070D01*
X111197970Y-50603070D01*
X110962653Y-50647348D01*
X110746529Y-50786420D01*
X110601539Y-50998620D01*
X110550530Y-51250510D01*
X110550530Y-53249490D01*
X110594808Y-53484807D01*
X110733880Y-53700931D01*
X110946080Y-53845921D01*
X111197970Y-53896930D01*
X113196950Y-53896930D01*
X113262360Y-53884622D01*
X114211904Y-54834166D01*
X113772465Y-54854447D01*
X113360656Y-55025024D01*
X113283390Y-55273785D01*
X114130000Y-56120395D01*
X114144143Y-56106253D01*
X114323748Y-56285858D01*
X114309605Y-56300000D01*
X114323748Y-56314143D01*
X114144143Y-56493748D01*
X114130000Y-56479605D01*
X113283390Y-57326215D01*
X113360656Y-57574976D01*
X113907131Y-57772340D01*
X114487535Y-57745553D01*
X114899344Y-57574976D01*
X114976609Y-57326217D01*
X115091399Y-57441007D01*
X115124035Y-57408371D01*
X115147348Y-57532267D01*
X115286420Y-57748391D01*
X115498620Y-57893381D01*
X115750510Y-57944390D01*
X117619637Y-57944390D01*
X117619338Y-58287667D01*
X117761383Y-58631443D01*
X118024173Y-58894692D01*
X118367701Y-59037338D01*
X118552193Y-59037499D01*
X118359238Y-59089743D01*
X117776909Y-59539008D01*
X117410833Y-60176923D01*
X117354649Y-60612496D01*
X117078467Y-60938158D01*
X116215812Y-62491234D01*
X115990976Y-63191516D01*
X116051242Y-63924533D01*
X116306742Y-64421683D01*
X115779402Y-64639576D01*
X115361045Y-65057203D01*
X115134353Y-65603138D01*
X115133837Y-66194268D01*
X115359576Y-66740598D01*
X115777203Y-67158955D01*
X116323138Y-67385647D01*
X116914268Y-67386163D01*
X117460598Y-67160424D01*
X117878955Y-66742797D01*
X118105647Y-66196862D01*
X118106163Y-65605732D01*
X117960658Y-65253582D01*
X118381667Y-65218968D01*
X118460000Y-65178710D01*
X118460000Y-78112461D01*
X118359238Y-78139743D01*
X117776909Y-78589008D01*
X117410833Y-79226923D01*
X117354649Y-79662496D01*
X117078467Y-79988158D01*
X116215812Y-81541234D01*
X115990976Y-82241516D01*
X116051242Y-82974533D01*
X116306742Y-83471683D01*
X115779402Y-83689576D01*
X115361045Y-84107203D01*
X115134353Y-84653138D01*
X115133837Y-85244268D01*
X115359576Y-85790598D01*
X115777203Y-86208955D01*
X116323138Y-86435647D01*
X116914268Y-86436163D01*
X117460598Y-86210424D01*
X117878955Y-85792797D01*
X118105647Y-85246862D01*
X118106163Y-84655732D01*
X117960658Y-84303582D01*
X118381667Y-84268968D01*
X118460000Y-84228710D01*
X118460000Y-97162461D01*
X118359238Y-97189743D01*
X117776909Y-97639008D01*
X117410833Y-98276923D01*
X117354649Y-98712496D01*
X117078467Y-99038158D01*
X116215812Y-100591234D01*
X116010000Y-101232263D01*
X116010000Y-96144390D01*
X116249490Y-96144390D01*
X116484807Y-96100112D01*
X116700931Y-95961040D01*
X116845921Y-95748840D01*
X116896930Y-95496950D01*
X116896930Y-93497970D01*
X116852652Y-93262653D01*
X116713580Y-93046529D01*
X116501380Y-92901539D01*
X116249490Y-92850530D01*
X114250510Y-92850530D01*
X114015193Y-92894808D01*
X113799069Y-93033880D01*
X113654079Y-93246080D01*
X113603070Y-93497970D01*
X113603070Y-95496950D01*
X113647348Y-95732267D01*
X113786420Y-95948391D01*
X113998620Y-96093381D01*
X114250510Y-96144390D01*
X114490000Y-96144390D01*
X114490000Y-105782658D01*
X112719588Y-107553070D01*
X111147970Y-107553070D01*
X110912653Y-107597348D01*
X110696529Y-107736420D01*
X110551539Y-107948620D01*
X110500530Y-108200510D01*
X110500530Y-110199490D01*
X110544808Y-110434807D01*
X110683880Y-110650931D01*
X110896080Y-110795921D01*
X111147970Y-110846930D01*
X113146950Y-110846930D01*
X113382267Y-110802652D01*
X113598391Y-110663580D01*
X113743381Y-110451380D01*
X113794390Y-110199490D01*
X113794390Y-108627872D01*
X115787401Y-106634861D01*
X115952148Y-106388299D01*
X116010000Y-106097460D01*
X116010000Y-105355621D01*
X116323138Y-105485647D01*
X116914268Y-105486163D01*
X117460598Y-105260424D01*
X117878955Y-104842797D01*
X118012731Y-104520627D01*
X119070640Y-104520627D01*
X119470024Y-105487209D01*
X120208901Y-106227377D01*
X121174784Y-106628447D01*
X122220627Y-106629360D01*
X123187209Y-106229976D01*
X123927377Y-105491099D01*
X124328447Y-104525216D01*
X124329360Y-103479373D01*
X123929976Y-102512791D01*
X123191099Y-101772623D01*
X122225216Y-101371553D01*
X121179373Y-101370640D01*
X120212791Y-101770024D01*
X119472623Y-102508901D01*
X119071553Y-103474784D01*
X119070640Y-104520627D01*
X118012731Y-104520627D01*
X118105647Y-104296862D01*
X118106163Y-103705732D01*
X117960658Y-103353582D01*
X118381667Y-103318968D01*
X119035825Y-102982777D01*
X119511532Y-102421842D01*
X120242862Y-101105197D01*
X120663091Y-100780992D01*
X121029167Y-100143078D01*
X121123258Y-99413631D01*
X121078012Y-98749948D01*
X120885793Y-98040020D01*
X120436528Y-97457691D01*
X119980000Y-97195706D01*
X119980000Y-86948076D01*
X120208901Y-87177377D01*
X121174784Y-87578447D01*
X122220627Y-87579360D01*
X123187209Y-87179976D01*
X123366988Y-87000510D01*
X129600530Y-87000510D01*
X129600530Y-88999490D01*
X129644808Y-89234807D01*
X129783880Y-89450931D01*
X129996080Y-89595921D01*
X130247970Y-89646930D01*
X132246950Y-89646930D01*
X132482267Y-89602652D01*
X132698391Y-89463580D01*
X132843381Y-89251380D01*
X132894390Y-88999490D01*
X132894390Y-87000510D01*
X132850112Y-86765193D01*
X132711040Y-86549069D01*
X132498840Y-86404079D01*
X132246950Y-86353070D01*
X130247970Y-86353070D01*
X130012653Y-86397348D01*
X129796529Y-86536420D01*
X129651539Y-86748620D01*
X129600530Y-87000510D01*
X123366988Y-87000510D01*
X123927377Y-86441099D01*
X124328447Y-85475216D01*
X124329360Y-84429373D01*
X123929976Y-83462791D01*
X123191099Y-82722623D01*
X122225216Y-82321553D01*
X121179373Y-82320640D01*
X120212791Y-82720024D01*
X119980000Y-82952409D01*
X119980000Y-82528439D01*
X120242862Y-82055197D01*
X120663091Y-81730992D01*
X121029167Y-81093078D01*
X121123258Y-80363631D01*
X121123258Y-80363630D01*
X122316742Y-80363630D01*
X122410833Y-81093077D01*
X122776909Y-81730992D01*
X123359238Y-82180257D01*
X123427287Y-82198682D01*
X124076993Y-83370781D01*
X124552211Y-83932131D01*
X125206076Y-84268892D01*
X125445640Y-84288798D01*
X125294353Y-84653138D01*
X125293837Y-85244268D01*
X125519576Y-85790598D01*
X125937203Y-86208955D01*
X126483138Y-86435647D01*
X127074268Y-86436163D01*
X127620598Y-86210424D01*
X128038955Y-85792797D01*
X128265647Y-85246862D01*
X128266163Y-84655732D01*
X128040424Y-84109402D01*
X127622797Y-83691045D01*
X127249453Y-83536019D01*
X127537629Y-82976489D01*
X127598534Y-82243525D01*
X127374309Y-81543047D01*
X127073831Y-81000971D01*
X129474802Y-78600000D01*
X129792964Y-78600000D01*
X129860998Y-78764655D01*
X130320387Y-79224846D01*
X130920913Y-79474206D01*
X131571154Y-79474774D01*
X132172115Y-79226462D01*
X132632306Y-78767073D01*
X132881666Y-78166547D01*
X132882234Y-77516306D01*
X132633922Y-76915345D01*
X132174533Y-76455154D01*
X131574007Y-76205794D01*
X130923766Y-76205226D01*
X130322805Y-76453538D01*
X129862614Y-76912927D01*
X129793239Y-77080000D01*
X129546480Y-77080000D01*
X129546480Y-76648310D01*
X129387730Y-76489560D01*
X127538480Y-76489560D01*
X127538480Y-77588810D01*
X127697230Y-77747560D01*
X128177638Y-77747560D01*
X126248467Y-79676731D01*
X126058197Y-79451975D01*
X126029167Y-79226922D01*
X125663091Y-78589008D01*
X125080762Y-78139743D01*
X124370834Y-77947524D01*
X123641387Y-78041614D01*
X123003472Y-78407691D01*
X122554207Y-78990020D01*
X122361988Y-79699948D01*
X122316742Y-80363630D01*
X121123258Y-80363630D01*
X121078012Y-79699948D01*
X120885793Y-78990020D01*
X120436528Y-78407691D01*
X119980000Y-78145706D01*
X119980000Y-76648310D01*
X125276480Y-76648310D01*
X125276480Y-77238869D01*
X125373153Y-77472258D01*
X125551781Y-77650887D01*
X125785170Y-77747560D01*
X127125730Y-77747560D01*
X127284480Y-77588810D01*
X127284480Y-76489560D01*
X125435230Y-76489560D01*
X125276480Y-76648310D01*
X119980000Y-76648310D01*
X119980000Y-75486251D01*
X125276480Y-75486251D01*
X125276480Y-76076810D01*
X125435230Y-76235560D01*
X127284480Y-76235560D01*
X127284480Y-75136310D01*
X127538480Y-75136310D01*
X127538480Y-76235560D01*
X129387730Y-76235560D01*
X129546480Y-76076810D01*
X129546480Y-75486251D01*
X129449807Y-75252862D01*
X129271179Y-75074233D01*
X129037790Y-74977560D01*
X127697230Y-74977560D01*
X127538480Y-75136310D01*
X127284480Y-75136310D01*
X127125730Y-74977560D01*
X125785170Y-74977560D01*
X125551781Y-75074233D01*
X125373153Y-75252862D01*
X125276480Y-75486251D01*
X119980000Y-75486251D01*
X119980000Y-67898076D01*
X120208901Y-68127377D01*
X121174784Y-68528447D01*
X122220627Y-68529360D01*
X123187209Y-68129976D01*
X123927377Y-67391099D01*
X124328447Y-66425216D01*
X124329360Y-65379373D01*
X123929976Y-64412791D01*
X123191099Y-63672623D01*
X122225216Y-63271553D01*
X121179373Y-63270640D01*
X120212791Y-63670024D01*
X119980000Y-63902409D01*
X119980000Y-63478439D01*
X120242862Y-63005197D01*
X120663091Y-62680992D01*
X121029167Y-62043078D01*
X121123258Y-61313631D01*
X121078012Y-60649948D01*
X120885793Y-59940020D01*
X120436528Y-59357691D01*
X119798613Y-58991615D01*
X119076529Y-58898474D01*
X119083443Y-58895617D01*
X119116618Y-58862500D01*
X121732198Y-58862500D01*
X122335099Y-59465401D01*
X122581660Y-59630148D01*
X122765119Y-59666640D01*
X122554207Y-59940020D01*
X122361988Y-60649948D01*
X122316742Y-61313630D01*
X122410833Y-62043077D01*
X122776909Y-62680992D01*
X123359238Y-63130257D01*
X123427287Y-63148682D01*
X124076993Y-64320781D01*
X124552211Y-64882131D01*
X125206076Y-65218892D01*
X125445640Y-65238798D01*
X125294353Y-65603138D01*
X125293837Y-66194268D01*
X125519576Y-66740598D01*
X125937203Y-67158955D01*
X126483138Y-67385647D01*
X127074268Y-67386163D01*
X127620598Y-67160424D01*
X128038955Y-66742797D01*
X128265647Y-66196862D01*
X128266163Y-65605732D01*
X128040424Y-65059402D01*
X127622797Y-64641045D01*
X127249453Y-64486019D01*
X127537629Y-63926489D01*
X127598534Y-63193525D01*
X127374309Y-62493047D01*
X126796063Y-61449865D01*
X128907000Y-63560802D01*
X128907000Y-69133280D01*
X125947040Y-69133280D01*
X125711723Y-69177558D01*
X125495599Y-69316630D01*
X125350609Y-69528830D01*
X125299600Y-69780720D01*
X125299600Y-69915500D01*
X124450963Y-69915500D01*
X124418827Y-69883308D01*
X124075299Y-69740662D01*
X123703333Y-69740338D01*
X123359557Y-69882383D01*
X123096308Y-70145173D01*
X122953662Y-70488701D01*
X122953338Y-70860667D01*
X123095383Y-71204443D01*
X123358173Y-71467692D01*
X123701701Y-71610338D01*
X124073667Y-71610662D01*
X124417443Y-71468617D01*
X124450618Y-71435500D01*
X125328724Y-71435500D01*
X125343878Y-71516037D01*
X125482950Y-71732161D01*
X125695150Y-71877151D01*
X125851633Y-71908840D01*
X125653303Y-71946158D01*
X125437179Y-72085230D01*
X125292189Y-72297430D01*
X125241180Y-72549320D01*
X125241180Y-74049320D01*
X125285458Y-74284637D01*
X125424530Y-74500761D01*
X125636730Y-74645751D01*
X125888620Y-74696760D01*
X128888620Y-74696760D01*
X129123937Y-74652482D01*
X129258135Y-74566128D01*
X129480201Y-74658338D01*
X129852167Y-74658662D01*
X130195943Y-74516617D01*
X130364884Y-74347970D01*
X133953070Y-74347970D01*
X133953070Y-76346950D01*
X133997348Y-76582267D01*
X134136420Y-76798391D01*
X134348620Y-76943381D01*
X134600510Y-76994390D01*
X136599490Y-76994390D01*
X136834807Y-76950112D01*
X137050931Y-76811040D01*
X137195921Y-76598840D01*
X137246930Y-76346950D01*
X137246930Y-74347970D01*
X137202652Y-74112653D01*
X137063580Y-73896529D01*
X136851380Y-73751539D01*
X136599490Y-73700530D01*
X134600510Y-73700530D01*
X134365193Y-73744808D01*
X134149069Y-73883880D01*
X134004079Y-74096080D01*
X133953070Y-74347970D01*
X130364884Y-74347970D01*
X130459192Y-74253827D01*
X130601838Y-73910299D01*
X130602162Y-73538333D01*
X130461098Y-73196930D01*
X132296950Y-73196930D01*
X132532267Y-73152652D01*
X132748391Y-73013580D01*
X132893381Y-72801380D01*
X132944390Y-72549490D01*
X132944390Y-70550510D01*
X132900112Y-70315193D01*
X132761040Y-70099069D01*
X132548840Y-69954079D01*
X132296950Y-69903070D01*
X130427000Y-69903070D01*
X130427000Y-64428061D01*
X130923453Y-64634206D01*
X131573694Y-64634774D01*
X132174655Y-64386462D01*
X132634846Y-63927073D01*
X132884206Y-63326547D01*
X132884774Y-62676306D01*
X132647062Y-62101000D01*
X134493000Y-62101000D01*
X134783839Y-62043148D01*
X135030401Y-61878401D01*
X136420693Y-60488109D01*
X136404649Y-60612496D01*
X136128467Y-60938158D01*
X135265812Y-62491234D01*
X135040976Y-63191516D01*
X135101242Y-63924533D01*
X135356742Y-64421683D01*
X134829402Y-64639576D01*
X134411045Y-65057203D01*
X134184353Y-65603138D01*
X134183837Y-66194268D01*
X134409576Y-66740598D01*
X134827203Y-67158955D01*
X135373138Y-67385647D01*
X135964268Y-67386163D01*
X136510598Y-67160424D01*
X136928955Y-66742797D01*
X137155647Y-66196862D01*
X137156163Y-65605732D01*
X137010658Y-65253582D01*
X137431667Y-65218968D01*
X137510000Y-65178710D01*
X137510000Y-78112461D01*
X137409238Y-78139743D01*
X136826909Y-78589008D01*
X136460833Y-79226923D01*
X136404649Y-79662496D01*
X136128467Y-79988158D01*
X135265812Y-81541234D01*
X135040976Y-82241516D01*
X135101242Y-82974533D01*
X135356742Y-83471683D01*
X134829402Y-83689576D01*
X134411045Y-84107203D01*
X134184353Y-84653138D01*
X134183837Y-85244268D01*
X134409576Y-85790598D01*
X134827203Y-86208955D01*
X135373138Y-86435647D01*
X135964268Y-86436163D01*
X136510598Y-86210424D01*
X136928955Y-85792797D01*
X137155647Y-85246862D01*
X137156163Y-84655732D01*
X137010658Y-84303582D01*
X137431667Y-84268968D01*
X137510000Y-84228710D01*
X137510000Y-89270000D01*
X137567852Y-89560839D01*
X137732599Y-89807401D01*
X138490000Y-90564802D01*
X138490000Y-93087587D01*
X138463580Y-93046529D01*
X138251380Y-92901539D01*
X137999490Y-92850530D01*
X136000510Y-92850530D01*
X135765193Y-92894808D01*
X135698815Y-92937521D01*
X135281653Y-91927913D01*
X133978945Y-90622929D01*
X132276003Y-89915806D01*
X130432086Y-89914197D01*
X128727913Y-90618347D01*
X127422929Y-91921055D01*
X126754512Y-93530782D01*
X126337073Y-93112614D01*
X125736547Y-92863254D01*
X125086306Y-92862686D01*
X124485345Y-93110998D01*
X124025154Y-93570387D01*
X123775794Y-94170913D01*
X123775226Y-94821154D01*
X124023538Y-95422115D01*
X124482927Y-95882306D01*
X124650000Y-95951681D01*
X124650000Y-96410000D01*
X124707852Y-96700839D01*
X124872599Y-96947401D01*
X125230340Y-97305142D01*
X125080762Y-97189743D01*
X124370834Y-96997524D01*
X123641387Y-97091614D01*
X123003472Y-97457691D01*
X122554207Y-98040020D01*
X122361988Y-98749948D01*
X122316742Y-99413630D01*
X122410833Y-100143077D01*
X122776909Y-100780992D01*
X123359238Y-101230257D01*
X123427287Y-101248682D01*
X124076993Y-102420781D01*
X124552211Y-102982131D01*
X125206076Y-103318892D01*
X125445640Y-103338798D01*
X125294353Y-103703138D01*
X125293837Y-104294268D01*
X125519576Y-104840598D01*
X125937203Y-105258955D01*
X126483138Y-105485647D01*
X127074268Y-105486163D01*
X127620598Y-105260424D01*
X128038955Y-104842797D01*
X128265647Y-104296862D01*
X128266163Y-103705732D01*
X128040424Y-103159402D01*
X127622797Y-102741045D01*
X127249453Y-102586019D01*
X127537629Y-102026489D01*
X127598534Y-101293525D01*
X127374309Y-100593047D01*
X126513007Y-99039219D01*
X126058197Y-98501975D01*
X126029167Y-98276922D01*
X125796256Y-97871058D01*
X135212599Y-107287401D01*
X135459160Y-107452148D01*
X135750000Y-107510000D01*
X143250000Y-107510000D01*
X143540839Y-107452148D01*
X143787401Y-107287401D01*
X144537401Y-106537401D01*
X144702148Y-106290840D01*
X144760000Y-106000000D01*
X144760000Y-105031355D01*
X144987203Y-105258955D01*
X145533138Y-105485647D01*
X146124268Y-105486163D01*
X146670598Y-105260424D01*
X147088955Y-104842797D01*
X147315647Y-104296862D01*
X147316163Y-103705732D01*
X147090424Y-103159402D01*
X146672797Y-102741045D01*
X146299453Y-102586019D01*
X146587629Y-102026489D01*
X146648534Y-101293525D01*
X146424309Y-100593047D01*
X145563007Y-99039219D01*
X145108197Y-98501975D01*
X145079167Y-98276922D01*
X144713091Y-97639008D01*
X144130762Y-97189743D01*
X143420834Y-96997524D01*
X142691387Y-97091614D01*
X142053472Y-97457691D01*
X141604207Y-98040020D01*
X141411988Y-98749948D01*
X141366742Y-99413630D01*
X141460833Y-100143077D01*
X141826909Y-100780992D01*
X142409238Y-101230257D01*
X142477287Y-101248682D01*
X143126993Y-102420781D01*
X143240000Y-102554270D01*
X143240000Y-103142096D01*
X142979976Y-102512791D01*
X142241099Y-101772623D01*
X141275216Y-101371553D01*
X140229373Y-101370640D01*
X139262791Y-101770024D01*
X138522623Y-102508901D01*
X138121553Y-103474784D01*
X138120640Y-104520627D01*
X138520024Y-105487209D01*
X139021938Y-105990000D01*
X136064802Y-105990000D01*
X135560613Y-105485811D01*
X135964268Y-105486163D01*
X136510598Y-105260424D01*
X136928955Y-104842797D01*
X137155647Y-104296862D01*
X137156163Y-103705732D01*
X137010658Y-103353582D01*
X137431667Y-103318968D01*
X138085825Y-102982777D01*
X138561532Y-102421842D01*
X139292862Y-101105197D01*
X139713091Y-100780992D01*
X140079167Y-100143078D01*
X140173258Y-99413631D01*
X140128012Y-98749948D01*
X140000357Y-98278477D01*
X140010000Y-98230000D01*
X140010000Y-90250000D01*
X140002756Y-90213580D01*
X139952148Y-89959160D01*
X139787401Y-89712599D01*
X139030000Y-88955198D01*
X139030000Y-86948076D01*
X139258901Y-87177377D01*
X140224784Y-87578447D01*
X141270627Y-87579360D01*
X142237209Y-87179976D01*
X142977377Y-86441099D01*
X143378447Y-85475216D01*
X143379360Y-84429373D01*
X142979976Y-83462791D01*
X142241099Y-82722623D01*
X141275216Y-82321553D01*
X140229373Y-82320640D01*
X139262791Y-82720024D01*
X139030000Y-82952409D01*
X139030000Y-82528439D01*
X139292862Y-82055197D01*
X139713091Y-81730992D01*
X140079167Y-81093078D01*
X140173258Y-80363631D01*
X140128012Y-79699948D01*
X139935793Y-78990020D01*
X139486528Y-78407691D01*
X139030000Y-78145706D01*
X139030000Y-67898076D01*
X139258901Y-68127377D01*
X140224784Y-68528447D01*
X141270627Y-68529360D01*
X142237209Y-68129976D01*
X142977377Y-67391099D01*
X143378447Y-66425216D01*
X143379360Y-65379373D01*
X142979976Y-64412791D01*
X142241099Y-63672623D01*
X141275216Y-63271553D01*
X140229373Y-63270640D01*
X139262791Y-63670024D01*
X139030000Y-63902409D01*
X139030000Y-63478439D01*
X139292862Y-63005197D01*
X139713091Y-62680992D01*
X140079167Y-62043078D01*
X140173258Y-61313631D01*
X140173258Y-61313630D01*
X141366742Y-61313630D01*
X141460833Y-62043077D01*
X141826909Y-62680992D01*
X142409238Y-63130257D01*
X142477287Y-63148682D01*
X143126993Y-64320781D01*
X143585000Y-64861801D01*
X143585000Y-73932460D01*
X143642852Y-74223299D01*
X143807599Y-74469861D01*
X144194115Y-74856377D01*
X144125794Y-75020913D01*
X144125226Y-75671154D01*
X144373538Y-76272115D01*
X144832927Y-76732306D01*
X145433453Y-76981666D01*
X146083694Y-76982234D01*
X146684655Y-76733922D01*
X147144846Y-76274533D01*
X147394206Y-75674007D01*
X147394774Y-75023766D01*
X147146462Y-74422805D01*
X146687073Y-73962614D01*
X146086547Y-73713254D01*
X145436306Y-73712686D01*
X145269111Y-73781769D01*
X145105000Y-73617658D01*
X145105000Y-67207869D01*
X145533138Y-67385647D01*
X146124268Y-67386163D01*
X146670598Y-67160424D01*
X147088955Y-66742797D01*
X147315647Y-66196862D01*
X147316163Y-65605732D01*
X147090424Y-65059402D01*
X146672797Y-64641045D01*
X146299453Y-64486019D01*
X146587629Y-63926489D01*
X146648534Y-63193525D01*
X146424309Y-62493047D01*
X145563007Y-60939219D01*
X145108197Y-60401975D01*
X145079167Y-60176922D01*
X144713091Y-59539008D01*
X144130762Y-59089743D01*
X143420834Y-58897524D01*
X142691387Y-58991614D01*
X142053472Y-59357691D01*
X141604207Y-59940020D01*
X141411988Y-60649948D01*
X141366742Y-61313630D01*
X140173258Y-61313630D01*
X140128012Y-60649948D01*
X140059157Y-60395645D01*
X141487401Y-58967401D01*
X141652148Y-58720840D01*
X141710000Y-58430000D01*
X141710000Y-50450000D01*
X141652148Y-50159161D01*
X141487401Y-49912599D01*
X141053973Y-49479171D01*
X141270627Y-49479360D01*
X142237209Y-49079976D01*
X142977377Y-48341099D01*
X143378447Y-47375216D01*
X143379360Y-46329373D01*
X142979976Y-45362791D01*
X142241099Y-44622623D01*
X141275216Y-44221553D01*
X140229373Y-44220640D01*
X139262791Y-44620024D01*
X138522623Y-45358901D01*
X138121553Y-46324784D01*
X138121359Y-46546557D01*
X138105000Y-46530198D01*
X138105000Y-45810167D01*
X138561532Y-45271842D01*
X139292862Y-43955197D01*
X139713091Y-43630992D01*
X140079167Y-42993078D01*
X140173258Y-42263631D01*
X140173258Y-42263630D01*
X141366742Y-42263630D01*
X141460833Y-42993077D01*
X141826909Y-43630992D01*
X142409238Y-44080257D01*
X142477287Y-44098682D01*
X143126993Y-45270781D01*
X143585000Y-45811801D01*
X143585000Y-54532460D01*
X143642852Y-54823299D01*
X143807599Y-55069861D01*
X144494115Y-55756377D01*
X144425794Y-55920913D01*
X144425226Y-56571154D01*
X144673538Y-57172115D01*
X145132927Y-57632306D01*
X145733453Y-57881666D01*
X146383694Y-57882234D01*
X146984655Y-57633922D01*
X147444846Y-57174533D01*
X147694206Y-56574007D01*
X147694774Y-55923766D01*
X147446462Y-55322805D01*
X146987073Y-54862614D01*
X146386547Y-54613254D01*
X145736306Y-54612686D01*
X145569111Y-54681769D01*
X145105000Y-54217658D01*
X145105000Y-48157869D01*
X145533138Y-48335647D01*
X146124268Y-48336163D01*
X146670598Y-48110424D01*
X147088955Y-47692797D01*
X147315647Y-47146862D01*
X147316163Y-46555732D01*
X147090424Y-46009402D01*
X146672797Y-45591045D01*
X146299453Y-45436019D01*
X146587629Y-44876489D01*
X146648534Y-44143525D01*
X146424309Y-43443047D01*
X145563007Y-41889219D01*
X145108197Y-41351975D01*
X145079167Y-41126922D01*
X144713091Y-40489008D01*
X144130762Y-40039743D01*
X143420834Y-39847524D01*
X142691387Y-39941614D01*
X142053472Y-40307691D01*
X141604207Y-40890020D01*
X141411988Y-41599948D01*
X141366742Y-42263630D01*
X140173258Y-42263630D01*
X140128012Y-41599948D01*
X139935793Y-40890020D01*
X139486528Y-40307691D01*
X138848613Y-39941615D01*
X138119166Y-39847524D01*
X137409238Y-40039743D01*
X136826909Y-40489008D01*
X136460833Y-41126923D01*
X136404649Y-41562496D01*
X136128467Y-41888158D01*
X135265812Y-43441234D01*
X135040976Y-44141516D01*
X135101242Y-44874533D01*
X135437433Y-45528691D01*
X135998368Y-46004398D01*
X136585000Y-46192745D01*
X136585000Y-46845000D01*
X136642852Y-47135839D01*
X136807599Y-47382401D01*
X137139012Y-47713814D01*
X137125729Y-47714479D01*
X137114250Y-47703000D01*
X136511690Y-47703000D01*
X136463780Y-47722845D01*
X136463780Y-46702980D01*
X136419502Y-46467663D01*
X136280430Y-46251539D01*
X136068230Y-46106549D01*
X135816340Y-46055540D01*
X133586640Y-46055540D01*
X133586662Y-46030133D01*
X133444617Y-45686357D01*
X133181827Y-45423108D01*
X132838299Y-45280462D01*
X132697514Y-45280339D01*
X132852733Y-44906530D01*
X132853265Y-44295869D01*
X132620068Y-43731489D01*
X132188643Y-43299309D01*
X131624670Y-43065127D01*
X131014009Y-43064595D01*
X130449629Y-43297792D01*
X130017449Y-43729217D01*
X129783267Y-44293190D01*
X129782735Y-44903851D01*
X130005341Y-45442600D01*
X129936249Y-45442600D01*
X129922182Y-45367843D01*
X129783110Y-45151719D01*
X129570910Y-45006729D01*
X129319020Y-44955720D01*
X127496822Y-44955720D01*
X127537629Y-44876489D01*
X127598534Y-44143525D01*
X127376208Y-43448980D01*
X129319020Y-43448980D01*
X129554337Y-43404702D01*
X129770461Y-43265630D01*
X129915451Y-43053430D01*
X129933946Y-42962100D01*
X132000181Y-42962100D01*
X132057673Y-43019692D01*
X132401201Y-43162338D01*
X132773167Y-43162662D01*
X133116943Y-43020617D01*
X133380192Y-42757827D01*
X133522838Y-42414299D01*
X133523162Y-42042333D01*
X133381117Y-41698557D01*
X133118327Y-41435308D01*
X132774799Y-41292662D01*
X132402833Y-41292338D01*
X132059057Y-41434383D01*
X132051327Y-41442100D01*
X129936249Y-41442100D01*
X129922182Y-41367343D01*
X129783110Y-41151219D01*
X129570910Y-41006229D01*
X129319020Y-40955220D01*
X127501022Y-40955220D01*
X126995042Y-40449240D01*
X129319020Y-40449240D01*
X129554337Y-40404962D01*
X129770461Y-40265890D01*
X129915451Y-40053690D01*
X129915996Y-40050996D01*
X130106167Y-40051162D01*
X130142915Y-40035978D01*
X130178701Y-40050838D01*
X130550667Y-40051162D01*
X130894443Y-39909117D01*
X131157692Y-39646327D01*
X131300338Y-39302799D01*
X131300485Y-39134603D01*
X131624531Y-39134885D01*
X132188911Y-38901688D01*
X132621091Y-38470263D01*
X132855273Y-37906290D01*
X132855805Y-37295629D01*
X132622608Y-36731249D01*
X132191183Y-36299069D01*
X131627210Y-36064887D01*
X131016549Y-36064355D01*
X130452169Y-36297552D01*
X130019989Y-36728977D01*
X129785807Y-37292950D01*
X129785275Y-37903611D01*
X129899882Y-38180981D01*
X129802039Y-38180896D01*
X129783110Y-38151479D01*
X129570910Y-38006489D01*
X129319020Y-37955480D01*
X126819660Y-37955480D01*
X126584343Y-37999758D01*
X126368219Y-38138830D01*
X126223229Y-38351030D01*
X126172220Y-38602920D01*
X126172220Y-39626418D01*
X125973401Y-39427599D01*
X125726839Y-39262852D01*
X125436000Y-39205000D01*
X121525136Y-39205000D01*
X121771705Y-39155954D01*
X122002046Y-39002046D01*
X126044092Y-34960000D01*
X137705908Y-34960000D01*
X142247954Y-39502046D01*
G36*
X137547000Y-49049110D02*
X137547000Y-49150890D01*
X137450890Y-49247000D01*
X137329110Y-49247000D01*
X137253000Y-49170890D01*
X137253000Y-49029110D01*
X137329110Y-48953000D01*
X137450890Y-48953000D01*
X137547000Y-49049110D01*
X137547000Y-49049110D01*
G37*
X137547000Y-49049110D02*
X137547000Y-49150890D01*
X137450890Y-49247000D01*
X137329110Y-49247000D01*
X137253000Y-49170890D01*
X137253000Y-49029110D01*
X137329110Y-48953000D01*
X137450890Y-48953000D01*
X137547000Y-49049110D01*
G36*
X125797000Y-48949110D02*
X125797000Y-49050890D01*
X125700890Y-49147000D01*
X125579110Y-49147000D01*
X125503000Y-49070890D01*
X125503000Y-48929110D01*
X125579110Y-48853000D01*
X125700890Y-48853000D01*
X125797000Y-48949110D01*
X125797000Y-48949110D01*
G37*
X125797000Y-48949110D02*
X125797000Y-49050890D01*
X125700890Y-49147000D01*
X125579110Y-49147000D01*
X125503000Y-49070890D01*
X125503000Y-48929110D01*
X125579110Y-48853000D01*
X125700890Y-48853000D01*
X125797000Y-48949110D01*
M02*
